<svg width="900" height="74" viewBox="0 0 900 74" fill="none" xmlns="http://www.w3.org/2000/svg">
<path d="M453.51 40.4725L453.533 38.9727L453.51 40.4725ZM0 74L15.5959 66.4655L1.27283 56.7263L0 74ZM12.4506 61.176C15.0434 58.7182 18.0989 56.1761 21.6305 53.7777L19.945 51.2959C16.2642 53.7956 13.0833 56.4426 10.3867 58.9988L12.4506 61.176ZM31.8867 48.018C35.2885 46.4768 38.9875 45.1422 42.991 44.1219L42.2502 41.2149C38.0677 42.2807 34.2027 43.6752 30.6486 45.2853L31.8867 48.018ZM54.5911 42.2061C56.5049 42.0531 58.4743 41.9725 60.5 41.9725V38.9725C58.3946 38.9725 56.3455 39.0562 54.3521 39.2156L54.5911 42.2061ZM60.5 41.9725C62.3675 41.9725 64.2778 41.9715 66.2294 41.9695L66.2263 38.9695C64.2757 38.9715 62.3665 38.9725 60.5 38.9725V41.9725ZM77.8309 41.9484C81.5539 41.9389 85.3985 41.9269 89.3574 41.9127L89.3466 38.9127C85.3886 38.9269 81.5451 38.9389 77.8232 38.9484L77.8309 41.9484ZM100.912 41.8666C104.682 41.8503 108.539 41.8325 112.478 41.8134L112.464 38.8134C108.525 38.8325 104.668 38.8503 100.899 38.8667L100.912 41.8666ZM124.046 41.7554C127.836 41.7357 131.693 41.7153 135.611 41.6942L135.595 38.6943C131.677 38.7153 127.82 38.7358 124.03 38.7554L124.046 41.7554ZM147.174 41.6315C150.977 41.6108 154.832 41.5896 158.734 41.5684L158.718 38.5684C154.816 38.5897 150.961 38.6108 147.158 38.6316L147.174 41.6315ZM170.293 41.5057C174.106 41.4852 177.96 41.4648 181.851 41.4444L181.835 38.4445C177.944 38.4648 174.09 38.4853 170.277 38.5058L170.293 41.5057ZM193.41 41.3853C197.233 41.3662 201.088 41.3474 204.971 41.329L204.957 38.329C201.073 38.3474 197.218 38.3662 193.395 38.3853L193.41 41.3853ZM216.533 41.2761C220.364 41.2592 224.22 41.2429 228.097 41.2273L228.085 38.2273C224.207 38.2429 220.351 38.2592 216.52 38.2761L216.533 41.2761ZM239.663 41.183C243.501 41.1692 247.357 41.1561 251.23 41.144L251.22 38.144C247.347 38.1562 243.49 38.1692 239.652 38.1831L239.663 41.183ZM262.784 41.1108C266.623 41.1007 270.476 41.0917 274.339 41.0838L274.333 38.0838C270.469 38.0917 266.616 38.1007 262.776 38.1108L262.784 41.1108ZM285.898 41.0636C289.744 41.0581 293.598 41.0538 297.459 41.0509L297.456 38.0509C293.595 38.0538 289.74 38.0581 285.894 38.0636L285.898 41.0636ZM309.02 41.0461C312.87 41.046 316.725 41.0472 320.581 41.05L320.583 38.05C316.726 38.0472 312.871 38.046 309.02 38.0461L309.02 41.0461ZM332.139 41.0631C335.994 41.0691 339.848 41.0768 343.699 41.0862L343.706 38.0862C339.854 38.0768 335.999 38.0692 332.144 38.0632L332.139 41.0631ZM355.26 41.12C359.119 41.1332 362.973 41.1482 366.82 41.1653L366.834 38.1653C362.986 38.1482 359.13 38.1332 355.27 38.12L355.26 41.12ZM378.379 41.2229C382.242 41.2443 386.095 41.2678 389.935 41.2937L389.956 38.2937C386.114 38.2679 382.26 38.2443 378.396 38.2229L378.379 41.2229ZM401.487 41.3788C405.356 41.4098 409.21 41.4433 413.047 41.4793L413.075 38.4795C409.237 38.4434 405.381 38.4099 401.511 38.3789L401.487 41.3788ZM424.611 41.5966C428.487 41.6389 432.342 41.684 436.173 41.7321L436.211 38.7323C432.377 38.6842 428.521 38.6391 424.644 38.5968L424.611 41.5966ZM447.734 41.8872C449.658 41.9148 451.576 41.9431 453.487 41.9723L453.533 38.9727C451.621 38.9435 449.702 38.9151 447.777 38.8875L447.734 41.8872ZM453.487 41.9723C455.497 42.003 457.494 42.0328 459.479 42.0618L459.523 39.0621C457.538 39.0332 455.542 39.0034 453.533 38.9727L453.487 41.9723ZM471.376 42.2269C475.388 42.2797 479.353 42.329 483.273 42.375L483.308 39.3752C479.39 39.3292 475.427 39.2799 471.415 39.2271L471.376 42.2269ZM495.171 42.5056C499.182 42.5467 503.147 42.5842 507.07 42.6185L507.096 39.6186C503.175 39.5844 499.211 39.5468 495.201 39.5058L495.171 42.5056ZM518.97 42.7134C522.978 42.7423 526.944 42.7678 530.871 42.7902L530.888 39.7902C526.962 39.7679 522.998 39.7424 518.992 39.7135L518.97 42.7134ZM542.771 42.8489C546.773 42.8657 550.739 42.8792 554.671 42.8899L554.679 39.8899C550.748 39.8793 546.785 39.8657 542.784 39.849L542.771 42.8489ZM566.569 42.9136C570.563 42.9187 574.527 42.9209 578.466 42.9206L578.466 39.9206C574.528 39.9209 570.566 39.9187 566.573 39.9136L566.569 42.9136ZM590.362 42.912C594.346 42.9066 598.31 42.8988 602.258 42.8889L602.25 39.8889C598.304 39.8988 594.341 39.9066 590.358 39.912L590.362 42.912ZM614.162 42.8528C618.138 42.8387 622.103 42.8228 626.062 42.8052L626.049 39.8053C622.09 39.8228 618.126 39.8387 614.151 39.8528L614.162 42.8528ZM637.961 42.7481C641.925 42.7276 645.889 42.7059 649.859 42.6833L649.842 39.6833C645.872 39.706 641.909 39.7277 637.945 39.7481L637.961 42.7481ZM661.758 42.6128C665.713 42.5887 669.678 42.564 673.66 42.5388L673.641 39.5389C669.659 39.564 665.694 39.5888 661.74 39.6129L661.758 42.6128ZM685.558 42.4633C689.499 42.4383 693.462 42.4132 697.451 42.3883L697.432 39.3883C693.443 39.4132 689.48 39.4383 685.539 39.4634L685.558 42.4633ZM709.344 42.3155C713.278 42.2919 717.242 42.2689 721.239 42.2465L721.222 39.2466C717.224 39.2689 713.261 39.292 709.326 39.3155L709.344 42.3155ZM733.135 42.183C737.063 42.163 741.027 42.144 745.031 42.1261L745.018 39.1262C741.013 39.144 737.048 39.1631 733.119 39.183L733.135 42.183ZM756.928 42.077C760.851 42.0622 764.816 42.0487 768.824 42.0366L768.815 39.0366C764.806 39.0487 760.841 39.0622 756.917 39.077L756.928 42.077ZM780.72 42.0056C784.64 41.997 788.604 41.9899 792.616 41.9846L792.612 38.9846C788.6 38.9899 784.635 38.997 780.714 39.0056L780.72 42.0056ZM804.511 41.9739C806.495 41.973 808.492 41.9725 810.5 41.9725V38.9725C808.491 38.9725 806.494 38.973 804.51 38.9739L804.511 41.9739ZM810.5 41.9725C812.639 41.9725 814.741 41.9202 816.804 41.8194L816.658 38.823C814.643 38.9214 812.59 38.9725 810.5 38.9725V41.9725ZM829.341 40.5711C833.649 39.9179 837.76 39.0568 841.675 38.0315L840.915 35.1294C837.1 36.1285 833.092 36.968 828.892 37.605L829.341 40.5711ZM853.668 34.1917C857.784 32.6248 861.625 30.8957 865.19 29.0767L863.826 26.4044C860.353 28.1768 856.611 29.8614 852.601 31.388L853.668 34.1917ZM876.097 22.7491C879.956 20.2239 883.342 17.682 886.254 15.2845L884.348 12.9682C881.512 15.3022 878.214 17.7783 874.454 20.2389L876.097 22.7491ZM895.506 6.71176C896.889 5.25822 897.93 4.06504 898.629 3.23041C898.979 2.81307 899.243 2.48528 899.421 2.25931C899.511 2.14632 899.579 2.05877 899.625 1.9982C899.648 1.96792 899.666 1.94438 899.679 1.92777C899.685 1.91947 899.69 1.9129 899.694 1.90808C899.696 1.90568 899.697 1.90371 899.698 1.90219C899.699 1.90142 899.699 1.90077 899.7 1.90023C899.7 1.89996 899.7 1.89972 899.7 1.8995C899.7 1.89939 899.701 1.89925 899.701 1.8992C899.701 1.89907 899.701 1.89894 898.5 1C897.299 0.101059 897.299 0.100947 897.299 0.100841C897.299 0.100815 897.299 0.100717 897.299 0.100665C897.3 0.100561 897.3 0.100484 897.3 0.100436C897.3 0.100338 897.3 0.100352 897.3 0.100475C897.299 0.100721 897.299 0.101408 897.298 0.102532C897.296 0.10478 897.293 0.108778 897.289 0.114501C897.28 0.125947 897.266 0.144295 897.247 0.169354C897.209 0.219473 897.149 0.296433 897.068 0.398713C896.906 0.60328 896.66 0.909089 896.329 1.30398C895.668 2.09382 894.668 3.23966 893.332 4.6443L895.506 6.71176Z" fill="#535353"/>
</svg>
