<svg width="190" height="40" viewBox="0 0 190 40" fill="none" xmlns="http://www.w3.org/2000/svg">
<path d="M189.5 38.5L189.997 21.1866L174.754 29.4132L189.5 38.5ZM2 38.5C3.32303 39.2068 3.32291 39.2071 3.32279 39.2073C3.32275 39.2073 3.32264 39.2075 3.32257 39.2077C3.32243 39.2079 3.32231 39.2082 3.3222 39.2084C3.32198 39.2088 3.32181 39.2091 3.3217 39.2093C3.32148 39.2097 3.32148 39.2097 3.32171 39.2093C3.32215 39.2085 3.32349 39.206 3.32573 39.2019C3.33021 39.1938 3.3383 39.1791 3.3501 39.1582C3.37371 39.1163 3.41213 39.0493 3.46616 38.9586C3.5742 38.7771 3.7446 38.5007 3.98347 38.1409C4.4612 37.4212 5.21279 36.3678 6.28714 35.0722L3.97779 33.1573C2.83223 34.5388 2.01758 35.678 1.48406 36.4817C1.2173 36.8835 1.02082 37.2015 0.888388 37.424C0.822172 37.5352 0.771965 37.6225 0.73699 37.6846C0.719502 37.7156 0.705822 37.7402 0.695851 37.7584C0.690866 37.7675 0.686808 37.7749 0.683666 37.7807C0.682095 37.7836 0.680753 37.7861 0.679637 37.7882C0.67908 37.7892 0.678579 37.7902 0.678135 37.791C0.677913 37.7914 0.677705 37.7918 0.677511 37.7922C0.677415 37.7924 0.67728 37.7926 0.677231 37.7927C0.6771 37.7929 0.676973 37.7932 2 38.5ZM13.7493 27.6773C16.1261 25.6937 18.9744 23.5897 22.3576 21.483L20.7718 18.9363C17.2688 21.1177 14.3082 23.3033 11.827 25.3741L13.7493 27.6773ZM31.6903 16.4088C34.6754 14.9948 37.9449 13.6253 41.5202 12.3399L40.5052 9.5168C36.8393 10.8348 33.4799 12.2416 30.4061 13.6975L31.6903 16.4088ZM51.7362 9.15508C55.0025 8.28137 58.4721 7.48212 62.1555 6.77704L61.5915 3.83054C57.8385 4.54893 54.2985 5.36423 50.961 6.25696L51.7362 9.15508ZM72.7328 5.10323C76.1242 4.67302 79.67 4.32023 83.3762 4.0562L83.1631 1.06378C79.4031 1.33164 75.8025 1.68979 72.3553 2.12708L72.7328 5.10323ZM94.1004 3.55983C95.8678 3.52027 97.6675 3.5 99.5 3.5V0.5C97.6454 0.5 95.8233 0.520512 94.0333 0.560582L94.1004 3.55983ZM99.5 3.5C101.67 3.5 103.788 3.52842 105.855 3.58363L105.935 0.584701C103.841 0.52876 101.696 0.5 99.5 0.5V3.5ZM118.505 4.29607C122.953 4.68708 127.122 5.21216 131.032 5.84891L131.514 2.88793C127.529 2.23883 123.286 1.7048 118.768 1.3076L118.505 4.29607ZM143.409 8.42911C147.809 9.56637 151.788 10.8535 155.384 12.2393L156.463 9.43998C152.755 8.01127 148.666 6.68946 144.16 5.52458L143.409 8.42911ZM166.726 17.555C170.847 19.8884 174.208 22.3092 176.939 24.6449L178.889 22.365C176.011 19.9036 172.491 17.3722 168.204 14.9444L166.726 17.555Z" fill="#535353"/>
</svg>
