<svg width="190" height="39" viewBox="0 0 190 39" fill="none" xmlns="http://www.w3.org/2000/svg">
<path d="M189.5 1L189.997 18.3134L174.754 10.0868L189.5 1ZM2 1C3.32303 0.293179 3.32291 0.29295 3.32279 0.292732C3.32275 0.292667 3.32264 0.292454 3.32257 0.292324C3.32243 0.292068 3.32231 0.291836 3.3222 0.29163C3.32198 0.291218 3.32181 0.290909 3.3217 0.290703C3.32148 0.290295 3.32148 0.290295 3.32171 0.290707C3.32215 0.291531 3.32349 0.293995 3.32573 0.298077C3.33021 0.30624 3.3383 0.320877 3.3501 0.341801C3.37371 0.383652 3.41213 0.450661 3.46616 0.541405C3.5742 0.722885 3.7446 0.999268 3.98347 1.3591C4.4612 2.07876 5.21279 3.13218 6.28714 4.42784L3.97779 6.34275C2.83223 4.96122 2.01758 3.82199 1.48406 3.0183C1.2173 2.61646 1.02082 2.29849 0.888388 2.07604C0.822172 1.96482 0.771965 1.87747 0.73699 1.81545C0.719502 1.78444 0.705822 1.75976 0.695851 1.7416C0.690866 1.73251 0.686808 1.72506 0.683666 1.71926C0.682095 1.71635 0.680753 1.71387 0.679637 1.71179C0.67908 1.71075 0.678579 1.70982 0.678135 1.709C0.677913 1.70858 0.677705 1.70819 0.677511 1.70783C0.677415 1.70765 0.67728 1.7074 0.677231 1.70731C0.6771 1.70706 0.676973 1.70682 2 1ZM13.7493 11.8227C16.1261 13.8063 18.9744 15.9103 22.3576 18.017L20.7718 20.5637C17.2688 18.3823 14.3082 16.1967 11.827 14.1259L13.7493 11.8227ZM31.6903 23.0912C34.6754 24.5052 37.9449 25.8747 41.5202 27.1601L40.5052 29.9832C36.8393 28.6652 33.4799 27.2584 30.4061 25.8025L31.6903 23.0912ZM51.7362 30.3449C55.0025 31.2186 58.4721 32.0179 62.1555 32.723L61.5915 35.6695C57.8385 34.9511 54.2985 34.1358 50.961 33.243L51.7362 30.3449ZM72.7328 34.3968C76.1242 34.827 79.67 35.1798 83.3762 35.4438L83.1631 38.4362C79.4031 38.1684 75.8025 37.8102 72.3553 37.3729L72.7328 34.3968ZM94.1004 35.9402C95.8678 35.9797 97.6675 36 99.5 36V39C97.6454 39 95.8233 38.9795 94.0333 38.9394L94.1004 35.9402ZM99.5 36C101.67 36 103.788 35.9716 105.855 35.9164L105.935 38.9153C103.841 38.9712 101.696 39 99.5 39V36ZM118.505 35.2039C122.953 34.8129 127.122 34.2878 131.032 33.6511L131.514 36.6121C127.529 37.2612 123.286 37.7952 118.768 38.1924L118.505 35.2039ZM143.409 31.0709C147.809 29.9336 151.788 28.6465 155.384 27.2607L156.463 30.06C152.755 31.4887 148.666 32.8105 144.16 33.9754L143.409 31.0709ZM166.726 21.945C170.847 19.6116 174.208 17.1908 176.939 14.8551L178.889 17.135C176.011 19.5964 172.491 22.1278 168.204 24.5556L166.726 21.945Z" fill="#535353"/>
</svg>
