<svg width="67" height="279" viewBox="0 0 67 279" fill="none" xmlns="http://www.w3.org/2000/svg">
<path d="M66.2203 278.024L49.1923 274.854L60.4516 261.692L66.2203 278.024ZM52.826 5.61599L51.9855 6.8584L49.5007 5.17744L50.3411 3.93502L52.826 5.61599ZM41.8879 16.9595L42.6796 15.6855L45.2277 17.2689L44.436 18.5429L41.8879 16.9595ZM40.2012 25.5273L39.4378 26.8185L36.8553 25.2917L37.6187 24.0005L40.2012 25.5273ZM29.9971 37.5665L30.7018 36.2424L33.3501 37.6519L32.6454 38.976L29.9971 37.5665ZM28.8953 46.2431L28.2246 47.5848L25.5412 46.2436L26.2118 44.9018L28.8953 46.2431ZM19.612 58.9968L20.212 57.622L22.9616 58.8219L22.3616 60.1967L19.612 58.9968ZM19.2022 67.7375L18.6434 69.1295L15.8593 68.0119L16.4182 66.6199L19.2022 67.7375ZM11.0449 81.2464L11.5188 79.8232L14.3651 80.7708L13.8913 82.194L11.0449 81.2464ZM11.4426 89.991L11.0181 91.4297L8.14075 90.5806L8.56526 89.142L11.4426 89.991ZM4.66979 104.233L4.99315 102.768L7.92261 103.415L7.59925 104.879L4.66979 104.233ZM5.99237 112.905L5.72736 114.382L2.77455 113.852L3.03956 112.375L5.99237 112.905ZM0.891726 127.773L1.03934 126.28L4.02479 126.576L3.87717 128.068L0.891726 127.773ZM3.2526 136.235L3.17193 137.733L0.17627 137.572L0.256941 136.074L3.2526 136.235ZM0.0976648 151.675L0.0463252 150.176L3.04457 150.073L3.09591 151.572L0.0976648 151.675ZM3.57407 159.73L3.69853 161.225L0.708874 161.473L0.584415 159.979L3.57407 159.73ZM2.60452 175.439L2.34001 173.963L5.29299 173.434L5.5575 174.91L2.60452 175.439ZM7.2028 182.91L7.54253 184.371L4.62049 185.051L4.28076 183.59L7.2028 182.91ZM8.5422 198.593L8.06319 197.172L10.9061 196.214L11.3851 197.635L8.5422 198.593ZM14.1918 205.307L14.743 206.702L11.953 207.805L11.4017 206.41L14.1918 205.307ZM17.8178 220.63L17.1373 219.294L19.8107 217.933L20.4913 219.269L17.8178 220.63ZM24.378 226.458L25.1236 227.76L22.5203 229.251L21.7748 227.949L24.378 226.458ZM30.1246 241.117L29.2661 239.887L31.7261 238.17L32.5846 239.4L30.1246 241.117ZM37.418 245.997L38.3319 247.186L35.9529 249.014L35.0391 247.824L37.418 245.997ZM45.0356 259.776L44.0273 258.666L46.2485 256.649L47.2567 257.76L45.0356 259.776ZM52.8838 263.702L53.9376 264.77L51.8026 266.877L50.7488 265.81L52.8838 263.702ZM62.0979 276.471L60.9675 275.485L62.9394 273.225L64.0698 274.21L62.0979 276.471ZM55.1747 2.18083C54.3819 3.32829 53.599 4.47335 52.826 5.61599L50.3411 3.93502C51.1197 2.78415 51.9082 1.63095 52.7066 0.475419L55.1747 2.18083ZM44.436 18.5429C42.9827 20.8817 41.5713 23.2099 40.2012 25.5273L37.6187 24.0005C39.0002 21.6638 40.4231 19.3168 41.8879 16.9595L44.436 18.5429ZM32.6454 38.976C31.3495 41.4109 30.0997 43.8332 28.8953 46.2431L26.2118 44.9018C27.4278 42.4688 28.6894 40.0237 29.9971 37.5665L32.6454 38.976ZM22.3616 60.1967C21.2582 62.725 20.2054 65.2387 19.2022 67.7375L16.4182 66.6199C17.4326 64.093 18.4969 61.552 19.612 58.9968L22.3616 60.1967ZM13.8913 82.194C13.0203 84.8103 12.2044 87.4094 11.4426 89.991L8.56526 89.142C9.3369 86.5269 10.1631 83.895 11.0449 81.2464L13.8913 82.194ZM7.59925 104.879C7.00411 107.575 6.46892 110.25 5.99237 112.905L3.03956 112.375C3.52319 109.681 4.06619 106.967 4.66979 104.233L7.59925 104.879ZM3.87717 128.068C3.6056 130.814 3.39793 133.537 3.2526 136.235L0.256941 136.074C0.404698 133.331 0.615796 130.563 0.891726 127.773L3.87717 128.068ZM3.09591 151.572C3.18996 154.318 3.34995 157.038 3.57407 159.73L0.584415 159.979C0.356222 157.238 0.193386 154.47 0.0976648 151.675L3.09591 151.572ZM5.5575 174.91C6.04062 177.607 6.58973 180.274 7.2028 182.91L4.28076 183.59C3.65611 180.903 3.09669 178.186 2.60452 175.439L5.5575 174.91ZM11.3851 197.635C12.2578 200.225 13.1941 202.782 14.1918 205.307L11.4017 206.41C10.3853 203.838 9.43141 201.232 8.5422 198.593L11.3851 197.635ZM20.4913 219.269C21.7288 221.7 23.0251 224.096 24.378 226.458L21.7748 227.949C20.3977 225.545 19.0779 223.105 17.8178 220.63L20.4913 219.269ZM32.5846 239.4C34.1439 241.634 35.7558 243.833 37.418 245.997L35.0391 247.824C33.3494 245.625 31.7105 243.389 30.1246 241.117L32.5846 239.4ZM47.2567 257.76C49.0876 259.776 50.9641 261.757 52.8838 263.702L50.7488 265.81C48.8002 263.836 46.895 261.824 45.0356 259.776L47.2567 257.76Z" fill="#535353"/>
</svg>
