<svg width="147" height="147" viewBox="0 0 147 147" fill="none" xmlns="http://www.w3.org/2000/svg">
<g filter="url(#filter0_d_19_230)">
<path d="M73.2683 76.4799C73.0723 76.4783 72.883 76.4078 72.7336 76.2805L61.875 66.84V80.5916C61.875 80.8068 61.9602 81.0132 62.1119 81.1653C62.2636 81.3175 62.4694 81.403 62.6839 81.403H83.8527C83.9644 81.4077 84.076 81.3894 84.1803 81.3491C84.2847 81.3088 84.3797 81.2474 84.4594 81.1687C84.5391 81.0901 84.6019 80.9958 84.6437 80.8918C84.6856 80.7878 84.7057 80.6762 84.7028 80.5641V66.8125L73.803 76.2805C73.6542 76.4088 73.4646 76.4795 73.2683 76.4799Z" fill="white"/>
<path d="M73.3076 50C68.6978 50 64.1915 51.3711 60.3586 53.9399C56.5257 56.5086 53.5383 60.1597 51.7742 64.4315C50.0101 68.7032 49.5485 73.4037 50.4479 77.9385C51.3472 82.4734 53.567 86.6389 56.8267 89.9083C60.0863 93.1777 64.2393 95.4043 68.7605 96.3063C73.2818 97.2083 77.9682 96.7454 82.2271 94.976C86.486 93.2066 90.1261 90.2102 92.6872 86.3657C95.2483 82.5213 96.6153 78.0014 96.6153 73.3777C96.6153 67.1776 94.1596 61.2314 89.7886 56.8472C85.4176 52.463 79.4892 50 73.3076 50V50ZM86.2914 80.563C86.2878 81.2104 86.0293 81.8302 85.5722 82.2874C85.1151 82.7445 84.4964 83.0021 83.8509 83.0039H62.6821C62.0354 83.0021 61.4157 82.7436 60.9584 82.2849C60.5012 81.8263 60.2435 81.2047 60.2417 80.5561V65.8625C60.2435 65.2139 60.5012 64.5923 60.9584 64.1336C61.4157 63.675 62.0354 63.4165 62.6821 63.4147H83.8509C84.4976 63.4165 85.1173 63.675 85.5746 64.1336C86.0318 64.5923 86.2896 65.2139 86.2914 65.8625V80.563Z" fill="white"/>
<path d="M84.1608 65.1234C84.0637 65.0797 83.9587 65.0563 83.8523 65.0547H62.6835C62.5771 65.0563 62.4721 65.0797 62.375 65.1234L73.2679 74.5914L84.1608 65.1234Z" fill="white"/>
</g>
<defs>
<filter id="filter0_d_19_230" x="0" y="0" width="146.615" height="146.755" filterUnits="userSpaceOnUse" color-interpolation-filters="sRGB">
<feFlood flood-opacity="0" result="BackgroundImageFix"/>
<feColorMatrix in="SourceAlpha" type="matrix" values="0 0 0 0 0 0 0 0 0 0 0 0 0 0 0 0 0 0 127 0" result="hardAlpha"/>
<feOffset/>
<feGaussianBlur stdDeviation="25"/>
<feComposite in2="hardAlpha" operator="out"/>
<feColorMatrix type="matrix" values="0 0 0 0 0 0 0 0 0 0 0 0 0 0 0 0 0 0 0.25 0"/>
<feBlend mode="normal" in2="BackgroundImageFix" result="effect1_dropShadow_19_230"/>
<feBlend mode="normal" in="SourceGraphic" in2="effect1_dropShadow_19_230" result="shape"/>
</filter>
</defs>
</svg>
