<svg width="30" height="30" viewBox="0 0 30 30" fill="none" xmlns="http://www.w3.org/2000/svg">
<g clip-path="url(#clip0_2_4760)">
<path d="M23.75 0H6.25C4.59301 0.00198482 3.00445 0.661102 1.83277 1.83277C0.661102 3.00445 0.00198482 4.59301 0 6.25L0 23.75C0.00198482 25.407 0.661102 26.9956 1.83277 28.1672C3.00445 29.3389 4.59301 29.998 6.25 30H23.75C25.407 29.998 26.9956 29.3389 28.1672 28.1672C29.3389 26.9956 29.998 25.407 30 23.75V6.25C29.998 4.59301 29.3389 3.00445 28.1672 1.83277C26.9956 0.661102 25.407 0.00198482 23.75 0V0ZM27.5 23.75C27.5 24.7446 27.1049 25.6984 26.4017 26.4017C25.6984 27.1049 24.7446 27.5 23.75 27.5H6.25C5.25544 27.5 4.30161 27.1049 3.59835 26.4017C2.89509 25.6984 2.5 24.7446 2.5 23.75V6.25C2.5 5.25544 2.89509 4.30161 3.59835 3.59835C4.30161 2.89509 5.25544 2.5 6.25 2.5H23.75C24.7446 2.5 25.6984 2.89509 26.4017 3.59835C27.1049 4.30161 27.5 5.25544 27.5 6.25V23.75Z" fill="url(#paint0_linear_2_4760)"/>
<path d="M11.6663 19.8978L6.76752 14.999C6.53311 14.7647 6.21522 14.633 5.88377 14.633C5.55231 14.633 5.23443 14.7647 5.00002 14.999C4.76568 15.2334 4.63403 15.5513 4.63403 15.8828C4.63403 16.2142 4.76568 16.5321 5.00002 16.7665L9.89877 21.6653C10.1309 21.8975 10.4066 22.0818 10.7099 22.2075C11.0133 22.3332 11.3385 22.3979 11.6669 22.3979C11.9953 22.3979 12.3205 22.3332 12.6238 22.2075C12.9272 22.0818 13.2029 21.8975 13.435 21.6653L25 10.1003C25.2344 9.86587 25.366 9.54798 25.366 9.21653C25.366 8.88507 25.2344 8.56719 25 8.33278C24.7656 8.09844 24.4477 7.9668 24.1163 7.9668C23.7848 7.9668 23.4669 8.09844 23.2325 8.33278L11.6663 19.8978Z" fill="url(#paint1_linear_2_4760)"/>
</g>
<defs>
<linearGradient id="paint0_linear_2_4760" x1="-0.045269" y1="14.9728" x2="30" y2="14.9728" gradientUnits="userSpaceOnUse">
<stop stop-color="#4EB1D6"/>
<stop offset="1" stop-color="#3783AD"/>
</linearGradient>
<linearGradient id="paint1_linear_2_4760" x1="4.60275" y1="15.1693" x2="25.366" y2="15.1693" gradientUnits="userSpaceOnUse">
<stop stop-color="#4EB1D6"/>
<stop offset="1" stop-color="#3783AD"/>
</linearGradient>
<clipPath id="clip0_2_4760">
<rect width="30" height="30" fill="white"/>
</clipPath>
</defs>
</svg>
