<svg width="26" height="26" viewBox="0 0 26 26" fill="none" xmlns="http://www.w3.org/2000/svg">
<path d="M13 0C5.84193 0 0 5.84233 0 13C0 20.1581 5.84233 26 13 26C20.1581 26 26 20.1576 26 13C26 5.84193 20.1577 0 13 0ZM13 24.4766C6.67179 24.4766 1.52344 19.3282 1.52344 13C1.52344 6.67179 6.67179 1.52344 13 1.52344C19.3282 1.52344 24.4766 6.67179 24.4766 13C24.4766 19.3282 19.3282 24.4766 13 24.4766Z" fill="white"/>
<path d="M6.53662 20.2258C6.9573 20.2258 7.29834 19.8848 7.29834 19.4641C7.29834 19.0434 6.9573 18.7024 6.53662 18.7024C6.11593 18.7024 5.7749 19.0434 5.7749 19.4641C5.7749 19.8848 6.11593 20.2258 6.53662 20.2258Z" fill="white"/>
<path d="M19.4634 7.2976C19.8841 7.2976 20.2251 6.95657 20.2251 6.53589C20.2251 6.1152 19.8841 5.77417 19.4634 5.77417C19.0427 5.77417 18.7017 6.1152 18.7017 6.53589C18.7017 6.95657 19.0427 7.2976 19.4634 7.2976Z" fill="white"/>
<path d="M5.99801 6.00045C5.70053 6.29793 5.70053 6.7802 5.99801 7.07767C6.29549 7.37515 6.77775 7.37515 7.07523 7.07767C7.37271 6.7802 7.37271 6.29793 7.07523 6.00045C6.7778 5.70297 6.29549 5.70297 5.99801 6.00045Z" fill="white"/>
<path d="M18.9248 18.9223C18.6273 19.2198 18.6273 19.7021 18.9248 19.9996C19.2222 20.297 19.7045 20.297 20.002 19.9996C20.2995 19.7021 20.2995 19.2198 20.002 18.9223C19.7045 18.6248 19.2222 18.6248 18.9248 18.9223Z" fill="white"/>
<path d="M13 6.14429C13.4207 6.14429 13.7617 5.80324 13.7617 5.38257V3.85913C13.7617 3.43846 13.4207 3.09741 13 3.09741C12.5793 3.09741 12.2383 3.43846 12.2383 3.85913V5.38257C12.2383 5.80324 12.5793 6.14429 13 6.14429Z" fill="white"/>
<path d="M13 19.8557C12.5793 19.8557 12.2383 20.1968 12.2383 20.6174V22.1409C12.2383 22.5615 12.5793 22.9026 13 22.9026C13.4207 22.9026 13.7617 22.5615 13.7617 22.1409V20.6174C13.7617 20.1968 13.4207 19.8557 13 19.8557Z" fill="white"/>
<path d="M6.14453 12.9998C6.14453 12.5791 5.80348 12.238 5.38281 12.238H3.85938C3.4387 12.238 3.09766 12.5791 3.09766 12.9998C3.09766 13.4204 3.4387 13.7615 3.85938 13.7615H5.38281C5.80348 13.7615 6.14453 13.4204 6.14453 12.9998Z" fill="white"/>
<path d="M19.8555 12.9998C19.8555 13.4204 20.1965 13.7615 20.6172 13.7615H22.1406C22.5613 13.7615 22.9023 13.4204 22.9023 12.9998C22.9023 12.5791 22.5613 12.238 22.1406 12.238H20.6172C20.1965 12.238 19.8555 12.5791 19.8555 12.9998Z" fill="white"/>
<path d="M13.7617 12.6847V8.42993C13.7617 8.00926 13.4207 7.66821 13 7.66821C12.5793 7.66821 12.2383 8.00926 12.2383 8.42993V13.0002C12.2383 13.2023 12.3186 13.396 12.4614 13.5389L17.0317 18.1092C17.3292 18.4066 17.8115 18.4067 18.109 18.1092C18.4064 17.8117 18.4064 17.3294 18.109 17.032L13.7617 12.6847Z" fill="white"/>
</svg>
