<svg width="30" height="30" viewBox="0 0 30 30" fill="none" xmlns="http://www.w3.org/2000/svg">
<g clip-path="url(#clip0_534:6203)">
<path d="M28.9859 5.90916L19.8961 14.9999L28.9859 24.0902C30.338 25.4428 30.338 27.6338 28.9859 28.9864C28.3103 29.662 27.4246 30 26.5394 30C25.6526 30 24.7669 29.6625 24.0918 28.9864L15 19.8951L5.90892 28.9863C5.23345 29.6619 4.34766 29.9999 3.46161 29.9999C2.57583 29.9999 1.69064 29.6624 1.01456 28.9863C-0.337499 27.6343 -0.337499 25.4433 1.01456 24.0902L10.1041 14.9998L1.01405 5.90916C-0.338016 4.5571 -0.338016 2.36558 1.01405 1.01352C2.36585 -0.337514 4.55608 -0.337514 5.9084 1.01352L14.9999 10.1043L24.0908 1.01352C25.4434 -0.337514 27.6338 -0.337514 28.9854 1.01352C30.338 2.36558 30.338 4.5571 28.9859 5.90916Z" fill="white"/>
</g>
<defs>
<clipPath id="clip0_534:6203">
<rect width="30" height="30" fill="white"/>
</clipPath>
</defs>
</svg>
