<svg width="16" height="21" viewBox="0 0 16 21" fill="none" xmlns="http://www.w3.org/2000/svg">
<path d="M1.84615 20.8H14.1538C15.1719 20.8 16 19.9799 16 18.9719V6.09375H11.6923C10.6743 6.09375 9.84615 5.27369 9.84615 4.26562V0H1.84615C0.828144 0 0 0.820056 0 1.82812V18.9719C0 19.9799 0.828144 20.8 1.84615 20.8ZM4.30769 8.57187H11.6923C12.0325 8.57187 12.3077 8.84443 12.3077 9.18125C12.3077 9.51807 12.0325 9.79062 11.6923 9.79062H4.30769C3.96755 9.79062 3.69231 9.51807 3.69231 9.18125C3.69231 8.84443 3.96755 8.57187 4.30769 8.57187ZM4.30769 11.0094H11.6923C12.0325 11.0094 12.3077 11.2819 12.3077 11.6187C12.3077 11.9556 12.0325 12.2281 11.6923 12.2281H4.30769C3.96755 12.2281 3.69231 11.9556 3.69231 11.6187C3.69231 11.2819 3.96755 11.0094 4.30769 11.0094ZM4.30769 13.4469H11.6923C12.0325 13.4469 12.3077 13.7194 12.3077 14.0562C12.3077 14.3931 12.0325 14.6656 11.6923 14.6656H4.30769C3.96755 14.6656 3.69231 14.3931 3.69231 14.0562C3.69231 13.7194 3.96755 13.4469 4.30769 13.4469ZM4.30769 15.8844H9.23077C9.57091 15.8844 9.84615 16.1569 9.84615 16.4937C9.84615 16.8306 9.57091 17.1031 9.23077 17.1031H4.30769C3.96755 17.1031 3.69231 16.8306 3.69231 16.4937C3.69231 16.1569 3.96755 15.8844 4.30769 15.8844Z" fill="url(#paint0_linear_536:8)"/>
<path d="M11.7754 4.79987H15.4666L11.2 0.533203V4.22439C11.2 4.5419 11.4579 4.79987 11.7754 4.79987Z" fill="url(#paint1_linear_536:8)"/>
<defs>
<linearGradient id="paint0_linear_536:8" x1="-0.0241435" y1="10.3812" x2="16" y2="10.3812" gradientUnits="userSpaceOnUse">
<stop stop-color="#4EB1D6"/>
<stop offset="1" stop-color="#3783AD"/>
</linearGradient>
<linearGradient id="paint1_linear_536:8" x1="11.1935" y1="2.66267" x2="15.4666" y2="2.66267" gradientUnits="userSpaceOnUse">
<stop stop-color="#4EB1D6"/>
<stop offset="1" stop-color="#3783AD"/>
</linearGradient>
</defs>
</svg>
