<svg width="25" height="25" viewBox="0 0 25 25" fill="none" xmlns="http://www.w3.org/2000/svg">
<path d="M24.2188 3H0.78125C0.35 3 0 3.34844 0 3.78125V5.34375C0 5.775 0.35 6.125 0.78125 6.125H1.5625V18.625C1.5625 19.4875 2.26406 20.1875 3.125 20.1875H11.7188V22.1125L9.72344 23.4437C9.36406 23.6828 9.26719 24.1688 9.50625 24.5266C9.74375 24.8844 10.2266 24.9813 10.5891 24.7438L12.5 23.4703L14.4109 24.7438C14.5437 24.8328 14.6938 24.875 14.8438 24.875C15.0953 24.875 15.3422 24.7531 15.4938 24.5266C15.7328 24.1688 15.6359 23.6828 15.2766 23.4437L13.2812 22.1125V20.1875H21.875C22.7375 20.1875 23.4375 19.4875 23.4375 18.625V6.125H24.2188C24.65 6.125 25 5.775 25 5.34375V3.78125C25 3.34844 24.65 3 24.2188 3ZM6.25 17.0625H4.6875V12.375H6.25V17.0625ZM9.375 17.0625H7.8125V9.25H9.375V17.0625ZM16.4062 17.0625C14.2516 17.0625 12.5 15.3094 12.5 13.1562C12.5 11.2703 13.8438 9.69219 15.625 9.32969V13.9375H20.2328C19.8703 15.7188 18.2938 17.0625 16.4062 17.0625ZM17.1875 12.375V9.32969C18.7156 9.64062 19.9219 10.8469 20.2328 12.375H17.1875Z" fill="url(#paint0_linear)"/>
<defs>
<linearGradient id="paint0_linear" x1="-0.0918407" y1="11.1176" x2="25.1304" y2="11.4111" gradientUnits="userSpaceOnUse">
<stop stop-color="#EC526E"/>
<stop offset="1" stop-color="#EC593D"/>
</linearGradient>
</defs>
</svg>
