<svg width="65" height="70" viewBox="0 0 65 70" fill="none" xmlns="http://www.w3.org/2000/svg">
<path d="M55.8058 22.5345H39.8979C39.7574 22.522 39.6158 22.5389 39.4822 22.5841C39.3486 22.6293 39.2258 22.7018 39.1218 22.797C39.0177 22.8922 38.9346 23.008 38.8777 23.1371C38.8209 23.2662 38.7915 23.4057 38.7915 23.5468C38.7915 23.6878 38.8209 23.8273 38.8777 23.9564C38.9346 24.0855 39.0177 24.2013 39.1218 24.2965C39.2258 24.3918 39.3486 24.4643 39.4822 24.5094C39.6158 24.5546 39.7574 24.5715 39.8979 24.559H55.8058C55.9463 24.5715 56.0878 24.5546 56.2214 24.5094C56.355 24.4643 56.4778 24.3918 56.5819 24.2965C56.6859 24.2013 56.769 24.0855 56.8259 23.9564C56.8828 23.8273 56.9121 23.6878 56.9121 23.5468C56.9121 23.4057 56.8828 23.2662 56.8259 23.1371C56.769 23.008 56.6859 22.8922 56.5819 22.797C56.4778 22.7018 56.355 22.6293 56.2214 22.5841C56.0878 22.5389 55.9463 22.522 55.8058 22.5345Z" fill="url(#paint0_linear_946_10491)"/>
<path d="M55.8057 27.8384H39.8978C39.6283 27.8384 39.3698 27.9455 39.1792 28.136C38.9886 28.3266 38.8815 28.5851 38.8815 28.8546C38.8815 29.1241 38.9886 29.3826 39.1792 29.5732C39.3698 29.7638 39.6283 29.8709 39.8978 29.8709H55.8057C56.0752 29.8709 56.3337 29.7638 56.5243 29.5732C56.7149 29.3826 56.822 29.1241 56.822 28.8546C56.822 28.5851 56.7149 28.3266 56.5243 28.136C56.3337 27.9455 56.0752 27.8384 55.8057 27.8384Z" fill="url(#paint1_linear_946_10491)"/>
<path d="M55.8058 38.4571H39.8979C39.7574 38.4446 39.6158 38.4615 39.4822 38.5067C39.3486 38.5519 39.2258 38.6244 39.1218 38.7196C39.0177 38.8148 38.9346 38.9307 38.8777 39.0597C38.8209 39.1888 38.7915 39.3283 38.7915 39.4694C38.7915 39.6104 38.8209 39.7499 38.8777 39.879C38.9346 40.0081 39.0177 40.1239 39.1218 40.2192C39.2258 40.3144 39.3486 40.3869 39.4822 40.432C39.6158 40.4772 39.7574 40.4941 39.8979 40.4816H55.8058C55.9463 40.4941 56.0878 40.4772 56.2214 40.432C56.355 40.3869 56.4778 40.3144 56.5819 40.2192C56.6859 40.1239 56.769 40.0081 56.8259 39.879C56.8828 39.7499 56.9121 39.6104 56.9121 39.4694C56.9121 39.3283 56.8828 39.1888 56.8259 39.0597C56.769 38.9307 56.6859 38.8148 56.5819 38.7196C56.4778 38.6244 56.355 38.5519 56.2214 38.5067C56.0878 38.4615 55.9463 38.4446 55.8058 38.4571Z" fill="url(#paint2_linear_946_10491)"/>
<path d="M55.8058 43.7623H39.8979C39.7574 43.7498 39.6158 43.7667 39.4822 43.8119C39.3486 43.8571 39.2258 43.9296 39.1218 44.0248C39.0177 44.12 38.9346 44.2358 38.8777 44.3649C38.8209 44.494 38.7915 44.6335 38.7915 44.7745C38.7915 44.9156 38.8209 45.0551 38.8777 45.1842C38.9346 45.3133 39.0177 45.4291 39.1218 45.5243C39.2258 45.6195 39.3486 45.692 39.4822 45.7372C39.6158 45.7824 39.7574 45.7993 39.8979 45.7868H55.8058C55.9463 45.7993 56.0878 45.7824 56.2214 45.7372C56.355 45.692 56.4778 45.6195 56.5819 45.5243C56.6859 45.4291 56.769 45.3133 56.8259 45.1842C56.8828 45.0551 56.9121 44.9156 56.9121 44.7745C56.9121 44.6335 56.8828 44.494 56.8259 44.3649C56.769 44.2358 56.6859 44.12 56.5819 44.0248C56.4778 43.9296 56.355 43.8571 56.2214 43.8119C56.0878 43.7667 55.9463 43.7498 55.8058 43.7623Z" fill="url(#paint3_linear_946_10491)"/>
<path d="M55.8057 33.1426H39.8978C39.6283 33.1426 39.3698 33.2496 39.1792 33.4402C38.9886 33.6308 38.8815 33.8893 38.8815 34.1588C38.8815 34.4283 38.9886 34.6868 39.1792 34.8774C39.3698 35.068 39.6283 35.1751 39.8978 35.1751H55.8057C56.0752 35.1751 56.3337 35.068 56.5243 34.8774C56.7149 34.6868 56.822 34.4283 56.822 34.1588C56.822 33.8893 56.7149 33.6308 56.5243 33.4402C56.3337 33.2496 56.0752 33.1426 55.8057 33.1426Z" fill="url(#paint4_linear_946_10491)"/>
<path d="M19.5248 46.2109C19.2553 46.2109 18.9968 46.318 18.8062 46.5086C18.6156 46.6992 18.5085 46.9577 18.5085 47.2272C18.5085 47.4967 18.6156 47.7552 18.8062 47.9458C18.9968 48.1364 19.2553 48.2434 19.5248 48.2434H20.5811C20.8506 48.2434 21.1091 48.1364 21.2997 47.9458C21.4902 47.7552 21.5973 47.4967 21.5973 47.2272C21.5973 46.9577 21.4902 46.6992 21.2997 46.5086C21.1091 46.318 20.8506 46.2109 20.5811 46.2109H19.5248Z" fill="url(#paint5_linear_946_10491)"/>
<path d="M14.2355 46.2109C13.966 46.2109 13.7075 46.318 13.5169 46.5086C13.3263 46.6992 13.2192 46.9577 13.2192 47.2272C13.2192 47.4967 13.3263 47.7552 13.5169 47.9458C13.7075 48.1364 13.966 48.2434 14.2355 48.2434H15.2998C15.5693 48.2434 15.8278 48.1364 16.0183 47.9458C16.2089 47.7552 16.316 47.4967 16.316 47.2272C16.316 46.9577 16.2089 46.6992 16.0183 46.5086C15.8278 46.318 15.5693 46.2109 15.2998 46.2109H14.2355Z" fill="url(#paint6_linear_946_10491)"/>
<path d="M24.8141 46.2109C24.5446 46.2109 24.2861 46.318 24.0955 46.5086C23.9049 46.6992 23.7979 46.9577 23.7979 47.2272C23.7979 47.4967 23.9049 47.7552 24.0955 47.9458C24.2861 48.1364 24.5446 48.2434 24.8141 48.2434H25.8704C26.1399 48.2434 26.3984 48.1364 26.5889 47.9458C26.7795 47.7552 26.8866 47.4967 26.8866 47.2272C26.8866 46.9577 26.7795 46.6992 26.5889 46.5086C26.3984 46.318 26.1399 46.2109 25.8704 46.2109H24.8141Z" fill="url(#paint7_linear_946_10491)"/>
<path d="M32.8641 31.5112C32.8641 28.9789 32.1132 26.5036 30.7064 24.3981C29.2995 22.2926 27.2999 20.6516 24.9605 19.6826C22.621 18.7136 20.0467 18.46 17.5632 18.954C15.0796 19.448 12.7983 20.6674 11.0077 22.458C9.21718 24.2485 7.99778 26.5298 7.50377 29.0134C7.00975 31.497 7.2633 34.0712 8.23234 36.4107C9.20138 38.7502 10.8424 40.7498 12.9479 42.1566C15.0533 43.5634 17.5287 44.3143 20.0609 44.3143C23.4565 44.3143 26.7131 42.9654 29.1141 40.5643C31.5152 38.1633 32.8641 34.9068 32.8641 31.5112ZM21.0692 20.7805C23.5645 21.0199 25.8987 22.1203 27.6712 23.8929C29.4438 25.6654 30.5441 27.9996 30.7835 30.4949H27.0146C26.7912 28.9977 26.0929 27.6119 25.0225 26.5416C23.9521 25.4712 22.5663 24.7729 21.0692 24.5494V20.7805ZM25.0702 31.5112C25.0702 32.5003 24.7768 33.4673 24.2273 34.2897C23.6777 35.1122 22.8966 35.7532 21.9828 36.1317C21.0689 36.5102 20.0634 36.6093 19.0932 36.4163C18.1231 36.2233 17.2319 35.747 16.5325 35.0476C15.8331 34.3481 15.3568 33.457 15.1638 32.4868C14.9708 31.5167 15.0698 30.5111 15.4484 29.5973C15.8269 28.6834 16.4679 27.9023 17.2904 27.3528C18.1128 26.8033 19.0798 26.5099 20.0689 26.5099C21.3919 26.5163 22.6586 27.0457 23.5926 27.9827C24.5266 28.9197 25.052 30.1882 25.0541 31.5112H25.0702ZM20.0689 42.2898C17.2983 42.2898 14.6341 41.2229 12.6293 39.3106C10.6245 37.3983 9.43299 34.7874 9.30223 32.0199C9.17147 29.2523 10.1115 26.5407 11.927 24.4479C13.7426 22.3551 16.2944 21.0417 19.0527 20.7805V24.5494C17.9931 24.7031 16.9826 25.0966 16.0981 25.7C15.2137 26.3033 14.4786 27.1007 13.9491 28.0312C13.4195 28.9617 13.1093 30.0008 13.0421 31.0694C12.975 32.1379 13.1527 33.2077 13.5617 34.1972C13.9707 35.1866 14.6001 36.0697 15.4021 36.779C16.2041 37.4883 17.1574 38.0052 18.1895 38.2903C19.2215 38.5753 20.3049 38.621 21.3573 38.4238C22.4096 38.2267 23.4031 37.7918 24.2619 37.1525L26.9266 39.8172C24.9954 41.4205 22.5629 42.2955 20.0529 42.2898H20.0689ZM25.6703 35.7202C26.3722 34.7803 26.8287 33.6802 26.9986 32.5194H30.7675C30.5701 34.6774 29.7187 36.7238 28.327 38.3849L25.6703 35.7202Z" fill="url(#paint8_linear_946_10491)"/>
<path d="M63.0475 33.2078C63.317 33.2078 63.5755 33.1008 63.7661 32.9102C63.9567 32.7196 64.0638 32.4611 64.0638 32.1916V15.9316C64.3443 15.7678 64.5778 15.5345 64.7418 15.2542C64.9058 14.9738 64.9947 14.6559 65 14.3312V11.7386C65 11.2377 64.801 10.7573 64.4469 10.4032C64.0927 10.049 63.6124 9.85008 63.1115 9.85008H57.5102L35.5928 2.37624C35.4111 1.69476 35.0094 1.09237 34.4501 0.662663C33.8909 0.232958 33.2053 0 32.5 0C31.7947 0 31.1092 0.232958 30.5499 0.662663C29.9906 1.09237 29.5889 1.69476 29.4072 2.37624L7.48986 9.85008H1.88848C1.38763 9.85008 0.907295 10.049 0.553139 10.4032C0.198983 10.7573 0 11.2377 0 11.7386V14.3312C0.00525647 14.6559 0.0941904 14.9738 0.258193 15.2542C0.422196 15.5345 0.655735 15.7678 0.936241 15.9316V51.5563C0.655735 51.7201 0.422196 51.9534 0.258193 52.2337C0.0941904 52.5141 0.00525647 52.832 0 53.1567V55.7414C0 56.2422 0.198983 56.7226 0.553139 57.0767C0.907295 57.4309 1.38763 57.6298 1.88848 57.6298H31.4958V62.9912C30.7747 63.2315 30.1628 63.7206 29.7694 64.3709C29.376 65.0211 29.2268 65.7902 29.3486 66.5404C29.4703 67.2906 29.855 67.973 30.4339 68.4655C31.0128 68.958 31.748 69.2285 32.508 69.2285C33.268 69.2285 34.0033 68.958 34.5821 68.4655C35.161 67.973 35.5457 67.2906 35.6675 66.5404C35.7892 65.7902 35.64 65.0211 35.2466 64.3709C34.8532 63.7206 34.2413 63.2315 33.5203 62.9912V57.6298H63.1275C63.6201 57.6257 64.0916 57.4293 64.4414 57.0825C64.7912 56.7357 64.9917 56.2659 65 55.7734V53.2127C64.9947 52.888 64.9058 52.5701 64.7418 52.2897C64.5778 52.0094 64.3443 51.7761 64.0638 51.6124V36.9448C64.0638 36.6752 63.9567 36.4167 63.7661 36.2261C63.5755 36.0356 63.317 35.9285 63.0475 35.9285C62.778 35.9285 62.5195 36.0356 62.3289 36.2261C62.1383 36.4167 62.0313 36.6752 62.0313 36.9448V51.3003H2.93673V16.1876H62.0313V32.1916C62.0313 32.325 62.0576 32.4572 62.1086 32.5805C62.1597 32.7038 62.2346 32.8158 62.3289 32.9102C62.4233 33.0045 62.5353 33.0794 62.6586 33.1305C62.7819 33.1815 62.9141 33.2078 63.0475 33.2078V33.2078ZM32.488 2.00015C32.7159 2.00015 32.9387 2.06772 33.1282 2.19434C33.3177 2.32095 33.4654 2.50093 33.5526 2.71148C33.6398 2.92203 33.6626 3.1537 33.6181 3.37722C33.5737 3.60074 33.4639 3.80606 33.3028 3.96721C33.1416 4.12836 32.9363 4.23811 32.7128 4.28257C32.4893 4.32703 32.2576 4.30422 32.047 4.217C31.8365 4.12979 31.6565 3.9821 31.5299 3.79261C31.4033 3.60312 31.3357 3.38034 31.3357 3.15244C31.3357 2.84683 31.4571 2.55373 31.6732 2.33764C31.8893 2.12154 32.1824 2.00015 32.488 2.00015V2.00015ZM33.6403 66.0159C33.6403 66.2438 33.5727 66.4666 33.4461 66.6561C33.3195 66.8456 33.1395 66.9933 32.929 67.0805C32.7184 67.1677 32.4867 67.1905 32.2632 67.146C32.0397 67.1016 31.8344 66.9918 31.6732 66.8307C31.5121 66.6695 31.4023 66.4642 31.3579 66.2407C31.3134 66.0172 31.3362 65.7855 31.4234 65.5749C31.5106 65.3644 31.6583 65.1844 31.8478 65.0578C32.0373 64.9312 32.2601 64.8636 32.488 64.8636C32.793 64.8657 33.0848 64.9878 33.3005 65.2034C33.5161 65.4191 33.6382 65.7109 33.6403 66.0159V66.0159ZM62.9675 53.3008V55.6133H2.00049V53.3088L62.9675 53.3008ZM2.00049 14.1632V11.8586H30.1194C30.3889 11.8586 30.6474 11.7515 30.838 11.5609C31.0286 11.3703 31.1357 11.1118 31.1357 10.8423C31.1357 10.5728 31.0286 10.3143 30.838 10.1237C30.6474 9.93315 30.3889 9.82607 30.1194 9.82607H13.7874L29.5913 4.40074C29.8507 4.94842 30.2603 5.4112 30.7723 5.73527C31.2844 6.05935 31.878 6.23139 32.484 6.23139C33.09 6.23139 33.6836 6.05935 34.1957 5.73527C34.7078 5.4112 35.1173 4.94842 35.3767 4.40074L51.2046 9.79406H34.8566C34.587 9.79406 34.3286 9.90113 34.138 10.0917C33.9474 10.2823 33.8403 10.5408 33.8403 10.8103C33.8403 11.0799 33.9474 11.3383 34.138 11.5289C34.3286 11.7195 34.587 11.8266 34.8566 11.8266H62.9675V14.1311L2.00049 14.1632Z" fill="url(#paint9_linear_946_10491)"/>
<defs>
<linearGradient id="paint0_linear_946_10491" x1="38.7642" y1="23.5449" x2="56.9121" y2="23.5449" gradientUnits="userSpaceOnUse">
<stop stop-color="#4EB1D6"/>
<stop offset="1" stop-color="#3783AD"/>
</linearGradient>
<linearGradient id="paint1_linear_946_10491" x1="38.8545" y1="28.8528" x2="56.8219" y2="28.8528" gradientUnits="userSpaceOnUse">
<stop stop-color="#4EB1D6"/>
<stop offset="1" stop-color="#3783AD"/>
</linearGradient>
<linearGradient id="paint2_linear_946_10491" x1="38.7642" y1="39.4675" x2="56.9121" y2="39.4675" gradientUnits="userSpaceOnUse">
<stop stop-color="#4EB1D6"/>
<stop offset="1" stop-color="#3783AD"/>
</linearGradient>
<linearGradient id="paint3_linear_946_10491" x1="38.7642" y1="44.7727" x2="56.9121" y2="44.7727" gradientUnits="userSpaceOnUse">
<stop stop-color="#4EB1D6"/>
<stop offset="1" stop-color="#3783AD"/>
</linearGradient>
<linearGradient id="paint4_linear_946_10491" x1="38.8545" y1="34.157" x2="56.8219" y2="34.157" gradientUnits="userSpaceOnUse">
<stop stop-color="#4EB1D6"/>
<stop offset="1" stop-color="#3783AD"/>
</linearGradient>
<linearGradient id="paint5_linear_946_10491" x1="18.5039" y1="47.2253" x2="21.5973" y2="47.2253" gradientUnits="userSpaceOnUse">
<stop stop-color="#4EB1D6"/>
<stop offset="1" stop-color="#3783AD"/>
</linearGradient>
<linearGradient id="paint6_linear_946_10491" x1="13.2146" y1="47.2253" x2="16.316" y2="47.2253" gradientUnits="userSpaceOnUse">
<stop stop-color="#4EB1D6"/>
<stop offset="1" stop-color="#3783AD"/>
</linearGradient>
<linearGradient id="paint7_linear_946_10491" x1="23.7932" y1="47.2253" x2="26.8866" y2="47.2253" gradientUnits="userSpaceOnUse">
<stop stop-color="#4EB1D6"/>
<stop offset="1" stop-color="#3783AD"/>
</linearGradient>
<linearGradient id="paint8_linear_946_10491" x1="7.21911" y1="31.488" x2="32.864" y2="31.488" gradientUnits="userSpaceOnUse">
<stop stop-color="#4EB1D6"/>
<stop offset="1" stop-color="#3783AD"/>
</linearGradient>
<linearGradient id="paint9_linear_946_10491" x1="-0.0980828" y1="34.5515" x2="65" y2="34.5515" gradientUnits="userSpaceOnUse">
<stop stop-color="#4EB1D6"/>
<stop offset="1" stop-color="#3783AD"/>
</linearGradient>
</defs>
</svg>
