<svg width="70" height="70" viewBox="0 0 70 70" fill="none" xmlns="http://www.w3.org/2000/svg">
<path d="M68.8851 13.0268L56.1929 0.334612C55.9729 0.12208 55.6796 0.002278 55.3737 0H26.5278C25.6106 0.0027393 24.7318 0.368312 24.0832 1.01688C23.4347 1.66544 23.0691 2.5443 23.0663 3.4615V10.4422C16.8512 10.7335 10.9872 13.4075 6.69183 17.9089C2.3965 22.4102 0 28.3931 0 34.615C0 40.8369 2.3965 46.8198 6.69183 51.3211C10.9872 55.8225 16.8512 58.4965 23.0663 58.7878V65.7685C23.0691 66.6857 23.4347 67.5646 24.0832 68.2131C24.7318 68.8617 25.6106 69.2273 26.5278 69.23H65.7582C66.6754 69.2273 67.5542 68.8617 68.2028 68.2131C68.8514 67.5646 69.2169 66.6857 69.2197 65.7685V13.846C69.2174 13.5401 69.0976 13.2468 68.8851 13.0268ZM56.5275 3.93457L65.2851 12.6922H57.6813C57.3753 12.6922 57.0818 12.5706 56.8655 12.3542C56.6491 12.1378 56.5275 11.8443 56.5275 11.5383V3.93457ZM2.29734 34.615C2.30485 29.0031 4.46162 23.6072 8.3244 19.5363C12.1872 15.4653 17.4625 13.0286 23.0663 12.7268V34.1419L7.95112 49.2571C4.31252 45.2486 2.29698 40.0287 2.29734 34.615ZM9.57803 50.8841L24.6932 35.7688H46.1084C45.8982 39.9033 44.5195 43.8932 42.1322 47.2754C39.745 50.6575 36.4473 53.293 32.622 54.8758C28.7968 56.4586 24.601 56.9237 20.5219 56.2171C16.4429 55.5105 12.648 53.6612 9.57803 50.8841ZM66.912 65.7685C66.912 66.0745 66.7904 66.368 66.5741 66.5844C66.3577 66.8008 66.0642 66.9223 65.7582 66.9223H26.5278C26.2218 66.9223 25.9283 66.8008 25.712 66.5844C25.4956 66.368 25.374 66.0745 25.374 65.7685V58.7878C31.5869 58.4877 37.4469 55.8113 41.7421 51.3121C46.0372 46.813 48.439 40.8352 48.4507 34.615C48.4507 34.309 48.3291 34.0155 48.1127 33.7991C47.8963 33.5827 47.6029 33.4612 47.2968 33.4612H25.374V3.4615C25.374 3.15548 25.4956 2.862 25.712 2.64562C25.9283 2.42923 26.2218 2.30767 26.5278 2.30767H54.2198V11.5383C54.2226 12.4555 54.5882 13.3344 55.2367 13.983C55.8853 14.6315 56.7641 14.9971 57.6813 14.9998H66.912V65.7685Z" fill="url(#paint0_linear_1948_184)"/>
<path d="M28.8355 5.76929C28.5295 5.76929 28.236 5.89085 28.0196 6.10724C27.8032 6.32362 27.6817 6.6171 27.6817 6.92312V29.9998C27.6817 30.3058 27.8032 30.5993 28.0196 30.8157C28.236 31.0321 28.5295 31.1536 28.8355 31.1536H51.9122C52.2182 31.1536 52.5117 31.0321 52.728 30.8157C52.9444 30.5993 53.066 30.3058 53.066 29.9998C53.059 23.5756 50.5039 17.4166 45.9613 12.874C41.4187 8.33142 35.2597 5.77631 28.8355 5.76929ZM29.9893 28.846V8.11157C35.3942 8.40178 40.5011 10.6795 44.3285 14.5068C48.1558 18.3341 50.4335 23.4411 50.7237 28.846H29.9893Z" fill="url(#paint1_linear_1948_184)"/>
<path d="M54.2198 43.8457C52.166 43.8457 50.1582 44.4547 48.4505 45.5958C46.7428 46.7369 45.4118 48.3587 44.6258 50.2562C43.8398 52.1537 43.6342 54.2417 44.0349 56.2561C44.4356 58.2705 45.4246 60.1209 46.8769 61.5732C48.3292 63.0255 50.1795 64.0145 52.1939 64.4152C54.2083 64.8159 56.2963 64.6102 58.1938 63.8242C60.0913 63.0383 61.7132 61.7072 62.8542 59.9995C63.9953 58.2918 64.6043 56.2841 64.6043 54.2302C64.6001 51.4774 63.5046 48.8385 61.5581 46.892C59.6115 44.9454 56.9727 43.85 54.2198 43.8457ZM54.2198 62.307C52.6224 62.307 51.0608 61.8333 49.7326 60.9458C48.4044 60.0583 47.3691 58.7969 46.7578 57.3211C46.1465 55.8452 45.9866 54.2212 46.2982 52.6545C46.6098 51.0877 47.3791 49.6486 48.5087 48.519C49.6382 47.3895 51.0774 46.6202 52.6441 46.3086C54.2109 45.9969 55.8349 46.1569 57.3107 46.7682C58.7866 47.3795 60.048 48.4147 60.9355 49.743C61.823 51.0712 62.2967 52.6328 62.2967 54.2302C62.2942 56.3716 61.4425 58.4245 59.9283 59.9387C58.4142 61.4529 56.3612 62.3046 54.2198 62.307Z" fill="url(#paint2_linear_1948_184)"/>
<path d="M51.9121 56.0601L49.2664 53.4144L47.6349 55.0459L51.0964 58.5074C51.3127 58.7237 51.6062 58.8452 51.9121 58.8452C52.2181 58.8452 52.5115 58.7237 52.7279 58.5074L59.6509 51.5844L58.0194 49.9529L51.9121 56.0601Z" fill="url(#paint3_linear_1948_184)"/>
<path d="M55.3737 19.6152H64.6043V21.9229H55.3737V19.6152Z" fill="url(#paint4_linear_1948_184)"/>
<path d="M55.3737 26.5396H64.6043V28.8472H55.3737V26.5396Z" fill="url(#paint5_linear_1948_184)"/>
<path d="M55.3737 33.46H64.6043V35.7676H55.3737V33.46Z" fill="url(#paint6_linear_1948_184)"/>
<defs>
<linearGradient id="paint0_linear_1948_184" x1="-0.10445" y1="34.5523" x2="69.2196" y2="34.5523" gradientUnits="userSpaceOnUse">
<stop stop-color="#4EB1D6"/>
<stop offset="1" stop-color="#3783AD"/>
</linearGradient>
<linearGradient id="paint1_linear_1948_184" x1="27.6434" y1="18.4385" x2="53.066" y2="18.4385" gradientUnits="userSpaceOnUse">
<stop stop-color="#4EB1D6"/>
<stop offset="1" stop-color="#3783AD"/>
</linearGradient>
<linearGradient id="paint2_linear_1948_184" x1="43.804" y1="54.2114" x2="64.6043" y2="54.2114" gradientUnits="userSpaceOnUse">
<stop stop-color="#4EB1D6"/>
<stop offset="1" stop-color="#3783AD"/>
</linearGradient>
<linearGradient id="paint3_linear_1948_184" x1="47.6167" y1="54.391" x2="59.6509" y2="54.391" gradientUnits="userSpaceOnUse">
<stop stop-color="#4EB1D6"/>
<stop offset="1" stop-color="#3783AD"/>
</linearGradient>
<linearGradient id="paint4_linear_1948_184" x1="55.3597" y1="20.767" x2="64.6043" y2="20.767" gradientUnits="userSpaceOnUse">
<stop stop-color="#4EB1D6"/>
<stop offset="1" stop-color="#3783AD"/>
</linearGradient>
<linearGradient id="paint5_linear_1948_184" x1="55.3597" y1="27.6913" x2="64.6043" y2="27.6913" gradientUnits="userSpaceOnUse">
<stop stop-color="#4EB1D6"/>
<stop offset="1" stop-color="#3783AD"/>
</linearGradient>
<linearGradient id="paint6_linear_1948_184" x1="55.3597" y1="34.6117" x2="64.6043" y2="34.6117" gradientUnits="userSpaceOnUse">
<stop stop-color="#4EB1D6"/>
<stop offset="1" stop-color="#3783AD"/>
</linearGradient>
</defs>
</svg>
