<svg width="76" height="70" viewBox="0 0 76 70" fill="none" xmlns="http://www.w3.org/2000/svg">
<path d="M70.7524 0H5.13102C2.3017 0 0 2.30185 0 5.13103V48.8086C0 51.6378 2.3017 53.9396 5.13102 53.9396H13.9317C14.5456 53.9396 15.0433 53.442 15.0433 52.8281C15.0433 52.2142 14.5456 51.7165 13.9317 51.7165H5.13102C3.52769 51.7165 2.22315 50.4119 2.22315 48.8086V45.3599C3.05031 45.9311 4.05206 46.2667 5.13102 46.2667H70.7524C71.8314 46.2667 72.8331 45.9311 73.6603 45.3599V48.8086C73.6603 50.4119 72.3558 51.7165 70.7524 51.7165H41.9444C41.9416 51.7165 41.9386 51.7165 41.9358 51.7165H33.9482C33.9448 51.7165 33.9414 51.7165 33.938 51.7165H18.378C17.7641 51.7165 17.2664 52.2142 17.2664 52.8281C17.2664 53.442 17.7641 53.9396 18.378 53.9396H32.2469L29.0429 61.3762H27.031C24.386 61.3762 22.2341 63.5281 22.2341 66.1732V66.8944C22.2341 68.1822 23.2818 69.23 24.5698 69.23H51.314C52.6018 69.23 53.6496 68.1823 53.6496 66.8944V66.1732C53.6496 63.5281 51.4977 61.3762 48.8528 61.3762H46.8408L43.6368 53.9396H70.7524C73.5817 53.9396 75.8834 51.6378 75.8834 48.8086V5.13103C75.8834 2.30185 73.5817 0 70.7524 0ZM51.4263 66.1732V66.8944C51.4263 66.9563 51.3759 67.0069 51.3138 67.0069H24.5696C24.5077 67.0069 24.4571 66.9565 24.4571 66.8944V66.1732C24.4571 64.7539 25.6117 63.5994 27.0308 63.5994H29.768C29.7699 63.5994 29.7718 63.5997 29.7737 63.5997C29.7751 63.5997 29.7764 63.5994 29.7777 63.5994H46.1057C46.1071 63.5994 46.1084 63.5997 46.1097 63.5997C46.1116 63.5997 46.1136 63.5994 46.1155 63.5994H48.8526C50.2717 63.5994 51.4263 64.7541 51.4263 66.1732ZM44.42 61.3762H31.4635L34.6675 53.9396H41.216L44.42 61.3762ZM70.7524 44.0437H5.13102C3.52769 44.0437 2.22315 42.7391 2.22315 41.1358V5.13103C2.22315 3.52769 3.52769 2.22315 5.13102 2.22315H70.7524C72.3558 2.22315 73.6603 3.52769 73.6603 5.13103V41.1356C73.6603 42.7391 72.3558 44.0437 70.7524 44.0437Z" fill="url(#paint0_linear_1948_100)"/>
<path d="M35.2157 10.993L36.8301 10.075V13.9813C36.8301 14.5952 37.3278 15.0929 37.9417 15.0929C38.5556 15.0929 39.0533 14.5952 39.0533 13.9813V10.0751L40.6677 10.9931C40.8413 11.0918 41.0299 11.1387 41.2162 11.1387C41.6029 11.1387 41.9788 10.9365 42.1835 10.5764C42.487 10.0427 42.3004 9.36402 41.7667 9.06063C38.1771 7.01993 38.4588 7.17363 38.3475 7.13035C38.0303 7.00585 37.6804 7.03698 37.3987 7.19512C37.3966 7.1963 37.3944 7.19704 37.3923 7.19823L34.1168 9.06078C33.5831 9.36417 33.3965 10.0428 33.7001 10.5765C34.0033 11.1099 34.682 11.2967 35.2157 10.993Z" fill="url(#paint1_linear_1948_100)"/>
<path d="M26.2413 32.3238L22.8575 34.2727V32.4277C22.8575 31.8139 22.3598 31.3162 21.7459 31.3162C21.132 31.3162 20.6344 31.8139 20.6344 32.4277C20.6349 36.3829 20.4651 36.7556 21.1993 37.1636L24.4485 39.061C24.6248 39.1639 24.8176 39.2128 25.008 39.2128C25.3903 39.2128 25.7623 39.0154 25.9689 38.6616C26.2785 38.1314 26.0996 37.4507 25.5694 37.1413L23.9617 36.2023L27.3508 34.2504C27.8827 33.9441 28.0656 33.2644 27.7592 32.7325C27.4529 32.2002 26.7732 32.0176 26.2413 32.3238Z" fill="url(#paint2_linear_1948_100)"/>
<path d="M54.1375 31.3169C53.5236 31.3169 53.0259 31.8146 53.0259 32.4285V34.2734L49.6422 32.3246C49.1102 32.0182 48.4305 32.2011 48.1242 32.733C47.8179 33.265 48.0007 33.9447 48.5327 34.251L51.9218 36.2029L50.314 37.1418C49.7839 37.4513 49.605 38.1322 49.9146 38.6622C50.1212 39.0161 50.4932 39.2134 50.8754 39.2134C51.0657 39.2134 51.2587 39.1645 51.4349 39.0616C54.4559 37.2466 55.0343 37.1771 55.214 36.4703C55.2872 36.1834 55.2255 36.2004 55.2491 32.4285C55.2491 31.8146 54.7514 31.3169 54.1375 31.3169Z" fill="url(#paint3_linear_1948_100)"/>
<path d="M46.5875 21.2187L38.4975 16.5474C38.1535 16.3488 37.7298 16.3488 37.3858 16.5474L29.2957 21.2187C28.9519 21.4173 28.7399 21.7842 28.7399 22.1813C28.7399 22.2092 28.7434 22.2366 28.7454 22.2641V31.523C28.7454 31.9202 28.9574 32.2871 29.3012 32.4856L37.3059 37.1066C37.3303 37.1235 37.3539 37.1411 37.3798 37.1561C37.5518 37.2554 37.7437 37.3051 37.9356 37.3051C37.9376 37.3051 37.9395 37.3048 37.9416 37.3048C37.9436 37.3048 37.9454 37.3051 37.9475 37.3051C38.1394 37.3051 38.3313 37.2554 38.5033 37.1561C38.5292 37.1411 38.5529 37.1234 38.5772 37.1066L46.5819 32.4856C46.9259 32.2871 47.1377 31.9202 47.1377 31.523V22.2641C47.1398 22.2366 47.1432 22.2092 47.1432 22.1813C47.1433 21.7842 46.9315 21.4173 46.5875 21.2187ZM37.9417 18.7937L43.8058 22.1795L37.9417 25.5649L32.0776 22.1797L37.9417 18.7937ZM30.9687 24.1098L36.8242 27.4908V34.2616L30.9687 30.8812V24.1098ZM39.0592 34.2616V27.4908L44.9147 24.1098V30.8812L39.0592 34.2616Z" fill="url(#paint4_linear_1948_100)"/>
<path d="M12.3014 6.40723H7.11404C5.9291 6.40723 4.965 7.37133 4.965 8.55627V34.8743C4.965 36.0593 5.9291 37.0234 7.11404 37.0234H12.3014C13.4863 37.0234 14.4504 36.0593 14.4504 34.8743V8.55627C14.4504 7.37133 13.4863 6.40723 12.3014 6.40723ZM12.2273 34.8002H7.18814V8.63037H12.2273V34.8002Z" fill="url(#paint5_linear_1948_100)"/>
<path d="M9.28794 14.1235H10.1278C10.7417 14.1235 11.2394 13.6258 11.2394 13.012C11.2394 12.3981 10.7417 11.9004 10.1278 11.9004H9.28794C8.67405 11.9004 8.17636 12.3981 8.17636 13.012C8.17636 13.6258 8.6739 14.1235 9.28794 14.1235Z" fill="url(#paint6_linear_1948_100)"/>
<path d="M9.28781 19.9251H10.1277C10.7416 19.9251 11.2393 19.4274 11.2393 18.8135C11.2393 18.1996 10.7416 17.7019 10.1277 17.7019H9.28781C8.67393 17.7019 8.17624 18.1996 8.17624 18.8135C8.17624 19.4274 8.67378 19.9251 9.28781 19.9251Z" fill="url(#paint7_linear_1948_100)"/>
<path d="M9.28781 25.7273H10.1277C10.7416 25.7273 11.2393 25.2296 11.2393 24.6157C11.2393 24.0018 10.7416 23.5042 10.1277 23.5042H9.28781C8.67393 23.5042 8.17624 24.0018 8.17624 24.6157C8.17624 25.2296 8.67378 25.7273 9.28781 25.7273Z" fill="url(#paint8_linear_1948_100)"/>
<path d="M9.28781 31.5293H10.1277C10.7416 31.5293 11.2393 31.0316 11.2393 30.4177C11.2393 29.8038 10.7416 29.3062 10.1277 29.3062H9.28781C8.67393 29.3062 8.17624 29.8038 8.17624 30.4177C8.17624 31.0316 8.67378 31.5293 9.28781 31.5293Z" fill="url(#paint9_linear_1948_100)"/>
<path d="M69.1473 4.98462H54.8909C53.8693 4.98462 53.0383 5.81563 53.0383 6.83724V18.9238C53.0383 19.9454 53.8693 20.7764 54.8909 20.7764H69.1473C70.1689 20.7764 70.9999 19.9454 70.9999 18.9238V6.83724C70.9999 5.81578 70.1687 4.98462 69.1473 4.98462ZM68.7767 18.5532H55.2615V7.20777H68.7767V18.5532Z" fill="url(#paint10_linear_1948_100)"/>
<path d="M58.4622 12.0649H61.871C62.4849 12.0649 62.9826 11.5673 62.9826 10.9534C62.9826 10.3395 62.4849 9.8418 61.871 9.8418H58.4622C57.8483 9.8418 57.3506 10.3395 57.3506 10.9534C57.3506 11.5673 57.8481 12.0649 58.4622 12.0649Z" fill="url(#paint11_linear_1948_100)"/>
<path d="M58.4622 15.9185H65.5762C66.1901 15.9185 66.6878 15.4208 66.6878 14.8069C66.6878 14.193 66.1901 13.6953 65.5762 13.6953H58.4622C57.8483 13.6953 57.3506 14.193 57.3506 14.8069C57.3506 15.4208 57.8481 15.9185 58.4622 15.9185Z" fill="url(#paint12_linear_1948_100)"/>
<defs>
<linearGradient id="paint0_linear_1948_100" x1="-0.114506" y1="34.5523" x2="75.8834" y2="34.5523" gradientUnits="userSpaceOnUse">
<stop stop-color="#4EB1D6"/>
<stop offset="1" stop-color="#3783AD"/>
</linearGradient>
<linearGradient id="paint1_linear_1948_100" x1="33.5413" y1="11.066" x2="42.329" y2="11.066" gradientUnits="userSpaceOnUse">
<stop stop-color="#4EB1D6"/>
<stop offset="1" stop-color="#3783AD"/>
</linearGradient>
<linearGradient id="paint2_linear_1948_100" x1="20.6068" y1="35.2573" x2="27.9077" y2="35.2573" gradientUnits="userSpaceOnUse">
<stop stop-color="#4EB1D6"/>
<stop offset="1" stop-color="#3783AD"/>
</linearGradient>
<linearGradient id="paint3_linear_1948_100" x1="47.9647" y1="35.258" x2="55.2512" y2="35.258" gradientUnits="userSpaceOnUse">
<stop stop-color="#4EB1D6"/>
<stop offset="1" stop-color="#3783AD"/>
</linearGradient>
<linearGradient id="paint4_linear_1948_100" x1="28.7122" y1="26.8328" x2="47.1432" y2="26.8328" gradientUnits="userSpaceOnUse">
<stop stop-color="#4EB1D6"/>
<stop offset="1" stop-color="#3783AD"/>
</linearGradient>
<linearGradient id="paint5_linear_1948_100" x1="4.95068" y1="21.6876" x2="14.4504" y2="21.6876" gradientUnits="userSpaceOnUse">
<stop stop-color="#4EB1D6"/>
<stop offset="1" stop-color="#3783AD"/>
</linearGradient>
<linearGradient id="paint6_linear_1948_100" x1="8.17174" y1="13.0099" x2="11.2394" y2="13.0099" gradientUnits="userSpaceOnUse">
<stop stop-color="#4EB1D6"/>
<stop offset="1" stop-color="#3783AD"/>
</linearGradient>
<linearGradient id="paint7_linear_1948_100" x1="8.17162" y1="18.8115" x2="11.2393" y2="18.8115" gradientUnits="userSpaceOnUse">
<stop stop-color="#4EB1D6"/>
<stop offset="1" stop-color="#3783AD"/>
</linearGradient>
<linearGradient id="paint8_linear_1948_100" x1="8.17162" y1="24.6137" x2="11.2393" y2="24.6137" gradientUnits="userSpaceOnUse">
<stop stop-color="#4EB1D6"/>
<stop offset="1" stop-color="#3783AD"/>
</linearGradient>
<linearGradient id="paint9_linear_1948_100" x1="8.17162" y1="30.4157" x2="11.2393" y2="30.4157" gradientUnits="userSpaceOnUse">
<stop stop-color="#4EB1D6"/>
<stop offset="1" stop-color="#3783AD"/>
</linearGradient>
<linearGradient id="paint10_linear_1948_100" x1="53.0112" y1="12.8662" x2="70.9999" y2="12.8662" gradientUnits="userSpaceOnUse">
<stop stop-color="#4EB1D6"/>
<stop offset="1" stop-color="#3783AD"/>
</linearGradient>
<linearGradient id="paint11_linear_1948_100" x1="57.3421" y1="10.9514" x2="62.9826" y2="10.9514" gradientUnits="userSpaceOnUse">
<stop stop-color="#4EB1D6"/>
<stop offset="1" stop-color="#3783AD"/>
</linearGradient>
<linearGradient id="paint12_linear_1948_100" x1="57.3365" y1="14.8049" x2="66.6878" y2="14.8049" gradientUnits="userSpaceOnUse">
<stop stop-color="#4EB1D6"/>
<stop offset="1" stop-color="#3783AD"/>
</linearGradient>
</defs>
</svg>
