<svg width="76" height="70" viewBox="0 0 76 70" fill="none" xmlns="http://www.w3.org/2000/svg">
<path d="M33.3658 15.5061C32.8799 15.8711 32.7821 16.5608 33.147 17.0466C34.3199 18.6074 35.0257 20.4205 35.2211 22.3427H25.7197V12.841C27.2094 12.995 28.6537 13.4599 29.9487 14.2091C30.4745 14.5134 31.1477 14.3338 31.4521 13.8077C31.7563 13.2818 31.5768 12.6088 31.0507 12.3044C29.1042 11.1782 26.8802 10.583 24.6194 10.583C17.5285 10.583 11.7595 16.3519 11.7595 23.4428C11.7595 30.5338 17.5285 36.3027 24.6194 36.3027C31.7103 36.3027 37.4792 30.5338 37.4792 23.4428C37.4792 20.6336 36.5895 17.9646 34.9063 15.7245C34.5413 15.2389 33.8515 15.1412 33.3658 15.5061ZM17.9046 15.1723C19.471 13.8983 21.4039 13.0583 23.5191 12.8404V20.7868L17.9046 15.1723ZM24.6194 34.1024C18.7418 34.1024 13.96 29.3206 13.96 23.4429C13.96 20.8996 14.8566 18.5624 16.3487 16.7282L23.8415 24.221C24.0478 24.4274 24.3277 24.5433 24.6194 24.5433H35.2221C34.6696 29.9059 30.1255 34.1024 24.6194 34.1024Z" fill="url(#paint0_linear_1948_147)"/>
<path d="M64.602 31.7496H63.3504V14.0346C63.3504 13.4269 62.8578 12.9343 62.2501 12.9343C61.6425 12.9343 61.1499 13.4269 61.1499 14.0346V31.7496H58.6466V17.5625C58.6466 16.9549 58.154 16.4623 57.5464 16.4623C56.9387 16.4623 56.4461 16.9549 56.4461 17.5625V31.7496H53.9427V21.0903C53.9427 20.4827 53.4501 19.9901 52.8425 19.9901C52.2348 19.9901 51.7422 20.4827 51.7422 21.0903V31.7496H49.239V24.6182C49.239 24.0105 48.7463 23.5179 48.1387 23.5179C47.5311 23.5179 47.0385 24.0105 47.0385 24.6182V31.7496H44.5352V28.1461C44.5352 27.5385 44.0426 27.0459 43.435 27.0459C42.8273 27.0459 42.3347 27.5385 42.3347 28.1461V31.7496H41.0831C40.4755 31.7496 39.9828 32.2422 39.9828 32.8499C39.9828 33.4575 40.4755 33.9501 41.0831 33.9501H64.6023C65.2099 33.9501 65.7025 33.4575 65.7025 32.8499C65.7025 32.2422 65.2096 31.7496 64.602 31.7496Z" fill="url(#paint1_linear_1948_147)"/>
<path d="M72.8337 0H2.27618C1.02102 0 0 1.02102 0 2.27618V4.62806C0 5.88321 1.02102 6.90424 2.27618 6.90424H2.35188V50.4904C2.35188 51.7455 3.3729 52.7666 4.62806 52.7666H9.99284C10.4981 53.3356 11.0947 53.8212 11.7595 54.2013V56.4459H11.6838C8.48345 56.4459 5.87984 59.0497 5.87984 62.2499V68.1298C5.87984 68.7374 6.37245 69.23 6.98008 69.23C7.58771 69.23 8.08032 68.7374 8.08032 68.1298V65.7779C8.08032 64.4393 9.16927 63.3503 10.5079 63.3503H19.9156C21.2542 63.3503 22.3431 64.4393 22.3431 65.7779V68.1298C22.3431 68.7374 22.8357 69.23 23.4434 69.23C24.051 69.23 24.5436 68.7374 24.5436 68.1298V62.2499C24.5436 59.0495 21.9398 56.4459 18.7395 56.4459H18.6638V54.2013C19.3286 53.8212 19.9252 53.3358 20.4305 52.7666H29.5782C29.5719 52.7827 29.5664 52.7991 29.56 52.8153L28.7609 54.8129C28.5187 55.4184 28.5463 56.0993 28.8368 56.6806C29.1256 57.2586 29.6493 57.6869 30.2737 57.8554C30.6259 57.9505 31.0503 58.0502 31.5473 58.1457C30.2971 59.2812 29.4875 60.8927 29.4062 62.6909C28.671 63.5105 28.2227 64.5927 28.2227 65.7779V68.1298C28.2227 68.7374 28.7153 69.23 29.3229 69.23C29.9305 69.23 30.4232 68.7374 30.4232 68.1298V65.7779C30.4232 64.4393 31.5121 63.3503 32.8507 63.3503H42.2584C43.597 63.3503 44.686 64.4393 44.686 65.7779V68.1298C44.686 68.7374 45.1786 69.23 45.7862 69.23C46.3938 69.23 46.8864 68.7374 46.8864 68.1298V65.7779C46.8864 64.5927 46.4381 63.5105 45.7029 62.6909C45.6216 60.8928 44.812 59.2812 43.5618 58.1457C44.0587 58.0502 44.4832 57.9505 44.8354 57.8554C45.4599 57.6869 45.9837 57.2586 46.2724 56.6806C46.5628 56.0993 46.5904 55.4184 46.3482 54.813L45.5491 52.8153C45.5427 52.7991 45.5374 52.7827 45.5309 52.7666H56.0253C56.1619 52.858 56.3025 52.9435 56.4455 53.0253V55.27H56.3698C53.1694 55.27 50.5656 57.8737 50.5656 61.074V68.1298C50.5656 68.7374 51.0583 69.23 51.6659 69.23C52.2735 69.23 52.7661 68.7374 52.7661 68.1298V65.7779C52.7661 64.4393 53.8551 63.3503 55.1937 63.3503H64.6014C65.94 63.3503 67.0289 64.4393 67.0289 65.7779V68.1298C67.0289 68.7374 67.5215 69.23 68.1292 69.23C68.7368 69.23 69.2294 68.7374 69.2294 68.1298V61.074C69.2294 57.8736 66.6257 55.27 63.4254 55.27H63.3497V53.0253C63.4928 52.9436 63.6333 52.858 63.7697 52.7667H70.4812C71.7364 52.7667 72.7574 51.7457 72.7574 50.4905V6.90424H72.8331C74.0882 6.90424 75.1093 5.88321 75.1093 4.62806V2.27618C75.1098 1.02102 74.0888 0 72.8337 0ZM10.4322 48.1385V43.4348C10.4322 42.0961 11.5211 41.0072 12.8598 41.0072H19.9912V48.1387C19.9912 48.164 19.9898 48.1891 19.9893 48.2144H10.4341C10.4337 48.1888 10.4322 48.1639 10.4322 48.1385ZM15.2116 52.918C13.3998 52.918 11.8201 51.9044 11.0098 50.4147H19.4137C18.6033 51.9044 17.0237 52.918 15.2116 52.918ZM22.317 61.8229C21.6165 61.396 20.7943 61.1497 19.9156 61.1497H10.5079C9.62917 61.1497 8.80707 61.3958 8.10643 61.8229C8.31841 60.0365 9.84144 58.6464 11.6838 58.6464H18.7396C20.582 58.6463 22.105 60.0365 22.317 61.8229ZM16.4634 56.4458H13.96V55.0037C14.3664 55.0777 14.7843 55.1183 15.2116 55.1183C15.639 55.1183 16.0569 55.0777 16.4633 55.0037V56.4458H16.4634ZM39.167 58.6463C40.9375 58.6463 42.463 59.7116 43.1386 61.2346C42.8535 61.1795 42.5596 61.1497 42.2587 61.1497H32.851C32.5501 61.1497 32.2562 61.1795 31.9711 61.2346C32.6468 59.7117 34.1722 58.6463 35.9427 58.6463H39.167ZM44.3042 55.6972C44.2913 55.7231 44.2717 55.7283 44.2623 55.7309C43.0541 56.057 40.9096 56.4459 37.5548 56.4459C34.1999 56.4459 32.0555 56.0572 30.8473 55.7309C30.8379 55.7283 30.8182 55.7231 30.8053 55.6972C30.7898 55.6659 30.8005 55.6389 30.804 55.63L31.6031 53.6324C32.3808 51.688 32.7752 49.6404 32.7752 47.5461V46.9623C32.7752 44.3268 34.9193 42.1827 37.5548 42.1827C40.1902 42.1827 42.3344 44.3268 42.3344 46.9623V47.5461C42.3344 49.6403 42.7287 51.688 43.5065 53.6322L44.3056 55.63C44.3092 55.6389 44.3199 55.6659 44.3042 55.6972ZM64.6776 46.9624C64.6776 49.5979 62.5335 51.742 59.898 51.742C57.2626 51.742 55.1184 49.5979 55.1184 46.9624V45.7865C55.1184 43.151 57.2626 41.0069 59.898 41.0069C62.5335 41.0069 64.6776 43.151 64.6776 45.7865V46.9624ZM67.0295 61.074V61.8396C66.3233 61.4026 65.4917 61.1497 64.6019 61.1497H55.1943C54.3046 61.1497 53.4729 61.4027 52.7667 61.8396V61.074C52.7667 59.0869 54.3833 57.4705 56.3704 57.4705H63.4262C65.413 57.4703 67.0295 59.0869 67.0295 61.074ZM61.1498 55.2698H58.6466V53.8278C59.0529 53.9017 59.4709 53.9424 59.8982 53.9424C60.3255 53.9424 60.7435 53.9017 61.1498 53.8278V55.2698ZM72.9094 4.62806C72.9094 4.66987 72.8755 4.70375 72.8337 4.70375H69.306C68.6984 4.70375 68.2057 5.19637 68.2057 5.804C68.2057 6.41162 68.6984 6.90424 69.306 6.90424H70.5575V50.4904C70.5575 50.5322 70.5236 50.5661 70.4818 50.5661H65.8737C66.5108 49.5135 66.8781 48.2801 66.8781 46.9626V45.7866C66.8781 41.9378 63.7468 38.8066 59.898 38.8066C56.0493 38.8066 52.918 41.9378 52.918 45.7866V46.9626C52.918 48.2802 53.2853 49.5135 53.9224 50.5661H44.8629C44.6474 49.5779 44.5349 48.5689 44.5349 47.5463V46.9624C44.5349 43.1136 41.4036 39.9823 37.5548 39.9823C33.706 39.9823 30.5747 43.1136 30.5747 46.9624V47.5463C30.5747 48.5689 30.4622 49.5779 30.2467 50.5661H21.7554C22.037 49.8096 22.1916 48.9919 22.1916 48.1385V39.9068C22.1916 39.2992 21.699 38.8066 21.0913 38.8066H12.8598C10.3078 38.8066 8.23172 40.8826 8.23172 43.4346V48.1384C8.23172 48.9917 8.38634 49.8096 8.66785 50.5659H4.62806C4.58625 50.5659 4.55236 50.5321 4.55236 50.4902V6.90424H64.6018C65.2094 6.90424 65.702 6.41162 65.702 5.804C65.702 5.19637 65.2094 4.70375 64.6018 4.70375H2.27618C2.23437 4.70375 2.20048 4.66987 2.20048 4.62806V2.27618C2.20048 2.23437 2.23437 2.20048 2.27618 2.20048H72.8337C72.8755 2.20048 72.9094 2.23437 72.9094 2.27618V4.62806Z" fill="url(#paint2_linear_1948_147)"/>
<defs>
<linearGradient id="paint0_linear_1948_147" x1="11.7207" y1="23.4195" x2="37.4792" y2="23.4195" gradientUnits="userSpaceOnUse">
<stop stop-color="#4EB1D6"/>
<stop offset="1" stop-color="#3783AD"/>
</linearGradient>
<linearGradient id="paint1_linear_1948_147" x1="39.944" y1="23.4232" x2="65.7025" y2="23.4232" gradientUnits="userSpaceOnUse">
<stop stop-color="#4EB1D6"/>
<stop offset="1" stop-color="#3783AD"/>
</linearGradient>
<linearGradient id="paint2_linear_1948_147" x1="-0.113337" y1="34.5523" x2="75.1092" y2="34.5523" gradientUnits="userSpaceOnUse">
<stop stop-color="#4EB1D6"/>
<stop offset="1" stop-color="#3783AD"/>
</linearGradient>
</defs>
</svg>
