<svg width="119" height="128" viewBox="0 0 119 128" fill="none" xmlns="http://www.w3.org/2000/svg">
<path d="M86.7079 123.31H74.2737L70.5895 120.786C70.5895 120.786 47.158 132.52 27.7606 125.004C8.36322 117.489 6.63164 100.854 30.579 95.1069C54.5264 89.3596 82.1579 100.633 82.1579 100.633L86.7079 123.31Z" fill="url(#paint0_linear_2029_4708)"/>
<path d="M86.5607 42.0542L95.8817 66.72L89.7291 74.9726L87.1317 72.6516L92.658 65.541L85.2527 44.8174L86.5607 42.0542Z" fill="url(#paint1_linear_2029_4708)"/>
<path d="M86.6711 117.249L86.6895 123.346L54.6 104.704L54.5816 98.6069L86.6711 117.249Z" fill="url(#paint2_linear_2029_4708)"/>
<path d="M118.982 98.6069L119 104.704L86.6895 123.346L86.6711 117.249L118.982 98.6069Z" fill="url(#paint3_linear_2029_4708)"/>
<path d="M86.6711 117.249L54.5816 98.6068L86.8737 79.9463L118.982 98.6068L86.6711 117.249Z" fill="url(#paint4_linear_2029_4708)"/>
<path d="M88.0895 43.4358L97.4106 68.1016L91.2579 76.3542L88.6606 74.0332L94.1869 66.9226L86.7816 46.1989L88.0895 43.4358Z" fill="url(#paint5_linear_2029_4708)"/>
<path d="M84.6632 109.199H72.3763L54.5816 98.6073L78.8606 84.5889L84.6632 109.199Z" fill="url(#paint6_linear_2029_4708)"/>
<path d="M84.6632 109.199L67.2184 99.0673L72.3763 81.0146L89.8026 91.1462L84.6632 109.199Z" fill="url(#paint7_linear_2029_4708)"/>
<path d="M53.7158 98.6068H71.3079L79.5053 89.7646L76.2079 90.0594L70.6263 96.1383H56.3132L53.7158 98.6068Z" fill="url(#paint8_linear_2029_4708)"/>
<path d="M55.3553 99.1227H72.929L81.8079 89.5806L78.5106 89.8753L71.8421 97.1885H57.529L55.3553 99.1227Z" fill="url(#paint9_linear_2029_4708)"/>
<path d="M89.8027 91.1465L72.3763 81.0149L83.7237 74.457L101.15 84.5886L89.8027 91.1465Z" fill="url(#paint10_linear_2029_4708)"/>
<path d="M84.6631 109.199L89.8026 91.1465L101.15 84.5886L106.382 96.6544L84.6631 109.199Z" fill="url(#paint11_linear_2029_4708)"/>
<path d="M76.0421 90.0781L59.721 80.3886L74.2552 55.207L90.5579 64.9149L76.0421 90.0781Z" fill="url(#paint12_linear_2029_4708)"/>
<path d="M90.5578 64.9148L96.1394 75.8753L88.5499 88.9911L76.042 90.078L90.5578 64.9148Z" fill="url(#paint13_linear_2029_4708)"/>
<path d="M81.3106 59.8491L64.9896 50.1597L74.2553 55.207L90.558 64.9149L81.3106 59.8491Z" fill="url(#paint14_linear_2029_4708)"/>
<path d="M66.7763 85.0307L50.4553 75.3228L64.9895 50.1597L81.3106 59.8491L66.7763 85.0307Z" fill="url(#paint15_linear_2029_4708)"/>
<path d="M81.3106 59.8491L90.5579 64.9149L76.0422 90.0781L66.7764 85.0307L81.3106 59.8491Z" fill="url(#paint16_linear_2029_4708)"/>
<path d="M82.9132 71.3623C71.1974 96.6913 46.0711 109.531 22.529 103.525C22.529 103.525 1.01318 64.1965 12.729 38.886C24.4448 13.5755 69.5579 5.30444 69.5579 5.30444C88.4026 18.3097 94.629 46.0518 82.9132 71.3623Z" fill="url(#paint17_linear_2029_4708)"/>
<path d="M77.2579 68.7462C64.5474 96.212 38.5737 111.207 19.1395 102.236C17.7869 101.611 16.4871 100.878 15.2527 100.044C-0.902576 89.1199 -4.73413 61.7831 7.07376 36.2515C15.7132 17.5541 30.5237 4.65936 45.2237 1.14094C51.8666 -0.598561 58.904 -0.0202015 65.1737 2.78044C84.5527 11.7331 89.9685 41.2804 77.2579 68.7462Z" fill="url(#paint18_linear_2029_4708)"/>
<path d="M77.258 68.7462C64.5474 96.212 38.5737 111.207 19.1395 102.236C17.7869 101.611 16.4871 100.878 15.2527 100.044C15.2527 100.044 55.2817 115.407 72.1185 66.3883C88.9553 17.3699 45.3159 1.14094 45.3159 1.14094C51.9587 -0.598561 58.9961 -0.0202015 65.2659 2.78044C84.5527 11.7331 89.9685 41.2804 77.258 68.7462Z" fill="url(#paint19_linear_2029_4708)"/>
<path d="M18.9369 22.8967C18.9369 22.8967 -2.43155 49.6257 5.95003 79.0993C14.3316 108.573 43.0132 100.873 46.2553 98.4415C49.4974 96.0099 43.8237 83.2809 43.8237 83.2809C43.8237 83.2809 25.0342 83.9625 25.7158 57.8415C26.174 45.8269 23.8542 33.8685 18.9369 22.8967Z" fill="url(#paint20_linear_2029_4708)"/>
<g style="mix-blend-mode:multiply">
<g style="mix-blend-mode:multiply">
<path d="M35.4605 95.3467C32.1102 95.3618 28.7971 94.6451 25.7526 93.2467C18.2184 89.7467 13.0605 82.323 11.2368 72.3204C9.54661 61.4457 11.2176 50.3142 16.0263 40.4151C26.1763 18.4756 47.0657 6.46511 62.5947 13.6493C70.1289 17.1309 75.2868 24.5546 77.1105 34.5572C78.8057 45.4379 77.1345 56.5767 72.321 66.4809C67.88 76.5583 60.4704 85.0411 51.0815 90.7967C46.3625 93.6543 40.976 95.2233 35.4605 95.3467ZM52.942 12.0098C39.4578 12.0098 24.5368 23.0625 16.45 40.5993C11.6718 50.4158 10.0071 61.4578 11.6789 72.2467C13.521 82.0835 18.5499 89.3967 25.9368 92.823C33.3236 96.2493 42.1841 95.3835 50.8605 90.373C60.1781 84.6511 67.5246 76.2184 71.9157 66.2046C76.6582 56.3967 78.303 45.3777 76.6315 34.6125C74.7894 24.7756 69.7605 17.4625 62.3736 14.0546C59.4187 12.6867 56.1981 11.9885 52.942 12.0098Z" fill="url(#paint21_linear_2029_4708)"/>
</g>
</g>
<path d="M68.2132 63.275C62.3553 75.9303 50.3817 82.8382 41.4659 78.6935C32.5501 74.5487 30.0448 60.9724 35.9396 48.3356C41.8343 35.6987 53.7711 28.7724 62.6869 32.9171C71.6027 37.0619 74.0711 50.6382 68.2132 63.275Z" fill="url(#paint22_linear_2029_4708)"/>
<g style="mix-blend-mode:multiply">
<g style="mix-blend-mode:multiply">
<path d="M74.9921 73.1121C74.8632 72.9832 61.5447 60.1253 43.8974 55.3726C26.25 50.62 6.68684 37.5411 6.50262 37.4121L6.76055 37.0437C6.94476 37.1726 26.3421 50.1595 44.0079 54.9306C61.6737 59.7016 75.1763 72.6516 75.3237 72.7806L74.9921 73.1121Z" fill="url(#paint23_linear_2029_4708)"/>
</g>
</g>
<g style="mix-blend-mode:multiply">
<g style="mix-blend-mode:multiply">
<path d="M16.9474 100.855L16.8369 100.394C29.2343 97.3914 35.8474 88.973 53.679 59.4993C64.0368 42.8069 68.5713 23.1529 66.5737 3.60986H67.0158C69.0673 23.2556 64.5313 43.0259 54.1211 59.8125C36.1053 89.3414 29.5106 97.7967 16.9474 100.855Z" fill="url(#paint24_linear_2029_4708)"/>
</g>
</g>
<path d="M64.195 61.4572C68.5884 51.9663 66.7239 41.7605 60.0304 38.662C53.3369 35.5635 44.3491 40.7455 39.9556 50.2365C35.5621 59.7275 37.4267 69.9332 44.1202 73.0317C50.8137 76.1303 59.8015 70.9482 64.195 61.4572Z" fill="url(#paint25_linear_2029_4708)"/>
<path d="M59.3568 59.2233C62.9896 51.3757 61.4439 42.9352 55.9044 40.3709C50.3649 37.8067 42.9294 42.0896 39.2967 49.9372C35.6639 57.7848 37.2096 66.2252 42.7491 68.7895C48.2885 71.3538 55.7241 67.0709 59.3568 59.2233Z" fill="url(#paint26_linear_2029_4708)"/>
<path d="M43.621 42.6069L47.1026 43.6017L54.2684 48.0964L35.1289 54.4701L30.8368 49.1096L33.2131 43.3622L40.1763 46.6596L43.621 42.6069Z" fill="url(#paint27_linear_2029_4708)"/>
<path d="M47.8579 45.2964L54.2684 48.0964L54.9868 55.4095L50.5105 63.5148L41.7974 59.2595L36.7316 52.849L39.1079 47.1016L47.3237 51.1727L47.8579 45.2964Z" fill="url(#paint28_linear_2029_4708)"/>
<path d="M36.7315 52.8491L30.8368 49.1096L35.1289 54.4702L41.7973 59.2596L36.7315 52.8491Z" fill="url(#paint29_linear_2029_4708)"/>
<path d="M47.8579 45.2964L47.3237 51.1727L40.1763 46.6596L43.621 42.6069L47.8579 45.2964Z" fill="url(#paint30_linear_2029_4708)"/>
<path d="M33.2131 43.3621L39.1078 47.1015L36.7315 52.8489L30.8368 49.1094L33.2131 43.3621Z" fill="url(#paint31_linear_2029_4708)"/>
<path d="M36.4 47.7647L3.13163 31.5173L1.84216 30.5963L2.76322 28.7542L34.1711 46.1252L36.4 47.7647Z" fill="url(#paint32_linear_2029_4708)"/>
<path d="M35.1474 50.1595L3.13165 31.5174L4.05271 29.6753L36.4001 47.7648L35.1474 50.1595Z" fill="url(#paint33_linear_2029_4708)"/>
<path d="M2.87368 32.8255C4.46077 32.8255 5.74736 31.5389 5.74736 29.9518C5.74736 28.3647 4.46077 27.0781 2.87368 27.0781C1.28659 27.0781 0 28.3647 0 29.9518C0 31.5389 1.28659 32.8255 2.87368 32.8255Z" fill="url(#paint34_linear_2029_4708)"/>
<path d="M5.26838 29.7121C5.26838 30.2003 5.12361 30.6775 4.85238 31.0834C4.58114 31.4894 4.19565 31.8057 3.7446 31.9926C3.29356 32.1794 2.79724 32.2283 2.31841 32.1331C1.83959 32.0378 1.39974 31.8027 1.05452 31.4575C0.709309 31.1123 0.474214 30.6724 0.378969 30.1936C0.283725 29.7148 0.332626 29.2185 0.519455 28.7674C0.706284 28.3164 1.02266 27.9309 1.42859 27.6597C1.83452 27.3884 2.31176 27.2437 2.79997 27.2437C3.45463 27.2437 4.08249 27.5037 4.54541 27.9666C5.00832 28.4295 5.26838 29.0574 5.26838 29.7121Z" fill="url(#paint35_linear_2029_4708)"/>
<path d="M2.80002 29.3806C3.62409 29.3806 4.29212 28.9435 4.29212 28.4043C4.29212 27.8651 3.62409 27.428 2.80002 27.428C1.97596 27.428 1.30792 27.8651 1.30792 28.4043C1.30792 28.9435 1.97596 29.3806 2.80002 29.3806Z" fill="url(#paint36_linear_2029_4708)"/>
<defs>
<linearGradient id="paint0_linear_2029_4708" x1="21.0556" y1="122.778" x2="62.8541" y2="94.8104" gradientUnits="userSpaceOnUse">
<stop stop-color="white"/>
<stop offset="1" stop-color="#D4D4D4"/>
</linearGradient>
<linearGradient id="paint1_linear_2029_4708" x1="85.7135" y1="58.5086" x2="95.7246" y2="58.5086" gradientUnits="userSpaceOnUse">
<stop stop-color="#2C2A26"/>
<stop offset="1" stop-color="#C4C4C4"/>
</linearGradient>
<linearGradient id="paint2_linear_2029_4708" x1="55.9735" y1="110.973" x2="86.215" y2="110.973" gradientUnits="userSpaceOnUse">
<stop stop-color="#2C2A26"/>
<stop offset="1" stop-color="#C4C4C4"/>
</linearGradient>
<linearGradient id="paint3_linear_2029_4708" x1="90.2383" y1="119.902" x2="113.038" y2="110.705" gradientUnits="userSpaceOnUse">
<stop stop-color="white"/>
<stop offset="1" stop-color="#D4D4D4"/>
</linearGradient>
<linearGradient id="paint4_linear_2029_4708" x1="57.3734" y1="98.5921" x2="118.03" y2="98.5921" gradientUnits="userSpaceOnUse">
<stop stop-color="#2C2A26"/>
<stop offset="1" stop-color="#C4C4C4"/>
</linearGradient>
<linearGradient id="paint5_linear_2029_4708" x1="87.2424" y1="59.8902" x2="97.2535" y2="59.8902" gradientUnits="userSpaceOnUse">
<stop stop-color="#2C2A26"/>
<stop offset="1" stop-color="#C4C4C4"/>
</linearGradient>
<linearGradient id="paint6_linear_2029_4708" x1="55.8857" y1="96.8905" x2="84.2187" y2="96.8905" gradientUnits="userSpaceOnUse">
<stop stop-color="#2C2A26"/>
<stop offset="1" stop-color="#C4C4C4"/>
</linearGradient>
<linearGradient id="paint7_linear_2029_4708" x1="68.1975" y1="95.1026" x2="89.4689" y2="95.1026" gradientUnits="userSpaceOnUse">
<stop stop-color="#2C2A26"/>
<stop offset="1" stop-color="#C4C4C4"/>
</linearGradient>
<linearGradient id="paint8_linear_2029_4708" x1="54.8338" y1="94.1844" x2="79.1241" y2="94.1844" gradientUnits="userSpaceOnUse">
<stop stop-color="#2C2A26"/>
<stop offset="1" stop-color="#C4C4C4"/>
</linearGradient>
<linearGradient id="paint9_linear_2029_4708" x1="56.502" y1="94.3502" x2="81.417" y2="94.3502" gradientUnits="userSpaceOnUse">
<stop stop-color="#2C2A26"/>
<stop offset="1" stop-color="#C4C4C4"/>
</linearGradient>
<linearGradient id="paint10_linear_2029_4708" x1="73.6237" y1="82.7993" x2="100.725" y2="82.7993" gradientUnits="userSpaceOnUse">
<stop stop-color="#2C2A26"/>
<stop offset="1" stop-color="#C4C4C4"/>
</linearGradient>
<linearGradient id="paint11_linear_2029_4708" x1="87.0596" y1="105.773" x2="103.639" y2="101.257" gradientUnits="userSpaceOnUse">
<stop stop-color="white"/>
<stop offset="1" stop-color="#D4D4D4"/>
</linearGradient>
<linearGradient id="paint12_linear_2029_4708" x1="63.1236" y1="85.2234" x2="86.6565" y2="78.7997" gradientUnits="userSpaceOnUse">
<stop stop-color="white"/>
<stop offset="1" stop-color="#D4D4D4"/>
</linearGradient>
<linearGradient id="paint13_linear_2029_4708" x1="78.2596" y1="86.5748" x2="93.7953" y2="82.7447" gradientUnits="userSpaceOnUse">
<stop stop-color="white"/>
<stop offset="1" stop-color="#D4D4D4"/>
</linearGradient>
<linearGradient id="paint14_linear_2029_4708" x1="66.0979" y1="57.5351" x2="90.1801" y2="57.5351" gradientUnits="userSpaceOnUse">
<stop stop-color="#2C2A26"/>
<stop offset="1" stop-color="#C4C4C4"/>
</linearGradient>
<linearGradient id="paint15_linear_2029_4708" x1="53.8599" y1="80.1761" x2="77.4049" y2="73.7452" gradientUnits="userSpaceOnUse">
<stop stop-color="white"/>
<stop offset="1" stop-color="#D4D4D4"/>
</linearGradient>
<linearGradient id="paint16_linear_2029_4708" x1="67.8073" y1="74.9591" x2="90.2065" y2="74.9591" gradientUnits="userSpaceOnUse">
<stop stop-color="#2C2A26"/>
<stop offset="1" stop-color="#C4C4C4"/>
</linearGradient>
<linearGradient id="paint17_linear_2029_4708" x1="12.6878" y1="55.1313" x2="87.6744" y2="55.1313" gradientUnits="userSpaceOnUse">
<stop stop-color="#2C2A26"/>
<stop offset="1" stop-color="#C4C4C4"/>
</linearGradient>
<linearGradient id="paint18_linear_2029_4708" x1="9.45909" y1="90.2622" x2="74.3142" y2="74.2096" gradientUnits="userSpaceOnUse">
<stop stop-color="white"/>
<stop offset="1" stop-color="#D4D4D4"/>
</linearGradient>
<linearGradient id="paint19_linear_2029_4708" x1="22.8536" y1="90.2622" x2="77.1019" y2="79.2426" gradientUnits="userSpaceOnUse">
<stop stop-color="white"/>
<stop offset="1" stop-color="#D4D4D4"/>
</linearGradient>
<linearGradient id="paint20_linear_2029_4708" x1="8.77405" y1="90.2758" x2="43.2403" y2="84.3968" gradientUnits="userSpaceOnUse">
<stop stop-color="white"/>
<stop offset="1" stop-color="#D4D4D4"/>
</linearGradient>
<linearGradient id="paint21_linear_2029_4708" x1="18.0061" y1="83.6834" x2="69.8993" y2="70.8429" gradientUnits="userSpaceOnUse">
<stop stop-color="white"/>
<stop offset="1" stop-color="#D4D4D4"/>
</linearGradient>
<linearGradient id="paint22_linear_2029_4708" x1="37.0095" y1="73.1891" x2="66.869" y2="65.7961" gradientUnits="userSpaceOnUse">
<stop stop-color="white"/>
<stop offset="1" stop-color="#D4D4D4"/>
</linearGradient>
<linearGradient id="paint23_linear_2029_4708" x1="14.0964" y1="68.0908" x2="55.9954" y2="43.413" gradientUnits="userSpaceOnUse">
<stop stop-color="white"/>
<stop offset="1" stop-color="#D4D4D4"/>
</linearGradient>
<linearGradient id="paint24_linear_2029_4708" x1="22.4269" y1="87.3165" x2="62.9219" y2="80.8044" gradientUnits="userSpaceOnUse">
<stop stop-color="white"/>
<stop offset="1" stop-color="#D4D4D4"/>
</linearGradient>
<linearGradient id="paint25_linear_2029_4708" x1="44.8063" y1="71.5402" x2="59.7917" y2="39.1682" gradientUnits="userSpaceOnUse">
<stop stop-color="#2C2A26"/>
<stop offset="1" stop-color="#C4C4C4"/>
</linearGradient>
<linearGradient id="paint26_linear_2029_4708" x1="51.438" y1="69.0041" x2="51.9391" y2="45.4815" gradientUnits="userSpaceOnUse">
<stop stop-color="white"/>
<stop offset="1" stop-color="#D4D4D4"/>
</linearGradient>
<linearGradient id="paint27_linear_2029_4708" x1="31.8525" y1="48.5368" x2="53.9221" y2="48.5368" gradientUnits="userSpaceOnUse">
<stop stop-color="#2C2A26"/>
<stop offset="1" stop-color="#C4C4C4"/>
</linearGradient>
<linearGradient id="paint28_linear_2029_4708" x1="37.5229" y1="54.4029" x2="54.7171" y2="54.4029" gradientUnits="userSpaceOnUse">
<stop stop-color="#2C2A26"/>
<stop offset="1" stop-color="#C4C4C4"/>
</linearGradient>
<linearGradient id="paint29_linear_2029_4708" x1="31.3119" y1="54.1831" x2="41.6353" y2="54.1831" gradientUnits="userSpaceOnUse">
<stop stop-color="#2C2A26"/>
<stop offset="1" stop-color="#C4C4C4"/>
</linearGradient>
<linearGradient id="paint30_linear_2029_4708" x1="41.0239" y1="49.9802" x2="46.8745" y2="48.3607" gradientUnits="userSpaceOnUse">
<stop stop-color="white"/>
<stop offset="1" stop-color="#D4D4D4"/>
</linearGradient>
<linearGradient id="paint31_linear_2029_4708" x1="31.7494" y1="51.5282" x2="38.0737" y2="49.8262" gradientUnits="userSpaceOnUse">
<stop stop-color="white"/>
<stop offset="1" stop-color="#D4D4D4"/>
</linearGradient>
<linearGradient id="paint32_linear_2029_4708" x1="3.34024" y1="38.2566" x2="35.8893" y2="38.2566" gradientUnits="userSpaceOnUse">
<stop stop-color="#2C2A26"/>
<stop offset="1" stop-color="#C4C4C4"/>
</linearGradient>
<linearGradient id="paint33_linear_2029_4708" x1="4.57383" y1="39.9144" x2="35.9084" y2="39.9144" gradientUnits="userSpaceOnUse">
<stop stop-color="#2C2A26"/>
<stop offset="1" stop-color="#C4C4C4"/>
</linearGradient>
<linearGradient id="paint34_linear_2029_4708" x1="-0.00867257" y1="29.9466" x2="5.74736" y2="29.9466" gradientUnits="userSpaceOnUse">
<stop stop-color="#4EB1D6"/>
<stop offset="1" stop-color="#3783AD"/>
</linearGradient>
<linearGradient id="paint35_linear_2029_4708" x1="0.876279" y1="31.4932" x2="4.57235" y2="30.3523" gradientUnits="userSpaceOnUse">
<stop stop-color="white"/>
<stop offset="1" stop-color="#D4D4D4"/>
</linearGradient>
<linearGradient id="paint36_linear_2029_4708" x1="1.30342" y1="28.4025" x2="4.29212" y2="28.4025" gradientUnits="userSpaceOnUse">
<stop stop-color="#4EB1D6"/>
<stop offset="1" stop-color="#3783AD"/>
</linearGradient>
</defs>
</svg>
