<svg width="111" height="113" viewBox="0 0 111 113" fill="none" xmlns="http://www.w3.org/2000/svg">
<path d="M49.3116 0L45.9009 59.9391L100.915 91.0414L106.628 56.0728L104.141 31.5456L49.3116 0Z" fill="url(#paint0_linear_2029_167)"/>
<path d="M106.628 56.0729L101.457 62.845C101.457 62.845 82.8889 59.5451 75.0579 56.2207C67.2269 52.8962 57.4751 53.6473 57.4751 53.6473L47.4032 33.565L47.8219 26.1772L60.7873 34.8578L85.1545 48.5005L102.885 54.8293L106.628 56.0729Z" fill="url(#paint1_linear_2029_167)"/>
<path d="M50.5799 2.9552L50.2474 6.57519L51.9343 8.45905L52.2914 4.74057L50.5799 2.9552Z" fill="url(#paint2_linear_2029_167)"/>
<path d="M53.301 5.87329L52.9808 9.49327L54.6677 11.3895L55.0248 7.67097L53.301 5.87329Z" fill="url(#paint3_linear_2029_167)"/>
<path d="M56.0345 8.80396L55.7144 12.4239L57.389 14.3201L57.7584 10.5893L56.0345 8.80396Z" fill="url(#paint4_linear_2029_167)"/>
<path d="M58.768 11.7343L58.4478 15.3542L60.1224 17.2381L60.4794 13.5196L58.768 11.7343Z" fill="url(#paint5_linear_2029_167)"/>
<path d="M50.2967 8.32349L49.9642 11.9435L51.6511 13.8273L52.0082 10.1089L50.2967 8.32349Z" fill="url(#paint6_linear_2029_167)"/>
<path d="M53.0178 11.2418L52.6977 14.8618L54.3722 16.758L54.7416 13.0395L53.0178 11.2418Z" fill="url(#paint7_linear_2029_167)"/>
<path d="M55.7512 14.1722L55.4311 17.7922L57.1056 19.6884L57.475 15.9576L55.7512 14.1722Z" fill="url(#paint8_linear_2029_167)"/>
<path d="M58.4848 17.1028L58.1523 20.7228L59.8392 22.6066L60.1963 18.8882L58.4848 17.1028Z" fill="url(#paint9_linear_2029_167)"/>
<path d="M85.1545 48.4637L102.885 54.7925L104.141 31.5458L89.0454 26.3744L85.1545 28.7385V48.4637Z" fill="url(#paint10_linear_2029_167)"/>
<path d="M85.1545 48.4635L60.7873 34.8209L55.9853 13.9259L80.3524 27.901L85.1545 48.4635Z" fill="url(#paint11_linear_2029_167)"/>
<path d="M49.3116 0L69.2585 19.5898L104.141 31.5456L108.315 21.1166L84.4156 7.51085L49.3116 0Z" fill="url(#paint12_linear_2029_167)"/>
<path d="M80.3524 27.9011L99.5482 19.9839L88.0233 13.926L81.8915 9.33325L55.9853 13.926L80.3524 27.9011Z" fill="url(#paint13_linear_2029_167)"/>
<path d="M71.6226 30.3266C70.9501 31.001 70.2023 31.5959 69.394 32.0997C68.7168 32.4937 68.963 33.6388 68.1627 33.6388C67.3624 33.6388 66.6359 33.6388 65.8848 33.528C62.6219 33.1339 58.6695 30.1296 55.9483 28.2827C55.3613 28.008 54.8995 27.5219 54.6553 26.9216C54.411 26.3213 54.4023 25.6509 54.6308 25.0444C54.717 24.7242 54.914 24.4287 55.0002 24.1332C55.1849 23.493 55.111 23.0004 55.702 22.4956C55.7298 22.4852 55.7605 22.4852 55.7882 22.4956C55.8498 22.4956 55.8744 22.5695 55.8991 22.6311C56.3786 23.6264 57.1465 24.4545 58.1031 25.0074C58.4917 25.2778 58.9037 25.5127 59.3344 25.7093C59.6545 25.857 60.0485 26.091 60.3317 25.8078C60.6149 25.5246 60.6395 24.5765 60.6888 24.1086C60.7503 23.3083 60.9966 22.5326 61.1197 21.7445C61.303 21.2397 61.6381 20.8041 62.0791 20.4976C62.5201 20.1911 63.0453 20.0288 63.5823 20.033C63.9593 20.0311 64.3352 20.0724 64.7028 20.1562C66.1311 20.427 67.5594 21.7076 68.9138 22.237C69.7663 22.6143 70.5111 23.1983 71.0808 23.9362C71.4579 24.7292 71.5866 25.6176 71.4502 26.485C71.4502 27.4577 71.1424 27.4085 70.9947 28.3689C70.9331 28.8244 70.6991 29.6001 70.9947 29.9203C71.167 30.105 71.5118 30.0927 71.6842 30.265L71.6226 30.3266Z" fill="url(#paint14_linear_2029_167)"/>
<path d="M56.1207 61.2319L100.915 91.0414L42.0348 112.158L6.43826 91.3L56.1207 61.2319Z" fill="url(#paint15_linear_2029_167)"/>
<g style="mix-blend-mode:multiply">
<path d="M43.0568 107.812L34.9672 108.021L6.43826 91.3001L16.9658 84.5157L43.0568 107.812Z" fill="#9FA4A4"/>
</g>
<g style="mix-blend-mode:multiply">
<path d="M86.0533 81.3514C86.0533 81.3514 86.9029 84.9221 83.8246 85.8333C80.4386 86.8183 74.5777 87.6802 72.2013 88.8869C69.8249 90.0935 63.4838 91.3494 63.4838 91.3494L49.4717 82.0286C49.4717 82.0286 62.4248 76.4016 67.3992 77.4359C72.3736 78.4702 86.0533 81.3514 86.0533 81.3514Z" fill="#9FA4A4"/>
</g>
<path d="M64.0502 86.0424L63.804 88.3818L63.57 90.4381L63.4839 91.263L62.4373 96.4837L43.0568 107.812L42.5643 105.792H42.552L42.4412 104.278L42.0348 98.8847L42.4412 98.6508L54.36 91.7678L64.0502 86.0424Z" fill="url(#paint16_linear_2029_167)"/>
<path d="M40.2001 79.7751L13.0502 81.9422C8.95 84.3062 5.90874 83.2473 5.90874 78.5438L6.1796 75.8103C6.1796 75.8103 36.0999 53.6472 42.5395 54.8784C43.4138 55.0385 68.6182 68.2502 68.2734 70.6143C67.7563 74.2712 43.3399 77.9651 40.2001 79.7751Z" fill="url(#paint17_linear_2029_167)"/>
<path d="M35.8167 60.4193C34.3361 61.0049 32.9206 61.7436 31.5934 62.6233L30.1036 63.7438L45.667 73.1016C46.6582 72.3612 47.713 71.7102 48.8191 71.1561C49.7303 70.7744 51.3433 70.0234 51.3433 70.0234L35.8167 60.4193Z" fill="url(#paint18_linear_2029_167)"/>
<path d="M41.4807 57.1443C40 57.7299 38.5846 58.4686 37.2574 59.3483L35.8168 60.4195L51.331 69.9743C52.2929 69.1363 53.3461 68.4094 54.4708 67.8072C55.3819 67.4132 56.9333 66.6745 56.9333 66.6745L41.4807 57.1443Z" fill="url(#paint19_linear_2029_167)"/>
<path d="M30.0543 63.7931C28.5736 64.3787 27.1581 65.1174 25.8309 65.9971L24.3411 67.1176L39.9292 76.1675C40.9203 75.4272 41.9751 74.7762 43.0813 74.2221C43.9924 73.8404 45.5438 73.1016 45.5438 73.1016L30.0543 63.7931Z" fill="url(#paint20_linear_2029_167)"/>
<path d="M16.1777 56.504L5.77329 75.1949L5.44084 82.6688C5.44084 86.0302 7.81722 87.397 10.8954 84.3434L25.6709 76.6724C28.429 76.3646 28.9954 72.4861 29.8942 68.6445L27.7518 59.1882C26.5328 57.3782 18.5787 55.3342 16.1777 56.504Z" fill="url(#paint21_linear_2029_167)"/>
<path d="M17.8646 57.1193L7.49713 75.8102L7.16468 83.2841C7.16468 86.6578 9.54108 88.0123 12.6193 84.9587L27.3947 77.2877C30.1528 76.9799 30.7192 73.1014 31.6181 69.2721L29.4387 59.7419C28.2197 57.9565 20.3148 55.9618 17.8646 57.1193Z" fill="url(#paint22_linear_2029_167)"/>
<path d="M39.1166 42.726L14.7863 56.7257C14.7863 56.7257 8.12507 61.6509 5.77332 75.195C5.77332 75.195 10.3783 77.6576 11.0309 77.3252C11.4865 77.1035 11.585 76.7834 11.7574 76.3524C11.9298 75.9215 12.2376 75.2812 12.4469 74.7394C12.9025 73.5697 13.2719 72.3754 13.6782 71.2057C14.252 69.4745 15.1458 67.8665 16.3131 66.4652C17.1504 65.5417 18.0492 66.1327 18.6895 65.0615C19.1144 63.9742 19.6206 62.9206 20.204 61.9094C20.9118 61.3534 21.718 60.9357 22.5804 60.6781L28.1581 58.2156L37.2204 54.1277L38.2547 53.6598C39.5598 52.9087 45.4454 46.2721 45.7286 44.5975L40.3848 42.5413C40.1734 42.473 39.9491 42.4542 39.7292 42.4862C39.5094 42.5183 39.2998 42.6003 39.1166 42.726Z" fill="url(#paint23_linear_2029_167)"/>
<path d="M44.4358 44.8558L20.044 58.9048C20.044 58.9048 13.3827 63.83 11.0309 77.3741L15.7345 75.1332C15.8945 75.0593 16.0546 74.025 16.0915 73.9019C16.4117 72.7691 16.7564 71.661 17.1135 70.5528C17.2627 69.6983 17.5321 68.8692 17.9138 68.0902C18.6649 67.0313 19.6623 67.4623 20.5488 66.5265C20.7229 66.3466 20.8873 66.1575 21.0413 65.9601L43.5492 54.2629C44.8544 53.5118 46.0118 48.5251 46.2704 46.8751L46.3443 46.4442C46.6152 44.9297 45.6671 44.1171 44.4358 44.8558Z" fill="url(#paint24_linear_2029_167)"/>
<path d="M36.2354 45.5577C36.2419 45.6933 36.2771 45.8259 36.3387 45.9469C36.4002 46.0679 36.4867 46.1745 36.5924 46.2596C36.6923 46.3609 36.8089 46.4443 36.9372 46.5058C37.4607 46.7758 38.0412 46.9166 38.6302 46.9166C39.2192 46.9166 39.7997 46.7758 40.3232 46.5058C40.4501 46.4368 40.5662 46.3497 40.668 46.2472C40.7744 46.1573 40.8611 46.0464 40.9225 45.9214C40.984 45.7963 41.0189 45.66 41.0251 45.5208C41.0309 45.4758 41.0309 45.4303 41.0251 45.3853C41.0297 45.3444 41.0297 45.3031 41.0251 45.2622C40.896 44.9624 40.6648 44.7181 40.3725 44.5727C39.849 44.3027 39.2685 44.1619 38.6795 44.1619C38.0904 44.1619 37.51 44.3027 36.9864 44.5727C36.8152 44.6504 36.6641 44.7662 36.5445 44.9113C36.425 45.0565 36.3403 45.227 36.2969 45.41C36.2908 45.4632 36.2908 45.5169 36.2969 45.57L36.2354 45.5577Z" fill="url(#paint25_linear_2029_167)"/>
<path d="M36.9372 46.001C36.8158 46.0782 36.7006 46.1647 36.5925 46.2596C36.6923 46.361 36.809 46.4443 36.9372 46.5059C37.4608 46.7758 38.0412 46.9167 38.6303 46.9167C39.2193 46.9167 39.7998 46.7758 40.3233 46.5059C40.4501 46.4368 40.5663 46.3497 40.668 46.2473C40.5626 46.1527 40.447 46.0701 40.3233 46.001C39.798 45.7368 39.2182 45.5992 38.6303 45.5992C38.0423 45.5992 37.4625 45.7368 36.9372 46.001Z" fill="url(#paint26_linear_2029_167)"/>
<g style="mix-blend-mode:multiply">
<path d="M36.2354 45.5577C36.2293 45.5046 36.2293 45.4508 36.2354 45.3977C36.2738 45.2125 36.3634 45.0419 36.494 44.9052C36.494 44.9052 36.494 44.9052 36.5556 44.9052V45.0283C36.5495 45.0773 36.5495 45.127 36.5556 45.176C36.5619 45.3134 36.597 45.4479 36.6585 45.5709C36.72 45.6939 36.8066 45.8027 36.9126 45.8902C36.97 45.953 37.0364 46.0069 37.1096 46.0502L37.2082 46.1118C37.2365 46.1186 37.266 46.1186 37.2943 46.1118C37.3325 46.1409 37.3738 46.1657 37.4175 46.1857L37.5775 46.2473L37.7745 46.3088H37.873H38.0577H38.2794H38.6857H39.5107C39.7411 46.2718 39.9678 46.2141 40.1879 46.1364H40.311L40.5203 46.0379C40.6495 45.9727 40.7663 45.8852 40.8651 45.7794C40.8229 45.9025 40.7559 46.0157 40.6681 46.1118C40.6337 46.1626 40.5922 46.2082 40.5449 46.2473C40.4432 46.3497 40.327 46.4368 40.2002 46.5058L39.9909 46.6043H39.8677C39.6474 46.6948 39.4152 46.7529 39.1782 46.7767H38.3163C38.1812 46.7895 38.0451 46.7895 37.91 46.7767H37.8238H37.6514H37.5406H37.3313L37.1835 46.7028C37.1427 46.7095 37.1012 46.7095 37.0604 46.7028H36.9742L36.8757 46.6413L36.6787 46.4812C36.573 46.3961 36.4865 46.2895 36.4249 46.1686C36.3634 46.0476 36.3282 45.9149 36.3216 45.7794L36.2354 45.5577Z" fill="url(#paint27_linear_2029_167)"/>
</g>
<path d="M43.0567 107.812L14.1584 90.7337L13.8259 90.8814L13.7767 90.1673L13.4073 81.9669L13.2841 81.3267L16.9657 84.5157L32.4553 91.9773L42.3425 96.3853L42.441 98.6509L43.0567 107.812Z" fill="url(#paint28_linear_2029_167)"/>
<g style="mix-blend-mode:multiply">
<path d="M64.0502 86.0424L63.8039 88.3819L63.57 90.4381L42.9583 106.433L13.7767 90.1673L13.0626 81.9423L13.4073 81.9669L16.9658 84.5156L32.4554 91.9772L42.3426 96.3853L42.4411 98.6508L54.36 91.7679L64.0502 86.0424Z" fill="url(#paint29_linear_2029_167)"/>
</g>
<path d="M46.3812 46.6782C46.6398 46.6043 53.7689 46.3457 55.4189 47.811C57.0688 49.2762 57.1427 53.2779 58.0785 55.1987C59.0142 57.1195 47.5879 60.3085 45.7656 60.2347C43.9433 60.1608 36.7526 49.4363 46.3812 46.6782Z" fill="url(#paint30_linear_2029_167)"/>
<path d="M77.2865 77.5096C78.3574 77.1844 79.4527 76.9456 80.5618 76.7955C81.0682 76.643 81.6015 76.601 82.1255 76.6723L84.3049 77.0171C84.5476 77.034 84.7833 77.1056 84.9944 77.2264C85.1617 77.3583 85.2965 77.5268 85.3884 77.7189C85.9928 79.1046 86.2221 80.6247 86.0533 82.1269C86.0582 82.3044 86.0246 82.4808 85.9548 82.6441C85.8043 82.8613 85.5819 83.0183 85.3269 83.0874C82.2363 84.3186 78.9119 84.8358 75.7967 85.9809C74.8443 86.4407 73.8007 86.6806 72.7431 86.6827C71.99 86.5692 71.2735 86.2826 70.6499 85.8454C70.4852 85.7595 70.3421 85.6374 70.2313 85.4884C70.1614 85.3581 70.1155 85.2163 70.0958 85.0697C69.8313 83.7262 69.8063 82.3464 70.022 80.9942C70.0449 80.1697 70.3344 79.3748 70.8469 78.7286C71.4171 78.115 72.0874 77.6029 72.8293 77.2141C73.2486 76.9152 73.7436 76.7403 74.2576 76.7093C74.8979 76.8078 77.2865 77.5096 77.2865 77.5096Z" fill="url(#paint31_linear_2029_167)"/>
<path d="M77.2865 76.7215C78.3556 76.3867 79.4514 76.1436 80.5618 75.9951C81.0682 75.8425 81.6015 75.8006 82.1255 75.8719L84.3049 76.2167C84.5496 76.2322 84.7865 76.3084 84.9944 76.4383C85.1646 76.5621 85.3003 76.7274 85.3884 76.9185C85.9971 78.3116 86.2265 79.8408 86.0533 81.3512C86.0582 81.5286 86.0246 81.705 85.9548 81.8683C85.8043 82.0855 85.5819 82.2425 85.3269 82.3116C82.2363 83.5428 78.9119 84.06 75.7967 85.2051C74.8463 85.6707 73.8014 85.9108 72.7431 85.9069C71.9922 85.7929 71.2767 85.5109 70.6499 85.082C70.4839 84.9925 70.3407 84.8661 70.2313 84.7126C70.1614 84.5823 70.1155 84.4405 70.0958 84.2939C69.8313 82.9504 69.8063 81.5706 70.022 80.2184C70.0449 79.3939 70.3344 78.599 70.8469 77.9528C71.4161 77.3349 72.0865 76.8185 72.8293 76.426C73.2486 76.1271 73.7436 75.9522 74.2576 75.9212C74.8979 76.0074 77.2865 76.7215 77.2865 76.7215Z" fill="url(#paint32_linear_2029_167)"/>
<path d="M49.8041 21.1538C49.8041 21.1538 51.8973 21.3878 52.1313 24.2813C52.3652 27.1748 50.9739 27.852 50.9739 27.852C50.9739 27.852 48.4251 28.4923 44.5589 32.2231C40.6926 35.9539 33.625 26.4976 34.1052 25.7958C34.5854 25.0939 41.8746 24.7492 43.3153 24.1212C44.7559 23.4933 49.2378 21.6217 49.8041 21.1538Z" fill="url(#paint33_linear_2029_167)"/>
<path d="M55.4189 57.7474C55.5173 60.6981 55.122 63.6446 54.2492 66.4649C53.4526 68.8563 51.7863 70.8609 49.5808 72.0811C47.3753 73.3013 44.7917 73.6479 42.3426 73.0523C35.5459 71.821 28.3552 64.7781 27.7395 63.5714C27.1239 62.3647 24.8583 50.7168 21.1521 41.5683C19.3014 37.3095 18.6254 32.6327 19.1944 28.0241C19.286 27.179 19.4932 26.3504 19.81 25.5616C20.0809 25.0937 30.0297 19.3066 39.0427 24.3303C44.2098 27.097 48.8924 30.6859 52.9071 34.9563L53.6828 41.7407L53.9167 43.76C53.9167 43.76 55.3942 53.7211 55.3942 55.1987C55.3942 55.6912 55.4312 56.6023 55.4189 57.7474Z" fill="url(#paint34_linear_2029_167)"/>
<path d="M29.9312 22.3478C29.9312 22.3478 21.3122 19.9468 18.5541 34.7469C17.5445 40.1769 22.9498 39.0564 22.9498 39.0564C22.9498 39.0564 25.5601 28.9475 28.3552 25.5122C31.1502 22.0769 34.056 25.5861 34.056 25.5861C33.6493 24.7759 33.0687 24.0656 32.3556 23.5058C31.6426 22.946 30.8148 22.5506 29.9312 22.3478Z" fill="url(#paint35_linear_2029_167)"/>
<g style="mix-blend-mode:multiply">
<path d="M55.4189 57.7476C54.9349 57.7348 54.47 57.5566 54.1014 57.2427C53.4119 56.504 53.9783 55.3219 53.8921 54.3246C53.7443 52.5392 51.6881 51.7389 50.1982 50.6307C48.55 49.2032 47.2631 47.4057 46.4428 45.3854L43.2291 38.9458C46.1965 38.9458 49.3117 39.0566 51.8482 40.5095C52.4599 40.8713 53.0405 41.2832 53.5843 41.7408L53.8182 43.7601C53.8182 43.7601 55.2958 53.7213 55.2958 55.1988C55.3943 55.6913 55.4312 56.6025 55.4189 57.7476Z" fill="#959595"/>
</g>
<path d="M69.2462 28.184C69.2462 28.184 64.5427 34.7098 62.5234 35.8549C60.504 37 57.8075 38.3175 57.8075 38.3175C57.8075 38.3175 53.2518 35.3378 52.8824 34.9561C52.513 34.5744 50.0504 33.0722 47.8341 39.2533C45.6178 45.4344 47.8957 48.2663 52.1313 48.6726C56.3669 49.079 60.4794 50.2487 64.1117 47.7861C67.744 45.3235 74.5407 33.811 74.5407 33.614C74.5407 33.417 75.0332 27.1744 69.2462 28.184Z" fill="url(#paint36_linear_2029_167)"/>
<path d="M53.8798 16.4994C52.8313 16.8064 51.826 17.2449 50.8877 17.8046C50.3623 19.1552 49.9505 20.5472 49.6565 21.9663C49.4102 22.7913 50.309 25.0691 51.2448 25.2538C52.1806 25.4385 52.4761 25.2538 53.1779 24.4904C53.5482 24.0677 53.9608 23.684 54.4092 23.3453L56.6994 22.9267C56.6994 22.9267 57.2904 22.7174 57.2166 22.348C57.1764 22.1129 57.0838 21.8899 56.9457 21.6954C56.9457 21.6954 57.3027 21.5477 57.352 21.2768C57.3452 20.9616 57.287 20.6497 57.1796 20.3533C57.2735 20.3241 57.3566 20.2675 57.418 20.1907C57.4795 20.1139 57.5165 20.0204 57.5244 19.9224C57.4094 19.492 57.2398 19.0782 57.0195 18.6911C57.0195 18.6911 57.6598 18.5433 57.6598 18.1001C57.6598 17.6568 57.155 17.2628 55.9237 17.0658C55.2227 16.9569 54.5368 16.7668 53.8798 16.4994Z" fill="url(#paint37_linear_2029_167)"/>
<path d="M53.9659 18.0755C53.3445 20.1745 53.1149 22.3699 53.2887 24.552C53.5103 25.9803 55.0125 27.3963 55.4927 27.2732C55.9729 27.1501 55.9483 21.9663 55.9483 21.9663L58.4109 10.8848C58.4109 10.8848 57.0564 10.1706 56.2069 10.7493C55.3573 11.328 54.2861 16.8688 53.9659 18.0755Z" fill="url(#paint38_linear_2029_167)"/>
<path d="M69.7141 28.9105C70.0111 27.9243 70.39 26.9647 70.8469 26.0416C71.6473 24.3548 72.4107 22.6063 72.4107 22.6063C72.4107 22.6063 73.4942 21.3751 74.0975 21.5228C74.7009 21.6706 74.8363 21.5228 74.5654 22.3478C74.2945 23.1727 73.4449 25.3275 73.4449 25.3275C73.3314 26.4513 72.9515 27.5319 72.3368 28.4796C71.5241 29.243 69.7141 28.9105 69.7141 28.9105Z" fill="url(#paint39_linear_2029_167)"/>
<path d="M75.8336 23.6657C75.8336 23.6657 77.5574 23.8504 77.9268 25.0324C78.1216 25.8536 78.0527 26.7153 77.7298 27.495C77.666 28.1662 77.4956 28.8229 77.225 29.4404C76.8433 30.1176 76.7201 31.1027 76.5231 31.2751C76.3261 31.4474 73.9497 32.6418 73.6912 32.8388C73.4326 33.0358 69.8126 29.3666 70.2189 28.7017C70.6253 28.0368 72.4599 23.6903 73.371 23.4318C74.1992 23.3321 75.039 23.4119 75.8336 23.6657Z" fill="url(#paint40_linear_2029_167)"/>
<path d="M76.6956 21.5108C76.6704 22.6151 76.5799 23.717 76.4247 24.8106C76.24 25.3401 76.1415 25.6356 75.4643 25.8695C74.7871 26.1035 73.8759 26.4113 73.3834 25.7341C72.8909 25.0569 74.0975 19.8362 74.1222 19.7377C74.1468 19.6392 77.0526 19.0113 76.6956 21.5108Z" fill="url(#paint41_linear_2029_167)"/>
<path d="M29.3648 64.372C29.3648 64.372 32.5169 69.6911 35.0041 71.3041C37.4913 72.9171 43.0198 75.4782 44.288 75.6013C45.5563 75.7245 53.5104 75.6013 56.7979 73.2742C60.0855 70.9471 64.5427 67.4009 64.5427 67.4009C64.5427 67.4009 74.8363 60.1363 75.0949 57.5506C75.3534 54.9649 73.211 51.2957 71.204 51.0864C69.197 50.8771 57.1427 52.7732 51.4172 55.0634C45.6917 57.3536 29.3648 64.372 29.3648 64.372Z" fill="url(#paint42_linear_2029_167)"/>
<path d="M79.3428 79.5781C78.6041 80.8094 77.9638 81.8683 75.1318 82.0407C74.4921 82.0767 73.8508 82.0767 73.211 82.0407C68.7045 81.7698 69.1108 79.3565 69.2463 77.1156C69.3817 74.8746 65.0722 70.4543 64.5428 67.4253C64.0379 64.3717 66.599 56.7624 75.0703 56.3438C75.0703 56.3438 78.6041 70.1465 79.3551 72.5721C80.1062 74.9978 80.2171 78.1006 79.3428 79.5781Z" fill="url(#paint43_linear_2029_167)"/>
<g style="mix-blend-mode:multiply">
<path d="M45.6671 69.8878C46.8716 70.7349 48.1395 71.4882 49.4594 72.1411C47.2574 73.2518 44.7409 73.5735 42.3303 73.0522C35.5336 71.8209 28.3428 64.778 27.7272 63.5713C27.1116 62.3647 24.846 50.7167 21.1398 41.5682C19.2891 37.3094 18.6131 32.6326 19.1821 28.024C19.316 28.4477 19.4848 28.8596 19.6869 29.2553C19.5908 29.2864 19.4874 29.2864 19.3914 29.2553C20.7089 30.2527 21.9894 31.3978 23.3438 32.3089C24.5012 33.0723 25.868 33.3678 27.0377 34.2667C29.9189 36.5446 31.9628 39.8444 35.2873 41.4697C36.8018 42.2208 38.6241 42.701 39.5106 44.1047C40.6557 45.9393 39.7446 48.5619 40.9882 50.3227L38.7472 49.7809L40.9266 53.9673C39.5635 53.7978 38.1827 54.0835 36.9988 54.7799C36.7163 54.9628 36.4742 55.2016 36.2876 55.4817C36.101 55.7617 35.9737 56.0771 35.9137 56.4082C35.8537 56.7394 35.8623 57.0793 35.9388 57.4071C36.0153 57.7348 36.1581 58.0434 36.3585 58.3137C37.0357 59.0156 38.2055 59.0894 38.8211 59.8159C38.989 60.0265 39.1078 60.272 39.1687 60.5344C39.2297 60.7967 39.2313 61.0694 39.1735 61.3325C39.1157 61.5956 38.9999 61.8425 38.8346 62.0551C38.6692 62.2678 38.4585 62.4408 38.2178 62.5617L41.7639 66.5757C42.1861 67.1342 42.7583 67.5612 43.4138 67.8069C44.0048 67.967 44.8052 67.9178 45.0268 68.4965C45.1253 68.7673 45.0268 69.0752 45.1376 69.3584C45.2549 69.5855 45.4399 69.7706 45.6671 69.8878Z" fill="url(#paint44_linear_2029_167)"/>
</g>
<path d="M21.4107 32.974C21.4205 35.1282 22.0957 37.2268 23.3438 38.9827C24.4755 40.156 25.7741 41.1559 27.1977 41.9501C27.906 42.4575 28.6978 42.8367 29.5371 43.0705C30.4765 43.1643 31.4249 43.0471 32.3132 42.7276C33.2015 42.4081 34.0072 41.8942 34.6716 41.2236C36.2354 39.9923 37.2081 38.1208 38.6856 36.791C40.4897 35.246 41.9638 33.3532 43.0198 31.2256C43.1549 30.987 43.2388 30.7227 43.266 30.4499C43.2947 30.1382 43.2612 29.824 43.1675 29.5254C43.0738 29.2268 42.9218 28.9497 42.7202 28.7103C42.5186 28.4709 42.2715 28.274 41.9932 28.1308C41.7149 27.9877 41.4109 27.9012 41.0989 27.8765C40.2663 27.793 39.4256 27.8939 38.6364 28.172C37.4044 28.5522 36.2285 29.0946 35.1395 29.785C34.4807 30.3211 33.6895 30.6699 32.8493 30.7946C32.3547 30.788 31.8659 30.6877 31.4087 30.4991C29.3614 30.0157 27.4817 28.9908 25.9664 27.5317C25.5601 27.0515 25.2153 26.5097 24.7351 26.0542C24.5227 25.8186 24.2649 25.6285 23.9771 25.4952C23.6894 25.3619 23.3776 25.2881 23.0606 25.2784C20.9428 25.4016 21.2752 31.4964 21.4107 32.974Z" fill="url(#paint45_linear_2029_167)"/>
<path d="M43.2045 29.3908C43.2045 29.3908 44.3496 31.7549 40.7419 33.0846C37.1342 34.4144 32.8124 35.7073 27.5671 34.2297C22.3218 32.7522 22.1002 27.6424 22.1125 26.0294C22.1248 24.4164 25.1415 22.4586 31.7289 21.9292C38.3162 21.3997 43.8201 25.229 43.2045 29.3908Z" fill="url(#paint46_linear_2029_167)"/>
<g style="mix-blend-mode:multiply">
<path d="M40.4218 25.8694C40.4218 25.8694 42.2071 28.4551 41.7393 29.8711C41.2714 31.2871 33.0217 32.7893 31.1748 32.7893C29.8186 32.7375 28.5003 32.3274 27.354 31.6007C26.2077 30.874 25.2744 29.8567 24.649 28.6521C23.4177 25.7955 24.2427 24.1456 27.5425 23.4068C30.8424 22.6681 38.0331 22.2494 40.4218 25.8694Z" fill="#959595"/>
</g>
<path d="M41.3822 63.4606C42.4781 63.8792 42.8721 64.8642 43.8448 65.4306C44.6845 65.7968 45.5649 66.0614 46.4674 66.2186C48.499 66.7973 48.7946 68.6812 49.6441 70.3804C50.8754 69.1491 51.8482 67.61 52.9563 66.2802C53.085 66.1405 53.1928 65.9829 53.2764 65.8123C53.3401 65.6623 53.3855 65.5052 53.4119 65.3444C53.7813 63.7438 54.951 62.5002 54.4215 60.8625C54.0152 59.6313 53.3257 58.4985 52.8086 57.2918C52.251 55.7624 51.7743 54.2047 51.3803 52.6252C51.349 52.4418 51.2529 52.2758 51.1094 52.1573C50.9702 52.08 50.821 52.022 50.6661 51.985C49.755 51.6402 49.2255 49.978 48.5852 49.2392C47.945 48.5004 46.4305 47.2568 46.8368 46.161C47.0708 45.533 47.945 45.4222 48.5976 45.6069C49.9 45.8194 51.2246 45.8608 52.5377 45.73C54.2861 45.73 56.0099 46.0255 57.746 46.1363C59.111 46.2145 60.4804 46.1568 61.8339 45.964C65.8602 45.3853 67.1531 41.1619 68.8399 38.0837C69.788 36.3599 71.3025 35.1533 72.1398 33.4418C72.6446 32.4444 73.5311 28.5166 71.0932 30.2281C70.8822 30.3797 70.6954 30.5624 70.5391 30.7699L69.825 31.5948C68.9509 32.7901 67.929 33.8699 66.7837 34.8085C65.4956 35.6013 64.3089 36.5482 63.2499 37.6281C62.5511 38.3944 62.1191 39.3664 62.0186 40.3985C60.6026 40.0661 59.2482 40.3985 57.9184 39.8198C56.142 39.0464 54.4537 38.0846 52.8824 36.9509C52.0944 36.3969 51.1586 36.0644 50.4199 35.498C49.6811 34.9316 49.0654 34.1067 48.302 33.5156C47.0894 32.443 45.558 31.7985 43.9433 31.681C43.7365 31.6738 43.5307 31.7116 43.34 31.7918C43.164 31.8982 43.0129 32.0409 42.8967 32.2105C42.4411 32.7769 42.0471 33.528 41.5669 34.0328C41.0867 34.5376 40.3356 34.6238 39.9909 35.104C38.6184 36.418 37.5144 37.9862 36.7403 39.7213C36.3462 40.534 36.1 41.6914 36.8511 42.1839C37.0481 42.3194 37.3067 42.3809 37.4544 42.5656C37.9346 43.1813 36.7526 43.8708 36.7156 44.6588C36.7187 44.8872 36.7779 45.1113 36.888 45.3114C37.2945 46.2069 37.8669 47.0174 38.5749 47.7001C38.8827 48.0079 39.2644 48.3896 39.1536 48.8082C39.1536 49.0052 38.9689 49.153 38.9319 49.35C38.8458 49.7686 39.2521 50.1134 39.6461 50.2612C40.0604 50.3591 40.4421 50.5627 40.7542 50.8522C40.8821 51.1131 40.9316 51.4055 40.8966 51.694C40.8617 51.9825 40.7438 52.2547 40.5573 52.4775C40.1717 52.9193 39.9197 53.4616 39.8308 54.0412C39.8819 54.4099 39.9685 54.7727 40.0894 55.1247C40.1508 55.3026 40.1516 55.4958 40.0914 55.674C40.0312 55.8523 39.9136 56.0056 39.7569 56.1098C39.5599 56.2083 39.326 56.1098 39.1413 56.2822C38.7473 56.5038 38.8458 57.0948 39.0551 57.5134C39.3552 58.0848 39.7752 58.5846 40.2864 58.9787C40.508 59.1634 40.7666 59.3357 40.8158 59.6189C40.8651 59.9021 40.5942 60.2592 40.4095 60.5424C40.2719 60.7959 40.1879 61.0749 40.1626 61.3622C40.1373 61.6495 40.1713 61.939 40.2625 62.2126C40.3538 62.4862 40.5002 62.7382 40.6928 62.9528C40.8854 63.1675 41.1201 63.3403 41.3822 63.4606Z" fill="url(#paint47_linear_2029_167)"/>
<path d="M34.8071 33.3309C34.7423 33.342 34.6824 33.372 34.6347 33.4171C34.4869 33.5772 34.6347 33.8481 34.8563 33.9096C35.0779 33.9712 35.2873 33.9096 35.4843 34.0451C35.6145 34.1187 35.7222 34.2263 35.7959 34.3565C35.8697 34.4866 35.9067 34.6343 35.9029 34.7838C35.8876 35.0817 35.8165 35.374 35.6936 35.6457C31.655 37.3572 26.8653 35.5842 23.8979 32.6783C23.5939 34.6006 23.9041 36.5697 24.7844 38.3053C25.0757 38.9563 25.4943 39.5424 26.0157 40.0291C26.9624 40.7236 28.0517 41.1989 29.2047 41.4205C30.1488 41.7796 31.1804 41.8398 32.1598 41.5929C33.3911 41.1373 34.1175 39.7582 35.3735 39.3273C33.0661 38.9902 30.7184 39.0443 28.429 39.4874C30.3867 37.8867 33.2556 38.2561 35.6074 37.3203C38.2793 36.2983 40.0277 33.7619 41.6161 31.3732C41.3945 31.7056 38.6979 31.9765 38.1562 32.1858C37.048 32.5675 35.9398 32.9738 34.8071 33.3309Z" fill="url(#paint48_linear_2029_167)"/>
<path d="M56.8841 59.1879C56.5148 60.4192 55.8991 61.6505 55.6529 62.8818C55.4066 64.1131 55.5174 65.3444 55.3943 66.5757C55.3756 67.1919 55.2317 67.7979 54.9713 68.3567C54.711 68.9155 54.3396 69.4155 53.8798 69.8263C54.4708 70.4296 55.4928 70.0725 56.2439 69.6785L62.0309 66.6742C63.0024 66.2448 63.8807 65.63 64.6166 64.8642C65.8479 63.3497 65.8479 61.1087 67.0792 59.582C68.606 57.6611 71.635 57.3041 72.8663 55.1986C73.0547 54.9252 73.1557 54.601 73.1557 54.2689C73.1557 53.9369 73.0547 53.6127 72.8663 53.3393C72.0536 52.3912 69.1724 52.6005 68.0519 52.8099C65.7125 53.2162 63.3853 53.8318 61.0705 54.3367L61.366 54.152C60.1732 54.5504 58.9291 54.7744 57.6722 54.8169C57.2658 54.8169 56.6379 54.8169 56.4409 55.2971C56.2439 55.7773 56.6502 55.7403 56.761 56.1097C57.1302 57.0962 57.1733 58.1751 56.8841 59.1879Z" fill="url(#paint49_linear_2029_167)"/>
<path d="M68.8153 64.3596C69.1354 64.3596 70.0466 63.2884 70.4283 63.0544C71.1098 62.7054 71.7328 62.2527 72.2752 61.7123C73.0522 60.7169 73.5723 59.5456 73.7897 58.3016C72.9325 59.3641 71.9623 60.3302 70.8962 61.1829C70.3914 61.6261 67.2023 63.6454 67.2023 64.1626C66.3483 64.7888 65.5894 65.5353 64.9491 66.3789C65.9464 65.9849 67.0546 66.4897 68.1135 66.6867C69.8496 67.0068 71.6596 66.4897 73.3957 66.8345C72.1464 67.5872 70.9929 68.4885 69.9604 69.5187C70.9666 69.0886 72.0997 69.0621 73.1248 69.4448C73.0736 69.6819 72.9433 69.8946 72.7554 70.0481C73.5059 69.5779 74.3434 69.2638 75.218 69.1247C75.279 68.6222 75.3904 68.1272 75.5505 67.6471C74.8512 67.7578 74.1659 67.9436 73.5065 68.2012C74.5202 67.07 75.2132 65.6884 75.5135 64.1995C74.3873 64.5334 73.1995 64.605 72.0413 64.4088C72.4353 63.6947 73.2726 63.4484 73.9744 62.9313C74.4048 62.5569 74.6978 62.0495 74.8071 61.4897C74.9164 60.9298 74.8357 60.3495 74.5777 59.8407C74.015 60.976 73.2054 61.971 72.2084 62.7529C71.2113 63.5348 70.052 64.0837 68.8153 64.3596Z" fill="url(#paint50_linear_2029_167)"/>
<path d="M39.2766 27.8519C37.1271 28.6864 34.9218 29.3694 32.6769 29.8958C31.7165 29.8958 28.823 29.1201 28.1089 28.3198C27.3947 27.5194 28.4167 26.5344 28.5521 25.0569C28.5121 23.4427 28.2807 21.8391 27.8626 20.2795C27.7764 19.8732 36.5555 11.3403 37.9715 10.9956C39.3875 10.6508 40.0154 7.70803 41.5299 8.71768C43.0444 9.72734 42.8843 12.0052 42.9828 12.744C43.0813 13.4828 42.9828 16.2778 42.9828 17.4229C42.9828 18.568 43.2168 21.0182 42.0717 22.0648C40.9266 23.1114 39.9908 23.7271 39.7815 24.3181C39.5511 25.4863 39.3826 26.6659 39.2766 27.8519Z" fill="url(#paint51_linear_2029_167)"/>
<path d="M40.237 21.2397L40.0893 22.3479C40.0893 22.3479 40.1755 23.0251 39.8553 22.9143C39.5352 22.8034 39.0058 21.2397 39.0058 21.2397C39.0888 20.5782 39.2978 19.9387 39.6214 19.3558C40.1139 18.6171 40.4464 18.2477 40.5695 18.8387C40.7319 19.6536 40.6148 20.4995 40.237 21.2397Z" fill="url(#paint52_linear_2029_167)"/>
<path d="M40.7419 18.9374C40.7419 18.9374 41.0128 17.8292 39.5968 18.9374C38.5679 19.6934 37.7256 20.6747 37.1342 21.8063C36.324 22.7482 35.3473 23.5329 34.253 24.1211C33.3757 24.5658 32.4046 24.7938 31.421 24.786C30.8634 24.7508 30.3211 24.5896 29.8348 24.3144C29.3486 24.0393 28.9311 23.6575 28.6137 23.1976C26.6097 21.0865 25.2623 18.4387 24.7352 15.576C24.3042 11.9683 24.9075 9.18559 26.3851 7.73267C27.8626 6.27975 28.6876 6.24281 28.6876 6.24281C28.6876 6.24281 28.6876 4.82683 32.1844 3.91568C35.6813 3.00452 41.1605 4.05112 42.3795 5.40553C43.5985 6.75995 43.0321 9.87511 43.0321 9.87511C43.0321 9.87511 42.1702 10.8971 42.5396 11.3157C42.8991 12.2194 43.0668 13.188 43.0321 14.16C43.0321 14.7879 41.8993 15.7607 41.8008 16.8073C41.7583 17.5208 41.7583 18.2362 41.8008 18.9497L40.7419 18.9374Z" fill="#1B0D00"/>
<path d="M55.4189 15.4404C55.4189 15.4404 55.7144 16.3269 55.1603 16.7825C54.712 17.087 54.3363 17.4864 54.0596 17.9524C53.783 18.4185 53.6123 18.9396 53.5596 19.479C53.6818 20.4471 53.5721 21.4305 53.2395 22.3479C52.9869 22.5189 52.6888 22.6102 52.3838 22.6102C52.0787 22.6102 51.7806 22.5189 51.528 22.3479C51.2637 21.8686 51.1139 21.3346 51.0904 20.7877C51.0669 20.2409 51.1703 19.696 51.3926 19.1958C51.6534 18.4667 52.0095 17.7753 52.4515 17.1395C52.6608 16.9672 53.5719 15.6743 53.8798 15.5512C54.1876 15.4281 54.8525 14.9971 55.4189 15.4404Z" fill="url(#paint53_linear_2029_167)"/>
<path d="M57.6105 40.7188C57.9922 43.0829 56.9457 45.1391 55.2834 45.3238C53.6212 45.5085 51.9466 43.7355 51.5895 41.3714C51.2325 39.0073 52.2421 36.9511 53.9167 36.7664C55.5912 36.5817 57.2288 38.3178 57.6105 40.7188Z" fill="#C1ECFD"/>
<path d="M55.6527 37.9482L52.9685 42.2947L54.5076 42.0238C54.5076 42.0238 54.8893 44.1539 54.914 44.0554C54.9386 43.9569 55.6527 37.9482 55.6527 37.9482Z" fill="url(#paint54_linear_2029_167)"/>
<path d="M34.0559 92.6913L9.39324 77.2756L2.48572 39.1919L29.9311 48.0325L34.0559 92.6913Z" fill="url(#paint55_linear_2029_167)"/>
<path d="M46.1965 28.7384C46.1965 28.7384 38.895 32.4323 36.5925 44.0556C35.5089 49.4856 40.9881 48.3651 40.9881 48.3651C40.9881 48.3651 43.5985 38.2686 46.3935 34.821L49.1762 31.3734C49.1762 31.3734 49.5825 30.4006 46.1965 28.7384Z" fill="url(#paint56_linear_2029_167)"/>
<path d="M27.998 62.3525L37.8483 43.0829L13.8259 28.6276C13.6129 28.4754 13.3862 28.3435 13.1487 28.2336C12.2844 27.9722 11.3719 27.9106 10.4803 28.0535C9.58871 28.1964 8.74123 28.5401 8.00191 29.0585L4.4681 31.3241C1.74695 32.8878 -0.346231 36.6433 0.047781 39.2536C0.047781 39.2536 1.27907 46.5305 3.32301 48.3774C3.52035 48.5808 3.77287 48.7221 4.04947 48.7838L27.998 62.3525Z" fill="url(#paint57_linear_2029_167)"/>
<path d="M44.5959 86.6088L34.0561 92.6914L27.284 53.2655L38.4887 46.8013L44.5959 86.6088Z" fill="url(#paint58_linear_2029_167)"/>
<path d="M45.6793 87.089L35.1518 93.1716L28.3797 53.7458L39.5721 47.2815L45.6793 87.089Z" fill="url(#paint59_linear_2029_167)"/>
<path d="M39.5106 56.5285C37.7621 59.8406 31.1871 63.239 28.8969 62.8696C26.6067 62.5002 24.8459 53.3148 24.8459 53.3148C24.4519 50.7045 26.5451 46.9614 29.2662 45.3853L32.2337 43.6738C36.2723 41.3467 39.6214 42.7873 39.7568 46.9614C39.7322 46.9614 40.9265 53.8196 39.5106 56.5285Z" fill="url(#paint60_linear_2029_167)"/>
<path d="M40.7419 57.2179C38.9811 60.5424 32.4183 63.9407 30.1158 63.559C27.8133 63.1773 26.0772 54.0166 26.0772 54.0166C25.6832 51.4062 27.7764 47.6508 30.4975 46.0871L33.4526 44.3756C37.5036 42.0361 40.8404 43.4891 40.9881 47.6631C41.0004 47.6631 42.1825 54.5214 40.7419 57.2179Z" fill="url(#paint61_linear_2029_167)"/>
<path d="M55.3696 92.1497L40.237 98.3061C36.1369 100.67 32.8493 98.774 32.8493 94.0705V91.0538C32.8493 91.0538 61.8585 69.4571 68.3104 70.5775C69.2093 70.7253 69.3447 72.8308 69.1969 75.1949C68.9384 78.8887 71.1547 83.7031 55.3696 92.1497Z" fill="#999595"/>
<path d="M43.5 70.5653L32.9602 90.6107L32.7632 97.6167C32.7632 100.99 35.1396 102.345 38.0823 100.646L52.8578 92.1006C55.7513 90.426 56.3177 86.5475 57.2166 82.7182L55.0372 73.2003C53.8551 71.5011 45.9503 69.4079 43.5 70.5653Z" fill="url(#paint62_linear_2029_167)"/>
<path d="M45.1869 71.181L34.6471 91.2017L34.4501 98.1955C34.4501 101.569 36.8264 102.936 39.7692 101.237L54.5447 92.6177C57.4382 90.9432 58.0046 87.0769 58.9034 83.2353L57.4013 76.6726C56.2192 75.0226 47.6371 70.0236 45.1869 71.181Z" fill="#999595"/>
<path d="M68.2734 70.5774C68.2734 70.5774 49.3609 81.2527 47.5755 82.7918C45.7901 84.3309 42.0347 92.088 42.0347 92.088L34.4992 96.2621L34.647 91.2384L43.0567 80.44L57.5982 71.3285L68.2734 70.5774Z" fill="url(#paint63_linear_2029_167)"/>
<path d="M66.4388 56.7993L42.0963 70.8483C42.0963 70.8483 35.3118 77.1402 32.9601 90.5489C32.9601 90.5489 37.5528 93.0115 38.2177 92.679C38.6733 92.4697 38.7718 92.1496 38.9318 91.7186C39.0919 91.2877 39.4244 90.6474 39.6337 90.0933C40.0769 88.8621 40.4586 87.7293 40.865 86.5595C41.4339 84.83 42.3283 83.2251 43.4999 81.8314C44.4086 80.9944 45.2334 80.0707 45.9625 79.0733C46.3874 77.9821 46.8937 76.9243 47.477 75.9089C48.1848 75.3529 48.9909 74.9352 49.8534 74.6776L55.4188 72.215L64.4934 68.1149L65.5277 67.647C66.8328 66.8959 72.7184 60.2592 72.9893 58.5847C72.9893 58.5847 68.1996 56.7501 67.6578 56.5284C67.447 56.4843 67.2293 56.4857 67.0191 56.5324C66.8089 56.5791 66.6111 56.6701 66.4388 56.7993Z" fill="url(#paint64_linear_2029_167)"/>
<path d="M71.6964 58.9296L47.3539 72.9786C47.3539 72.9786 40.5695 79.2705 38.2177 92.6792L42.9212 90.4506C43.069 90.3767 43.2291 89.3424 43.2783 89.2193C43.5984 88.0988 43.9432 86.9906 44.3003 85.8702C44.4475 85.0152 44.717 84.1858 45.1006 83.4076C45.9565 82.3729 46.8821 81.3979 47.871 80.4895C48.0481 80.3123 48.2126 80.123 48.3635 79.923L70.8715 68.2997C72.1766 67.5363 73.334 62.5496 73.5926 60.912V60.4933C73.9866 58.9912 72.977 58.1785 71.6964 58.9296Z" fill="url(#paint65_linear_2029_167)"/>
<path d="M7.87878 86.3872L33.8589 100.695L33.7481 90.8444L7.49708 75.8104C7.49708 75.8104 4.91137 82.3732 7.87878 86.3872Z" fill="url(#paint66_linear_2029_167)"/>
<path d="M108.315 21.1168L104.141 31.5458L102.885 54.7925L106.628 56.0731L100.915 91.0416L110.223 77.1897L108.315 21.1168Z" fill="url(#paint67_linear_2029_167)"/>
<path d="M99.5483 19.9838L85.1545 28.7382V48.4634L80.3525 27.9009L99.5483 19.9838Z" fill="url(#paint68_linear_2029_167)"/>
<path d="M89.2669 28.5659L88.8606 32.0751L90.9907 32.8754L91.4463 29.2554L89.2669 28.5659Z" fill="url(#paint69_linear_2029_167)"/>
<path d="M92.7269 29.7357L92.3206 33.2449L94.4507 34.0575L94.9063 30.4252L92.7269 29.7357Z" fill="url(#paint70_linear_2029_167)"/>
<path d="M96.1867 30.9178L95.7804 34.4147L97.8982 35.2274L98.3661 31.6074L96.1867 30.9178Z" fill="url(#paint71_linear_2029_167)"/>
<path d="M99.6467 32.0873L99.2281 35.5964L101.358 36.3968L101.814 32.7768L99.6467 32.0873Z" fill="url(#paint72_linear_2029_167)"/>
<path d="M88.9099 33.6635L88.5036 37.1603L90.6214 37.973L91.0893 34.353L88.9099 33.6635Z" fill="url(#paint73_linear_2029_167)"/>
<path d="M92.3698 34.8333L91.9634 38.3301L94.0813 39.1428L94.5491 35.5228L92.3698 34.8333Z" fill="url(#paint74_linear_2029_167)"/>
<path d="M95.8298 36.0027L95.4111 39.5119L97.5413 40.3122L97.9968 36.6922L95.8298 36.0027Z" fill="url(#paint75_linear_2029_167)"/>
<path d="M99.2773 37.1848L98.871 40.6817L101.001 41.4943L101.457 37.8743L99.2773 37.1848Z" fill="url(#paint76_linear_2029_167)"/>
<path d="M56.4162 49.3379C55.2208 53.1107 52.9167 56.4359 49.8042 58.8804C47.4021 60.8423 44.8496 62.6126 42.1702 64.1749L42.8228 68.4228C42.8228 68.4228 55.1973 61.306 56.8472 56.0238C57.2345 54.9596 57.4869 53.851 57.5983 52.7239L56.4162 49.3379Z" fill="url(#paint77_linear_2029_167)"/>
<defs>
<linearGradient id="paint0_linear_2029_167" x1="48.5334" y1="45.5073" x2="105.731" y2="45.5073" gradientUnits="userSpaceOnUse">
<stop stop-color="#2C2A26"/>
<stop offset="1" stop-color="#C4C4C4"/>
</linearGradient>
<linearGradient id="paint1_linear_2029_167" x1="49.9706" y1="44.5057" x2="105.753" y2="44.5057" gradientUnits="userSpaceOnUse">
<stop stop-color="#2C2A26"/>
<stop offset="1" stop-color="#C4C4C4"/>
</linearGradient>
<linearGradient id="paint2_linear_2029_167" x1="50.2443" y1="5.70214" x2="52.2914" y2="5.70214" gradientUnits="userSpaceOnUse">
<stop stop-color="#4EB1D6"/>
<stop offset="1" stop-color="#3783AD"/>
</linearGradient>
<linearGradient id="paint3_linear_2029_167" x1="52.9778" y1="8.62638" x2="55.0248" y2="8.62638" gradientUnits="userSpaceOnUse">
<stop stop-color="#4EB1D6"/>
<stop offset="1" stop-color="#3783AD"/>
</linearGradient>
<linearGradient id="paint4_linear_2029_167" x1="55.9399" y1="13.5522" x2="57.5943" y2="13.363" gradientUnits="userSpaceOnUse">
<stop stop-color="white"/>
<stop offset="1" stop-color="#D4D4D4"/>
</linearGradient>
<linearGradient id="paint5_linear_2029_167" x1="58.672" y1="16.4719" x2="60.3166" y2="16.2845" gradientUnits="userSpaceOnUse">
<stop stop-color="white"/>
<stop offset="1" stop-color="#D4D4D4"/>
</linearGradient>
<linearGradient id="paint6_linear_2029_167" x1="49.9612" y1="11.0704" x2="52.0082" y2="11.0704" gradientUnits="userSpaceOnUse">
<stop stop-color="#4EB1D6"/>
<stop offset="1" stop-color="#3783AD"/>
</linearGradient>
<linearGradient id="paint7_linear_2029_167" x1="52.6977" y1="13.9999" x2="54.7416" y2="13.9999" gradientUnits="userSpaceOnUse">
<stop stop-color="#4EB1D6"/>
<stop offset="1" stop-color="#3783AD"/>
</linearGradient>
<linearGradient id="paint8_linear_2029_167" x1="55.4311" y1="16.9303" x2="57.475" y2="16.9303" gradientUnits="userSpaceOnUse">
<stop stop-color="#4EB1D6"/>
<stop offset="1" stop-color="#3783AD"/>
</linearGradient>
<linearGradient id="paint9_linear_2029_167" x1="58.1493" y1="19.8497" x2="60.1963" y2="19.8497" gradientUnits="userSpaceOnUse">
<stop stop-color="#4EB1D6"/>
<stop offset="1" stop-color="#3783AD"/>
</linearGradient>
<linearGradient id="paint10_linear_2029_167" x1="85.9776" y1="40.5793" x2="103.86" y2="40.5793" gradientUnits="userSpaceOnUse">
<stop stop-color="#2C2A26"/>
<stop offset="1" stop-color="#C4C4C4"/>
</linearGradient>
<linearGradient id="paint11_linear_2029_167" x1="57.2497" y1="31.1896" x2="84.7234" y2="31.1896" gradientUnits="userSpaceOnUse">
<stop stop-color="#2C2A26"/>
<stop offset="1" stop-color="#C4C4C4"/>
</linearGradient>
<linearGradient id="paint12_linear_2029_167" x1="51.8694" y1="15.7682" x2="107.443" y2="15.7682" gradientUnits="userSpaceOnUse">
<stop stop-color="#2C2A26"/>
<stop offset="1" stop-color="#C4C4C4"/>
</linearGradient>
<linearGradient id="paint13_linear_2029_167" x1="57.8737" y1="18.6144" x2="98.9044" y2="18.6144" gradientUnits="userSpaceOnUse">
<stop stop-color="#2C2A26"/>
<stop offset="1" stop-color="#C4C4C4"/>
</linearGradient>
<linearGradient id="paint14_linear_2029_167" x1="55.212" y1="26.8339" x2="71.4297" y2="26.8339" gradientUnits="userSpaceOnUse">
<stop stop-color="#2C2A26"/>
<stop offset="1" stop-color="#C4C4C4"/>
</linearGradient>
<linearGradient id="paint15_linear_2029_167" x1="10.5338" y1="86.6875" x2="99.5187" y2="86.6875" gradientUnits="userSpaceOnUse">
<stop stop-color="#2C2A26"/>
<stop offset="1" stop-color="#C4C4C4"/>
</linearGradient>
<linearGradient id="paint16_linear_2029_167" x1="42.9892" y1="96.9237" x2="63.7249" y2="96.9237" gradientUnits="userSpaceOnUse">
<stop stop-color="#2C2A26"/>
<stop offset="1" stop-color="#C4C4C4"/>
</linearGradient>
<linearGradient id="paint17_linear_2029_167" x1="12.7905" y1="79.2139" x2="47.7755" y2="55.4386" gradientUnits="userSpaceOnUse">
<stop stop-color="white"/>
<stop offset="1" stop-color="#D4D4D4"/>
</linearGradient>
<linearGradient id="paint18_linear_2029_167" x1="32.4472" y1="71.336" x2="46.1909" y2="64.231" gradientUnits="userSpaceOnUse">
<stop stop-color="white"/>
<stop offset="1" stop-color="#D4D4D4"/>
</linearGradient>
<linearGradient id="paint19_linear_2029_167" x1="38.1468" y1="68.1882" x2="51.9101" y2="61.1958" gradientUnits="userSpaceOnUse">
<stop stop-color="white"/>
<stop offset="1" stop-color="#D4D4D4"/>
</linearGradient>
<linearGradient id="paint20_linear_2029_167" x1="26.6806" y1="74.4448" x2="40.2665" y2="67.2592" gradientUnits="userSpaceOnUse">
<stop stop-color="white"/>
<stop offset="1" stop-color="#D4D4D4"/>
</linearGradient>
<linearGradient id="paint21_linear_2029_167" x1="6.50089" y1="71.0972" x2="29.5328" y2="71.0972" gradientUnits="userSpaceOnUse">
<stop stop-color="#2C2A26"/>
<stop offset="1" stop-color="#C4C4C4"/>
</linearGradient>
<linearGradient id="paint22_linear_2029_167" x1="8.22473" y1="71.7144" x2="31.2567" y2="71.7144" gradientUnits="userSpaceOnUse">
<stop stop-color="#2C2A26"/>
<stop offset="1" stop-color="#C4C4C4"/>
</linearGradient>
<linearGradient id="paint23_linear_2029_167" x1="7.50537" y1="59.9084" x2="45.1381" y2="59.9084" gradientUnits="userSpaceOnUse">
<stop stop-color="#2C2A26"/>
<stop offset="1" stop-color="#C4C4C4"/>
</linearGradient>
<linearGradient id="paint24_linear_2029_167" x1="12.5638" y1="60.9719" x2="45.8682" y2="60.9719" gradientUnits="userSpaceOnUse">
<stop stop-color="#2C2A26"/>
<stop offset="1" stop-color="#C4C4C4"/>
</linearGradient>
<linearGradient id="paint25_linear_2029_167" x1="36.4432" y1="45.5389" x2="40.9586" y2="45.5389" gradientUnits="userSpaceOnUse">
<stop stop-color="#2C2A26"/>
<stop offset="1" stop-color="#C4C4C4"/>
</linearGradient>
<linearGradient id="paint26_linear_2029_167" x1="36.7692" y1="46.2578" x2="40.6078" y2="46.2578" gradientUnits="userSpaceOnUse">
<stop stop-color="#2C2A26"/>
<stop offset="1" stop-color="#C4C4C4"/>
</linearGradient>
<linearGradient id="paint27_linear_2029_167" x1="36.4317" y1="45.8455" x2="40.7966" y2="45.8455" gradientUnits="userSpaceOnUse">
<stop stop-color="#2C2A26"/>
<stop offset="1" stop-color="#C4C4C4"/>
</linearGradient>
<linearGradient id="paint28_linear_2029_167" x1="14.5748" y1="94.5653" x2="42.6167" y2="94.5653" gradientUnits="userSpaceOnUse">
<stop stop-color="#2C2A26"/>
<stop offset="1" stop-color="#C4C4C4"/>
</linearGradient>
<linearGradient id="paint29_linear_2029_167" x1="15.2729" y1="94.1838" x2="63.2967" y2="94.1838" gradientUnits="userSpaceOnUse">
<stop stop-color="#2C2A26"/>
<stop offset="1" stop-color="#C4C4C4"/>
</linearGradient>
<linearGradient id="paint30_linear_2029_167" x1="41.4478" y1="53.4121" x2="58.1328" y2="53.4121" gradientUnits="userSpaceOnUse">
<stop stop-color="#4EB1D6"/>
<stop offset="1" stop-color="#3783AD"/>
</linearGradient>
<linearGradient id="paint31_linear_2029_167" x1="69.8524" y1="81.6515" x2="86.1072" y2="81.6515" gradientUnits="userSpaceOnUse">
<stop stop-color="#4EB1D6"/>
<stop offset="1" stop-color="#3783AD"/>
</linearGradient>
<linearGradient id="paint32_linear_2029_167" x1="70.5806" y1="80.8711" x2="85.8695" y2="80.8711" gradientUnits="userSpaceOnUse">
<stop stop-color="#2C2A26"/>
<stop offset="1" stop-color="#C4C4C4"/>
</linearGradient>
<linearGradient id="paint33_linear_2029_167" x1="34.0547" y1="27.1118" x2="52.1578" y2="27.1118" gradientUnits="userSpaceOnUse">
<stop stop-color="#4EB1D6"/>
<stop offset="1" stop-color="#3783AD"/>
</linearGradient>
<linearGradient id="paint34_linear_2029_167" x1="18.9436" y1="47.7684" x2="55.4336" y2="47.7684" gradientUnits="userSpaceOnUse">
<stop stop-color="#4EB1D6"/>
<stop offset="1" stop-color="#3783AD"/>
</linearGradient>
<linearGradient id="paint35_linear_2029_167" x1="20.1528" y1="36.7925" x2="32.0072" y2="33.4185" gradientUnits="userSpaceOnUse">
<stop stop-color="white"/>
<stop offset="1" stop-color="#D4D4D4"/>
</linearGradient>
<linearGradient id="paint36_linear_2029_167" x1="46.9301" y1="38.6714" x2="74.5511" y2="38.6714" gradientUnits="userSpaceOnUse">
<stop stop-color="#4EB1D6"/>
<stop offset="1" stop-color="#3783AD"/>
</linearGradient>
<linearGradient id="paint37_linear_2029_167" x1="50.5029" y1="24.0921" x2="56.6151" y2="22.3714" gradientUnits="userSpaceOnUse">
<stop stop-color="white"/>
<stop offset="1" stop-color="#D4D4D4"/>
</linearGradient>
<linearGradient id="paint38_linear_2029_167" x1="53.4569" y1="18.8994" x2="58.3343" y2="18.8994" gradientUnits="userSpaceOnUse">
<stop stop-color="#2C2A26"/>
<stop offset="1" stop-color="#C4C4C4"/>
</linearGradient>
<linearGradient id="paint39_linear_2029_167" x1="70.2641" y1="27.9423" x2="74.1852" y2="27.1349" gradientUnits="userSpaceOnUse">
<stop stop-color="white"/>
<stop offset="1" stop-color="#D4D4D4"/>
</linearGradient>
<linearGradient id="paint40_linear_2029_167" x1="71.0531" y1="31.53" x2="77.0922" y2="29.9828" gradientUnits="userSpaceOnUse">
<stop stop-color="white"/>
<stop offset="1" stop-color="#D4D4D4"/>
</linearGradient>
<linearGradient id="paint41_linear_2029_167" x1="73.4154" y1="22.8703" x2="76.6748" y2="22.8703" gradientUnits="userSpaceOnUse">
<stop stop-color="#2C2A26"/>
<stop offset="1" stop-color="#C4C4C4"/>
</linearGradient>
<linearGradient id="paint42_linear_2029_167" x1="29.2958" y1="63.3298" x2="75.1161" y2="63.3298" gradientUnits="userSpaceOnUse">
<stop stop-color="#4EB1D6"/>
<stop offset="1" stop-color="#3783AD"/>
</linearGradient>
<linearGradient id="paint43_linear_2029_167" x1="64.4586" y1="69.1824" x2="79.959" y2="69.1824" gradientUnits="userSpaceOnUse">
<stop stop-color="#4EB1D6"/>
<stop offset="1" stop-color="#3783AD"/>
</linearGradient>
<linearGradient id="paint44_linear_2029_167" x1="18.9402" y1="50.6188" x2="49.4594" y2="50.6188" gradientUnits="userSpaceOnUse">
<stop stop-color="#4EB1D6"/>
<stop offset="1" stop-color="#3783AD"/>
</linearGradient>
<linearGradient id="paint45_linear_2029_167" x1="21.2736" y1="34.174" x2="43.276" y2="34.174" gradientUnits="userSpaceOnUse">
<stop stop-color="#4EB1D6"/>
<stop offset="1" stop-color="#3783AD"/>
</linearGradient>
<linearGradient id="paint46_linear_2029_167" x1="22.08" y1="28.3716" x2="43.3771" y2="28.3716" gradientUnits="userSpaceOnUse">
<stop stop-color="#4EB1D6"/>
<stop offset="1" stop-color="#3783AD"/>
</linearGradient>
<linearGradient id="paint47_linear_2029_167" x1="36.3099" y1="50.0543" x2="72.7208" y2="50.0543" gradientUnits="userSpaceOnUse">
<stop stop-color="#4EB1D6"/>
<stop offset="1" stop-color="#3783AD"/>
</linearGradient>
<linearGradient id="paint48_linear_2029_167" x1="23.7574" y1="36.5483" x2="41.6161" y2="36.5483" gradientUnits="userSpaceOnUse">
<stop stop-color="#4EB1D6"/>
<stop offset="1" stop-color="#3783AD"/>
</linearGradient>
<linearGradient id="paint49_linear_2029_167" x1="53.8507" y1="61.3744" x2="73.1557" y2="61.3744" gradientUnits="userSpaceOnUse">
<stop stop-color="#4EB1D6"/>
<stop offset="1" stop-color="#3783AD"/>
</linearGradient>
<linearGradient id="paint50_linear_2029_167" x1="64.9331" y1="64.1642" x2="75.5504" y2="64.1642" gradientUnits="userSpaceOnUse">
<stop stop-color="#4EB1D6"/>
<stop offset="1" stop-color="#3783AD"/>
</linearGradient>
<linearGradient id="paint51_linear_2029_167" x1="29.5315" y1="26.9183" x2="41.4012" y2="24.3197" gradientUnits="userSpaceOnUse">
<stop stop-color="white"/>
<stop offset="1" stop-color="#D4D4D4"/>
</linearGradient>
<linearGradient id="paint52_linear_2029_167" x1="39.1862" y1="22.3166" x2="40.5093" y2="22.1642" gradientUnits="userSpaceOnUse">
<stop stop-color="white"/>
<stop offset="1" stop-color="#D4D4D4"/>
</linearGradient>
<linearGradient id="paint53_linear_2029_167" x1="51.5738" y1="21.5848" x2="55.0709" y2="20.9384" gradientUnits="userSpaceOnUse">
<stop stop-color="white"/>
<stop offset="1" stop-color="#D4D4D4"/>
</linearGradient>
<linearGradient id="paint54_linear_2029_167" x1="53.2647" y1="43.2081" x2="55.426" y2="42.915" gradientUnits="userSpaceOnUse">
<stop stop-color="white"/>
<stop offset="1" stop-color="#D4D4D4"/>
</linearGradient>
<linearGradient id="paint55_linear_2029_167" x1="3.85428" y1="65.9337" x2="33.5894" y2="65.9337" gradientUnits="userSpaceOnUse">
<stop stop-color="#2C2A26"/>
<stop offset="1" stop-color="#C4C4C4"/>
</linearGradient>
<linearGradient id="paint56_linear_2029_167" x1="37.8564" y1="45.7151" x2="47.9045" y2="43.7114" gradientUnits="userSpaceOnUse">
<stop stop-color="white"/>
<stop offset="1" stop-color="#D4D4D4"/>
</linearGradient>
<linearGradient id="paint57_linear_2029_167" x1="1.64071" y1="45.1604" x2="37.289" y2="45.1604" gradientUnits="userSpaceOnUse">
<stop stop-color="#2C2A26"/>
<stop offset="1" stop-color="#C4C4C4"/>
</linearGradient>
<linearGradient id="paint58_linear_2029_167" x1="28.0345" y1="69.7396" x2="44.3401" y2="69.7396" gradientUnits="userSpaceOnUse">
<stop stop-color="#2C2A26"/>
<stop offset="1" stop-color="#C4C4C4"/>
</linearGradient>
<linearGradient id="paint59_linear_2029_167" x1="29.1297" y1="70.2198" x2="45.4236" y2="70.2198" gradientUnits="userSpaceOnUse">
<stop stop-color="#2C2A26"/>
<stop offset="1" stop-color="#C4C4C4"/>
</linearGradient>
<linearGradient id="paint60_linear_2029_167" x1="25.466" y1="52.7272" x2="39.9766" y2="52.7272" gradientUnits="userSpaceOnUse">
<stop stop-color="#2C2A26"/>
<stop offset="1" stop-color="#C4C4C4"/>
</linearGradient>
<linearGradient id="paint61_linear_2029_167" x1="26.6982" y1="53.421" x2="41.2281" y2="53.421" gradientUnits="userSpaceOnUse">
<stop stop-color="#2C2A26"/>
<stop offset="1" stop-color="#C4C4C4"/>
</linearGradient>
<linearGradient id="paint62_linear_2029_167" x1="33.8232" y1="85.8007" x2="56.8552" y2="85.8007" gradientUnits="userSpaceOnUse">
<stop stop-color="#2C2A26"/>
<stop offset="1" stop-color="#C4C4C4"/>
</linearGradient>
<linearGradient id="paint63_linear_2029_167" x1="35.9633" y1="83.4159" x2="67.7743" y2="83.4159" gradientUnits="userSpaceOnUse">
<stop stop-color="#2C2A26"/>
<stop offset="1" stop-color="#C4C4C4"/>
</linearGradient>
<linearGradient id="paint64_linear_2029_167" x1="22360.8" y1="3329.12" x2="22668.8" y2="2485.27" gradientUnits="userSpaceOnUse">
<stop stop-color="#211717"/>
<stop offset="0.05" stop-color="#231919"/>
<stop offset="0.07" stop-color="#2A1F1F"/>
<stop offset="0.08" stop-color="#352A2A"/>
<stop offset="0.1" stop-color="#473B3B"/>
<stop offset="0.12" stop-color="#877878"/>
<stop offset="0.18" stop-color="#7D7373"/>
<stop offset="0.28" stop-color="#726D6D"/>
<stop offset="0.42" stop-color="#6B6A6A"/>
<stop offset="0.81" stop-color="#696969"/>
<stop offset="0.86" stop-color="#696767"/>
<stop offset="0.88" stop-color="#686060"/>
<stop offset="0.89" stop-color="#675555"/>
</linearGradient>
<linearGradient id="paint65_linear_2029_167" x1="39.7549" y1="75.6573" x2="73.1549" y2="75.6573" gradientUnits="userSpaceOnUse">
<stop stop-color="#2C2A26"/>
<stop offset="1" stop-color="#C4C4C4"/>
</linearGradient>
<linearGradient id="paint66_linear_2029_167" x1="7.64118" y1="88.2489" x2="33.4539" y2="88.2489" gradientUnits="userSpaceOnUse">
<stop stop-color="#2C2A26"/>
<stop offset="1" stop-color="#C4C4C4"/>
</linearGradient>
<linearGradient id="paint67_linear_2029_167" x1="101.318" y1="56.0689" x2="110.086" y2="56.0689" gradientUnits="userSpaceOnUse">
<stop stop-color="#2C2A26"/>
<stop offset="1" stop-color="#C4C4C4"/>
</linearGradient>
<linearGradient id="paint68_linear_2029_167" x1="81.1846" y1="34.2194" x2="99.2646" y2="34.2194" gradientUnits="userSpaceOnUse">
<stop stop-color="#2C2A26"/>
<stop offset="1" stop-color="#C4C4C4"/>
</linearGradient>
<linearGradient id="paint69_linear_2029_167" x1="88.8567" y1="30.7168" x2="91.4463" y2="30.7168" gradientUnits="userSpaceOnUse">
<stop stop-color="#4EB1D6"/>
<stop offset="1" stop-color="#3783AD"/>
</linearGradient>
<linearGradient id="paint70_linear_2029_167" x1="92.3167" y1="31.8927" x2="94.9063" y2="31.8927" gradientUnits="userSpaceOnUse">
<stop stop-color="#4EB1D6"/>
<stop offset="1" stop-color="#3783AD"/>
</linearGradient>
<linearGradient id="paint71_linear_2029_167" x1="96.0657" y1="34.6274" x2="98.1157" y2="34.2477" gradientUnits="userSpaceOnUse">
<stop stop-color="white"/>
<stop offset="1" stop-color="#D4D4D4"/>
</linearGradient>
<linearGradient id="paint72_linear_2029_167" x1="99.5134" y1="35.7968" x2="101.563" y2="35.4172" gradientUnits="userSpaceOnUse">
<stop stop-color="white"/>
<stop offset="1" stop-color="#D4D4D4"/>
</linearGradient>
<linearGradient id="paint73_linear_2029_167" x1="88.4997" y1="35.8143" x2="91.0893" y2="35.8143" gradientUnits="userSpaceOnUse">
<stop stop-color="#4EB1D6"/>
<stop offset="1" stop-color="#3783AD"/>
</linearGradient>
<linearGradient id="paint74_linear_2029_167" x1="91.9634" y1="36.988" x2="94.5491" y2="36.988" gradientUnits="userSpaceOnUse">
<stop stop-color="#4EB1D6"/>
<stop offset="1" stop-color="#3783AD"/>
</linearGradient>
<linearGradient id="paint75_linear_2029_167" x1="95.4111" y1="38.1574" x2="97.9968" y2="38.1574" gradientUnits="userSpaceOnUse">
<stop stop-color="#4EB1D6"/>
<stop offset="1" stop-color="#3783AD"/>
</linearGradient>
<linearGradient id="paint76_linear_2029_167" x1="98.8671" y1="39.3357" x2="101.457" y2="39.3357" gradientUnits="userSpaceOnUse">
<stop stop-color="#4EB1D6"/>
<stop offset="1" stop-color="#3783AD"/>
</linearGradient>
<linearGradient id="paint77_linear_2029_167" x1="43.8726" y1="65.7659" x2="55.7821" y2="62.7941" gradientUnits="userSpaceOnUse">
<stop stop-color="white"/>
<stop offset="1" stop-color="#D4D4D4"/>
</linearGradient>
</defs>
</svg>
