<svg width="165" height="132" viewBox="0 0 165 132" fill="none" xmlns="http://www.w3.org/2000/svg">
<g style="mix-blend-mode:multiply" opacity="0.19">
<path fill-rule="evenodd" clip-rule="evenodd" d="M105.418 127.341C137.855 127.341 164.313 110.91 164.313 90.7637C164.313 70.6176 137.855 54.1868 105.418 54.1868C72.982 54.1868 46.5195 70.6176 46.5195 90.7637C46.5195 110.91 72.9783 127.341 105.418 127.341Z" fill="#2C2C2C"/>
</g>
<path fill-rule="evenodd" clip-rule="evenodd" d="M141.946 131.018C154.093 131.018 163.997 124.868 163.997 117.328C163.997 109.788 154.093 103.626 141.946 103.626C129.799 103.626 119.899 109.777 119.899 117.32C119.899 124.864 129.803 131.018 141.946 131.018Z" fill="#2C2C2C"/>
<path fill-rule="evenodd" clip-rule="evenodd" d="M68.732 40.4211C42.5782 40.4211 19.8573 49.5531 8.38018 62.9613H0.422607V82.8213C0.422607 106.265 31.0107 125.259 68.732 125.259C106.453 125.259 137.041 106.261 137.041 82.8402C137.041 82.2153 137.015 81.5942 136.974 80.9581V62.9726H129.069C117.607 49.5531 94.8858 40.4211 68.732 40.4211Z" fill="url(#paint0_linear_2029_122)"/>
<path fill-rule="evenodd" clip-rule="evenodd" d="M0.56565 62.9727H0.422607V82.8327C0.422607 106.276 31.0107 125.271 68.732 125.271C72.8069 125.27 76.8787 125.041 80.9281 124.585C70.1059 103.882 30.9881 73.0834 2.4854 63.5825C1.82666 63.3679 1.19428 63.1609 0.56565 62.9727Z" fill="url(#paint1_linear_2029_122)"/>
<path fill-rule="evenodd" clip-rule="evenodd" d="M136.661 87.3272C130.687 107.18 102.64 122.21 68.9466 122.21C33.4236 122.21 4.17562 105.505 0.437744 84.0598C1.50302 106.92 31.6695 125.259 68.7321 125.259C104.01 125.259 133.051 108.644 136.661 87.3272Z" fill="url(#paint2_linear_2029_122)"/>
<path d="M68.732 103.641C106.598 103.641 137.294 84.5789 137.294 61.0642C137.294 37.5495 106.598 18.4871 68.732 18.4871C30.8665 18.4871 0.17041 37.5495 0.17041 61.0642C0.17041 84.5789 30.8665 103.641 68.732 103.641Z" fill="url(#paint3_linear_2029_122)"/>
<path fill-rule="evenodd" clip-rule="evenodd" d="M68.732 0.000732422C30.8752 0.000732422 0.17041 24.4042 0.17041 54.4954C0.17041 84.5866 31.2893 100.852 69.1461 100.852C107.003 100.852 137.279 84.5866 137.279 54.4954C137.279 24.4042 106.593 0.000732422 68.732 0.000732422Z" fill="url(#paint4_linear_2029_122)"/>
<path fill-rule="evenodd" clip-rule="evenodd" d="M68.7322 0.000752938C41.2233 0.000752938 17.5011 12.8857 6.5811 31.4734C5.16316 36.2572 4.44428 41.2209 4.44678 46.2104C4.44678 76.1962 30.3898 92.4012 61.9528 92.4012C93.5158 92.4012 118.763 76.215 118.763 46.2104C118.763 30.2651 111.524 15.9197 99.9978 5.98587C90.0611 1.98766 79.4431 -0.0449196 68.7322 0.000752938Z" fill="url(#paint5_linear_2029_122)"/>
<path d="M68.732 34.4324C64.3467 34.4324 60.782 32.1738 60.782 29.4297C60.782 26.6856 64.3655 24.427 68.732 24.427C73.0985 24.427 76.6858 26.6856 76.6858 29.4297C76.6858 32.1738 73.1173 34.4324 68.732 34.4324ZM68.732 24.7733C64.5387 24.7733 61.1283 26.8625 61.1283 29.4297C61.1283 31.9969 64.5387 34.0861 68.732 34.0861C72.9254 34.0861 76.3395 31.9969 76.3395 29.4297C76.3395 26.8625 72.9254 24.7733 68.732 24.7733Z" fill="white"/>
<path fill-rule="evenodd" clip-rule="evenodd" d="M108.934 117.053L132.227 130.066V108.139L108.934 95.1265V117.053Z" fill="url(#paint6_linear_2029_122)"/>
<path fill-rule="evenodd" clip-rule="evenodd" d="M132.227 130.055L150.943 119.436V97.5057C150.943 92.4014 132.227 103.035 132.227 108.14V130.055Z" fill="url(#paint7_linear_2029_122)"/>
<path fill-rule="evenodd" clip-rule="evenodd" d="M135.46 107.451L148.458 100.02V120.753L135.46 128.18V107.451Z" fill="url(#paint8_linear_2029_122)"/>
<path fill-rule="evenodd" clip-rule="evenodd" d="M142.247 103.57L147.826 100.385V121.115L142.247 124.303V103.57ZM135.912 107.191L141.494 104.003V124.736L135.912 127.921V107.191Z" fill="url(#paint9_linear_2029_122)"/>
<path fill-rule="evenodd" clip-rule="evenodd" d="M146.339 101.511L144.291 107.816V102.678L146.339 101.511ZM144.291 118.913L147.826 107.996V100.656L147.118 101.063L144.291 109.781V118.913ZM144.291 107.816L142.247 114.125V103.845L144.291 102.678V107.816ZM144.291 109.781L142.247 116.086V124.303L142.624 124.096L144.303 118.913V109.781H144.291ZM140.233 125.459V122.301L141.494 118.42V124.744L140.233 125.459ZM140.233 120.339L141.494 116.458V104.277L141.028 104.545L140.233 106.988V120.339ZM140.233 106.995V120.339L138.197 126.626L135.912 127.928V120.321L140.233 106.988V106.995ZM140.233 122.301L138.976 126.178L140.233 125.459V122.301Z" fill="url(#paint10_linear_2029_122)"/>
<path fill-rule="evenodd" clip-rule="evenodd" d="M10.8194 94.2908C15.0165 98.4315 20.3504 102.128 26.5426 105.151C26.6761 105.219 26.8253 105.252 26.9754 105.245C27.1254 105.237 27.2708 105.191 27.397 105.109C27.5256 105.031 27.6314 104.92 27.7041 104.788C27.7767 104.656 27.8136 104.507 27.8111 104.356V99.6511C27.8147 99.3181 27.7221 98.9911 27.5445 98.7093C27.3669 98.4276 27.1118 98.203 26.8098 98.0626C20.9226 95.2432 15.7957 91.8403 11.6438 87.997C11.5195 87.879 11.3628 87.8008 11.1937 87.7727C11.0246 87.7445 10.851 87.7676 10.6952 87.8389C10.5361 87.9048 10.4002 88.0167 10.305 88.1602C10.2098 88.3037 10.1595 88.4723 10.1607 88.6445V92.7099C10.156 93.0019 10.2118 93.2918 10.3245 93.5612C10.4372 93.8307 10.6044 94.074 10.8156 94.2758L10.8194 94.2908ZM42.6911 111.015C49.4073 112.718 56.2776 113.742 63.1986 114.072C63.4368 114.084 63.6749 114.047 63.8985 113.964C64.122 113.881 64.3264 113.753 64.4992 113.589C64.6721 113.424 64.8097 113.227 64.9038 113.008C64.9979 112.788 65.0466 112.552 65.0468 112.314V108.55C65.0473 108.096 64.8731 107.66 64.5605 107.332C64.2478 107.004 63.8207 106.809 63.368 106.788C56.6864 106.481 50.0497 105.533 43.5493 103.957C43.2902 103.893 43.0199 103.889 42.7589 103.945C42.4979 104.001 42.2531 104.116 42.043 104.281C41.833 104.445 41.6632 104.656 41.5466 104.896C41.4299 105.136 41.3695 105.399 41.3698 105.666V109.295C41.366 109.686 41.4944 110.068 41.7341 110.377C41.9739 110.687 42.3111 110.906 42.6911 111V111.015ZM80.5516 113.575C87.5308 112.84 94.411 111.358 101.074 109.156C101.426 109.042 101.733 108.819 101.949 108.519C102.166 108.219 102.281 107.858 102.279 107.488V103.946C102.278 103.669 102.212 103.396 102.086 103.15C101.961 102.903 101.779 102.689 101.555 102.526C101.332 102.362 101.073 102.254 100.8 102.209C100.527 102.164 100.247 102.184 99.9826 102.267C93.536 104.296 86.8991 105.662 80.1752 106.344C79.742 106.388 79.3405 106.591 79.049 106.915C78.7575 107.238 78.5967 107.659 78.598 108.094V111.825C78.5976 112.072 78.6494 112.316 78.7499 112.542C78.8505 112.768 78.9976 112.971 79.1816 113.136C79.3656 113.301 79.5825 113.425 79.8179 113.501C80.0533 113.577 80.3021 113.602 80.5479 113.575H80.5516Z" fill="url(#paint11_linear_2029_122)"/>
<path d="M63.2965 114.249H63.1873C56.2559 113.92 49.3753 112.893 42.6497 111.185C42.23 111.082 41.8575 110.84 41.5935 110.498C41.3294 110.156 41.1895 109.735 41.1967 109.303V105.674C41.1967 105.382 41.2648 105.094 41.3954 104.832C41.5261 104.571 41.7158 104.344 41.9496 104.168C42.1785 103.983 42.4475 103.855 42.7352 103.793C43.0228 103.73 43.321 103.737 43.6058 103.811C50.0911 105.385 56.7127 106.332 63.3793 106.638C63.876 106.662 64.3442 106.876 64.687 107.236C65.0297 107.597 65.2206 108.075 65.22 108.572V112.337C65.219 112.848 65.0164 113.337 64.6562 113.7C64.296 114.062 63.8074 114.267 63.2965 114.271V114.249ZM43.109 104.085C42.6912 104.092 42.293 104.263 42.0001 104.561C41.7071 104.859 41.543 105.26 41.543 105.678V109.306C41.5395 109.66 41.6554 110.004 41.872 110.284C42.0885 110.563 42.3931 110.761 42.7363 110.846C49.4405 112.544 56.2981 113.565 63.2062 113.895C63.4211 113.906 63.6361 113.874 63.8381 113.799C64.04 113.724 64.2246 113.609 64.3807 113.461C64.5367 113.313 64.6609 113.134 64.7457 112.936C64.8304 112.739 64.874 112.526 64.8737 112.31V108.546C64.8743 108.139 64.7183 107.747 64.4381 107.451C64.1579 107.155 63.7748 106.979 63.368 106.958C56.675 106.648 50.027 105.698 43.5155 104.119C43.3815 104.094 43.2452 104.084 43.109 104.089V104.085ZM80.3447 113.756C79.8726 113.759 79.4172 113.581 79.0724 113.259C78.8682 113.08 78.7053 112.858 78.5949 112.61C78.4844 112.362 78.429 112.093 78.4324 111.821V108.091C78.4317 107.612 78.6084 107.151 78.9283 106.796C79.2481 106.44 79.6884 106.216 80.164 106.167C86.874 105.492 93.4979 104.136 99.9337 102.121C100.223 102.029 100.531 102.007 100.831 102.056C101.13 102.105 101.415 102.224 101.66 102.403C101.905 102.582 102.105 102.817 102.244 103.087C102.382 103.358 102.454 103.657 102.456 103.961V107.503C102.459 107.91 102.333 108.307 102.096 108.636C101.858 108.966 101.521 109.211 101.134 109.337C94.4589 111.542 87.5661 113.024 80.5743 113.759C80.4978 113.765 80.4211 113.765 80.3447 113.759V113.756ZM100.536 102.35C100.367 102.351 100.2 102.377 100.039 102.429C93.582 104.459 86.9354 105.827 80.2016 106.513C79.8103 106.552 79.4473 106.735 79.1835 107.026C78.9197 107.318 78.774 107.697 78.775 108.091V111.821C78.7722 112.047 78.8178 112.271 78.9087 112.478C78.9996 112.684 79.1337 112.869 79.302 113.02C79.4702 113.171 79.6688 113.284 79.8843 113.352C80.0999 113.42 80.3274 113.441 80.5517 113.413C87.519 112.679 94.3877 111.202 101.04 109.005C101.358 108.902 101.634 108.7 101.829 108.43C102.024 108.159 102.127 107.833 102.124 107.5V103.957C102.122 103.539 101.955 103.139 101.662 102.841C101.368 102.544 100.969 102.373 100.551 102.365L100.536 102.35ZM26.9341 105.414C26.7723 105.413 26.6127 105.376 26.4673 105.305C20.2225 102.252 14.9149 98.5897 10.6952 94.4114C10.4698 94.192 10.2915 93.929 10.1711 93.6384C10.0507 93.3478 9.99085 93.0358 9.99508 92.7213V88.6446C9.99285 88.4389 10.0518 88.2371 10.1643 88.0649C10.2769 87.8926 10.4381 87.7577 10.6275 87.6772C10.8144 87.5979 11.0201 87.5738 11.2202 87.6078C11.4204 87.6418 11.6066 87.7325 11.7567 87.8692C15.8974 91.7087 20.9866 95.0852 26.8776 97.9083C27.2104 98.0605 27.4917 98.3065 27.6869 98.616C27.8821 98.9255 27.9828 99.2853 27.9768 99.6512V104.379C27.9788 104.559 27.9341 104.736 27.8469 104.893C27.7598 105.05 27.6333 105.182 27.4799 105.275C27.3144 105.372 27.1257 105.421 26.9341 105.418V105.414ZM11.0528 87.9294C10.9528 87.9303 10.8541 87.9521 10.763 87.9934C10.6354 88.0459 10.5268 88.136 10.4515 88.2516C10.3763 88.3672 10.3379 88.5029 10.3414 88.6408V92.71C10.3371 92.9784 10.3881 93.2449 10.491 93.4929C10.594 93.7409 10.7468 93.9651 10.9399 94.1517C15.1333 98.2923 20.4069 101.947 26.6217 104.981C26.7295 105.034 26.8488 105.058 26.9685 105.051C27.0882 105.045 27.2042 105.008 27.3058 104.944C27.4074 104.881 27.4911 104.792 27.5492 104.688C27.6073 104.583 27.6379 104.465 27.638 104.345V99.6512C27.6411 99.3511 27.5576 99.0565 27.3973 98.8027C27.237 98.549 27.0069 98.3469 26.7346 98.2208C20.8135 95.3826 15.6941 91.9835 11.5271 88.1251C11.3993 88.003 11.2296 87.9343 11.0528 87.9332V87.9294Z" fill="white"/>
<path d="M68.7321 43.7449C57.2362 43.7449 47.8821 37.6807 47.8821 30.2313C47.8821 22.7819 57.2362 16.7178 68.7321 16.7178C80.228 16.7178 89.5859 22.7819 89.5859 30.2238C89.5859 37.6657 80.228 43.7449 68.7321 43.7449ZM68.7321 17.0641C57.4394 17.0641 48.2284 22.9702 48.2284 30.2389C48.2284 37.5076 57.4281 43.4137 68.7321 43.4137C80.0361 43.4137 89.2358 37.5076 89.2358 30.2389C89.2358 22.9702 80.0398 17.049 68.7321 17.049V17.0641Z" fill="white"/>
<path d="M68.7322 55.1469C49.561 55.1469 33.9658 44.5205 33.9658 31.4661C33.9658 18.4118 49.561 7.7854 68.7322 7.7854C87.9034 7.7854 103.514 18.408 103.514 31.4661C103.514 44.5242 87.9034 55.1469 68.7322 55.1469ZM68.7322 8.1317C49.753 8.1317 34.3121 18.6 34.3121 31.4699C34.3121 44.3398 49.7454 54.8081 68.7322 54.8081C87.7189 54.8081 103.156 44.3436 103.156 31.4699C103.156 18.5963 87.7039 8.1317 68.7322 8.1317V8.1317Z" fill="white"/>
<path d="M68.7321 68.1633C41.6296 68.1633 19.5713 53.2268 19.5713 34.865C19.5713 16.5031 41.6259 1.56665 68.7321 1.56665C95.8382 1.56665 117.897 16.5031 117.897 34.865C117.897 53.2268 95.842 68.1633 68.7321 68.1633ZM68.7321 1.91296C41.8141 1.91296 19.9176 16.6951 19.9176 34.865C19.9176 53.0349 41.8141 67.817 68.7321 67.817C95.65 67.817 117.55 53.0349 117.55 34.865C117.55 16.6951 95.65 1.91296 68.7321 1.91296V1.91296Z" fill="white"/>
<path d="M68.732 101.029C68.6864 101.028 68.6429 101.009 68.6106 100.977C68.5783 100.945 68.5598 100.901 68.5588 100.856V34.2591C68.5598 34.2135 68.5783 34.17 68.6106 34.1377C68.6429 34.1054 68.6864 34.0869 68.732 34.0859C68.7779 34.0859 68.8219 34.1042 68.8544 34.1367C68.8869 34.1691 68.9051 34.2132 68.9051 34.2591V100.856C68.9051 100.902 68.8869 100.946 68.8544 100.978C68.8219 101.011 68.7779 101.029 68.732 101.029Z" fill="white"/>
<path d="M68.732 24.7733C68.6864 24.7723 68.6429 24.7538 68.6106 24.7215C68.5783 24.6893 68.5598 24.6458 68.5588 24.6001V0.283259C68.5598 0.237636 68.5783 0.194148 68.6106 0.161882C68.6429 0.129615 68.6864 0.111068 68.732 0.110107C68.7779 0.110107 68.8219 0.128352 68.8544 0.160825C68.8869 0.193297 68.9051 0.237335 68.9051 0.283259V24.6001C68.9051 24.6461 68.8869 24.6901 68.8544 24.7226C68.8219 24.7551 68.7779 24.7733 68.732 24.7733V24.7733Z" fill="white"/>
<path d="M0.170537 54.6688C0.146995 54.6741 0.122558 54.6741 0.0990157 54.6688C0.0576875 54.6492 0.0257843 54.6141 0.010269 54.571C-0.00524624 54.528 -0.00311118 54.4806 0.0162052 54.4392C4.9097 43.7488 13.1006 36.721 25.1085 32.9567C35.3246 29.7534 46.4931 29.5162 55.467 29.3243C57.3717 29.2866 59.1747 29.2452 60.8649 29.185C60.8895 29.1813 60.9146 29.183 60.9385 29.1899C60.9624 29.1969 60.9846 29.2089 61.0034 29.2251C61.0223 29.2414 61.0374 29.2615 61.0478 29.2841C61.0581 29.3068 61.0635 29.3314 61.0635 29.3563C61.0635 29.3812 61.0581 29.4058 61.0478 29.4284C61.0374 29.451 61.0223 29.4711 61.0034 29.4874C60.9846 29.5036 60.9624 29.5157 60.9385 29.5226C60.9146 29.5295 60.8895 29.5312 60.8649 29.5275C59.171 29.5953 57.3679 29.6329 55.4594 29.6706C46.5194 29.8475 35.3811 30.0846 25.2177 33.2729C13.3077 37.007 5.16943 43.9746 0.332399 54.5671C0.318784 54.5984 0.296052 54.6248 0.267173 54.643C0.238293 54.6611 0.204612 54.6701 0.170537 54.6688V54.6688Z" fill="white"/>
<path d="M137.109 54.6687C137.076 54.6683 137.044 54.6586 137.016 54.6406C136.988 54.6226 136.965 54.5971 136.951 54.567C132.122 43.9745 123.976 36.9994 112.07 33.2728C101.906 30.0845 90.7603 29.8474 81.809 29.6554C79.9005 29.6178 78.0975 29.5801 76.4036 29.5124C76.3808 29.5119 76.3584 29.5069 76.3376 29.4978C76.3168 29.4886 76.2979 29.4754 76.2822 29.459C76.2665 29.4426 76.2541 29.4232 76.2459 29.402C76.2377 29.3808 76.2337 29.3582 76.2342 29.3355C76.2342 29.2376 76.3057 29.151 76.4149 29.1698C78.1088 29.2301 79.908 29.2715 81.8165 29.3091C90.7904 29.5011 101.959 29.7382 112.171 32.9416C124.179 36.7058 132.389 43.7336 137.267 54.424C137.277 54.4447 137.283 54.4671 137.284 54.4901C137.285 54.513 137.281 54.5359 137.273 54.5574C137.265 54.5788 137.253 54.5984 137.237 54.615C137.221 54.6315 137.202 54.6447 137.181 54.6536C137.158 54.664 137.134 54.6692 137.109 54.6687V54.6687Z" fill="white"/>
<path d="M19.6128 88.5882H19.5714C19.5273 88.575 19.4898 88.5455 19.4667 88.5056C19.4436 88.4657 19.4366 88.4185 19.4472 88.3736C25.3457 66.2325 45.9737 39.5479 62.7358 32.3921C62.7782 32.3747 62.8258 32.3748 62.8682 32.3925C62.9105 32.4101 62.9441 32.4438 62.9616 32.4862C62.9793 32.5282 62.9797 32.5754 62.9628 32.6177C62.9459 32.66 62.913 32.6939 62.8713 32.7121C46.1958 39.834 25.6619 66.4056 19.786 88.464C19.7763 88.5017 19.7537 88.5349 19.722 88.5576C19.6904 88.5804 19.6517 88.5912 19.6128 88.5882V88.5882Z" fill="white"/>
<path d="M117.915 88.5882C117.877 88.5885 117.841 88.576 117.81 88.5528C117.78 88.5296 117.759 88.497 117.75 88.4602C111.878 66.4019 91.3438 39.8302 74.6683 32.7083C74.6265 32.69 74.5934 32.6563 74.5759 32.6142C74.5583 32.5722 74.5577 32.5249 74.5741 32.4824C74.5939 32.441 74.6283 32.4084 74.6708 32.391C74.7132 32.3736 74.7606 32.3726 74.8038 32.3883C91.5621 39.5403 112.19 66.2287 118.092 88.3698C118.104 88.4148 118.097 88.4624 118.074 88.5025C118.051 88.5427 118.013 88.5721 117.968 88.5844L117.915 88.5882Z" fill="white"/>
<path d="M41.7501 97.8669H41.7238C41.7013 97.8633 41.6797 97.8552 41.6603 97.8432C41.6409 97.8312 41.6241 97.8154 41.6108 97.7969C41.5975 97.7784 41.588 97.7574 41.5829 97.7352C41.5777 97.7129 41.577 97.6899 41.5807 97.6674C44.882 75.9328 57.3227 42.4538 65.3443 33.7019C65.3604 33.6853 65.3797 33.6721 65.4011 33.6631C65.4224 33.6541 65.4453 33.6494 65.4685 33.6494C65.4917 33.6494 65.5146 33.6541 65.5359 33.6631C65.5573 33.6721 65.5766 33.6853 65.5927 33.7019C65.6243 33.7349 65.6418 33.7787 65.6418 33.8243C65.6418 33.8699 65.6243 33.9137 65.5927 33.9466C57.6126 42.6457 45.217 76.0344 41.9233 97.7201C41.9169 97.7613 41.8959 97.7989 41.8641 97.8258C41.8323 97.8528 41.7918 97.8674 41.7501 97.8669V97.8669Z" fill="white"/>
<path d="M95.7779 97.8669C95.7367 97.8673 95.6967 97.8526 95.6655 97.8255C95.6343 97.7985 95.614 97.761 95.6085 97.7201C92.3111 76.0344 79.9193 42.6457 71.9278 33.9353C71.8954 33.9029 71.8772 33.8589 71.8772 33.813C71.8772 33.7671 71.8954 33.7231 71.9278 33.6906C71.9436 33.6741 71.9626 33.661 71.9836 33.652C72.0047 33.6431 72.0273 33.6384 72.0502 33.6384C72.073 33.6384 72.0956 33.6431 72.1167 33.652C72.1377 33.661 72.1567 33.6741 72.1725 33.6906C80.1978 42.4462 92.6348 75.9215 95.936 97.6561C95.9398 97.6786 95.9391 97.7016 95.9339 97.7238C95.9288 97.7461 95.9193 97.767 95.906 97.7856C95.8927 97.8041 95.8759 97.8199 95.8565 97.8319C95.8371 97.8439 95.8155 97.852 95.793 97.8556L95.7779 97.8669Z" fill="white"/>
<path d="M5.17687 73.8548C5.15326 73.8594 5.12896 73.8594 5.10535 73.8548C5.08469 73.8458 5.06603 73.8328 5.05045 73.8165C5.03488 73.8003 5.0227 73.7811 5.01464 73.76C5.00658 73.739 5.00279 73.7166 5.0035 73.6941C5.00421 73.6716 5.0094 73.6494 5.01877 73.6289C14.8283 51.5028 36.9243 34.673 61.3165 30.7544C61.3623 30.7479 61.4089 30.7597 61.4462 30.7871C61.4835 30.8146 61.5086 30.8555 61.516 30.9012C61.5197 30.9235 61.519 30.9463 61.5138 30.9683C61.5086 30.9903 61.499 31.011 61.4857 31.0292C61.4724 31.0475 61.4555 31.0629 61.4362 31.0745C61.4168 31.0861 61.3953 31.0938 61.373 31.097C37.0937 34.9967 15.0994 51.7475 5.33497 73.7682C5.31879 73.7955 5.29559 73.8179 5.26777 73.8331C5.23996 73.8484 5.20856 73.8558 5.17687 73.8548V73.8548Z" fill="white"/>
<path d="M132.351 73.8548C132.317 73.8541 132.285 73.8438 132.257 73.8252C132.229 73.8065 132.207 73.7802 132.193 73.7494C122.432 51.7287 100.434 34.9779 76.1588 31.0782C76.1364 31.075 76.1149 31.0674 76.0956 31.0557C76.0762 31.0441 76.0594 31.0287 76.0461 31.0105C76.0327 30.9922 76.0232 30.9715 76.018 30.9495C76.0128 30.9275 76.012 30.9047 76.0158 30.8825C76.0232 30.8375 76.0477 30.7971 76.0842 30.7698C76.1206 30.7424 76.1662 30.7302 76.2115 30.7356C100.604 34.6542 122.711 51.4841 132.498 73.6102C132.507 73.6306 132.513 73.6528 132.513 73.6753C132.514 73.6978 132.51 73.7202 132.502 73.7413C132.494 73.7623 132.482 73.7815 132.466 73.7978C132.451 73.8141 132.432 73.827 132.411 73.836C132.393 73.846 132.372 73.8524 132.351 73.8548V73.8548Z" fill="white"/>
<path fill-rule="evenodd" clip-rule="evenodd" d="M126.965 83.2993L150.348 96.3725C147.179 94.592 132.227 103.573 132.227 108.143L108.934 95.1265C109.337 90.8805 121.337 82.4486 126.965 83.2993Z" fill="url(#paint12_linear_2029_122)"/>
<path fill-rule="evenodd" clip-rule="evenodd" d="M145.778 96.9748C140.237 99.0865 132.227 104.797 132.227 108.136L108.934 95.1266C109.247 91.8178 116.598 85.9682 122.485 83.9543L145.778 96.9748Z" fill="#7892AE"/>
<path fill-rule="evenodd" clip-rule="evenodd" d="M145.778 96.9748C141.446 98.6273 135.615 102.478 133.258 105.674C132.506 106.295 131.79 106.924 131.166 107.556L108.934 95.1341C109.247 91.8254 116.598 85.9758 122.485 83.9619L145.778 96.9748Z" fill="url(#paint13_linear_2029_122)"/>
<path d="M8.81688 28.7446C8.79179 28.7452 8.7669 28.7401 8.74408 28.7296C8.72125 28.7192 8.7011 28.7037 8.68514 28.6844C8.65272 28.6519 8.63452 28.6079 8.63452 28.562C8.63452 28.5161 8.65272 28.4721 8.68514 28.4397C24.7847 14.3313 51.2848 22.718 61.9338 26.9792C61.9744 26.9978 62.0062 27.0315 62.0226 27.0731C62.0389 27.1147 62.0386 27.161 62.0216 27.2024C62.0045 27.2437 61.9722 27.2769 61.9313 27.2949C61.8904 27.3129 61.8441 27.3144 61.8021 27.2991C51.2321 23.0719 24.8826 14.7191 8.92981 28.7182C8.89608 28.7392 8.85639 28.7484 8.81688 28.7446V28.7446Z" fill="white"/>
<path d="M128.779 28.7444C128.738 28.7439 128.698 28.7293 128.666 28.703C112.713 14.7189 86.3638 23.0567 75.775 27.299C75.7538 27.3075 75.7311 27.3117 75.7082 27.3114C75.6853 27.3111 75.6627 27.3062 75.6417 27.2971C75.6207 27.288 75.6017 27.2749 75.5858 27.2584C75.5699 27.2419 75.5575 27.2224 75.5492 27.2011C75.5407 27.1801 75.5365 27.1576 75.5369 27.135C75.5372 27.1124 75.5421 27.0901 75.5512 27.0694C75.5604 27.0487 75.5735 27.03 75.59 27.0145C75.6064 26.999 75.6258 26.9869 75.647 26.979C86.2923 22.7179 112.796 14.335 128.896 28.4395C128.927 28.4724 128.945 28.5163 128.945 28.5618C128.945 28.6074 128.927 28.6513 128.896 28.6842C128.881 28.7017 128.864 28.716 128.844 28.7264C128.824 28.7367 128.802 28.7429 128.779 28.7444V28.7444Z" fill="white"/>
<path d="M64.3656 25.6013C64.333 25.6005 64.3011 25.591 64.2733 25.5738C64.2456 25.5566 64.2228 25.5323 64.2075 25.5034C59.5587 16.1719 50.4831 6.03486 38.9458 5.55304C38.9229 5.55258 38.9003 5.54748 38.8794 5.53805C38.8585 5.52861 38.8398 5.51504 38.8243 5.49815C38.8088 5.48126 38.7969 5.4614 38.7893 5.43978C38.7818 5.41816 38.7786 5.39523 38.7802 5.37236C38.7807 5.35061 38.7854 5.32916 38.7942 5.30925C38.803 5.28934 38.8156 5.27136 38.8313 5.25633C38.8471 5.2413 38.8656 5.22951 38.8859 5.22165C38.9062 5.21378 38.9278 5.20999 38.9496 5.21049C50.6638 5.69231 59.8485 15.9197 64.535 25.3491C64.5452 25.3693 64.5513 25.3914 64.5528 25.414C64.5543 25.4365 64.5513 25.4592 64.544 25.4806C64.5366 25.502 64.525 25.5217 64.5099 25.5386C64.4948 25.5554 64.4764 25.5691 64.456 25.5787C64.4291 25.5959 64.3974 25.6038 64.3656 25.6013V25.6013Z" fill="white"/>
<path d="M73.2152 25.6014C73.1885 25.6014 73.1623 25.5936 73.14 25.5788C73.1195 25.5691 73.1011 25.5555 73.086 25.5386C73.0709 25.5218 73.0593 25.5021 73.0519 25.4807C73.0446 25.4593 73.0416 25.4366 73.0431 25.414C73.0447 25.3914 73.0507 25.3694 73.0609 25.3491C77.7549 15.9386 86.9321 5.69238 98.62 5.22185C98.6429 5.21853 98.6662 5.22028 98.6883 5.22697C98.7105 5.23366 98.7309 5.24512 98.7481 5.26056C98.7654 5.276 98.779 5.29502 98.7881 5.3163C98.7971 5.33758 98.8014 5.3606 98.8006 5.38372C98.8017 5.40646 98.7982 5.42918 98.7904 5.45058C98.7826 5.47197 98.7707 5.49162 98.7553 5.5084C98.7399 5.52519 98.7214 5.53877 98.7007 5.54838C98.6801 5.55799 98.6578 5.56343 98.635 5.56439C87.0977 6.03492 78.0184 16.172 73.3696 25.5148C73.354 25.5418 73.3315 25.564 73.3043 25.5793C73.2771 25.5945 73.2464 25.6021 73.2152 25.6014Z" fill="white"/>
<path d="M68.7321 81.6695C35.1476 81.6695 7.8269 61.9224 7.8269 37.6469C7.83196 33.8928 8.4813 30.1673 9.74666 26.6328C9.76213 26.5894 9.79422 26.5539 9.83587 26.5341C9.87752 26.5144 9.92532 26.5119 9.96875 26.5274C10.0122 26.5429 10.0477 26.575 10.0674 26.6166C10.0872 26.6583 10.0896 26.7061 10.0741 26.7495C8.81871 30.2522 8.17568 33.9449 8.17321 37.6658C8.17321 61.7568 35.3396 81.3308 68.7321 81.3308C102.124 81.3308 129.295 61.738 129.295 37.6658C129.293 33.9445 128.648 30.2515 127.39 26.7495C127.374 26.7061 127.377 26.6583 127.397 26.6166C127.416 26.575 127.452 26.5429 127.495 26.5274C127.539 26.5119 127.587 26.5144 127.628 26.5341C127.67 26.5539 127.702 26.5894 127.717 26.6328C128.986 30.1666 129.636 33.8924 129.641 37.6469C129.641 61.9224 102.316 81.6695 68.7321 81.6695Z" fill="white"/>
<path d="M68.7322 94.2343C31.0109 94.2343 0.324951 73.8849 0.324951 48.8716C0.324951 48.8257 0.343193 48.7817 0.375666 48.7492C0.408138 48.7167 0.452182 48.6985 0.498105 48.6985C0.543727 48.6994 0.587212 48.718 0.619479 48.7503C0.651746 48.7825 0.670298 48.826 0.671259 48.8716C0.671259 73.6929 31.2029 93.888 68.7322 93.888C106.262 93.888 136.793 73.6929 136.793 48.8716C136.799 48.8296 136.82 48.7912 136.853 48.7635C136.885 48.7357 136.926 48.7205 136.968 48.7205C137.011 48.7205 137.052 48.7357 137.084 48.7635C137.116 48.7912 137.137 48.8296 137.143 48.8716C137.143 73.8887 106.453 94.2343 68.7322 94.2343Z" fill="white"/>
<path d="M108.934 95.2996C108.91 95.2997 108.886 95.2948 108.864 95.2852C108.842 95.2755 108.822 95.2614 108.806 95.2437C108.79 95.226 108.777 95.2051 108.77 95.1823C108.762 95.1596 108.759 95.1354 108.761 95.1114C108.919 93.4213 110.888 90.9708 114.031 88.5127C117.833 85.5503 123.513 82.6029 126.995 83.1374C127.018 83.1406 127.04 83.1484 127.059 83.1602C127.079 83.172 127.097 83.1877 127.11 83.2063C127.124 83.2249 127.134 83.246 127.139 83.2684C127.144 83.2909 127.145 83.3141 127.142 83.3369C127.138 83.3597 127.131 83.3815 127.119 83.4012C127.107 83.4208 127.091 83.4379 127.073 83.4512C127.054 83.4646 127.033 83.4741 127.01 83.479C126.988 83.4839 126.965 83.4843 126.942 83.48C123.554 82.9643 117.987 85.8665 114.242 88.7838C111.178 91.1703 109.262 93.5493 109.111 95.1416C109.106 95.1851 109.086 95.2254 109.053 95.2546C109.02 95.2839 108.978 95.2999 108.934 95.2996V95.2996Z" fill="white"/>
<path d="M116.688 99.4855C116.664 99.4846 116.641 99.4788 116.619 99.4686C116.597 99.4584 116.578 99.4439 116.561 99.426C116.545 99.4081 116.533 99.3872 116.525 99.3644C116.517 99.3417 116.514 99.3176 116.515 99.2935C116.933 94.9233 128.022 87.248 133.688 87.248C133.846 87.248 133.996 87.248 134.143 87.248C134.166 87.2499 134.188 87.2563 134.208 87.2668C134.229 87.2773 134.247 87.2917 134.261 87.3092C134.276 87.3267 134.287 87.347 134.294 87.3688C134.301 87.3906 134.303 87.4135 134.301 87.4363C134.3 87.4589 134.294 87.481 134.284 87.5012C134.274 87.5215 134.26 87.5395 134.242 87.5543C134.225 87.569 134.205 87.5802 134.184 87.587C134.162 87.5939 134.139 87.5964 134.117 87.5943C128.884 87.1577 117.264 95.0626 116.862 99.3161C116.86 99.3611 116.841 99.4036 116.809 99.4351C116.776 99.4666 116.733 99.4846 116.688 99.4855V99.4855Z" fill="white"/>
<path d="M124.808 103.98C124.784 103.979 124.76 103.973 124.738 103.963C124.716 103.953 124.697 103.938 124.681 103.92C124.665 103.903 124.652 103.882 124.644 103.859C124.636 103.836 124.633 103.812 124.635 103.788C124.785 102.203 126.475 99.9711 129.272 97.6711C133.164 94.4753 138.935 91.4225 142.417 91.7689C142.439 91.7707 142.461 91.7771 142.482 91.7877C142.502 91.7982 142.519 91.8127 142.534 91.8303C142.548 91.8478 142.559 91.8681 142.565 91.8899C142.572 91.9117 142.574 91.9345 142.571 91.9571C142.569 91.9797 142.563 92.0017 142.552 92.0218C142.542 92.0419 142.527 92.0597 142.51 92.0741C142.492 92.0885 142.472 92.0992 142.45 92.1056C142.428 92.112 142.405 92.114 142.383 92.1114C138.995 91.7651 133.326 94.7878 129.494 97.9422C126.765 100.201 125.12 102.324 124.977 103.822C124.973 103.864 124.954 103.904 124.923 103.933C124.892 103.963 124.851 103.979 124.808 103.98V103.98Z" fill="white"/>
<path d="M132.227 108.313C132.197 108.313 132.167 108.305 132.14 108.29L108.847 95.2771C108.827 95.2658 108.81 95.2507 108.796 95.2326C108.782 95.2145 108.772 95.1939 108.766 95.1718C108.76 95.1498 108.759 95.1268 108.761 95.1042C108.764 95.0815 108.772 95.0597 108.783 95.0399C108.794 95.0202 108.809 95.0029 108.827 94.989C108.845 94.9751 108.865 94.9649 108.887 94.9589C108.908 94.953 108.931 94.9514 108.953 94.9543C108.976 94.9572 108.997 94.9646 109.017 94.976L132.31 107.985C132.35 108.008 132.379 108.046 132.392 108.09C132.404 108.134 132.399 108.182 132.377 108.222C132.362 108.249 132.34 108.271 132.314 108.287C132.288 108.303 132.258 108.312 132.227 108.313Z" fill="white"/>
<path d="M140.73 99.3011C140.7 99.2995 140.671 99.2918 140.644 99.2786L117.355 86.2656C117.334 86.255 117.316 86.2403 117.301 86.2224C117.287 86.2046 117.276 86.1839 117.269 86.1617C117.263 86.1395 117.261 86.1162 117.264 86.0933C117.267 86.0704 117.275 86.0483 117.287 86.0285C117.298 86.0088 117.313 85.9915 117.33 85.9776C117.348 85.9636 117.368 85.9534 117.39 85.9474C117.412 85.9415 117.434 85.9399 117.457 85.9428C117.479 85.9458 117.501 85.9531 117.52 85.9645L140.813 98.9737C140.833 98.9847 140.851 98.9996 140.865 99.0175C140.88 99.0354 140.89 99.056 140.897 99.0781C140.903 99.1001 140.905 99.1232 140.902 99.146C140.899 99.1688 140.892 99.1908 140.881 99.2108C140.866 99.2379 140.844 99.2606 140.818 99.2765C140.791 99.2924 140.761 99.3009 140.73 99.3011V99.3011Z" fill="white"/>
<path d="M150.005 96.365C149.975 96.3652 149.945 96.3574 149.919 96.3424C146.034 94.1742 142.093 92.006 138.284 89.9131C134.474 87.8202 130.544 85.6595 126.667 83.4951C126.627 83.4722 126.598 83.4346 126.585 83.3903C126.573 83.346 126.578 83.2985 126.599 83.258C126.611 83.2381 126.626 83.2207 126.644 83.2068C126.662 83.1928 126.683 83.1826 126.705 83.1766C126.727 83.1707 126.75 83.1692 126.772 83.1721C126.795 83.1751 126.817 83.1825 126.837 83.194C130.714 85.3584 134.647 87.5191 138.449 89.5931C142.251 91.6672 146.204 93.8543 150.088 96.0262C150.121 96.045 150.147 96.0741 150.162 96.1091C150.177 96.144 150.18 96.1829 150.17 96.2197C150.161 96.2565 150.14 96.2892 150.11 96.3128C150.08 96.3363 150.043 96.3494 150.005 96.3499V96.365Z" fill="white"/>
<defs>
<linearGradient id="paint0_linear_2029_122" x1="6.345" y1="82.8277" x2="135.022" y2="82.8277" gradientUnits="userSpaceOnUse">
<stop stop-color="#2C2A26"/>
<stop offset="1" stop-color="#C4C4C4"/>
</linearGradient>
<linearGradient id="paint1_linear_2029_122" x1="9.30567" y1="116.598" x2="66.2585" y2="93.8794" gradientUnits="userSpaceOnUse">
<stop stop-color="white"/>
<stop offset="1" stop-color="#D4D4D4"/>
</linearGradient>
<linearGradient id="paint2_linear_2029_122" x1="0.232187" y1="104.622" x2="136.661" y2="104.622" gradientUnits="userSpaceOnUse">
<stop stop-color="#4EB1D6"/>
<stop offset="1" stop-color="#3783AD"/>
</linearGradient>
<linearGradient id="paint3_linear_2029_122" x1="-0.0365041" y1="60.987" x2="137.294" y2="60.987" gradientUnits="userSpaceOnUse">
<stop stop-color="#4EB1D6"/>
<stop offset="1" stop-color="#3783AD"/>
</linearGradient>
<linearGradient id="paint4_linear_2029_122" x1="15.2991" y1="86.8116" x2="110.894" y2="46.6951" gradientUnits="userSpaceOnUse">
<stop stop-color="white"/>
<stop offset="1" stop-color="#D4D4D4"/>
</linearGradient>
<linearGradient id="paint5_linear_2029_122" x1="17.0605" y1="79.5374" x2="98.8693" y2="48.2956" gradientUnits="userSpaceOnUse">
<stop stop-color="white"/>
<stop offset="1" stop-color="#D4D4D4"/>
</linearGradient>
<linearGradient id="paint6_linear_2029_122" x1="111.504" y1="125.202" x2="129.829" y2="121.431" gradientUnits="userSpaceOnUse">
<stop stop-color="white"/>
<stop offset="1" stop-color="#D4D4D4"/>
</linearGradient>
<linearGradient id="paint7_linear_2029_122" x1="133.038" y1="113.099" x2="150.666" y2="113.099" gradientUnits="userSpaceOnUse">
<stop stop-color="#2C2A26"/>
<stop offset="1" stop-color="#C4C4C4"/>
</linearGradient>
<linearGradient id="paint8_linear_2029_122" x1="135.441" y1="114.075" x2="148.458" y2="114.075" gradientUnits="userSpaceOnUse">
<stop stop-color="#4EB1D6"/>
<stop offset="1" stop-color="#3783AD"/>
</linearGradient>
<linearGradient id="paint9_linear_2029_122" x1="135.894" y1="114.128" x2="147.826" y2="114.128" gradientUnits="userSpaceOnUse">
<stop stop-color="#4EB1D6"/>
<stop offset="1" stop-color="#3783AD"/>
</linearGradient>
<linearGradient id="paint10_linear_2029_122" x1="135.912" y1="114.292" x2="147.826" y2="114.292" gradientUnits="userSpaceOnUse">
<stop stop-color="#4EB1D6"/>
<stop offset="1" stop-color="#3783AD"/>
</linearGradient>
<linearGradient id="paint11_linear_2029_122" x1="10.0214" y1="100.894" x2="102.279" y2="100.894" gradientUnits="userSpaceOnUse">
<stop stop-color="#4EB1D6"/>
<stop offset="1" stop-color="#3783AD"/>
</linearGradient>
<linearGradient id="paint12_linear_2029_122" x1="108.872" y1="95.6688" x2="150.348" y2="95.6688" gradientUnits="userSpaceOnUse">
<stop stop-color="#4EB1D6"/>
<stop offset="1" stop-color="#3783AD"/>
</linearGradient>
<linearGradient id="paint13_linear_2029_122" x1="108.934" y1="95.759" x2="145.778" y2="95.759" gradientUnits="userSpaceOnUse">
<stop stop-color="#4EB1D6"/>
<stop offset="1" stop-color="#3783AD"/>
</linearGradient>
</defs>
</svg>
