<svg width="318" height="309" viewBox="0 0 318 309" fill="none" xmlns="http://www.w3.org/2000/svg">
<path d="M204.97 246.458L201.186 244.107" stroke="#535353" stroke-width="3" stroke-miterlimit="10"/>
<path d="M226.345 294.451L212.27 302.229L22.4875 197.381L36.5617 189.61L17.8505 179.274L90.4695 139.154L109.181 149.49L123.248 141.72L313.031 246.568L298.964 254.339L317.668 264.675L245.049 304.787L226.345 294.451Z" fill="#202020"/>
<path d="M267.714 261.355L251.718 252.124L263.752 245.184L95.7966 148.283L83.7701 155.223L67.7743 145.992L0 185.096L15.9884 194.327L3.96182 201.267L171.917 298.175L183.944 291.235L199.94 300.466L267.714 261.355Z" fill="url(#paint0_linear)"/>
<path d="M183.944 288.521L171.918 295.461L9.6598 201.838L21.6863 194.898L5.69055 185.675L67.7743 149.848L83.7701 159.079L95.7966 152.139L258.054 245.754L246.028 252.694L262.024 261.926L199.94 297.745L183.944 288.521Z" fill="#979797"/>
<path d="M199.94 294.713L183.944 285.459L171.917 292.399L171.561 292.199L13.9332 201.267L25.9597 194.327L9.96399 185.104L67.7743 151.738L83.7701 160.962L95.7965 154.022L96.1526 154.23L253.788 245.184L241.754 252.094L257.72 261.355L256.652 261.97L199.94 294.713ZM183.944 283.835L199.94 293.067L254.901 261.355L238.905 252.094L250.939 245.154L95.7965 155.705L83.7701 162.645L67.7891 153.392L12.8278 185.104L28.8235 194.327L16.797 201.267L171.932 290.775L183.944 283.835Z" fill="url(#paint1_linear)"/>
<path d="M263.752 245.184L251.718 252.124L259.123 256.394L263.752 253.725V245.184Z" fill="url(#paint2_linear)"/>
<path d="M15.9885 194.327L0 185.096V193.637L8.59143 198.598L15.9885 194.327Z" fill="url(#paint3_linear)"/>
<path d="M199.94 300.465V308.999L267.714 269.895V261.354L199.94 300.465Z" fill="url(#paint4_linear)"/>
<path d="M183.944 291.234V299.776L199.94 309V300.465L183.944 291.234Z" fill="url(#paint5_linear)"/>
<path d="M171.917 298.174V306.716L183.944 299.776V291.234L171.917 298.174Z" fill="url(#paint6_linear)"/>
<path d="M3.96191 201.266V209.807L171.917 306.715V298.173L3.96191 201.266Z" fill="url(#paint7_linear)"/>
<path d="M135.222 248.881C122.98 248.881 110.739 246.197 101.428 240.822C92.2724 235.535 87.2273 228.469 87.2273 220.921C87.2273 213.373 92.2724 206.292 101.428 201.006C120.065 190.255 150.394 190.262 169.009 201.006C178.164 206.292 183.217 213.366 183.217 220.921C183.217 228.477 178.164 235.535 169.009 240.822C159.691 246.197 147.456 248.881 135.222 248.881ZM135.222 194.348C123.24 194.348 111.266 196.98 102.14 202.244C93.4447 207.264 88.6518 213.892 88.6518 220.921C88.6518 227.95 93.4447 234.571 102.14 239.591C120.384 250.112 150.06 250.112 168.297 239.591C177 234.571 181.792 227.935 181.792 220.921C181.792 213.907 177 207.264 168.297 202.244C159.179 196.98 147.174 194.348 135.222 194.348Z" fill="url(#paint8_linear)"/>
<path d="M135.222 239.837C127.002 239.837 118.789 238.028 112.534 234.417C106.28 230.806 102.889 226.053 102.889 220.922C102.889 215.791 106.295 210.987 112.534 207.413C125.043 200.206 145.394 200.206 157.91 207.413C164.105 210.987 167.555 215.784 167.555 220.922C167.555 226.061 164.142 230.85 157.91 234.417C151.678 237.983 143.465 239.837 135.222 239.837ZM135.222 203.402C127.261 203.402 119.301 205.152 113.247 208.651C107.504 211.958 104.344 216.318 104.344 220.922C104.344 225.527 107.504 229.879 113.247 233.186C125.362 240.178 145.082 240.178 157.198 233.186C162.933 229.879 166.101 225.519 166.101 220.922C166.101 216.325 162.94 211.958 157.198 208.651C151.136 205.152 143.183 203.402 135.222 203.402Z" fill="url(#paint9_linear)"/>
<g style="mix-blend-mode:multiply">
<path d="M173.958 259.486H264.643L251.718 252.124L263.752 245.184H185.68L173.958 259.486Z" fill="url(#paint10_linear)"/>
</g>
<path style="mix-blend-mode:multiply" d="M176.643 200.436C191.964 209.274 191.964 223.599 176.643 232.437C161.323 241.276 136.506 241.276 121.192 232.437C105.879 223.599 105.879 209.274 121.192 200.436C136.506 191.598 161.33 191.606 176.643 200.436Z" fill="url(#paint11_linear)"/>
<path d="M162.184 113.04L160.106 114.271L134.287 99.3753L136.357 98.1445L162.184 113.04Z" fill="url(#paint12_linear)"/>
<path d="M138.36 104.433C137.921 103.851 137.663 103.152 137.618 102.424C137.618 102.424 137.618 102.424 137.618 102.364C136.75 102.112 136.135 102.498 136.135 103.447C136.18 104.172 136.438 104.869 136.877 105.449C137.222 105.958 137.669 106.389 138.19 106.717C139.31 107.362 140.208 106.991 140.252 105.901C140.055 105.859 139.866 105.789 139.689 105.694C139.161 105.373 138.708 104.943 138.36 104.433Z" fill="url(#paint13_linear)"/>
<path d="M149.764 110.994C149.297 110.383 149.018 109.648 148.963 108.881C148.963 108.881 148.963 108.836 148.963 108.807C148.05 108.547 147.367 108.955 147.367 109.956C147.423 110.723 147.701 111.458 148.169 112.069C148.533 112.604 149.006 113.056 149.556 113.396C150.736 114.078 151.678 113.685 151.722 112.544C151.519 112.493 151.322 112.419 151.136 112.321C150.59 111.981 150.122 111.529 149.764 110.994Z" fill="url(#paint14_linear)"/>
<path d="M155.454 114.287C155.013 113.703 154.755 113.001 154.712 112.27C154.708 112.248 154.708 112.226 154.712 112.203C153.837 111.951 153.184 112.344 153.184 113.293C153.225 114.027 153.484 114.731 153.926 115.318C154.272 115.829 154.722 116.261 155.247 116.585C156.374 117.238 157.28 116.867 157.324 115.77C157.127 115.728 156.937 115.658 156.76 115.562C156.237 115.237 155.792 114.802 155.454 114.287Z" fill="url(#paint15_linear)"/>
<path d="M144.058 107.717C143.619 107.135 143.361 106.436 143.317 105.708C143.314 105.686 143.314 105.663 143.317 105.641C142.449 105.389 141.833 105.782 141.833 106.731C141.877 107.459 142.135 108.158 142.575 108.74C142.918 109.249 143.366 109.678 143.888 110.001C145.008 110.646 145.906 110.275 145.95 109.193C145.754 109.147 145.565 109.078 145.386 108.985C144.86 108.659 144.408 108.227 144.058 107.717Z" fill="url(#paint16_linear)"/>
<path d="M134.287 99.3535L134.184 105.092L160.002 119.988L160.106 114.249L134.287 99.3535ZM138.175 106.568C137.683 106.266 137.263 105.861 136.944 105.382C136.514 104.842 136.255 104.186 136.202 103.498C136.202 102.416 137.077 102.015 138.153 102.668C138.671 102.984 139.112 103.412 139.444 103.921C139.835 104.453 140.064 105.086 140.104 105.745C140.126 106.842 139.258 107.213 138.175 106.59V106.568ZM143.873 109.86C143.382 109.551 142.961 109.145 142.634 108.666C142.206 108.126 141.948 107.47 141.892 106.783C141.892 105.708 142.768 105.3 143.843 105.96C144.362 106.276 144.803 106.704 145.134 107.213C145.526 107.742 145.756 108.373 145.795 109.029C145.824 110.134 144.949 110.475 143.873 109.882V109.86ZM149.571 113.145C149.077 112.84 148.654 112.433 148.332 111.951C147.901 111.412 147.642 110.756 147.59 110.067C147.59 108.992 148.458 108.622 149.541 109.244C150.056 109.563 150.494 109.991 150.825 110.498C151.219 111.028 151.451 111.662 151.493 112.322C151.522 113.441 150.647 113.79 149.571 113.167V113.145ZM155.262 116.429C154.772 116.125 154.352 115.721 154.03 115.243C153.6 114.7 153.342 114.042 153.288 113.352C153.288 112.277 154.164 111.906 155.239 112.529C155.758 112.845 156.199 113.274 156.53 113.782C156.922 114.313 157.152 114.947 157.191 115.606C157.213 116.703 156.345 117.074 155.262 116.451V116.429Z" fill="url(#paint17_linear)"/>
<path d="M162.184 41.1204L160.106 42.3512L134.287 27.4554L136.357 26.2246L162.184 41.1204Z" fill="url(#paint18_linear)"/>
<path d="M138.36 32.5124C137.922 31.9322 137.664 31.2361 137.618 30.5105C137.618 30.5105 137.618 30.466 137.618 30.4438C136.75 30.1917 136.135 30.5846 136.135 31.5263C136.179 32.2544 136.437 32.9534 136.877 33.5356C137.224 34.0406 137.671 34.4695 138.19 34.7961C139.31 35.4412 140.208 35.0704 140.252 33.9879C140.055 33.9434 139.865 33.8709 139.689 33.7729C139.161 33.4523 138.708 33.0225 138.36 32.5124Z" fill="url(#paint19_linear)"/>
<path d="M149.764 39.0742C149.294 38.464 149.016 37.7289 148.963 36.961C148.963 36.961 148.963 36.9165 148.963 36.8943C148.05 36.6274 147.367 37.0352 147.367 38.0361C147.42 38.804 147.699 39.5391 148.169 40.1493C148.531 40.6855 149.004 41.138 149.556 41.4765C150.736 42.1586 151.678 41.7656 151.722 40.6238C151.517 40.58 151.319 40.505 151.136 40.4014C150.59 40.0612 150.122 39.6088 149.764 39.0742Z" fill="url(#paint20_linear)"/>
<path d="M155.454 42.3724C155.012 41.786 154.754 41.0815 154.712 40.3483C154.71 40.3261 154.71 40.3037 154.712 40.2815C153.837 40.0294 153.184 40.4224 153.184 41.3789C153.227 42.1096 153.485 42.8113 153.926 43.3956C154.274 43.907 154.723 44.3412 155.247 44.6709C156.374 45.316 157.28 44.9453 157.324 43.8553C157.127 43.8108 156.937 43.7384 156.76 43.6403C156.238 43.3178 155.792 42.8851 155.454 42.3724Z" fill="url(#paint21_linear)"/>
<path d="M144.058 35.7963C143.62 35.2162 143.362 34.52 143.317 33.7944C143.312 33.7724 143.312 33.7497 143.317 33.7277C142.449 33.4756 141.833 33.8611 141.833 34.8102C141.877 35.5383 142.135 36.2373 142.575 36.8195C142.918 37.3301 143.365 37.7623 143.888 38.0874C145.008 38.7325 145.906 38.3617 145.95 37.2718C145.754 37.2266 145.565 37.1569 145.386 37.0642C144.86 36.7384 144.408 36.3066 144.058 35.7963Z" fill="url(#paint22_linear)"/>
<path d="M134.287 27.4336L134.184 33.1724L160.002 48.0682L160.106 42.3294L134.287 27.4336ZM138.175 34.6553C137.685 34.3486 137.265 33.9418 136.944 33.4616C136.513 32.9224 136.254 32.2662 136.202 31.5783C136.202 30.5032 137.077 30.1325 138.153 30.7553C138.673 31.0695 139.114 31.4981 139.444 32.0084C139.835 32.5376 140.064 33.1684 140.104 33.8249C140.126 34.9297 139.258 35.293 138.175 34.6776V34.6553ZM143.873 37.94C143.381 37.6337 142.958 37.2269 142.634 36.7462C142.206 36.2057 141.948 35.5502 141.892 34.8629C141.892 33.7878 142.768 33.4171 143.843 34.0399C144.359 34.3604 144.799 34.7877 145.134 35.293C145.526 35.8243 145.756 36.4579 145.795 37.117C145.824 38.2143 144.949 38.5554 143.873 37.9622V37.94ZM149.571 41.2246C149.079 40.921 148.657 40.5167 148.332 40.0383C147.901 39.4963 147.643 38.8378 147.59 38.1476C147.59 37.0725 148.458 36.7017 149.541 37.3246C150.056 37.6433 150.494 38.071 150.825 38.5776C151.219 39.1085 151.451 39.742 151.493 40.4016C151.522 41.5212 150.647 41.8697 149.571 41.2469V41.2246ZM155.262 44.5092C154.77 44.2076 154.35 43.8028 154.03 43.3229C153.6 42.7832 153.342 42.1273 153.288 41.4396C153.288 40.3571 154.164 39.9567 155.239 40.6092C155.758 40.9255 156.199 41.3536 156.53 41.8623C156.921 42.3942 157.15 43.0274 157.191 43.6862C157.213 44.7836 156.345 45.1543 155.262 44.5315V44.5092Z" fill="url(#paint23_linear)"/>
<path d="M136.409 182.07C142.941 182.07 148.235 179.016 148.235 175.249C148.235 171.482 142.941 168.428 136.409 168.428C129.878 168.428 124.583 171.482 124.583 175.249C124.583 179.016 129.878 182.07 136.409 182.07Z" fill="url(#paint24_linear)"/>
<path d="M144.771 180.067C140.156 182.737 132.662 182.737 128.048 180.067C125.74 178.74 124.583 176.99 124.583 175.248V200.68C124.583 202.422 125.74 204.172 128.048 205.499C132.662 208.169 140.156 208.169 144.771 205.499C147.078 204.172 148.235 202.422 148.235 200.68V175.248C148.235 176.99 147.078 178.74 144.771 180.067Z" fill="url(#paint25_linear)"/>
<path d="M145.104 167.107C149.905 169.88 149.905 174.373 145.104 177.139C140.304 179.905 132.492 179.912 127.714 177.139C122.936 174.366 122.914 169.88 127.714 167.107C132.514 164.334 140.304 164.334 145.104 167.107Z" fill="#EF9B81"/>
<path d="M145.105 177.139C140.304 179.912 132.492 179.912 127.714 177.139C125.31 175.753 124.116 173.944 124.116 172.127V175.308C124.116 177.124 125.31 178.941 127.714 180.327C132.514 183.093 140.327 183.093 145.105 180.327C147.508 178.941 148.703 177.124 148.703 175.308V172.127C148.703 173.944 147.508 175.723 145.105 177.139Z" fill="url(#paint26_linear)"/>
<path d="M144.771 124.473C140.156 127.135 132.662 127.135 128.048 124.473C125.74 123.139 124.583 121.389 124.583 119.646V171.326C124.583 173.076 125.74 174.818 128.048 176.153C132.662 178.814 140.156 178.814 144.771 176.153C147.078 174.818 148.235 173.076 148.235 171.326V119.646C148.235 121.389 147.078 123.139 144.771 124.473Z" fill="url(#paint27_linear)"/>
<path d="M144.771 126.788V130.643C147.078 129.309 148.236 127.559 148.236 125.816V121.961C148.236 123.674 147.078 125.424 144.771 126.788Z" fill="url(#paint28_linear)"/>
<path d="M124.583 121.93V125.785C124.583 127.535 125.74 129.277 128.048 130.612V126.786C125.74 125.422 124.583 123.672 124.583 121.93Z" fill="url(#paint29_linear)"/>
<path d="M144.771 136.93V140.786C147.078 139.451 148.236 137.709 148.236 135.959V132.104C148.236 133.853 147.078 135.596 144.771 136.93Z" fill="url(#paint30_linear)"/>
<path d="M124.583 132.104V135.959C124.583 137.709 125.74 139.451 128.048 140.786V136.93C125.74 135.596 124.583 133.853 124.583 132.104Z" fill="url(#paint31_linear)"/>
<path d="M144.771 147.103V150.958C147.078 149.631 148.236 147.881 148.236 146.139V142.283C148.236 144.026 147.078 145.768 144.771 147.103Z" fill="url(#paint32_linear)"/>
<path d="M124.583 142.277V146.14C124.583 147.883 125.74 149.633 128.048 150.96V147.104C125.74 145.77 124.583 144.027 124.583 142.277Z" fill="url(#paint33_linear)"/>
<path d="M148.013 118.32L145.854 111.988H126.965L124.806 118.32C124.064 120.478 125.147 122.769 128.04 124.474C132.655 127.136 140.149 127.136 144.763 124.474C147.664 122.799 148.747 120.478 148.013 118.32Z" fill="url(#paint34_linear)"/>
<path d="M147.62 61.3613H125.199L126.831 67.5376C127.031 68.7758 127.959 69.9844 129.606 70.9335C133.36 73.0985 139.458 73.0985 143.213 70.9335C144.86 69.9844 145.787 68.7758 145.987 67.5376L147.62 61.3613Z" fill="url(#paint35_linear)"/>
<path d="M145.988 67.5377C145.787 68.7759 144.86 69.9845 143.213 70.9336C139.459 73.0986 133.36 73.0986 129.606 70.9336C127.959 69.9845 127.031 68.7759 126.831 67.5377L126.787 67.3672V113.063C126.787 114.487 127.721 115.91 129.606 116.993C133.36 119.165 139.459 119.165 143.213 116.993C145.097 115.91 146.032 114.487 146.032 113.063V67.3672L145.988 67.5377Z" fill="url(#paint36_linear)"/>
<path d="M145.987 79.2604C145.787 80.4986 144.86 81.6998 143.213 82.6488V106.175C145.097 105.093 146.032 103.669 146.032 102.245V79.0898L145.987 79.2604Z" fill="url(#paint37_linear)"/>
<path d="M126.831 79.2604L126.787 79.0898V102.245C126.787 103.669 127.721 105.093 129.606 106.175V82.6488C127.959 81.6998 127.031 80.4986 126.831 79.2604Z" fill="url(#paint38_linear)"/>
<path d="M132.959 83.9102V106.524C135.232 107.021 137.586 107.021 139.859 106.524V83.9102C137.585 84.3995 135.233 84.3995 132.959 83.9102Z" fill="url(#paint39_linear)"/>
<path d="M132.959 83.9102V106.524C135.232 107.021 137.586 107.021 139.859 106.524V83.9102C137.585 84.3995 135.233 84.3995 132.959 83.9102Z" fill="url(#paint40_linear)"/>
<path d="M136.409 49.9649C142.629 49.9649 147.672 47.0569 147.672 43.4697C147.672 39.8826 142.629 36.9746 136.409 36.9746C130.189 36.9746 125.147 39.8826 125.147 43.4697C125.147 47.0569 130.189 49.9649 136.409 49.9649Z" fill="url(#paint41_linear)"/>
<path d="M144.37 48.0603C139.978 50.5961 132.848 50.5961 128.448 48.0603C126.223 46.7924 125.147 45.1316 125.147 43.4707V60.7391C125.147 62.4 126.252 64.0683 128.448 65.3361C132.848 67.8719 139.978 67.8719 144.37 65.3361C146.596 64.0683 147.672 62.3703 147.672 60.7391V43.4707C147.672 45.1316 146.566 46.7924 144.37 48.0603Z" fill="url(#paint42_linear)"/>
<path d="M132.959 51.9961V54.2946C135.24 54.709 137.578 54.709 139.859 54.2946V51.9961C137.578 52.4105 135.24 52.4105 132.959 51.9961Z" fill="url(#paint43_linear)"/>
<path d="M132.959 55.0586V65.1127C135.24 65.5354 137.579 65.5354 139.859 65.1127V55.0586C137.578 55.473 135.24 55.473 132.959 55.0586Z" fill="url(#paint44_linear)"/>
<path d="M144.37 46.1536C139.978 48.6894 132.848 48.6894 128.448 46.1536C126.223 44.8783 125.147 43.1878 125.147 41.5566V44.4854C125.147 46.1536 126.252 47.8145 128.448 49.0824C132.848 51.6181 139.978 51.6181 144.37 49.0824C146.596 47.8145 147.672 46.1166 147.672 44.4854V41.5566C147.672 43.2175 146.566 44.8783 144.37 46.1536Z" fill="url(#paint45_linear)"/>
<path d="M147.642 41.202L144.674 29.791H128.055L125.088 41.202C124.924 42.9815 126 44.7906 128.359 46.1549C132.759 48.6906 139.889 48.6906 144.281 46.1549C146.729 44.7906 147.805 43.0037 147.642 41.202Z" fill="url(#paint46_linear)"/>
<path d="M142.293 29.4935C140.47 30.4183 138.454 30.9003 136.409 30.9003C134.365 30.9003 132.349 30.4183 130.526 29.4935C128.901 28.5593 128.085 27.3285 128.085 26.0977V30.0496C128.085 31.2804 128.901 32.5038 130.526 33.4454C132.349 34.3703 134.365 34.8523 136.409 34.8523C138.454 34.8523 140.47 34.3703 142.293 33.4454C143.918 32.5038 144.734 31.2804 144.734 30.0496V26.0977C144.734 27.3285 143.918 28.5593 142.293 29.4935Z" fill="url(#paint47_linear)"/>
<path d="M143.035 21.7832C146.692 23.8964 146.692 27.3145 143.035 29.4276C139.377 31.5408 133.442 31.5408 129.784 29.4276C126.126 27.3145 126.134 23.8964 129.784 21.7832C133.434 19.6701 139.377 19.6775 143.035 21.7832Z" fill="url(#paint48_linear)"/>
<path d="M136.409 26.6698C141.58 26.6698 145.772 24.2498 145.772 21.2646C145.772 18.2794 141.58 15.8594 136.409 15.8594C131.238 15.8594 127.046 18.2794 127.046 21.2646C127.046 24.2498 131.238 26.6698 136.409 26.6698Z" fill="url(#paint49_linear)"/>
<path d="M143.035 24.9865C139.377 27.0922 133.442 27.0922 129.784 24.9865C127.959 23.9336 127.046 22.5471 127.046 21.168V25.6167C127.046 26.9958 127.959 28.3823 129.784 29.4352C133.442 31.5483 139.377 31.5483 143.035 29.4352C144.86 28.3823 145.772 26.9958 145.772 25.6167V21.168C145.772 22.5471 144.86 23.9336 143.035 24.9865Z" fill="url(#paint50_linear)"/>
<path d="M145.735 20.6776L139.852 6.73828V6.96813C139.833 7.27669 139.73 7.57415 139.553 7.82789C139.376 8.08162 139.133 8.28183 138.85 8.40655C138.094 8.79017 137.257 8.9901 136.409 8.9901C135.561 8.9901 134.725 8.79017 133.968 8.40655C133.686 8.28047 133.444 8.07991 133.268 7.82645C133.091 7.573 132.987 7.27625 132.967 6.96813V6.7457L127.076 20.6776C126.831 22.2272 127.729 23.8213 129.777 25.0077C133.434 27.1134 139.37 27.1134 143.027 25.0077C145.082 23.8213 145.98 22.2421 145.735 20.6776Z" fill="url(#paint51_linear)"/>
<path d="M130.021 13.9158V13.6934L127.054 20.6778C126.809 22.2275 127.707 23.8216 129.754 25.0079L131.001 15.369C130.72 15.24 130.48 15.0362 130.307 14.7798C130.134 14.5235 130.035 14.2245 130.021 13.9158Z" fill="url(#paint52_linear)"/>
<path d="M142.797 13.9158V13.6934L145.765 20.6778C146.01 22.2275 145.112 23.8216 143.064 25.0079L141.818 15.369C142.099 15.24 142.339 15.0362 142.512 14.7798C142.684 14.5235 142.783 14.2245 142.797 13.9158Z" fill="url(#paint53_linear)"/>
<path d="M139.852 6.96952L137.574 0.652344H135.244L132.959 6.96952C132.98 7.27763 133.084 7.57438 133.26 7.82784C133.436 8.08129 133.679 8.28185 133.961 8.40793C134.717 8.79156 135.554 8.99148 136.402 8.99148C137.25 8.99148 138.086 8.79156 138.843 8.40793C139.127 8.28428 139.372 8.08453 139.55 7.83072C139.728 7.5769 139.832 7.27888 139.852 6.96952Z" fill="url(#paint54_linear)"/>
<path d="M136.409 1.34944C137.053 1.34944 137.574 1.04736 137.574 0.674722C137.574 0.302083 137.053 0 136.409 0C135.766 0 135.245 0.302083 135.245 0.674722C135.245 1.04736 135.766 1.34944 136.409 1.34944Z" fill="#979797"/>
<path d="M162.94 213.768L158.385 200.934H149.014L144.452 213.798C143.836 215.525 144.689 217.401 147.019 218.743C150.728 220.871 156.664 220.871 160.373 218.743C162.703 217.372 163.556 215.496 162.94 213.768Z" fill="url(#paint55_linear)"/>
<path d="M153.696 204.218C156.335 204.218 158.474 202.983 158.474 201.459C158.474 199.936 156.335 198.701 153.696 198.701C151.057 198.701 148.918 199.936 148.918 201.459C148.918 202.983 151.057 204.218 153.696 204.218Z" fill="url(#paint56_linear)"/>
<path d="M157.079 120.855C156.032 121.386 154.874 121.662 153.7 121.662C152.526 121.662 151.368 121.386 150.32 120.855C149.935 120.684 149.601 120.413 149.355 120.07C149.109 119.727 148.958 119.326 148.918 118.905V201.674C148.958 202.094 149.109 202.496 149.355 202.838C149.601 203.181 149.935 203.452 150.32 203.624C151.368 204.154 152.526 204.43 153.7 204.43C154.874 204.43 156.032 204.154 157.079 203.624C157.465 203.452 157.798 203.181 158.044 202.838C158.291 202.496 158.442 202.094 158.481 201.674V118.891C158.444 119.313 158.294 119.718 158.048 120.064C157.801 120.409 157.467 120.683 157.079 120.855Z" fill="url(#paint57_linear)"/>
<path d="M157.079 195.743C156.032 196.273 154.874 196.55 153.7 196.55C152.526 196.55 151.368 196.273 150.32 195.743C149.935 195.571 149.601 195.3 149.355 194.958C149.109 194.615 148.958 194.213 148.918 193.793V196.232C148.958 196.652 149.109 197.054 149.355 197.397C149.601 197.74 149.935 198.011 150.32 198.182C151.368 198.713 152.526 198.989 153.7 198.989C154.874 198.989 156.032 198.713 157.079 198.182C157.465 198.011 157.798 197.74 158.044 197.397C158.291 197.054 158.442 196.652 158.481 196.232V193.793C158.442 194.213 158.291 194.615 158.044 194.958C157.798 195.3 157.465 195.571 157.079 195.743Z" fill="url(#paint58_linear)"/>
<path d="M157.079 187.823C156.032 188.353 154.874 188.63 153.7 188.63C152.526 188.63 151.368 188.353 150.32 187.823C149.934 187.652 149.601 187.381 149.354 187.038C149.108 186.696 148.957 186.293 148.918 185.873V188.327C148.957 188.748 149.108 189.15 149.354 189.493C149.601 189.835 149.934 190.106 150.32 190.277C151.368 190.808 152.526 191.084 153.7 191.084C154.874 191.084 156.032 190.808 157.079 190.277C157.465 190.106 157.799 189.835 158.045 189.493C158.292 189.15 158.442 188.748 158.481 188.327V185.888C158.44 186.306 158.288 186.705 158.042 187.045C157.795 187.385 157.463 187.653 157.079 187.823Z" fill="url(#paint59_linear)"/>
<path d="M157.079 179.92C156.033 180.454 154.875 180.733 153.7 180.733C152.525 180.733 151.366 180.454 150.32 179.92C149.933 179.75 149.599 179.479 149.352 179.136C149.105 178.793 148.956 178.39 148.918 177.97V180.409C148.956 180.83 149.105 181.233 149.352 181.576C149.599 181.919 149.933 182.189 150.32 182.359C151.366 182.894 152.525 183.173 153.7 183.173C154.875 183.173 156.033 182.894 157.079 182.359C157.466 182.189 157.801 181.919 158.047 181.576C158.294 181.233 158.444 180.83 158.481 180.409V177.947C158.448 178.372 158.3 178.78 158.053 179.127C157.806 179.474 157.469 179.748 157.079 179.92Z" fill="url(#paint60_linear)"/>
<path d="M157.079 123.585C156.032 124.115 154.874 124.391 153.7 124.391C152.526 124.391 151.368 124.115 150.32 123.585C149.935 123.413 149.601 123.142 149.355 122.799C149.109 122.457 148.958 122.055 148.918 121.635V123.081C148.958 123.501 149.109 123.903 149.355 124.245C149.601 124.588 149.935 124.859 150.32 125.031C151.368 125.561 152.526 125.837 153.7 125.837C154.874 125.837 156.032 125.561 157.079 125.031C157.465 124.859 157.798 124.588 158.044 124.245C158.291 123.903 158.442 123.501 158.481 123.081V121.664C158.437 122.079 158.283 122.475 158.037 122.812C157.791 123.149 157.461 123.416 157.079 123.585Z" fill="url(#paint61_linear)"/>
<path d="M158.303 118.217L154.082 109.92H153.34L149.111 118.217C148.636 119.158 149.044 120.211 150.328 120.945C151.374 121.48 152.532 121.759 153.707 121.759C154.882 121.759 156.04 121.48 157.086 120.945C158.362 120.211 158.763 119.158 158.303 118.217Z" fill="url(#paint62_linear)"/>
<path d="M153.97 109.734C154.119 109.816 154.119 109.957 153.97 110.046C153.886 110.086 153.793 110.107 153.7 110.107C153.606 110.107 153.514 110.086 153.429 110.046C153.281 109.957 153.281 109.816 153.429 109.734C153.513 109.691 153.605 109.668 153.7 109.668C153.794 109.668 153.887 109.691 153.97 109.734Z" fill="#EF9B81"/>
<path d="M128.389 215.324L123.826 202.467H114.456L109.893 215.324C109.277 217.059 110.13 218.927 112.46 220.276C116.17 222.397 122.105 222.397 125.815 220.276C128.152 218.927 129.005 217.059 128.389 215.324Z" fill="url(#paint63_linear)"/>
<path d="M122.528 201.074C124.398 202.149 124.398 203.899 122.528 204.974C121.48 205.504 120.323 205.781 119.148 205.781C117.974 205.781 116.817 205.504 115.769 204.974C113.899 203.899 113.899 202.149 115.769 201.074C116.817 200.544 117.974 200.268 119.148 200.268C120.323 200.268 121.48 200.544 122.528 201.074Z" fill="url(#paint64_linear)"/>
<path d="M122.528 122.397C121.482 122.932 120.324 123.211 119.148 123.211C117.973 123.211 116.815 122.932 115.769 122.397C115.382 122.228 115.048 121.957 114.801 121.614C114.554 121.271 114.404 120.868 114.367 120.447V203.208C114.407 203.628 114.557 204.03 114.804 204.373C115.05 204.716 115.383 204.987 115.769 205.158C116.817 205.688 117.974 205.965 119.148 205.965C120.323 205.965 121.48 205.688 122.528 205.158C122.914 204.987 123.247 204.716 123.493 204.373C123.74 204.03 123.89 203.628 123.93 203.208V120.447C123.893 120.868 123.743 121.271 123.496 121.614C123.249 121.957 122.915 122.228 122.528 122.397Z" fill="url(#paint65_linear)"/>
<path d="M122.528 197.292C121.48 197.822 120.323 198.098 119.148 198.098C117.974 198.098 116.817 197.822 115.769 197.292C115.383 197.12 115.05 196.849 114.804 196.506C114.557 196.164 114.407 195.762 114.367 195.342V197.781C114.407 198.201 114.557 198.603 114.804 198.946C115.05 199.289 115.383 199.56 115.769 199.731C116.817 200.261 117.974 200.538 119.148 200.538C120.323 200.538 121.48 200.261 122.528 199.731C122.914 199.56 123.247 199.289 123.493 198.946C123.74 198.603 123.89 198.201 123.93 197.781V195.342C123.89 195.762 123.74 196.164 123.493 196.506C123.247 196.849 122.914 197.12 122.528 197.292Z" fill="url(#paint66_linear)"/>
<path d="M122.528 189.388C121.48 189.918 120.323 190.194 119.148 190.194C117.974 190.194 116.817 189.918 115.769 189.388C115.383 189.216 115.05 188.945 114.804 188.602C114.557 188.26 114.407 187.858 114.367 187.438V189.877C114.407 190.297 114.557 190.699 114.804 191.042C115.05 191.384 115.383 191.655 115.769 191.827C116.817 192.357 117.974 192.633 119.148 192.633C120.323 192.633 121.48 192.357 122.528 191.827C122.914 191.655 123.247 191.384 123.493 191.042C123.74 190.699 123.89 190.297 123.93 189.877V187.438C123.89 187.858 123.74 188.26 123.493 188.602C123.247 188.945 122.914 189.216 122.528 189.388Z" fill="url(#paint67_linear)"/>
<path d="M122.528 181.485C121.48 182.015 120.323 182.292 119.148 182.292C117.974 182.292 116.817 182.015 115.769 181.485C115.383 181.314 115.05 181.043 114.804 180.7C114.557 180.357 114.407 179.955 114.367 179.535V181.975C114.407 182.395 114.557 182.797 114.804 183.139C115.05 183.482 115.383 183.753 115.769 183.925C116.817 184.455 117.974 184.731 119.148 184.731C120.323 184.731 121.48 184.455 122.528 183.925C122.914 183.753 123.247 183.482 123.493 183.139C123.74 182.797 123.89 182.395 123.93 181.975V179.535C123.89 179.955 123.74 180.357 123.493 180.7C123.247 181.043 122.914 181.314 122.528 181.485Z" fill="url(#paint68_linear)"/>
<path d="M122.528 125.141C121.482 125.676 120.324 125.955 119.148 125.955C117.973 125.955 116.815 125.676 115.769 125.141C115.383 124.97 115.049 124.7 114.803 124.357C114.556 124.014 114.406 123.612 114.367 123.191V124.615C114.407 125.035 114.557 125.437 114.804 125.78C115.05 126.122 115.383 126.393 115.769 126.565C116.817 127.095 117.974 127.372 119.148 127.372C120.323 127.372 121.48 127.095 122.528 126.565C122.914 126.393 123.247 126.122 123.493 125.78C123.74 125.437 123.89 125.035 123.93 124.615V123.191C123.891 123.612 123.741 124.014 123.494 124.357C123.248 124.7 122.914 124.97 122.528 125.141Z" fill="url(#paint69_linear)"/>
<path d="M123.737 119.781L119.516 111.484H118.774L114.545 119.781C114.07 120.715 114.478 121.768 115.762 122.51C116.809 123.04 117.967 123.316 119.141 123.316C120.315 123.316 121.473 123.04 122.521 122.51C123.812 121.768 124.22 120.715 123.737 119.781Z" fill="url(#paint70_linear)"/>
<path d="M119.419 111.358C119.452 111.37 119.479 111.392 119.499 111.421C119.519 111.449 119.529 111.483 119.529 111.517C119.529 111.552 119.519 111.586 119.499 111.614C119.479 111.643 119.452 111.664 119.419 111.677C119.335 111.717 119.242 111.738 119.148 111.738C119.055 111.738 118.962 111.717 118.878 111.677C118.845 111.664 118.817 111.643 118.798 111.614C118.778 111.586 118.768 111.552 118.768 111.517C118.768 111.483 118.778 111.449 118.798 111.421C118.817 111.392 118.845 111.37 118.878 111.358C118.962 111.318 119.055 111.297 119.148 111.297C119.242 111.297 119.335 111.318 119.419 111.358Z" fill="#EF9B81"/>
<path d="M145.691 228.745L141.128 215.881H131.765L127.143 228.745C126.527 230.473 127.38 232.348 129.71 233.69C133.419 235.818 139.355 235.818 143.064 233.69C145.409 232.348 146.262 230.473 145.691 228.745Z" fill="url(#paint71_linear)"/>
<path d="M136.409 219.194C139.048 219.194 141.187 217.959 141.187 216.436C141.187 214.913 139.048 213.678 136.409 213.678C133.77 213.678 131.631 214.913 131.631 216.436C131.631 217.959 133.77 219.194 136.409 219.194Z" fill="url(#paint72_linear)"/>
<path d="M139.792 135.817C138.744 136.348 137.585 136.624 136.409 136.624C135.234 136.624 134.075 136.348 133.026 135.817C132.642 135.644 132.311 135.372 132.066 135.03C131.821 134.687 131.671 134.286 131.631 133.867V216.621C131.671 217.04 131.821 217.441 132.066 217.783C132.311 218.126 132.642 218.397 133.026 218.571C134.075 219.101 135.234 219.377 136.409 219.377C137.585 219.377 138.744 219.101 139.792 218.571C140.178 218.399 140.51 218.128 140.755 217.785C141.001 217.443 141.15 217.04 141.187 216.621V133.867C141.147 134.286 140.997 134.687 140.753 135.03C140.508 135.372 140.176 135.644 139.792 135.817Z" fill="url(#paint73_linear)"/>
<path d="M139.792 210.704C138.744 211.234 137.585 211.511 136.409 211.511C135.234 211.511 134.075 211.234 133.026 210.704C132.642 210.531 132.311 210.259 132.066 209.917C131.821 209.574 131.671 209.173 131.631 208.754V211.193C131.671 211.612 131.821 212.013 132.066 212.356C132.311 212.698 132.642 212.97 133.026 213.143C134.075 213.674 135.234 213.95 136.409 213.95C137.585 213.95 138.744 213.674 139.792 213.143C140.178 212.972 140.51 212.701 140.755 212.358C141.001 212.015 141.15 211.613 141.187 211.193V208.754C141.147 209.173 140.997 209.574 140.753 209.917C140.508 210.259 140.176 210.531 139.792 210.704Z" fill="url(#paint74_linear)"/>
<path d="M139.792 202.802C138.745 203.338 137.586 203.617 136.409 203.617C135.233 203.617 134.073 203.338 133.026 202.802C132.641 202.63 132.309 202.358 132.064 202.016C131.819 201.673 131.67 201.271 131.631 200.852V203.291C131.67 203.71 131.819 204.112 132.064 204.455C132.309 204.798 132.641 205.069 133.026 205.241C134.075 205.771 135.234 206.048 136.409 206.048C137.585 206.048 138.744 205.771 139.792 205.241C140.178 205.07 140.511 204.799 140.756 204.456C141.002 204.113 141.15 203.711 141.187 203.291V200.852C141.149 201.271 141 201.673 140.754 202.016C140.509 202.358 140.177 202.63 139.792 202.802Z" fill="url(#paint75_linear)"/>
<path d="M139.792 194.897C138.745 195.433 137.586 195.713 136.409 195.713C135.233 195.713 134.073 195.433 133.026 194.897C132.641 194.726 132.308 194.455 132.063 194.112C131.818 193.769 131.669 193.367 131.631 192.947V195.387C131.669 195.806 131.818 196.208 132.063 196.551C132.308 196.894 132.641 197.165 133.026 197.337C134.073 197.873 135.233 198.152 136.409 198.152C137.586 198.152 138.745 197.873 139.792 197.337C140.179 197.167 140.512 196.896 140.757 196.553C141.003 196.21 141.151 195.807 141.187 195.387V192.947C141.15 193.367 141.001 193.769 140.755 194.112C140.51 194.455 140.178 194.726 139.792 194.897Z" fill="url(#paint76_linear)"/>
<path d="M139.792 138.561C138.744 139.092 137.585 139.368 136.409 139.368C135.234 139.368 134.075 139.092 133.026 138.561C132.642 138.388 132.311 138.116 132.066 137.774C131.821 137.431 131.671 137.03 131.631 136.611V138.028C131.671 138.447 131.821 138.848 132.066 139.19C132.311 139.533 132.642 139.804 133.026 139.978C134.075 140.508 135.234 140.784 136.409 140.784C137.585 140.784 138.744 140.508 139.792 139.978C140.178 139.806 140.51 139.535 140.755 139.192C141.001 138.849 141.15 138.447 141.187 138.028V136.611C141.147 137.03 140.997 137.431 140.753 137.774C140.508 138.116 140.176 138.388 139.792 138.561Z" fill="url(#paint77_linear)"/>
<path d="M141.002 133.193L136.773 124.896H136.031L131.802 133.193C131.32 134.135 131.735 135.188 133.011 135.922C134.058 136.458 135.218 136.738 136.394 136.738C137.571 136.738 138.73 136.458 139.778 135.922C141.068 135.188 141.477 134.135 141.002 133.193Z" fill="url(#paint78_linear)"/>
<path d="M136.676 124.696C136.825 124.778 136.825 124.919 136.676 125.008C136.593 125.048 136.502 125.068 136.409 125.068C136.317 125.068 136.225 125.048 136.142 125.008C135.994 124.919 135.994 124.778 136.142 124.696C136.224 124.652 136.316 124.629 136.409 124.629C136.502 124.629 136.594 124.652 136.676 124.696Z" fill="#EF9B81"/>
<path d="M150.788 119.611L148.718 120.841L122.891 105.946L124.969 104.715L150.788 119.611Z" fill="url(#paint79_linear)"/>
<path d="M126.972 111.003C126.534 110.422 126.276 109.726 126.23 109.001C126.226 108.979 126.226 108.956 126.23 108.934C125.362 108.682 124.746 109.075 124.746 110.017C124.79 110.745 125.049 111.444 125.488 112.026C125.832 112.534 126.279 112.964 126.801 113.286C127.922 113.931 128.819 113.561 128.857 112.478C128.663 112.432 128.477 112.362 128.3 112.271C127.772 111.947 127.32 111.515 126.972 111.003Z" fill="#505464"/>
<path d="M138.375 117.564C137.903 116.955 137.624 116.219 137.574 115.451C137.574 115.451 137.574 115.413 137.574 115.384C136.662 115.117 135.979 115.532 135.979 116.526C136.032 117.293 136.314 118.026 136.788 118.631C137.147 119.167 137.618 119.62 138.168 119.959C139.347 120.641 140.297 120.248 140.341 119.106C140.135 119.062 139.935 118.989 139.748 118.891C139.201 118.551 138.734 118.098 138.375 117.564Z" fill="url(#paint80_linear)"/>
<path d="M144.059 120.857C143.618 120.269 143.36 119.565 143.317 118.833C143.317 118.833 143.317 118.796 143.317 118.766C142.441 118.514 141.833 118.907 141.833 119.863C141.875 120.594 142.134 121.296 142.575 121.88C142.916 122.396 143.367 122.832 143.895 123.155C145.023 123.808 145.928 123.43 145.973 122.34C145.775 122.295 145.586 122.223 145.409 122.125C144.872 121.805 144.412 121.372 144.059 120.857Z" fill="url(#paint81_linear)"/>
<path d="M132.67 114.293C132.23 113.711 131.972 113.012 131.928 112.284C131.928 112.284 131.928 112.239 131.928 112.217C131.06 111.965 130.444 112.358 130.444 113.3C130.488 114.028 130.746 114.727 131.186 115.309C131.532 115.82 131.982 116.252 132.507 116.577C133.627 117.222 134.525 116.851 134.562 115.761C134.368 115.718 134.18 115.648 134.005 115.554C133.475 115.234 133.02 114.804 132.67 114.293Z" fill="url(#paint82_linear)"/>
<path d="M122.892 105.945L122.795 111.684L148.614 126.58L148.718 120.841L122.892 105.945ZM126.787 113.167C126.294 112.861 125.872 112.454 125.548 111.973C125.119 111.433 124.861 110.777 124.806 110.09C124.806 109.015 125.681 108.644 126.757 109.267C127.272 109.587 127.712 110.015 128.048 110.52C128.437 111.053 128.666 111.686 128.708 112.344C128.738 113.441 127.885 113.79 126.787 113.167ZM132.485 116.452C131.992 116.148 131.57 115.744 131.246 115.265C130.815 114.723 130.556 114.065 130.504 113.375C130.504 112.3 131.372 111.929 132.455 112.552C132.969 112.87 133.408 113.298 133.738 113.805C134.132 114.336 134.364 114.969 134.406 115.629C134.436 116.704 133.56 117.075 132.485 116.452ZM138.175 119.736C137.684 119.435 137.263 119.03 136.944 118.55C136.514 118.01 136.255 117.354 136.202 116.667C136.202 115.584 137.077 115.184 138.153 115.836C138.671 116.153 139.112 116.581 139.444 117.089C139.835 117.621 140.064 118.255 140.104 118.913C140.126 119.988 139.258 120.359 138.175 119.736ZM143.873 123.028C143.382 122.72 142.961 122.313 142.634 121.835C142.206 121.294 141.948 120.639 141.892 119.951C141.892 118.869 142.768 118.506 143.843 119.128C144.362 119.445 144.803 119.873 145.134 120.381C145.526 120.91 145.756 121.541 145.795 122.198C145.824 123.28 144.949 123.644 143.873 123.028Z" fill="url(#paint83_linear)"/>
<path d="M150.788 47.6962L148.718 48.927L122.891 34.0312L124.969 32.793L150.788 47.6962Z" fill="url(#paint84_linear)"/>
<path d="M126.972 39.0881C126.532 38.5059 126.274 37.8069 126.23 37.0788C126.227 37.0566 126.227 37.0342 126.23 37.0121C125.362 36.76 124.746 37.1529 124.746 38.102C124.792 38.8276 125.05 39.5238 125.488 40.1039C125.83 40.6141 126.278 41.0441 126.801 41.3644C127.922 42.0095 128.819 41.6387 128.857 40.5562C128.663 40.5097 128.477 40.44 128.3 40.3486C127.773 40.0278 127.32 39.5981 126.972 39.0881Z" fill="url(#paint85_linear)"/>
<path d="M138.375 45.6418C137.904 45.0355 137.625 44.3022 137.574 43.5361C137.574 43.5361 137.574 43.4916 137.574 43.4619C136.662 43.195 135.979 43.6102 135.979 44.6038C136.032 45.3707 136.314 46.1041 136.788 46.7095C137.147 47.2476 137.618 47.7027 138.168 48.0441C139.347 48.7188 140.297 48.3333 140.341 47.1915C140.135 47.1412 139.936 47.0665 139.748 46.969C139.201 46.6289 138.734 46.1765 138.375 45.6418Z" fill="url(#paint86_linear)"/>
<path d="M144.059 48.9343C143.62 48.3487 143.362 47.6477 143.317 46.9176C143.317 46.9176 143.317 46.8731 143.317 46.8508C142.441 46.5913 141.833 46.9917 141.833 47.9408C141.874 48.6741 142.132 49.3786 142.575 49.9649C142.919 50.4775 143.369 50.91 143.895 51.2328C145.023 51.8853 145.928 51.5072 145.973 50.4172C145.777 50.372 145.587 50.3023 145.409 50.2096C144.874 49.8842 144.414 49.4496 144.059 48.9343Z" fill="url(#paint87_linear)"/>
<path d="M132.67 42.3733C132.23 41.791 131.972 41.0921 131.928 40.364C131.928 40.364 131.928 40.364 131.928 40.2972C131.06 40.0451 130.444 40.4381 130.444 41.3872C130.49 42.1127 130.748 42.8089 131.186 43.3891C131.53 43.9017 131.98 44.3341 132.507 44.657C133.627 45.302 134.525 44.9313 134.562 43.8488C134.368 43.8024 134.18 43.7301 134.005 43.6338C133.473 43.3161 133.018 42.8858 132.67 42.3733Z" fill="url(#paint88_linear)"/>
<path d="M122.892 34.0234L122.795 39.7623L148.614 54.6655L148.718 48.9266L122.892 34.0234ZM126.787 41.2452C126.296 40.9395 125.874 40.5356 125.548 40.0589C125.12 39.5151 124.862 38.8575 124.806 38.1682C124.806 37.093 125.681 36.7223 126.757 37.3451C127.272 37.6656 127.712 38.0929 128.048 38.5982C128.437 39.1313 128.666 39.7639 128.708 40.4222C128.738 41.5195 127.885 41.868 126.787 41.2452ZM132.485 44.5298C131.991 44.2283 131.568 43.8236 131.246 43.3435C130.815 42.804 130.557 42.148 130.504 41.4602C130.504 40.3777 131.372 39.9773 132.455 40.6298C132.969 40.9485 133.408 41.3762 133.738 41.8828C134.131 42.4143 134.363 43.0474 134.406 43.7068C134.436 44.7819 133.56 45.1526 132.485 44.5298ZM138.175 47.8219C137.685 47.5151 137.265 47.1083 136.944 46.6281C136.513 46.0889 136.254 45.4327 136.202 44.7448C136.202 43.6697 137.077 43.2619 138.153 43.9218C138.674 44.2339 139.116 44.6629 139.444 45.1749C139.836 45.7035 140.065 46.3347 140.104 46.9914C140.126 48.074 139.258 48.4373 138.175 47.8219ZM143.873 51.1065C143.383 50.8008 142.961 50.3969 142.634 49.9202C142.206 49.3764 141.948 48.7188 141.892 48.0295C141.892 46.9544 142.768 46.5466 143.843 47.2065C144.36 47.5249 144.801 47.9526 145.134 48.4595C145.526 48.9908 145.756 49.6244 145.795 50.2835C145.824 51.3586 144.949 51.7293 143.873 51.1065Z" fill="url(#paint89_linear)"/>
<path d="M160.9 181.499L148.243 173.921V39.1992L152.346 41.5645L160.737 117.289L160.9 181.499Z" fill="url(#paint90_linear)"/>
<path d="M152.346 41.5653L161.79 36.123L172.949 110.928L174.789 173.484L160.9 181.5L160.737 117.29L152.346 41.5653Z" fill="url(#paint91_linear)"/>
<path d="M161.79 36.123L152.346 41.5653L148.243 39.2001L157.695 33.7578L161.79 36.123Z" fill="url(#paint92_linear)"/>
<path d="M173.958 259.485L161.293 251.907V117.186L165.396 119.551L173.958 259.485Z" fill="url(#paint93_linear)"/>
<path d="M165.396 119.552L174.848 114.109L187.839 251.478L173.958 259.486L165.396 119.552Z" fill="#505464"/>
<path d="M174.848 114.107L165.396 119.55L161.293 117.184L170.745 111.742L174.848 114.107Z" fill="url(#paint94_linear)"/>
<path d="M151.174 60.8864C152.272 61.5166 153.162 61.1385 153.162 60.0411C153.12 59.3713 152.885 58.7277 152.487 58.1875L149.912 59.6704C150.244 60.1585 150.674 60.5725 151.174 60.8864Z" fill="url(#paint95_linear)"/>
<path d="M151.173 56.9136C150.075 56.2759 149.185 56.6541 149.185 57.7514C149.239 58.4503 149.497 59.118 149.927 59.6718L152.502 58.1889C152.162 57.6677 151.708 57.2314 151.173 56.9136Z" fill="url(#paint96_linear)"/>
<path d="M152.991 89.8114C155.039 90.9903 156.701 90.2934 156.701 88.2395C156.622 86.9859 156.184 85.7813 155.44 84.7695L150.625 87.5426C151.244 88.458 152.05 89.2313 152.991 89.8114Z" fill="url(#paint97_linear)"/>
<path d="M152.991 82.3812C150.936 81.1948 149.281 81.8992 149.281 83.9456C149.366 85.2527 149.838 86.5049 150.639 87.5417L155.454 84.7687C154.82 83.8009 153.978 82.9855 152.991 82.3812Z" fill="url(#paint98_linear)"/>
<path d="M155.031 118.128C157.079 119.307 158.741 118.61 158.741 116.556C158.662 115.302 158.225 114.098 157.48 113.086L152.665 115.859C153.284 116.774 154.091 117.548 155.031 118.128Z" fill="url(#paint99_linear)"/>
<path d="M155.031 110.698C152.976 109.511 151.322 110.216 151.322 112.262C151.406 113.569 151.879 114.821 152.68 115.858L157.495 113.085C156.86 112.117 156.019 111.302 155.031 110.698Z" fill="url(#paint100_linear)"/>
<path d="M155.031 146.444C157.079 147.623 158.741 146.926 158.741 144.872C158.662 143.619 158.225 142.414 157.48 141.402L152.665 144.175C153.282 145.093 154.089 145.866 155.031 146.444Z" fill="url(#paint101_linear)"/>
<path d="M155.031 139.014C152.976 137.828 151.322 138.532 151.322 140.578C151.406 141.885 151.879 143.138 152.68 144.174L157.495 141.401C156.86 140.434 156.019 139.618 155.031 139.014Z" fill="url(#paint102_linear)"/>
<path d="M155.031 174.759C157.079 175.945 158.741 175.241 158.741 173.187C158.661 171.933 158.224 170.729 157.48 169.717L152.665 172.49C153.282 173.407 154.089 174.181 155.031 174.759Z" fill="url(#paint103_linear)"/>
<path d="M155.031 167.33C152.976 166.144 151.322 166.848 151.322 168.902C151.407 170.206 151.88 171.456 152.68 172.491L157.495 169.718C156.86 168.75 156.019 167.934 155.031 167.33Z" fill="url(#paint104_linear)"/>
<path d="M166.576 246.347C168.631 247.533 170.285 246.828 170.285 244.775C170.209 243.521 169.771 242.315 169.024 241.305L164.239 244.085C164.849 244.996 165.645 245.767 166.576 246.347Z" fill="url(#paint105_linear)"/>
<path d="M166.576 238.916C164.528 237.73 162.866 238.434 162.866 240.488C162.955 241.795 163.43 243.047 164.231 244.084L169.039 241.304C168.406 240.334 167.565 239.518 166.576 238.916Z" fill="url(#paint106_linear)"/>
<path d="M165.945 224.46C168 225.646 169.655 224.942 169.655 222.888C169.578 221.634 169.14 220.429 168.393 219.418L163.586 222.198C164.204 223.11 165.008 223.88 165.945 224.46Z" fill="url(#paint107_linear)"/>
<path d="M165.945 217.029C163.898 215.843 162.236 216.547 162.236 218.601C162.324 219.909 162.799 221.16 163.601 222.197L168.408 219.417C167.776 218.447 166.934 217.632 165.945 217.029Z" fill="url(#paint108_linear)"/>
<path d="M165.433 202.676C167.11 203.647 168.468 203.069 168.468 201.393C168.405 200.369 168.047 199.385 167.436 198.561L163.504 200.829C164.011 201.573 164.668 202.202 165.433 202.676Z" fill="url(#paint109_linear)"/>
<path d="M165.433 196.61C163.756 195.639 162.399 196.217 162.399 197.893C162.465 198.969 162.849 200.002 163.504 200.859L167.436 198.59C166.927 197.787 166.242 197.11 165.433 196.61Z" fill="url(#paint110_linear)"/>
<path d="M165.121 182.396C166.605 183.263 167.837 182.744 167.837 181.246C167.781 180.328 167.462 179.445 166.917 178.703L163.393 180.735C163.846 181.404 164.435 181.97 165.121 182.396Z" fill="url(#paint111_linear)"/>
<path d="M165.121 176.969C163.638 176.102 162.399 176.621 162.399 178.119C162.462 179.075 162.808 179.991 163.393 180.751L166.917 178.719C166.452 178.013 165.84 177.416 165.121 176.969Z" fill="url(#paint112_linear)"/>
<path d="M164.372 162.874C165.671 163.616 166.732 163.178 166.732 161.881C166.685 161.077 166.407 160.305 165.93 159.656L162.881 161.421C163.266 162.009 163.775 162.505 164.372 162.874Z" fill="url(#paint113_linear)"/>
<path d="M164.372 158.165C163.074 157.424 162.013 157.861 162.013 159.159C162.069 159.989 162.371 160.784 162.881 161.442L165.93 159.678C165.527 159.066 164.995 158.55 164.372 158.165Z" fill="url(#paint114_linear)"/>
<path d="M164.016 144.19C165.092 144.813 165.967 144.442 165.967 143.367C165.927 142.708 165.698 142.075 165.307 141.543L162.777 143.026C163.104 143.496 163.526 143.893 164.016 144.19Z" fill="url(#paint115_linear)"/>
<path d="M164.016 140.289C162.94 139.674 162.065 140.037 162.065 141.119C162.121 141.807 162.379 142.462 162.807 143.003L165.337 141.52C164.99 141.02 164.54 140.6 164.016 140.289Z" fill="url(#paint116_linear)"/>
<defs>
<linearGradient id="paint0_linear" x1="279392" y1="46653.5" x2="375996" y2="46653.5" gradientUnits="userSpaceOnUse">
<stop stop-color="white"/>
<stop offset="1" stop-color="#D3D3D3"/>
</linearGradient>
<linearGradient id="paint1_linear" x1="9.05382" y1="204.794" x2="258.969" y2="209.205" gradientUnits="userSpaceOnUse">
<stop stop-color="#EC526E"/>
<stop offset="1" stop-color="#EC593D"/>
</linearGradient>
<linearGradient id="paint2_linear" x1="16893.6" y1="4037.13" x2="17088.8" y2="4037.13" gradientUnits="userSpaceOnUse">
<stop stop-color="white"/>
<stop offset="1" stop-color="#D3D3D3"/>
</linearGradient>
<linearGradient id="paint3_linear" x1="16685.9" y1="3678.7" x2="17030.6" y2="3678.7" gradientUnits="userSpaceOnUse">
<stop stop-color="white"/>
<stop offset="1" stop-color="#D3D3D3"/>
</linearGradient>
<linearGradient id="paint4_linear" x1="89195.3" y1="18586.9" x2="95386.5" y2="18586.9" gradientUnits="userSpaceOnUse">
<stop stop-color="white"/>
<stop offset="1" stop-color="#D3D3D3"/>
</linearGradient>
<linearGradient id="paint5_linear" x1="20843.5" y1="7482.05" x2="21188.4" y2="7482.05" gradientUnits="userSpaceOnUse">
<stop stop-color="white"/>
<stop offset="1" stop-color="#D3D3D3"/>
</linearGradient>
<linearGradient id="paint6_linear" x1="15510.1" y1="6533.84" x2="15705.1" y2="6533.84" gradientUnits="userSpaceOnUse">
<stop stop-color="white"/>
<stop offset="1" stop-color="#D3D3D3"/>
</linearGradient>
<linearGradient id="paint7_linear" x1="176184" y1="36324" x2="214206" y2="36324" gradientUnits="userSpaceOnUse">
<stop stop-color="white"/>
<stop offset="1" stop-color="#D3D3D3"/>
</linearGradient>
<linearGradient id="paint8_linear" x1="111550" y1="16859.1" x2="123969" y2="16859.1" gradientUnits="userSpaceOnUse">
<stop stop-color="white"/>
<stop offset="1" stop-color="#D3D3D3"/>
</linearGradient>
<linearGradient id="paint9_linear" x1="102.652" y1="216.046" x2="167.881" y2="217.181" gradientUnits="userSpaceOnUse">
<stop stop-color="#EC526E"/>
<stop offset="1" stop-color="#EC593D"/>
</linearGradient>
<linearGradient id="paint10_linear" x1="183.964" y1="257.495" x2="199.358" y2="227.366" gradientUnits="userSpaceOnUse">
<stop stop-color="white"/>
<stop offset="1" stop-color="#D4D4D4"/>
</linearGradient>
<linearGradient id="paint11_linear" x1="93554.8" y1="13404.3" x2="101845" y2="13404.3" gradientUnits="userSpaceOnUse">
<stop stop-color="white"/>
<stop offset="1" stop-color="#D3D3D3"/>
</linearGradient>
<linearGradient id="paint12_linear" x1="137.365" y1="112.026" x2="155.165" y2="102.521" gradientUnits="userSpaceOnUse">
<stop stop-color="white"/>
<stop offset="1" stop-color="#D4D4D4"/>
</linearGradient>
<linearGradient id="paint13_linear" x1="137.878" y1="102.12" x2="138.412" y2="106.924" gradientUnits="userSpaceOnUse">
<stop stop-color="#505464"/>
<stop offset="0.85" stop-color="#677081"/>
<stop offset="0.96" stop-color="#6B7485"/>
</linearGradient>
<linearGradient id="paint14_linear" x1="5568.57" y1="841.028" x2="5572.86" y2="875.061" gradientUnits="userSpaceOnUse">
<stop stop-color="#505464"/>
<stop offset="0.85" stop-color="#677081"/>
<stop offset="0.96" stop-color="#6B7485"/>
</linearGradient>
<linearGradient id="paint15_linear" x1="5338.48" y1="833.753" x2="5342.43" y2="864.836" gradientUnits="userSpaceOnUse">
<stop stop-color="#505464"/>
<stop offset="0.85" stop-color="#677081"/>
<stop offset="0.96" stop-color="#6B7485"/>
</linearGradient>
<linearGradient id="paint16_linear" x1="5235.86" y1="781.116" x2="5239.8" y2="811.833" gradientUnits="userSpaceOnUse">
<stop stop-color="#505464"/>
<stop offset="0.85" stop-color="#677081"/>
<stop offset="0.96" stop-color="#6B7485"/>
</linearGradient>
<linearGradient id="paint17_linear" x1="135.307" y1="109.668" x2="159.723" y2="109.668" gradientUnits="userSpaceOnUse">
<stop stop-color="#2C2A26"/>
<stop offset="1" stop-color="#C4C4C4"/>
</linearGradient>
<linearGradient id="paint18_linear" x1="137.365" y1="40.1061" x2="155.165" y2="30.6016" gradientUnits="userSpaceOnUse">
<stop stop-color="white"/>
<stop offset="1" stop-color="#D4D4D4"/>
</linearGradient>
<linearGradient id="paint19_linear" x1="5198.77" y1="223.62" x2="5202.69" y2="254.291" gradientUnits="userSpaceOnUse">
<stop stop-color="#505464"/>
<stop offset="0.85" stop-color="#677081"/>
<stop offset="0.96" stop-color="#6B7485"/>
</linearGradient>
<linearGradient id="paint20_linear" x1="5568.57" y1="283.759" x2="5572.85" y2="317.816" gradientUnits="userSpaceOnUse">
<stop stop-color="#505464"/>
<stop offset="0.85" stop-color="#677081"/>
<stop offset="0.96" stop-color="#6B7485"/>
</linearGradient>
<linearGradient id="paint21_linear" x1="5338.48" y1="298.4" x2="5342.44" y2="329.545" gradientUnits="userSpaceOnUse">
<stop stop-color="#505464"/>
<stop offset="0.85" stop-color="#677081"/>
<stop offset="0.96" stop-color="#6B7485"/>
</linearGradient>
<linearGradient id="paint22_linear" x1="5235.86" y1="248.276" x2="5239.8" y2="278.996" gradientUnits="userSpaceOnUse">
<stop stop-color="#505464"/>
<stop offset="0.85" stop-color="#677081"/>
<stop offset="0.96" stop-color="#6B7485"/>
</linearGradient>
<linearGradient id="paint23_linear" x1="135.307" y1="37.7479" x2="159.723" y2="37.7479" gradientUnits="userSpaceOnUse">
<stop stop-color="#2C2A26"/>
<stop offset="1" stop-color="#C4C4C4"/>
</linearGradient>
<linearGradient id="paint24_linear" x1="28780.7" y1="3393.02" x2="29534.7" y2="3393.02" gradientUnits="userSpaceOnUse">
<stop stop-color="white"/>
<stop offset="1" stop-color="#D3D3D3"/>
</linearGradient>
<linearGradient id="paint25_linear" x1="28780.7" y1="8500.11" x2="29534.7" y2="8500.11" gradientUnits="userSpaceOnUse">
<stop stop-color="white"/>
<stop offset="1" stop-color="#D3D3D3"/>
</linearGradient>
<linearGradient id="paint26_linear" x1="124.025" y1="175.94" x2="148.82" y2="176.544" gradientUnits="userSpaceOnUse">
<stop stop-color="#EC526E"/>
<stop offset="1" stop-color="#EC593D"/>
</linearGradient>
<linearGradient id="paint27_linear" x1="28780.7" y1="11868.1" x2="29534.7" y2="11868.1" gradientUnits="userSpaceOnUse">
<stop stop-color="white"/>
<stop offset="1" stop-color="#D3D3D3"/>
</linearGradient>
<linearGradient id="paint28_linear" x1="144.921" y1="126.301" x2="148.184" y2="126.301" gradientUnits="userSpaceOnUse">
<stop stop-color="#2C2A26"/>
<stop offset="1" stop-color="#C4C4C4"/>
</linearGradient>
<linearGradient id="paint29_linear" x1="124.733" y1="126.27" x2="127.997" y2="126.27" gradientUnits="userSpaceOnUse">
<stop stop-color="#2C2A26"/>
<stop offset="1" stop-color="#C4C4C4"/>
</linearGradient>
<linearGradient id="paint30_linear" x1="144.921" y1="136.443" x2="148.184" y2="136.443" gradientUnits="userSpaceOnUse">
<stop stop-color="#2C2A26"/>
<stop offset="1" stop-color="#C4C4C4"/>
</linearGradient>
<linearGradient id="paint31_linear" x1="124.733" y1="136.443" x2="127.997" y2="136.443" gradientUnits="userSpaceOnUse">
<stop stop-color="#2C2A26"/>
<stop offset="1" stop-color="#C4C4C4"/>
</linearGradient>
<linearGradient id="paint32_linear" x1="144.921" y1="146.619" x2="148.184" y2="146.619" gradientUnits="userSpaceOnUse">
<stop stop-color="#2C2A26"/>
<stop offset="1" stop-color="#C4C4C4"/>
</linearGradient>
<linearGradient id="paint33_linear" x1="124.733" y1="146.617" x2="127.997" y2="146.617" gradientUnits="userSpaceOnUse">
<stop stop-color="#2C2A26"/>
<stop offset="1" stop-color="#C4C4C4"/>
</linearGradient>
<linearGradient id="paint34_linear" x1="124.492" y1="117.363" x2="148.356" y2="117.76" gradientUnits="userSpaceOnUse">
<stop stop-color="#EC526E"/>
<stop offset="1" stop-color="#EC593D"/>
</linearGradient>
<linearGradient id="paint35_linear" x1="125.116" y1="65.516" x2="147.73" y2="65.9772" gradientUnits="userSpaceOnUse">
<stop stop-color="#EC526E"/>
<stop offset="1" stop-color="#EC593D"/>
</linearGradient>
<linearGradient id="paint36_linear" x1="23500.7" y1="6495.74" x2="23999.9" y2="6495.74" gradientUnits="userSpaceOnUse">
<stop stop-color="white"/>
<stop offset="1" stop-color="#D3D3D3"/>
</linearGradient>
<linearGradient id="paint37_linear" x1="143.335" y1="92.6285" x2="145.99" y2="92.6285" gradientUnits="userSpaceOnUse">
<stop stop-color="#2C2A26"/>
<stop offset="1" stop-color="#C4C4C4"/>
</linearGradient>
<linearGradient id="paint38_linear" x1="126.909" y1="92.6285" x2="129.564" y2="92.6285" gradientUnits="userSpaceOnUse">
<stop stop-color="#2C2A26"/>
<stop offset="1" stop-color="#C4C4C4"/>
</linearGradient>
<linearGradient id="paint39_linear" x1="133.256" y1="95.4027" x2="139.755" y2="95.4027" gradientUnits="userSpaceOnUse">
<stop stop-color="#6C6D69"/>
<stop offset="1" stop-color="#2C2A26"/>
</linearGradient>
<linearGradient id="paint40_linear" x1="133.258" y1="95.4002" x2="139.757" y2="95.4002" gradientUnits="userSpaceOnUse">
<stop stop-color="#2C2A26"/>
<stop offset="1" stop-color="#C4C4C4"/>
</linearGradient>
<linearGradient id="paint41_linear" x1="27432.2" y1="798.592" x2="28116" y2="798.592" gradientUnits="userSpaceOnUse">
<stop stop-color="white"/>
<stop offset="1" stop-color="#D3D3D3"/>
</linearGradient>
<linearGradient id="paint42_linear" x1="27432.2" y1="1817.7" x2="28116" y2="1817.7" gradientUnits="userSpaceOnUse">
<stop stop-color="white"/>
<stop offset="1" stop-color="#D3D3D3"/>
</linearGradient>
<linearGradient id="paint43_linear" x1="133.258" y1="53.3004" x2="139.757" y2="53.3004" gradientUnits="userSpaceOnUse">
<stop stop-color="#2C2A26"/>
<stop offset="1" stop-color="#C4C4C4"/>
</linearGradient>
<linearGradient id="paint44_linear" x1="133.258" y1="60.2426" x2="139.757" y2="60.2426" gradientUnits="userSpaceOnUse">
<stop stop-color="#2C2A26"/>
<stop offset="1" stop-color="#C4C4C4"/>
</linearGradient>
<linearGradient id="paint45_linear" x1="125.064" y1="45.0551" x2="147.779" y2="45.6078" gradientUnits="userSpaceOnUse">
<stop stop-color="#EC526E"/>
<stop offset="1" stop-color="#EC593D"/>
</linearGradient>
<linearGradient id="paint46_linear" x1="27507.3" y1="988.557" x2="28192.1" y2="988.557" gradientUnits="userSpaceOnUse">
<stop stop-color="white"/>
<stop offset="1" stop-color="#D3D3D3"/>
</linearGradient>
<linearGradient id="paint47_linear" x1="128.807" y1="30.4737" x2="144.488" y2="30.4737" gradientUnits="userSpaceOnUse">
<stop stop-color="#2C2A26"/>
<stop offset="1" stop-color="#C4C4C4"/>
</linearGradient>
<linearGradient id="paint48_linear" x1="22886.8" y1="393.623" x2="23359.7" y2="393.623" gradientUnits="userSpaceOnUse">
<stop stop-color="white"/>
<stop offset="1" stop-color="#D3D3D3"/>
</linearGradient>
<linearGradient id="paint49_linear" x1="22876.7" y1="325.901" x2="23349.4" y2="325.901" gradientUnits="userSpaceOnUse">
<stop stop-color="white"/>
<stop offset="1" stop-color="#D3D3D3"/>
</linearGradient>
<linearGradient id="paint50_linear" x1="126.977" y1="24.824" x2="145.865" y2="25.1896" gradientUnits="userSpaceOnUse">
<stop stop-color="#EC526E"/>
<stop offset="1" stop-color="#EC593D"/>
</linearGradient>
<linearGradient id="paint51_linear" x1="22891.2" y1="452.937" x2="23364.1" y2="452.937" gradientUnits="userSpaceOnUse">
<stop stop-color="white"/>
<stop offset="1" stop-color="#D3D3D3"/>
</linearGradient>
<linearGradient id="paint52_linear" x1="127.187" y1="19.349" x2="130.942" y2="19.349" gradientUnits="userSpaceOnUse">
<stop stop-color="#2C2A26"/>
<stop offset="1" stop-color="#C4C4C4"/>
</linearGradient>
<linearGradient id="paint53_linear" x1="141.991" y1="19.349" x2="145.745" y2="19.349" gradientUnits="userSpaceOnUse">
<stop stop-color="#2C2A26"/>
<stop offset="1" stop-color="#C4C4C4"/>
</linearGradient>
<linearGradient id="paint54_linear" x1="133.258" y1="4.82069" x2="139.75" y2="4.82069" gradientUnits="userSpaceOnUse">
<stop stop-color="#2C2A26"/>
<stop offset="1" stop-color="#C4C4C4"/>
</linearGradient>
<linearGradient id="paint55_linear" x1="145.076" y1="210.634" x2="162.855" y2="210.634" gradientUnits="userSpaceOnUse">
<stop stop-color="#2C2A26"/>
<stop offset="1" stop-color="#C4C4C4"/>
</linearGradient>
<linearGradient id="paint56_linear" x1="12039.8" y1="1697.56" x2="12163" y2="1697.56" gradientUnits="userSpaceOnUse">
<stop stop-color="white"/>
<stop offset="1" stop-color="#D3D3D3"/>
</linearGradient>
<linearGradient id="paint57_linear" x1="149.973" y1="192.522" x2="157.806" y2="192.251" gradientUnits="userSpaceOnUse">
<stop stop-color="white"/>
<stop offset="1" stop-color="#D4D4D4"/>
</linearGradient>
<linearGradient id="paint58_linear" x1="149.333" y1="196.39" x2="158.34" y2="196.39" gradientUnits="userSpaceOnUse">
<stop stop-color="#2C2A26"/>
<stop offset="1" stop-color="#C4C4C4"/>
</linearGradient>
<linearGradient id="paint59_linear" x1="149.333" y1="188.478" x2="158.34" y2="188.478" gradientUnits="userSpaceOnUse">
<stop stop-color="#2C2A26"/>
<stop offset="1" stop-color="#C4C4C4"/>
</linearGradient>
<linearGradient id="paint60_linear" x1="149.333" y1="180.559" x2="158.34" y2="180.559" gradientUnits="userSpaceOnUse">
<stop stop-color="#2C2A26"/>
<stop offset="1" stop-color="#C4C4C4"/>
</linearGradient>
<linearGradient id="paint61_linear" x1="12054.3" y1="822.856" x2="12170.3" y2="822.856" gradientUnits="userSpaceOnUse">
<stop stop-color="#6C6D69"/>
<stop offset="1" stop-color="#2C2A26"/>
</linearGradient>
<linearGradient id="paint62_linear" x1="12054.8" y1="1959.56" x2="12178.3" y2="1959.56" gradientUnits="userSpaceOnUse">
<stop stop-color="#EB526E"/>
<stop offset="1" stop-color="#EB593D"/>
</linearGradient>
<linearGradient id="paint63_linear" x1="110.518" y1="212.164" x2="128.304" y2="212.164" gradientUnits="userSpaceOnUse">
<stop stop-color="#2C2A26"/>
<stop offset="1" stop-color="#C4C4C4"/>
</linearGradient>
<linearGradient id="paint64_linear" x1="11569.2" y1="1709.9" x2="11692.4" y2="1709.9" gradientUnits="userSpaceOnUse">
<stop stop-color="white"/>
<stop offset="1" stop-color="#D3D3D3"/>
</linearGradient>
<linearGradient id="paint65_linear" x1="115.422" y1="194.059" x2="123.255" y2="193.789" gradientUnits="userSpaceOnUse">
<stop stop-color="white"/>
<stop offset="1" stop-color="#D4D4D4"/>
</linearGradient>
<linearGradient id="paint66_linear" x1="114.781" y1="197.939" x2="123.789" y2="197.939" gradientUnits="userSpaceOnUse">
<stop stop-color="#2C2A26"/>
<stop offset="1" stop-color="#C4C4C4"/>
</linearGradient>
<linearGradient id="paint67_linear" x1="114.781" y1="190.035" x2="123.789" y2="190.035" gradientUnits="userSpaceOnUse">
<stop stop-color="#2C2A26"/>
<stop offset="1" stop-color="#C4C4C4"/>
</linearGradient>
<linearGradient id="paint68_linear" x1="114.781" y1="182.132" x2="123.789" y2="182.132" gradientUnits="userSpaceOnUse">
<stop stop-color="#2C2A26"/>
<stop offset="1" stop-color="#C4C4C4"/>
</linearGradient>
<linearGradient id="paint69_linear" x1="114.781" y1="125.281" x2="123.789" y2="125.281" gradientUnits="userSpaceOnUse">
<stop stop-color="#2C2A26"/>
<stop offset="1" stop-color="#C4C4C4"/>
</linearGradient>
<linearGradient id="paint70_linear" x1="114.318" y1="115.875" x2="123.984" y2="115.955" gradientUnits="userSpaceOnUse">
<stop stop-color="#EC526E"/>
<stop offset="1" stop-color="#EC593D"/>
</linearGradient>
<linearGradient id="paint71_linear" x1="127.769" y1="225.581" x2="145.583" y2="225.581" gradientUnits="userSpaceOnUse">
<stop stop-color="#2C2A26"/>
<stop offset="1" stop-color="#C4C4C4"/>
</linearGradient>
<linearGradient id="paint72_linear" x1="11799.9" y1="1823.97" x2="11923" y2="1823.97" gradientUnits="userSpaceOnUse">
<stop stop-color="white"/>
<stop offset="1" stop-color="#D3D3D3"/>
</linearGradient>
<linearGradient id="paint73_linear" x1="132.686" y1="207.473" x2="140.512" y2="207.203" gradientUnits="userSpaceOnUse">
<stop stop-color="white"/>
<stop offset="1" stop-color="#D4D4D4"/>
</linearGradient>
<linearGradient id="paint74_linear" x1="132.046" y1="211.351" x2="141.046" y2="211.351" gradientUnits="userSpaceOnUse">
<stop stop-color="#2C2A26"/>
<stop offset="1" stop-color="#C4C4C4"/>
</linearGradient>
<linearGradient id="paint75_linear" x1="132.046" y1="203.449" x2="141.046" y2="203.449" gradientUnits="userSpaceOnUse">
<stop stop-color="#2C2A26"/>
<stop offset="1" stop-color="#C4C4C4"/>
</linearGradient>
<linearGradient id="paint76_linear" x1="132.046" y1="195.549" x2="141.046" y2="195.549" gradientUnits="userSpaceOnUse">
<stop stop-color="#2C2A26"/>
<stop offset="1" stop-color="#C4C4C4"/>
</linearGradient>
<linearGradient id="paint77_linear" x1="132.046" y1="138.697" x2="141.046" y2="138.697" gradientUnits="userSpaceOnUse">
<stop stop-color="#2C2A26"/>
<stop offset="1" stop-color="#C4C4C4"/>
</linearGradient>
<linearGradient id="paint78_linear" x1="131.572" y1="129.291" x2="141.244" y2="129.37" gradientUnits="userSpaceOnUse">
<stop stop-color="#EC526E"/>
<stop offset="1" stop-color="#EC593D"/>
</linearGradient>
<linearGradient id="paint79_linear" x1="125.969" y1="118.596" x2="143.77" y2="109.092" gradientUnits="userSpaceOnUse">
<stop stop-color="white"/>
<stop offset="1" stop-color="#D4D4D4"/>
</linearGradient>
<linearGradient id="paint80_linear" x1="5499.44" y1="890.064" x2="5503.76" y2="924.066" gradientUnits="userSpaceOnUse">
<stop stop-color="#505464"/>
<stop offset="0.85" stop-color="#677081"/>
<stop offset="0.96" stop-color="#6B7485"/>
</linearGradient>
<linearGradient id="paint81_linear" x1="5263.5" y1="883.565" x2="5267.47" y2="914.731" gradientUnits="userSpaceOnUse">
<stop stop-color="#505464"/>
<stop offset="0.85" stop-color="#677081"/>
<stop offset="0.96" stop-color="#6B7485"/>
</linearGradient>
<linearGradient id="paint82_linear" x1="5161.45" y1="829.762" x2="5165.39" y2="860.525" gradientUnits="userSpaceOnUse">
<stop stop-color="#505464"/>
<stop offset="0.85" stop-color="#677081"/>
<stop offset="0.96" stop-color="#6B7485"/>
</linearGradient>
<linearGradient id="paint83_linear" x1="123.919" y1="116.26" x2="148.335" y2="116.26" gradientUnits="userSpaceOnUse">
<stop stop-color="#2C2A26"/>
<stop offset="1" stop-color="#C4C4C4"/>
</linearGradient>
<linearGradient id="paint84_linear" x1="125.969" y1="46.6808" x2="143.773" y2="37.1787" gradientUnits="userSpaceOnUse">
<stop stop-color="white"/>
<stop offset="1" stop-color="#D4D4D4"/>
</linearGradient>
<linearGradient id="paint85_linear" x1="5115.06" y1="272.271" x2="5118.99" y2="302.892" gradientUnits="userSpaceOnUse">
<stop stop-color="#505464"/>
<stop offset="0.85" stop-color="#677081"/>
<stop offset="0.96" stop-color="#6B7485"/>
</linearGradient>
<linearGradient id="paint86_linear" x1="5499.44" y1="334.425" x2="5503.77" y2="368.404" gradientUnits="userSpaceOnUse">
<stop stop-color="#505464"/>
<stop offset="0.85" stop-color="#677081"/>
<stop offset="0.96" stop-color="#6B7485"/>
</linearGradient>
<linearGradient id="paint87_linear" x1="5263.5" y1="347.301" x2="5267.46" y2="378.39" gradientUnits="userSpaceOnUse">
<stop stop-color="#505464"/>
<stop offset="0.85" stop-color="#677081"/>
<stop offset="0.96" stop-color="#6B7485"/>
</linearGradient>
<linearGradient id="paint88_linear" x1="5161.45" y1="296.928" x2="5165.39" y2="327.692" gradientUnits="userSpaceOnUse">
<stop stop-color="#505464"/>
<stop offset="0.85" stop-color="#677081"/>
<stop offset="0.96" stop-color="#6B7485"/>
</linearGradient>
<linearGradient id="paint89_linear" x1="123.919" y1="44.3414" x2="148.335" y2="44.3414" gradientUnits="userSpaceOnUse">
<stop stop-color="#2C2A26"/>
<stop offset="1" stop-color="#C4C4C4"/>
</linearGradient>
<linearGradient id="paint90_linear" x1="149.64" y1="161.688" x2="160.011" y2="161.403" gradientUnits="userSpaceOnUse">
<stop stop-color="white"/>
<stop offset="1" stop-color="#D4D4D4"/>
</linearGradient>
<linearGradient id="paint91_linear" x1="28183" y1="21370.1" x2="28861.9" y2="21370.1" gradientUnits="userSpaceOnUse">
<stop stop-color="white"/>
<stop offset="1" stop-color="#D3D3D3"/>
</linearGradient>
<linearGradient id="paint92_linear" x1="149.738" y1="40.4784" x2="158.37" y2="35.8547" gradientUnits="userSpaceOnUse">
<stop stop-color="white"/>
<stop offset="1" stop-color="#D4D4D4"/>
</linearGradient>
<linearGradient id="paint93_linear" x1="161.842" y1="188.314" x2="173.771" y2="188.314" gradientUnits="userSpaceOnUse">
<stop stop-color="#2C2A26"/>
<stop offset="1" stop-color="#C4C4C4"/>
</linearGradient>
<linearGradient id="paint94_linear" x1="17254.3" y1="1329.55" x2="17502" y2="1329.55" gradientUnits="userSpaceOnUse">
<stop stop-color="white"/>
<stop offset="1" stop-color="#D3D3D3"/>
</linearGradient>
<linearGradient id="paint95_linear" x1="4197.87" y1="299.992" x2="4212.11" y2="299.992" gradientUnits="userSpaceOnUse">
<stop stop-color="white"/>
<stop offset="1" stop-color="#D3D3D3"/>
</linearGradient>
<linearGradient id="paint96_linear" x1="4277.22" y1="297.187" x2="4291.98" y2="297.187" gradientUnits="userSpaceOnUse">
<stop stop-color="white"/>
<stop offset="1" stop-color="#D3D3D3"/>
</linearGradient>
<linearGradient id="paint97_linear" x1="7725.7" y1="747.934" x2="7775.46" y2="747.934" gradientUnits="userSpaceOnUse">
<stop stop-color="white"/>
<stop offset="1" stop-color="#D3D3D3"/>
</linearGradient>
<linearGradient id="paint98_linear" x1="7833.43" y1="736.97" x2="7884.79" y2="736.97" gradientUnits="userSpaceOnUse">
<stop stop-color="white"/>
<stop offset="1" stop-color="#D3D3D3"/>
</linearGradient>
<linearGradient id="paint99_linear" x1="7744.45" y1="990.734" x2="7794.21" y2="990.734" gradientUnits="userSpaceOnUse">
<stop stop-color="white"/>
<stop offset="1" stop-color="#D3D3D3"/>
</linearGradient>
<linearGradient id="paint100_linear" x1="7852.45" y1="984.38" x2="7903.81" y2="984.38" gradientUnits="userSpaceOnUse">
<stop stop-color="white"/>
<stop offset="1" stop-color="#D3D3D3"/>
</linearGradient>
<linearGradient id="paint101_linear" x1="7744.45" y1="1233.48" x2="7794.21" y2="1233.48" gradientUnits="userSpaceOnUse">
<stop stop-color="white"/>
<stop offset="1" stop-color="#D3D3D3"/>
</linearGradient>
<linearGradient id="paint102_linear" x1="7852.45" y1="1231.79" x2="7903.81" y2="1231.79" gradientUnits="userSpaceOnUse">
<stop stop-color="white"/>
<stop offset="1" stop-color="#D3D3D3"/>
</linearGradient>
<linearGradient id="paint103_linear" x1="7744.45" y1="1476.99" x2="7794.21" y2="1476.99" gradientUnits="userSpaceOnUse">
<stop stop-color="white"/>
<stop offset="1" stop-color="#D3D3D3"/>
</linearGradient>
<linearGradient id="paint104_linear" x1="7852.45" y1="1479.14" x2="7903.81" y2="1479.14" gradientUnits="userSpaceOnUse">
<stop stop-color="white"/>
<stop offset="1" stop-color="#D3D3D3"/>
</linearGradient>
<linearGradient id="paint105_linear" x1="7813.03" y1="2091" x2="7862.49" y2="2091" gradientUnits="userSpaceOnUse">
<stop stop-color="white"/>
<stop offset="1" stop-color="#D3D3D3"/>
</linearGradient>
<linearGradient id="paint106_linear" x1="7982.9" y1="2083.25" x2="7987.29" y2="2125.88" gradientUnits="userSpaceOnUse">
<stop offset="0.04" stop-color="#6B7485"/>
<stop offset="0.13" stop-color="#616878"/>
<stop offset="0.26" stop-color="#575C6D"/>
<stop offset="0.46" stop-color="#525666"/>
<stop offset="1" stop-color="#505464"/>
</linearGradient>
<linearGradient id="paint107_linear" x1="7835.32" y1="1903.28" x2="7884.96" y2="1903.28" gradientUnits="userSpaceOnUse">
<stop stop-color="white"/>
<stop offset="1" stop-color="#D3D3D3"/>
</linearGradient>
<linearGradient id="paint108_linear" x1="7977.17" y1="1891.79" x2="7981.56" y2="1934.42" gradientUnits="userSpaceOnUse">
<stop offset="0.04" stop-color="#6B7485"/>
<stop offset="0.13" stop-color="#616878"/>
<stop offset="0.26" stop-color="#575C6D"/>
<stop offset="0.46" stop-color="#525666"/>
<stop offset="1" stop-color="#505464"/>
</linearGradient>
<linearGradient id="paint109_linear" x1="6437.34" y1="1441.03" x2="6470.55" y2="1441.03" gradientUnits="userSpaceOnUse">
<stop stop-color="white"/>
<stop offset="1" stop-color="#D3D3D3"/>
</linearGradient>
<linearGradient id="paint110_linear" x1="6537.83" y1="1443.7" x2="6540.8" y2="1472.3" gradientUnits="userSpaceOnUse">
<stop offset="0.04" stop-color="#6B7485"/>
<stop offset="0.13" stop-color="#616878"/>
<stop offset="0.26" stop-color="#575C6D"/>
<stop offset="0.46" stop-color="#525666"/>
<stop offset="1" stop-color="#505464"/>
</linearGradient>
<linearGradient id="paint111_linear" x1="5780.18" y1="1181.48" x2="5806.8" y2="1181.48" gradientUnits="userSpaceOnUse">
<stop stop-color="white"/>
<stop offset="1" stop-color="#D3D3D3"/>
</linearGradient>
<linearGradient id="paint112_linear" x1="5879.11" y1="1176.23" x2="5881.46" y2="1199.08" gradientUnits="userSpaceOnUse">
<stop offset="0.04" stop-color="#6B7485"/>
<stop offset="0.13" stop-color="#616878"/>
<stop offset="0.26" stop-color="#575C6D"/>
<stop offset="0.46" stop-color="#525666"/>
<stop offset="1" stop-color="#505464"/>
</linearGradient>
<linearGradient id="paint113_linear" x1="5026.83" y1="938.859" x2="5046.81" y2="938.859" gradientUnits="userSpaceOnUse">
<stop stop-color="white"/>
<stop offset="1" stop-color="#D3D3D3"/>
</linearGradient>
<linearGradient id="paint114_linear" x1="5115" y1="931.371" x2="5116.76" y2="948.46" gradientUnits="userSpaceOnUse">
<stop offset="0.04" stop-color="#6B7485"/>
<stop offset="0.13" stop-color="#616878"/>
<stop offset="0.26" stop-color="#575C6D"/>
<stop offset="0.46" stop-color="#525666"/>
<stop offset="1" stop-color="#505464"/>
</linearGradient>
<linearGradient id="paint115_linear" x1="4192.08" y1="710.447" x2="4205.79" y2="710.447" gradientUnits="userSpaceOnUse">
<stop stop-color="white"/>
<stop offset="1" stop-color="#D3D3D3"/>
</linearGradient>
<linearGradient id="paint116_linear" x1="4297.78" y1="708.339" x2="4298.98" y2="720.08" gradientUnits="userSpaceOnUse">
<stop offset="0.04" stop-color="#6B7485"/>
<stop offset="0.13" stop-color="#616878"/>
<stop offset="0.26" stop-color="#575C6D"/>
<stop offset="0.46" stop-color="#525666"/>
<stop offset="1" stop-color="#505464"/>
</linearGradient>
</defs>
</svg>
