<svg width="514" height="106" viewBox="0 0 514 106" fill="none" xmlns="http://www.w3.org/2000/svg">
<g clip-path="url(#clip0_413:331174)">
<path d="M323.559 77.9441C330.501 77.8783 336.037 68.0772 335.923 56.0528C335.809 44.0284 330.089 34.334 323.146 34.3999C316.204 34.4657 310.669 44.2668 310.783 56.2912C310.897 68.3156 316.617 78.0099 323.559 77.9441Z" fill="#F6F2EE"/>
<path d="M332.098 40.7382C337.088 49.1912 337.217 62.9785 332.386 71.5294C329.975 75.8001 326.773 77.9557 323.556 77.9858L370.411 77.5659C373.628 77.5358 376.831 75.3803 379.242 71.1C384.082 62.5492 383.943 48.7619 378.953 40.3089C376.458 36.0776 373.218 33.9822 370.002 34.0123L323.146 34.4321C326.363 34.3641 329.603 36.4595 332.098 40.7382Z" fill="url(#paint0_linear_413:331174)"/>
<path d="M317.812 78.8622C325.031 78.7937 330.788 68.5997 330.67 56.0933C330.551 43.5868 324.602 33.5039 317.382 33.5723C310.162 33.6408 304.405 43.8348 304.524 56.3412C304.643 68.8476 310.592 78.9306 317.812 78.8622Z" fill="#EF9B81"/>
<path d="M326.697 40.1267C331.882 48.914 332.014 63.2516 326.999 72.142C324.482 76.5918 321.165 78.8314 317.815 78.86L323.679 78.8124C327.029 78.7743 330.346 76.5346 332.864 72.0848C337.879 63.1944 337.746 48.8664 332.561 40.0696C329.963 35.6664 326.591 33.4936 323.251 33.5223L317.387 33.5794C320.727 33.5507 324.099 35.7235 326.697 40.1267Z" fill="url(#paint1_linear_413:331174)"/>
<path d="M229.657 41.6595C234.648 50.0746 234.757 63.8996 229.917 72.4504C227.506 76.7211 224.303 78.8861 221.086 78.9162L316.316 78.0082C319.533 77.9781 322.726 75.8225 325.137 71.5423C329.977 63.001 329.839 49.2136 324.849 40.7511C322.354 36.5293 319.114 34.4339 315.897 34.464L220.705 35.3629C223.922 35.3328 227.162 37.4283 229.657 41.6595Z" fill="url(#paint2_linear_413:331174)"/>
<path d="M233.861 41.6218L240.968 41.5502C238.473 37.319 235.233 35.2235 232.016 35.2536L224.909 35.3252C228.125 35.2951 231.366 37.3905 233.861 41.6218Z" fill="#2C2926"/>
<path d="M225.328 78.8696L232.426 78.8074C235.642 78.7773 238.845 76.6218 241.256 72.3415L234.149 72.4131C231.767 76.6842 228.545 78.8395 225.328 78.8696Z" fill="#5A5350"/>
<path d="M252.61 41.4446L259.718 41.373C257.223 37.1417 253.983 35.0463 250.766 35.0764L243.659 35.148C246.875 35.1179 250.115 37.2133 252.61 41.4446Z" fill="#2C2926"/>
<path d="M244.078 78.6919L251.185 78.6298C254.402 78.5997 257.604 76.4442 260.015 72.1639L252.908 72.2355C250.488 76.5061 247.285 78.6806 244.078 78.6919Z" fill="#5A5350"/>
<path d="M271.351 41.2667L278.458 41.1951C275.963 36.9639 272.732 34.8686 269.506 34.8986L262.409 34.9702C265.625 34.9401 268.856 37.0355 271.351 41.2667Z" fill="#2C2926"/>
<path d="M262.818 78.5146L269.926 78.4525C273.142 78.4224 276.335 76.2668 278.756 71.9867L271.649 72.0582C269.238 76.329 266.035 78.4845 262.818 78.5146Z" fill="#5A5350"/>
<path d="M218.271 35.8005L206.641 39.8913L206.969 74.6583L218.672 78.5286C222.661 79.8449 226.915 77.8246 229.945 72.4603C234.786 63.9095 234.647 50.1221 229.657 41.6691C226.529 36.3586 222.234 34.4125 218.271 35.8005Z" fill="url(#paint3_linear_413:331174)"/>
<path d="M113.327 37.519L113.724 78.7954L125.069 75.6882C127.35 75.287 129.552 73.5661 131.275 70.521C135.206 63.5633 135.095 52.338 131.036 45.461C129.258 42.4523 127.019 40.7666 124.736 40.4088L113.327 37.519Z" fill="url(#paint4_linear_413:331174)"/>
<path d="M124.736 40.4089C127.019 40.7667 129.258 42.4524 131.036 45.4611C135.095 52.3381 135.206 63.535 131.275 70.5211C129.552 73.5662 127.35 75.2871 125.069 75.6883L124.764 75.7702L208.958 74.9749C211.577 74.9475 214.178 73.1931 216.143 69.7143C220.073 62.7567 219.963 51.5409 215.904 44.6543C213.874 41.2158 211.218 39.5065 208.618 39.5341L124.424 40.2915L124.736 40.4089Z" fill="url(#paint5_linear_413:331174)"/>
<path d="M146.323 40.2065C148.615 40.5644 150.854 42.2406 152.632 45.2588L195.967 44.8941C193.938 41.4461 191.282 39.7462 188.682 39.7738L145.982 40.1742L146.323 40.2065Z" fill="#2C2926"/>
<path d="M146.665 75.4861L146.351 75.5679L189.051 75.1676C191.67 75.1402 194.27 73.3858 196.235 69.907L152.899 70.3666C151.158 73.3641 148.937 75.0848 146.665 75.4861Z" fill="#5A5350"/>
<path d="M155.124 64.1202L196.808 63.7179C197.669 59.522 197.627 55.1909 196.686 51.0123L155.011 51.4053C155.95 55.5877 155.988 59.9218 155.124 64.1202Z" fill="url(#paint6_linear_413:331174)"/>
<path d="M155.124 64.1202L196.808 63.7179C197.669 59.522 197.627 55.1909 196.686 51.0123L155.011 51.4053C155.95 55.5877 155.988 59.9218 155.124 64.1202Z" fill="url(#paint7_linear_413:331174)"/>
<path d="M80.7453 79.2006C87.3574 79.1379 92.6296 69.8066 92.521 58.3585C92.4125 46.9104 86.9643 37.6807 80.3522 37.7434C73.7401 37.8061 68.4679 47.1374 68.5764 58.5855C68.685 70.0336 74.1332 79.2633 80.7453 79.2006Z" fill="#F6F2EE"/>
<path d="M88.8727 43.7328C93.6301 51.7848 93.7476 64.9077 89.1585 73.0534C86.8545 77.1166 83.8142 79.1696 80.7493 79.2014L112.575 78.906C115.64 78.8742 118.68 76.8212 120.984 72.7485C125.583 64.6029 125.456 51.4799 120.698 43.4279C118.324 39.3973 115.244 37.408 112.179 37.4399L80.4014 37.7358C83.4188 37.7129 86.4988 39.7022 88.8727 43.7328Z" fill="url(#paint8_linear_413:331174)"/>
<path d="M96.3314 64.6425L100.563 64.6049C101.287 60.3968 101.245 56.0927 100.441 51.8993L96.2091 51.9369C97.018 56.1299 97.0594 60.4348 96.3314 64.6425Z" fill="url(#paint9_linear_413:331174)"/>
<path d="M101.967 64.6209L120.499 64.4505C121.227 60.2396 121.186 55.9316 120.377 51.7355L101.845 51.9153C102.645 56.1092 102.686 60.4124 101.967 64.6209Z" fill="url(#paint10_linear_413:331174)"/>
<path d="M85.3525 43.7593C90.1098 51.8112 90.2367 64.9437 85.6382 73.0798C83.3341 77.1525 80.2938 79.2055 77.2289 79.2373L82.6186 79.1843C85.6835 79.1525 88.7238 77.0995 91.0183 73.0362C95.6169 64.8906 95.4994 51.7677 90.742 43.7157C88.3681 39.6851 85.2882 37.6864 82.2707 37.7187L76.881 37.7717C79.8985 37.7394 82.9785 39.7381 85.3525 43.7593Z" fill="url(#paint11_linear_413:331174)"/>
<path d="M76.178 37.8493L55.2417 43.4479L55.5319 74.0494L76.612 79.2494C79.8917 79.5236 83.2068 77.5022 85.6755 73.1372C90.274 65.0012 90.1471 51.8686 85.3897 43.8167C82.8109 39.4517 79.4554 37.4878 76.178 37.8493Z" fill="url(#paint12_linear_413:331174)"/>
<path d="M54.67 47.8722C58.1796 53.8322 58.2883 63.5299 54.8806 69.5542C53.1768 72.5615 50.93 74.0827 48.6623 74.095L55.9401 74.0349C58.1979 74.0604 60.4548 72.4919 62.1491 69.4844C65.5473 63.4601 65.4575 53.7625 61.9478 47.812C60.2262 44.8324 57.947 43.3361 55.6695 43.3768L48.3916 43.4464C50.6784 43.4248 52.9577 44.9022 54.67 47.8722Z" fill="url(#paint13_linear_413:331174)"/>
<path d="M40.452 46.6586C44.3236 39.8805 50.5767 39.8278 54.5334 46.5234C58.4901 53.219 58.5851 64.1405 54.761 70.9096C50.9369 77.6787 44.6363 77.7404 40.6795 71.0448C36.7228 64.3492 36.6658 53.4281 40.452 46.6586Z" fill="#F6F2EE"/>
<path d="M39.8041 76.1066C45.3002 76.0544 49.6825 68.2905 49.5922 58.7652C49.5018 49.24 44.9731 41.5606 39.477 41.6127C33.9809 41.6648 29.5986 49.4288 29.6889 58.954C29.7792 68.4792 34.308 76.1587 39.8041 76.1066Z" fill="#F6F2EE"/>
<path d="M46.3825 46.6022C50.3298 53.2882 50.4342 64.2194 46.6101 70.9884C44.6743 74.3727 42.1692 76.0807 39.6263 76.0994L47.8055 76.0305C50.3581 76.0023 52.8821 74.2946 54.7989 70.9101C58.6704 64.1416 58.5186 53.2194 54.5713 46.5239C52.5883 43.1713 50.0263 41.5105 47.4833 41.5387L39.2944 41.617C41.847 41.5889 44.4089 43.2497 46.3825 46.6022Z" fill="url(#paint14_linear_413:331174)"/>
<path d="M38.4016 41.7017L12.8682 52.7799L13.2856 52.7846C13.8557 52.814 14.4066 52.9997 14.8783 53.3213C15.3499 53.6429 15.724 54.088 15.9595 54.608C16.678 55.9942 17.0595 57.5302 17.0732 59.0915C17.0869 60.6527 16.7324 62.1952 16.0384 63.5938C15.8134 64.1164 15.449 64.5671 14.9851 64.8965C14.5213 65.2259 13.9757 65.4215 13.4081 65.4617L13.0002 65.4571L38.7255 76.0417C41.567 76.4723 44.5082 74.7882 46.6574 70.9889C50.5289 64.2203 50.3771 53.2982 46.4204 46.6025C44.2047 42.8393 41.253 41.25 38.4016 41.7017Z" fill="url(#paint15_linear_413:331174)"/>
<path d="M26.2139 70.7488L25.806 70.7442L38.7255 76.0419C41.567 76.4725 44.5082 74.7884 46.6574 70.9891L28.8158 68.8711C28.5918 69.3897 28.2317 69.8381 27.7737 70.1686C27.3156 70.4992 26.7767 70.6997 26.2139 70.7488Z" fill="#5A5350"/>
<path d="M25.9957 47.2261L25.5877 47.2215L38.402 41.6735C41.2538 41.1839 44.2051 42.8111 46.4208 46.5743L28.6601 49.0494C28.4261 48.5302 28.0537 48.0854 27.5838 47.7638C27.1138 47.4422 26.5643 47.2562 25.9957 47.2261Z" fill="#2C2926"/>
<path d="M13.2384 52.7651L1.64312 57.0745L1.68958 61.3635L13.3608 65.4611C13.9283 65.4209 14.4739 65.2254 14.9378 64.896C15.4016 64.5665 15.766 64.1159 15.991 63.5933C16.685 62.1947 17.0395 60.6522 17.0258 59.0909C17.0121 57.5297 16.6306 55.9936 15.9122 54.6074C15.6793 54.084 15.3064 53.635 14.8346 53.3099C14.3629 52.9848 13.8105 52.7963 13.2384 52.7651Z" fill="url(#paint16_linear_413:331174)"/>
<path d="M1.72068 61.3631C2.40704 61.3566 2.95435 60.3915 2.94312 59.2074C2.93189 58.0232 2.36638 57.0686 1.68002 57.0751C0.993661 57.0816 0.446358 58.0468 0.457586 59.2309C0.468813 60.415 1.03432 61.3696 1.72068 61.3631Z" fill="#7B7A76"/>
<path d="M396.286 6.28979L396.615 40.9829L484.69 40.1478L484.361 5.45465L396.286 6.28979Z" fill="url(#paint17_linear_413:331174)"/>
<path d="M396.887 40.9763C399.198 41.0137 401.493 40.588 403.637 39.7245C405.781 38.8609 407.73 37.5768 409.37 35.948C411.009 34.3191 412.306 32.3785 413.184 30.2405C414.062 28.1024 414.503 25.8103 414.481 23.4992C414.459 21.1881 413.974 18.9048 413.056 16.7839C412.137 14.663 410.804 12.7475 409.133 11.1502C407.463 9.55296 405.489 8.30633 403.329 7.48381C401.169 6.66129 398.867 6.27954 396.557 6.36105L396.887 40.9763Z" fill="#F2C444"/>
<path d="M400.875 31.4385C401.902 31.4289 402.917 31.2172 403.862 30.8154C404.807 30.4136 405.664 29.8296 406.383 29.0968C407.102 28.364 407.67 27.4967 408.054 26.5444C408.438 25.5921 408.631 24.5735 408.621 23.5467C408.612 22.5199 408.4 21.5051 407.998 20.5602C407.596 19.6152 407.012 18.7587 406.279 18.0394C405.547 17.3201 404.679 16.7523 403.727 16.3682C402.775 15.9841 401.756 15.7914 400.729 15.801L400.875 31.4385Z" fill="#FCF495"/>
<path d="M393.85 6.64354L370.232 15.267L370.398 32.5177L394.167 40.6893C397.371 41.7976 400.815 40.1951 403.245 35.8771C407.117 29.0517 406.994 18.0539 403.01 11.3011C400.487 7.02207 397.041 5.4841 393.85 6.64354Z" fill="url(#paint18_linear_413:331174)"/>
<path d="M367.7 17.6863C369.637 14.2261 372.863 14.1961 374.883 17.6155C375.881 19.5349 376.412 21.663 376.432 23.8263C376.452 25.9897 375.961 28.1272 374.999 30.0648C373.062 33.525 369.826 33.5549 367.816 30.1356C366.817 28.2162 366.287 26.0881 366.267 23.9248C366.246 21.7614 366.738 19.6239 367.7 17.6863Z" fill="#F6F2EE"/>
<path d="M222.749 19.0575C223.745 20.9776 224.274 23.1054 224.294 25.2683C224.315 27.4313 223.825 29.5685 222.865 31.5068C221.896 33.2321 220.596 34.1093 219.296 34.1231L371.734 32.6464C373.034 32.6611 374.325 31.7269 375.303 30.0301C376.265 28.0925 376.756 25.955 376.736 23.7916C376.716 21.6283 376.185 19.5003 375.187 17.5808C374.172 15.8711 372.863 15.0309 371.563 15.0352L219.163 16.5122C220.434 16.4981 221.734 17.3477 222.749 19.0575Z" fill="url(#paint19_linear_413:331174)"/>
<path d="M360.726 17.7501C361.724 19.6695 362.255 21.7975 362.275 23.9609C362.295 26.1243 361.804 28.2618 360.841 30.1994C359.873 31.9247 358.573 32.8019 357.273 32.8062L361.771 32.7716C363.07 32.7863 364.362 31.8521 365.339 30.1553C366.307 28.2207 366.805 26.0848 366.791 23.9215C366.778 21.7583 366.254 19.6288 365.261 17.7064C364.247 15.9966 362.937 15.1469 361.637 15.1607L357.149 15.2049C358.411 15.1907 359.72 16.0404 360.726 17.7501Z" fill="url(#paint20_linear_413:331174)"/>
<path d="M346.17 17.8893C347.166 19.8094 347.695 21.9372 347.716 24.1001C347.736 26.2631 347.246 28.4003 346.286 30.3386C345.317 32.0639 344.017 32.9411 342.717 32.9454L347.215 32.9108C348.515 32.9255 349.806 31.9913 350.783 30.2945C351.742 28.3555 352.23 26.2178 352.209 24.0548C352.187 21.8919 351.656 19.7644 350.658 17.8451C349.653 16.1354 348.344 15.2857 347.044 15.2995L342.546 15.3436C343.855 15.3299 345.155 16.2175 346.17 17.8893Z" fill="url(#paint21_linear_413:331174)"/>
<path d="M331.605 18.0282C332.602 19.9476 333.133 22.075 333.155 24.238C333.177 26.4009 332.688 28.5386 331.73 30.4776C330.761 32.203 329.461 33.0706 328.152 33.0843L332.65 33.0402C333.949 33.0549 335.241 32.1207 336.218 30.4334C337.176 28.4995 337.664 26.3671 337.644 24.2091C337.624 22.0512 337.096 19.9283 336.102 18.0126C335.097 16.3029 333.787 15.4532 332.487 15.467L327.99 15.5111C329.29 15.4688 330.599 16.3186 331.605 18.0282Z" fill="url(#paint22_linear_413:331174)"/>
<path d="M227.797 19.0102C228.795 20.9296 229.326 23.0577 229.346 25.221C229.366 27.3844 228.875 29.5219 227.913 31.4595C226.944 33.1849 225.644 34.062 224.344 34.0758L226.963 34.0485C228.263 34.0631 229.554 33.1289 230.532 31.4322C231.492 29.4939 231.982 27.3566 231.962 25.1937C231.941 23.0307 231.412 20.903 230.416 18.9829C229.401 17.2731 228.092 16.4329 226.792 16.4467L224.183 16.4172C225.482 16.4509 226.792 17.3006 227.797 19.0102Z" fill="url(#paint23_linear_413:331174)"/>
<path d="M217.897 16.8778L202.684 24.7992L202.669 26.1463L218.019 33.758C219.755 34.622 221.691 33.7995 223.026 31.4805C223.985 29.5475 224.475 27.4162 224.458 25.2587C224.441 23.1011 223.918 20.9778 222.929 19.0599C221.561 16.72 219.615 15.9769 217.897 16.8778Z" fill="url(#paint24_linear_413:331174)"/>
<path d="M202.312 24.9847C202.467 24.7018 202.723 24.7047 202.881 24.9911C202.953 25.1393 202.989 25.3021 202.987 25.4667C202.986 25.6313 202.945 25.7933 202.87 25.9398C202.715 26.2132 202.459 26.2198 202.301 25.9334C202.231 25.7846 202.196 25.6221 202.198 25.4578C202.2 25.2935 202.239 25.1318 202.312 24.9847Z" fill="#EF9B81"/>
<path d="M396.892 69.9011L397.221 104.594L485.297 103.759L484.968 69.066L396.892 69.9011Z" fill="url(#paint25_linear_413:331174)"/>
<path d="M397.488 104.599C402.084 104.556 406.476 102.69 409.696 99.4094C412.916 96.1291 414.702 91.7039 414.659 87.1074C414.617 82.5109 412.75 78.1194 409.47 74.8992C406.189 71.679 401.764 69.8938 397.168 69.9363L397.488 104.599Z" fill="#F2C444"/>
<path d="M401.476 95.0611C403.512 94.9849 405.439 94.1175 406.846 92.6433C408.253 91.1691 409.029 89.2043 409.01 87.1666C408.991 85.1289 408.178 83.1789 406.744 81.7312C405.31 80.2835 403.368 79.4522 401.33 79.4141L401.476 95.0611Z" fill="#FCF495"/>
<path d="M395.589 70.2502L371.971 78.8737L372.137 96.1149L395.916 104.287C399.12 105.385 402.564 103.783 404.984 99.4648C408.856 92.6488 408.734 81.6416 404.749 74.8888C402.236 70.6288 398.771 69.0906 395.589 70.2502Z" fill="url(#paint26_linear_413:331174)"/>
<path d="M369.43 81.2932C371.367 77.833 374.602 77.8031 376.613 81.2225C377.61 83.1418 378.142 85.2692 378.163 87.4322C378.185 89.5952 377.697 91.7329 376.738 93.6719C374.801 97.132 371.566 97.1619 369.546 93.7425C368.547 91.8231 368.017 89.695 367.996 87.5317C367.976 85.3683 368.467 83.2308 369.43 81.2932Z" fill="#F6F2EE"/>
<path d="M224.479 82.6643C225.477 84.5837 226.008 86.7117 226.028 88.8751C226.048 91.0385 225.557 93.176 224.594 95.1136C223.626 96.8389 222.326 97.7161 221.026 97.7299L373.502 96.2821C374.801 96.2968 376.102 95.3627 377.07 93.6658C378.033 91.7282 378.524 89.5907 378.504 87.4273C378.484 85.264 377.953 83.1359 376.955 81.2165C375.949 79.5069 374.64 78.6667 373.34 78.6805L220.864 80.1187C222.164 80.1144 223.473 80.9546 224.479 82.6643Z" fill="url(#paint27_linear_413:331174)"/>
<path d="M362.465 81.3567C363.459 83.2775 363.987 85.405 364.007 87.5676C364.027 89.7301 363.539 91.8671 362.581 93.806C361.613 95.5313 360.312 96.4085 359.012 96.4223L363.501 96.3781C364.8 96.3927 366.101 95.4587 367.069 93.7618C368.031 91.8242 368.523 89.6866 368.502 87.5233C368.482 85.3599 367.952 83.2319 366.953 81.3125C365.948 79.6028 364.639 78.7626 363.339 78.7669L358.841 78.811C360.141 78.8067 361.45 79.6469 362.465 81.3567Z" fill="url(#paint28_linear_413:331174)"/>
<path d="M347.9 81.4957C348.898 83.4151 349.429 85.5432 349.449 87.7065C349.469 89.8699 348.978 92.0074 348.015 93.945C347.047 95.6704 345.747 96.5476 344.447 96.5519L348.945 96.5172C350.244 96.5319 351.536 95.5977 352.513 93.9009C353.473 91.9627 353.963 89.8254 353.943 87.6625C353.923 85.4995 353.394 83.3717 352.398 81.4516C351.383 79.7419 350.073 78.9016 348.773 78.906L344.285 78.9502C345.595 78.9365 346.894 79.8051 347.9 81.4957Z" fill="url(#paint29_linear_413:331174)"/>
<path d="M333.344 81.6352C334.34 83.5553 334.869 85.6831 334.89 87.846C334.91 90.009 334.42 92.1462 333.46 94.0845C332.482 95.7718 331.162 96.7056 329.891 96.6913L334.379 96.6566C335.688 96.6713 336.98 95.7371 337.957 94.0404C338.914 92.1026 339.402 89.9666 339.38 87.8055C339.358 85.6443 338.828 83.5186 337.832 81.6005C336.827 79.8908 335.517 79.0411 334.217 79.0549L329.72 79.099C331.02 79.0757 332.301 79.9251 333.344 81.6352Z" fill="url(#paint30_linear_413:331174)"/>
<path d="M229.536 82.6172C230.532 84.5372 231.062 86.6644 231.083 88.8269C231.105 90.9895 230.618 93.1269 229.661 95.0665C228.693 96.7919 227.393 97.669 226.093 97.6828L228.702 97.6554C230.002 97.67 231.303 96.7359 232.271 95.0391C233.233 93.1031 233.724 90.9671 233.704 88.8053C233.684 86.6435 233.153 84.517 232.155 82.5993C231.15 80.8896 229.841 80.0399 228.541 80.0537L225.922 80.0241C227.212 80.0672 228.521 80.9074 229.536 82.6172Z" fill="url(#paint31_linear_413:331174)"/>
<path d="M219.627 80.4844L204.414 88.4057L204.398 89.7528L219.758 97.3931C221.494 98.2666 223.429 97.4915 224.765 95.1156C225.728 93.178 226.219 91.0405 226.199 88.8771C226.179 86.7138 225.648 84.5857 224.65 82.6663C223.291 80.3075 221.345 79.5929 219.627 80.4844Z" fill="url(#paint32_linear_413:331174)"/>
<path d="M204.041 88.6294C204.061 88.5682 204.101 88.515 204.153 88.4776C204.205 88.4401 204.268 88.4203 204.333 88.421C204.397 88.4217 204.46 88.4429 204.512 88.4816C204.563 88.5203 204.601 88.5743 204.62 88.636C204.688 88.7852 204.722 88.9476 204.72 89.1115C204.718 89.2754 204.68 89.4369 204.609 89.5846C204.454 89.858 204.198 89.8646 204.03 89.5781C203.961 89.4294 203.925 89.2668 203.927 89.1025C203.929 88.9383 203.968 88.7766 204.041 88.6294Z" fill="#EF9B81"/>
<path d="M424.486 37.8352L424.815 72.5283L512.89 71.6932L512.561 37.0001L424.486 37.8352Z" fill="url(#paint33_linear_413:331174)"/>
<path d="M425.08 72.5284C429.641 72.4361 433.982 70.5481 437.16 67.2744C440.338 64.0006 442.096 59.6055 442.052 55.0433C442.009 50.4811 440.167 46.1202 436.928 42.9076C433.688 39.695 429.312 37.89 424.75 37.8847L425.08 72.5284Z" fill="#F2C444"/>
<path d="M429.068 62.9904C431.105 62.9139 433.032 62.0457 434.439 60.5705C435.845 59.0954 436.621 57.1295 436.601 55.0912C436.581 53.0529 435.766 51.1029 434.33 49.6559C432.894 48.209 430.951 47.3793 428.913 47.3433L429.068 62.9904Z" fill="#FCF495"/>
<path d="M421.757 38.2207L398.14 46.8347L398.306 64.0759L422.075 72.2571C425.279 73.3559 428.722 71.7533 431.153 67.4448C435.025 60.6194 434.902 49.6122 430.918 42.8688C428.404 38.5899 424.94 37.0422 421.757 38.2207Z" fill="url(#paint34_linear_413:331174)"/>
<path d="M399.336 64.2472C402.144 64.2206 404.383 60.2574 404.337 55.3953C404.291 50.5331 401.977 46.6131 399.169 46.6398C396.36 46.6664 394.121 50.6295 394.167 55.4917C394.213 60.3539 396.527 64.2738 399.336 64.2472Z" fill="#F6F2EE"/>
<path d="M250.647 50.6347C251.643 52.5548 252.173 54.6826 252.193 56.8455C252.213 59.0085 251.723 61.1457 250.763 63.084C249.794 64.8093 248.494 65.677 247.194 65.6908L399.67 64.2715C400.97 64.2862 402.261 63.352 403.238 61.6647C404.201 59.7271 404.692 57.5895 404.672 55.4262C404.652 53.2628 404.121 51.1348 403.123 49.2154C402.108 47.5056 400.798 46.6559 399.498 46.6697L247.023 48.089C248.332 48.0753 249.632 48.9249 250.647 50.6347Z" fill="url(#paint35_linear_413:331174)"/>
<path d="M388.624 49.3272C389.622 51.2449 390.153 53.3714 390.173 55.5332C390.193 57.695 389.702 59.831 388.74 61.767C387.771 63.5018 386.471 64.3695 385.171 64.3833L389.669 64.3392C390.969 64.3539 392.26 63.4197 393.237 61.7324C394.197 59.7941 394.687 57.6569 394.667 55.4939C394.647 53.3309 394.118 51.2032 393.122 49.2831C392.107 47.5733 390.807 46.7237 389.498 46.7374L385.009 46.7816C386.309 46.7678 387.619 47.6175 388.624 49.3272Z" fill="url(#paint36_linear_413:331174)"/>
<path d="M374.068 49.457C375.064 51.3771 375.594 53.5048 375.614 55.6678C375.634 57.8308 375.144 59.968 374.184 61.9063C373.215 63.6411 371.915 64.5088 370.615 64.5226L375.113 64.4785C376.413 64.4931 377.704 63.5589 378.681 61.8716C379.64 59.9326 380.128 57.795 380.107 55.632C380.085 53.469 379.554 51.3416 378.556 49.4222C377.551 47.7126 376.242 46.8629 374.942 46.8767L370.444 46.9208C371.744 46.8785 373.053 47.7567 374.068 49.457Z" fill="url(#paint37_linear_413:331174)"/>
<path d="M359.503 49.5867C360.501 51.5061 361.032 53.6335 361.053 55.7965C361.075 57.9595 360.587 60.0971 359.628 62.0361C358.66 63.771 357.36 64.6386 356.05 64.6523L360.548 64.6082C361.848 64.6229 363.139 63.6887 364.116 61.9919C365.079 60.056 365.57 57.92 365.55 55.7581C365.53 53.5963 364.999 51.4698 364.001 49.5521C362.995 47.8425 361.686 46.9928 360.386 47.0065L355.888 47.0506C357.188 47.0463 358.498 47.8866 359.503 49.5867Z" fill="url(#paint38_linear_413:331174)"/>
<path d="M255.695 50.5876C256.693 52.507 257.224 54.635 257.244 56.7984C257.264 58.9617 256.773 61.0993 255.811 63.0369C254.843 64.7622 253.542 65.6299 252.242 65.6437L254.861 65.6163C256.161 65.631 257.452 64.6968 258.43 63.0095C259.39 61.0712 259.88 58.934 259.86 56.771C259.84 54.6081 259.31 52.4803 258.314 50.5602C257.299 48.8504 255.99 48.0007 254.69 48.0145L252.081 48.042C253.381 48.0282 254.69 48.8779 255.695 50.5876Z" fill="url(#paint39_linear_413:331174)"/>
<path d="M245.795 48.4551L230.582 56.3765L230.567 57.7236L245.955 65.3831C247.691 66.2471 249.626 65.4246 250.962 63.0962C251.922 61.1579 252.412 59.0206 252.392 56.8577C252.372 54.6947 251.842 52.567 250.846 50.6469C249.459 48.2782 247.513 47.5542 245.795 48.4551Z" fill="url(#paint40_linear_413:331174)"/>
<path d="M230.21 56.5525C230.365 56.2791 230.621 56.2725 230.779 56.559C230.859 56.7133 230.9 56.8847 230.898 57.0584C230.896 57.232 230.851 57.4026 230.768 57.555C230.746 57.6129 230.706 57.6626 230.655 57.6974C230.604 57.7322 230.543 57.7505 230.481 57.7498C230.419 57.7491 230.359 57.7294 230.308 57.6935C230.258 57.6575 230.22 57.607 230.199 57.5486C230.124 57.393 230.086 57.2221 230.088 57.0493C230.09 56.8764 230.131 56.7064 230.21 56.5525Z" fill="#EF9B81"/>
</g>
<defs>
<linearGradient id="paint0_linear_413:331174" x1="329.332" y1="71.8559" x2="371.402" y2="54.9335" gradientUnits="userSpaceOnUse">
<stop stop-color="white"/>
<stop offset="1" stop-color="#D4D4D4"/>
</linearGradient>
<linearGradient id="paint1_linear_413:331174" x1="317.127" y1="50.2993" x2="336.711" y2="50.6057" gradientUnits="userSpaceOnUse">
<stop stop-color="#EC526E"/>
<stop offset="1" stop-color="#EC593D"/>
</linearGradient>
<linearGradient id="paint2_linear_413:331174" x1="232.224" y1="72.7042" x2="290.376" y2="31.0356" gradientUnits="userSpaceOnUse">
<stop stop-color="white"/>
<stop offset="1" stop-color="#D4D4D4"/>
</linearGradient>
<linearGradient id="paint3_linear_413:331174" x1="206.412" y1="51.3652" x2="233.698" y2="51.8458" gradientUnits="userSpaceOnUse">
<stop stop-color="#EC526E"/>
<stop offset="1" stop-color="#EC593D"/>
</linearGradient>
<linearGradient id="paint4_linear_413:331174" x1="-1833.89" y1="29163" x2="-1881.37" y2="30077.2" gradientUnits="userSpaceOnUse">
<stop stop-color="#EB526E"/>
<stop offset="1" stop-color="#EB593D"/>
</linearGradient>
<linearGradient id="paint5_linear_413:331174" x1="134.541" y1="70.7039" x2="182.966" y2="33.4753" gradientUnits="userSpaceOnUse">
<stop stop-color="white"/>
<stop offset="1" stop-color="#D4D4D4"/>
</linearGradient>
<linearGradient id="paint6_linear_413:331174" x1="176.296" y1="63.3752" x2="176.182" y2="51.4029" gradientUnits="userSpaceOnUse">
<stop stop-color="#6C6D69"/>
<stop offset="1" stop-color="#2C2A26"/>
</linearGradient>
<linearGradient id="paint7_linear_413:331174" x1="176.296" y1="63.3752" x2="176.182" y2="51.4029" gradientUnits="userSpaceOnUse">
<stop stop-color="#6C6D69"/>
<stop offset="1" stop-color="#2C2A26"/>
</linearGradient>
<linearGradient id="paint8_linear_413:331174" x1="84.8745" y1="73.3844" x2="117.784" y2="63.1363" gradientUnits="userSpaceOnUse">
<stop stop-color="white"/>
<stop offset="1" stop-color="#D4D4D4"/>
</linearGradient>
<linearGradient id="paint9_linear_413:331174" x1="-413.773" y1="8883.93" x2="-351.375" y2="8884.64" gradientUnits="userSpaceOnUse">
<stop stop-color="#6C6D69"/>
<stop offset="1" stop-color="#2C2A26"/>
</linearGradient>
<linearGradient id="paint10_linear_413:331174" x1="-1598.95" y1="9256.46" x2="-1356.09" y2="9259.2" gradientUnits="userSpaceOnUse">
<stop stop-color="#6C6D69"/>
<stop offset="1" stop-color="#2C2A26"/>
</linearGradient>
<linearGradient id="paint11_linear_413:331174" x1="-1598.95" y1="27782.3" x2="-1645.64" y2="28559.8" gradientUnits="userSpaceOnUse">
<stop stop-color="#EB526E"/>
<stop offset="1" stop-color="#EB593D"/>
</linearGradient>
<linearGradient id="paint12_linear_413:331174" x1="58.6538" y1="73.2925" x2="84.911" y2="66.9656" gradientUnits="userSpaceOnUse">
<stop stop-color="white"/>
<stop offset="1" stop-color="#D4D4D4"/>
</linearGradient>
<linearGradient id="paint13_linear_413:331174" x1="-1680.68" y1="19941.5" x2="-1181.12" y2="19947.2" gradientUnits="userSpaceOnUse">
<stop stop-color="#6C6D69"/>
<stop offset="1" stop-color="#2C2A26"/>
</linearGradient>
<linearGradient id="paint14_linear_413:331174" x1="-1627.84" y1="21791.3" x2="-1662" y2="22465.9" gradientUnits="userSpaceOnUse">
<stop stop-color="#EB526E"/>
<stop offset="1" stop-color="#EB593D"/>
</linearGradient>
<linearGradient id="paint15_linear_413:331174" x1="16.7094" y1="71.0495" x2="43.9574" y2="62.4407" gradientUnits="userSpaceOnUse">
<stop stop-color="white"/>
<stop offset="1" stop-color="#D4D4D4"/>
</linearGradient>
<linearGradient id="paint16_linear_413:331174" x1="-1361.86" y1="7614.18" x2="-1167.76" y2="7616.37" gradientUnits="userSpaceOnUse">
<stop stop-color="#6C6D69"/>
<stop offset="1" stop-color="#2C2A26"/>
</linearGradient>
<linearGradient id="paint17_linear_413:331174" x1="484.269" y1="22.7989" x2="405.69" y2="23.544" gradientUnits="userSpaceOnUse">
<stop stop-color="#FCF291" stop-opacity="0"/>
<stop offset="0.11" stop-color="#FAEA8A" stop-opacity="0.07"/>
<stop offset="0.32" stop-color="#F6D678" stop-opacity="0.26"/>
<stop offset="0.62" stop-color="#EFB55B" stop-opacity="0.57"/>
<stop offset="0.99" stop-color="#E68834" stop-opacity="0.99"/>
<stop offset="1" stop-color="#E68733"/>
</linearGradient>
<linearGradient id="paint18_linear_413:331174" x1="-2234.33" y1="34613.1" x2="-918.309" y2="34628" gradientUnits="userSpaceOnUse">
<stop stop-color="#6C6D69"/>
<stop offset="1" stop-color="#2C2A26"/>
</linearGradient>
<linearGradient id="paint19_linear_413:331174" x1="236.391" y1="31.4194" x2="256.896" y2="-15.0807" gradientUnits="userSpaceOnUse">
<stop stop-color="white"/>
<stop offset="1" stop-color="#D4D4D4"/>
</linearGradient>
<linearGradient id="paint20_linear_413:331174" x1="-340.677" y1="17152.3" x2="-170.396" y2="17154.3" gradientUnits="userSpaceOnUse">
<stop stop-color="#6C6D69"/>
<stop offset="1" stop-color="#2C2A26"/>
</linearGradient>
<linearGradient id="paint21_linear_413:331174" x1="-353.322" y1="16880.9" x2="-182.667" y2="16882.8" gradientUnits="userSpaceOnUse">
<stop stop-color="#6C6D69"/>
<stop offset="1" stop-color="#2C2A26"/>
</linearGradient>
<linearGradient id="paint22_linear_413:331174" x1="-364.062" y1="16582.8" x2="-193.559" y2="16584.7" gradientUnits="userSpaceOnUse">
<stop stop-color="#6C6D69"/>
<stop offset="1" stop-color="#2C2A26"/>
</linearGradient>
<linearGradient id="paint23_linear_413:331174" x1="-348.714" y1="14626.7" x2="-210.98" y2="14628.2" gradientUnits="userSpaceOnUse">
<stop stop-color="#6C6D69"/>
<stop offset="1" stop-color="#2C2A26"/>
</linearGradient>
<linearGradient id="paint24_linear_413:331174" x1="202.626" y1="22.8438" x2="224.595" y2="23.3689" gradientUnits="userSpaceOnUse">
<stop stop-color="#EC526E"/>
<stop offset="1" stop-color="#EC593D"/>
</linearGradient>
<linearGradient id="paint25_linear_413:331174" x1="484.876" y1="86.4102" x2="406.297" y2="87.1553" gradientUnits="userSpaceOnUse">
<stop stop-color="#FCF291" stop-opacity="0"/>
<stop offset="0.11" stop-color="#FAEA8A" stop-opacity="0.07"/>
<stop offset="0.32" stop-color="#F6D678" stop-opacity="0.26"/>
<stop offset="0.62" stop-color="#EFB55B" stop-opacity="0.57"/>
<stop offset="0.99" stop-color="#E68834" stop-opacity="0.99"/>
<stop offset="1" stop-color="#E68733"/>
</linearGradient>
<linearGradient id="paint26_linear_413:331174" x1="-4642.87" y1="34677.1" x2="-3326.84" y2="34691.9" gradientUnits="userSpaceOnUse">
<stop stop-color="#6C6D69"/>
<stop offset="1" stop-color="#2C2A26"/>
</linearGradient>
<linearGradient id="paint27_linear_413:331174" x1="238.099" y1="95.0312" x2="258.537" y2="48.5827" gradientUnits="userSpaceOnUse">
<stop stop-color="white"/>
<stop offset="1" stop-color="#D4D4D4"/>
</linearGradient>
<linearGradient id="paint28_linear_413:331174" x1="-994.95" y1="17238.4" x2="-824.321" y2="17240.4" gradientUnits="userSpaceOnUse">
<stop stop-color="#6C6D69"/>
<stop offset="1" stop-color="#2C2A26"/>
</linearGradient>
<linearGradient id="paint29_linear_413:331174" x1="-1005.93" y1="16957.8" x2="-835.361" y2="16959.7" gradientUnits="userSpaceOnUse">
<stop stop-color="#6C6D69"/>
<stop offset="1" stop-color="#2C2A26"/>
</linearGradient>
<linearGradient id="paint30_linear_413:331174" x1="-1017.64" y1="16677.8" x2="-847.024" y2="16679.7" gradientUnits="userSpaceOnUse">
<stop stop-color="#6C6D69"/>
<stop offset="1" stop-color="#2C2A26"/>
</linearGradient>
<linearGradient id="paint31_linear_413:331174" x1="-882.326" y1="14705.2" x2="-736.097" y2="14706.9" gradientUnits="userSpaceOnUse">
<stop stop-color="#6C6D69"/>
<stop offset="1" stop-color="#2C2A26"/>
</linearGradient>
<linearGradient id="paint32_linear_413:331174" x1="204.356" y1="86.466" x2="226.336" y2="86.991" gradientUnits="userSpaceOnUse">
<stop stop-color="#EC526E"/>
<stop offset="1" stop-color="#EC593D"/>
</linearGradient>
<linearGradient id="paint33_linear_413:331174" x1="512.469" y1="54.3443" x2="433.89" y2="55.0894" gradientUnits="userSpaceOnUse">
<stop stop-color="#FCF291" stop-opacity="0"/>
<stop offset="0.11" stop-color="#FAEA8A" stop-opacity="0.07"/>
<stop offset="0.32" stop-color="#F6D678" stop-opacity="0.26"/>
<stop offset="0.62" stop-color="#EFB55B" stop-opacity="0.57"/>
<stop offset="0.99" stop-color="#E68834" stop-opacity="0.99"/>
<stop offset="1" stop-color="#E68733"/>
</linearGradient>
<linearGradient id="paint34_linear_413:331174" x1="-3423.84" y1="35636.8" x2="-2107.81" y2="35651.6" gradientUnits="userSpaceOnUse">
<stop stop-color="#6C6D69"/>
<stop offset="1" stop-color="#2C2A26"/>
</linearGradient>
<linearGradient id="paint35_linear_413:331174" x1="264.259" y1="62.9959" x2="284.649" y2="16.5903" gradientUnits="userSpaceOnUse">
<stop stop-color="white"/>
<stop offset="1" stop-color="#D4D4D4"/>
</linearGradient>
<linearGradient id="paint36_linear_413:331174" x1="-646.851" y1="17694.9" x2="-476.381" y2="17696.8" gradientUnits="userSpaceOnUse">
<stop stop-color="#6C6D69"/>
<stop offset="1" stop-color="#2C2A26"/>
</linearGradient>
<linearGradient id="paint37_linear_413:331174" x1="-658.783" y1="17423.5" x2="-488.225" y2="17425.4" gradientUnits="userSpaceOnUse">
<stop stop-color="#6C6D69"/>
<stop offset="1" stop-color="#2C2A26"/>
</linearGradient>
<linearGradient id="paint38_linear_413:331174" x1="-670.13" y1="17152" x2="-499.601" y2="17153.9" gradientUnits="userSpaceOnUse">
<stop stop-color="#6C6D69"/>
<stop offset="1" stop-color="#2C2A26"/>
</linearGradient>
<linearGradient id="paint39_linear_413:331174" x1="-597.358" y1="15168.8" x2="-451.113" y2="15170.4" gradientUnits="userSpaceOnUse">
<stop stop-color="#6C6D69"/>
<stop offset="1" stop-color="#2C2A26"/>
</linearGradient>
<linearGradient id="paint40_linear_413:331174" x1="230.524" y1="54.4366" x2="252.529" y2="54.9623" gradientUnits="userSpaceOnUse">
<stop stop-color="#EC526E"/>
<stop offset="1" stop-color="#EC593D"/>
</linearGradient>
<clipPath id="clip0_413:331174">
<rect width="512.536" height="100.137" fill="white" transform="translate(1.12988) rotate(0.646732)"/>
</clipPath>
</defs>
</svg>
