<svg width="93" height="93" viewBox="0 0 93 93" fill="none" xmlns="http://www.w3.org/2000/svg">
<path d="M31.5003 33.0001H21.0002V22.5C21.0002 22.1022 20.8421 21.7207 20.5608 21.4393C20.2795 21.158 19.898 21 19.5001 21C16.8301 21 14.22 21.7918 11.9999 23.2752C9.77978 24.7586 8.04944 26.867 7.02764 29.3339C6.00585 31.8007 5.7385 34.5151 6.25941 37.1339C6.78031 39.7526 8.06608 42.1581 9.9541 44.0462C11.8421 45.9342 14.2476 47.22 16.8664 47.7409C19.4852 48.2618 22.1996 47.9944 24.6664 46.9726C27.1332 45.9508 29.2417 44.2205 30.7251 42.0004C32.2085 39.7803 33.0003 37.1702 33.0003 34.5001C33.0003 34.1023 32.8422 33.7208 32.5609 33.4395C32.2796 33.1582 31.8981 33.0001 31.5003 33.0001ZM18.0001 24.1065V33.8791L11.1001 40.7792C10.0048 39.3234 9.30808 37.6072 9.0786 35.7999C8.84912 33.9927 9.09483 32.1568 9.79148 30.4735C10.4881 28.7902 11.6116 27.3176 13.0512 26.201C14.4907 25.0845 16.1964 24.3626 18.0001 24.1065ZM19.5001 45.0002C17.2356 45.0001 15.0326 44.263 13.2241 42.9002L20.1241 36.0001H29.8967C29.5327 38.4984 28.282 40.7824 26.3732 42.4348C24.4644 44.0872 22.0248 44.9978 19.5001 45.0002Z" fill="url(#paint0_linear_923:1211)"/>
<path d="M25.5003 30.0002H37.5004C37.8982 30.0002 38.2797 29.8421 38.5611 29.5608C38.8424 29.2795 39.0004 28.898 39.0004 28.5001C38.996 24.921 37.5723 21.4897 35.0415 18.9589C32.5107 16.4281 29.0794 15.0044 25.5003 15C25.1024 15 24.7209 15.158 24.4396 15.4393C24.1583 15.7207 24.0002 16.1022 24.0002 16.5V28.5001C24.0002 28.898 24.1583 29.2795 24.4396 29.5608C24.7209 29.8421 25.1024 30.0002 25.5003 30.0002ZM27.0003 18.1065C29.2424 18.4343 31.319 19.4768 32.9213 21.0791C34.5236 22.6814 35.5661 24.758 35.8939 27.0001H27.0003V18.1065Z" fill="url(#paint1_linear_923:1211)"/>
<path d="M57.0006 37.5C53.1438 37.5 49.3736 38.6437 46.1668 40.7864C42.9601 42.9291 40.4607 45.9746 38.9847 49.5378C37.5088 53.101 37.1226 57.0218 37.8751 60.8045C38.6275 64.5872 40.4847 68.0618 43.2118 70.7889C45.939 73.5161 49.4136 75.3733 53.1963 76.1257C56.9789 76.8781 60.8998 76.4919 64.463 75.016C68.0262 73.5401 71.0717 71.0407 73.2144 67.8339C75.3571 64.6271 76.5008 60.857 76.5008 57.0002C76.4948 51.8302 74.4384 46.8738 70.7827 43.2181C67.127 39.5623 62.1705 37.506 57.0006 37.5ZM49.5005 51.0001V42.321C50.4594 41.8298 51.4642 41.4339 52.5005 41.139V51.0001H49.5005ZM67.5007 54.0002V57.0002H46.5005V54.0002H67.5007ZM61.5006 51.0001V41.139C62.5369 41.4339 63.5417 41.8298 64.5006 42.321V51.0001H61.5006ZM58.5006 40.5765V51.0001H55.5006V40.5765C55.9956 40.5315 56.4936 40.5 57.0006 40.5C57.5076 40.5 58.0056 40.5315 58.5006 40.5765ZM46.5005 44.2816V51.0001H45.0004C44.6026 51.0001 44.2211 51.1582 43.9398 51.4395C43.6585 51.7208 43.5004 52.1023 43.5004 52.5001V58.5002C43.5004 58.898 43.6585 59.2796 43.9398 59.5609C44.2211 59.8422 44.6026 60.0002 45.0004 60.0002H69.0007C69.3985 60.0002 69.7801 59.8422 70.0614 59.5609C70.3427 59.2796 70.5007 58.898 70.5007 58.5002V52.5001C70.5007 52.1023 70.3427 51.7208 70.0614 51.4395C69.7801 51.1582 69.3985 51.0001 69.0007 51.0001H67.5007V44.2816C70.1861 46.4868 72.1028 49.4871 72.975 52.8507C73.8473 56.2143 73.6301 59.7679 72.3547 63.0003H41.6464C40.371 59.7679 40.1539 56.2143 41.0261 52.8507C41.8983 49.4871 43.815 46.4868 46.5005 44.2816ZM57.0006 73.5004C54.2562 73.4975 51.5559 72.8101 49.1441 71.5005C46.7324 70.1909 44.6854 68.3005 43.1884 66.0003H70.8127C69.3158 68.3005 67.2688 70.1909 64.857 71.5005C62.4453 72.8101 59.7449 73.4975 57.0006 73.5004Z" fill="url(#paint2_linear_923:1211)"/>
<path d="M91.0074 81.3863L84.5183 74.8972C84.8183 74.3323 84.9299 73.6863 84.8368 73.0536C84.7437 72.4208 84.4508 71.8343 84.0008 71.3797L80.1833 67.5622C82.0219 63.5653 82.7876 59.1584 82.4049 54.7755C82.0222 50.3927 80.5043 46.1852 78.0008 42.5674V4.50004C78.0008 3.30656 77.5267 2.16195 76.6827 1.31803C75.8388 0.47411 74.6942 0 73.5007 0H4.50004C3.30656 0 2.16195 0.47411 1.31803 1.31803C0.47411 2.16195 0 3.30656 0 4.50004V61.5006C0 62.6941 0.47411 63.8387 1.31803 64.6826C2.16195 65.5265 3.30656 66.0007 4.50004 66.0007H33.1713C34.3945 69.27 36.2785 72.2522 38.7055 74.761C41.1326 77.2698 44.0507 79.2515 47.2778 80.5823C50.5048 81.9131 53.9715 82.5645 57.4615 82.4959C60.9515 82.4272 64.39 81.64 67.5622 80.1833L71.3797 84.0008C71.8307 84.4567 72.4176 84.7537 73.052 84.847C73.6865 84.9404 74.3341 84.825 74.8972 84.5183L81.3863 91.0074C82.6621 92.2832 84.3926 93 86.1969 93C88.0012 93 89.7316 92.2832 91.0074 91.0074C92.2832 89.7316 93 88.0012 93 86.1969C93 84.3926 92.2832 82.6621 91.0074 81.3863ZM4.50004 3.00003H73.5007C73.8986 3.00003 74.2801 3.15807 74.5614 3.43937C74.8427 3.72068 75.0007 4.10222 75.0007 4.50004V9.00009H3.00003V4.50004C3.00003 4.10222 3.15807 3.72068 3.43937 3.43937C3.72068 3.15807 4.10222 3.00003 4.50004 3.00003ZM4.50004 63.0006C4.10222 63.0006 3.72068 62.8426 3.43937 62.5613C3.15807 62.28 3.00003 61.8984 3.00003 61.5006V12.0001H75.0007V38.9569C72.8299 36.7997 70.2896 35.0494 67.5007 33.7893V16.5002C67.5007 16.1023 67.3426 15.7208 67.0613 15.4395C66.78 15.1582 66.3985 15.0001 66.0007 15.0001H60.0006C59.6028 15.0001 59.2212 15.1582 58.9399 15.4395C58.6586 15.7208 58.5006 16.1023 58.5006 16.5002V31.5768C58.0011 31.5468 57.5076 31.5003 57.0006 31.5003C56.4936 31.5003 56.0001 31.5468 55.5006 31.5768V25.5003C55.5006 25.1024 55.3425 24.7209 55.0612 24.4396C54.7799 24.1583 54.3984 24.0002 54.0005 24.0002H48.0005C47.6026 24.0002 47.2211 24.1583 46.9398 24.4396C46.6585 24.7209 46.5005 25.1024 46.5005 25.5003V33.7893C41.0756 36.213 36.6758 40.4671 34.0707 45.8072C31.4656 51.1473 30.8213 57.2334 32.2503 63.0006H4.50004ZM64.5006 32.6298C63.516 32.3329 62.5141 32.0964 61.5006 31.9218V18.0002H64.5006V32.6298ZM52.5005 31.9218C51.487 32.0964 50.4851 32.3329 49.5005 32.6298V27.0003H52.5005V31.9218ZM34.5003 57.0006C34.5003 52.5504 35.82 48.2003 38.2923 44.5001C40.7647 40.8 44.2787 37.9161 48.3901 36.2131C52.5015 34.5101 57.0255 34.0645 61.3901 34.9327C65.7548 35.8009 69.7639 37.9438 72.9106 41.0905C76.0573 44.2372 78.2003 48.2464 79.0685 52.611C79.9366 56.9756 79.4911 61.4996 77.7881 65.611C76.0851 69.7224 73.2012 73.2365 69.501 75.7088C65.8009 78.1812 61.4507 79.5008 57.0006 79.5008C51.0352 79.494 45.3161 77.1213 41.098 72.9032C36.8798 68.685 34.5071 62.9659 34.5003 57.0006ZM70.3237 78.7028C73.7324 76.602 76.602 73.7324 78.7028 70.3237L81.8798 73.5007L73.5007 81.8798L70.3237 78.7028ZM86.1969 90.0009C85.6971 90.0021 85.2021 89.9043 84.7405 89.713C84.2788 89.5217 83.8597 89.2407 83.5073 88.8864L77.1218 82.5008L82.5008 77.1218L88.8864 83.5073C89.4183 84.0393 89.7804 84.7171 89.9272 85.4549C90.0739 86.1927 89.9986 86.9575 89.7107 87.6525C89.4228 88.3475 88.9354 88.9416 88.3099 89.3596C87.6845 89.7776 86.9491 90.0008 86.1969 90.0009Z" fill="url(#paint3_linear_923:1211)"/>
<path d="M25.5002 51H7.50002C7.10219 51 6.72065 51.158 6.43934 51.4393C6.15804 51.7207 6 52.1022 6 52.5V58.5001C6 58.8979 6.15804 59.2794 6.43934 59.5607C6.72065 59.8421 7.10219 60.0001 7.50002 60.0001H25.5002C25.898 60.0001 26.2796 59.8421 26.5609 59.5607C26.8422 59.2794 27.0002 58.8979 27.0002 58.5001V52.5C27.0002 52.1022 26.8422 51.7207 26.5609 51.4393C26.2796 51.158 25.898 51 25.5002 51ZM24.0002 57.0001H9.00003V54H24.0002V57.0001Z" fill="url(#paint4_linear_923:1211)"/>
<defs>
<linearGradient id="paint0_linear_923:1211" x1="5.90081" y1="31.0195" x2="33.142" y2="31.2969" gradientUnits="userSpaceOnUse">
<stop stop-color="#EC526E"/>
<stop offset="1" stop-color="#EC593D"/>
</linearGradient>
<linearGradient id="paint1_linear_923:1211" x1="23.9451" y1="20.5664" x2="39.0791" y2="20.7205" gradientUnits="userSpaceOnUse">
<stop stop-color="#EC526E"/>
<stop offset="1" stop-color="#EC593D"/>
</linearGradient>
<linearGradient id="paint2_linear_923:1211" x1="37.3571" y1="51.9726" x2="76.7055" y2="52.3733" gradientUnits="userSpaceOnUse">
<stop stop-color="#EC526E"/>
<stop offset="1" stop-color="#EC593D"/>
</linearGradient>
<linearGradient id="paint3_linear_923:1211" x1="-0.341647" y1="34.5113" x2="93.4881" y2="35.4668" gradientUnits="userSpaceOnUse">
<stop stop-color="#EC526E"/>
<stop offset="1" stop-color="#EC593D"/>
</linearGradient>
<linearGradient id="paint4_linear_923:1211" x1="5.92285" y1="54.3398" x2="27.1007" y2="54.843" gradientUnits="userSpaceOnUse">
<stop stop-color="#EC526E"/>
<stop offset="1" stop-color="#EC593D"/>
</linearGradient>
</defs>
</svg>
