<svg width="93" height="93" viewBox="0 0 93 93" fill="none" xmlns="http://www.w3.org/2000/svg">
<path d="M86.9891 22.5088H85.0412C86.7815 20.5676 87.9224 18.164 88.3261 15.5884C88.7298 13.0128 88.379 10.3753 87.316 7.99478C86.2531 5.61424 84.5235 3.59246 82.3362 2.17372C80.149 0.754981 77.5977 0 74.9906 0C72.3835 0 69.8322 0.754981 67.645 2.17372C65.4577 3.59246 63.7282 5.61424 62.6652 7.99478C61.6022 10.3753 61.2514 13.0128 61.6551 15.5884C62.0588 18.164 63.1997 20.5676 64.94 22.5088H46.4942V7.51071C46.4942 7.11293 46.3362 6.73145 46.0549 6.45018C45.7736 6.16891 45.3921 6.0109 44.9944 6.0109H38.9951C38.5973 6.0109 38.2159 6.16891 37.9346 6.45018C37.6533 6.73145 37.4953 7.11293 37.4953 7.51071V22.5088H35.9955V1.51146C35.9955 1.11368 35.8375 0.732201 35.5562 0.450932C35.2749 0.169662 34.8935 0.011647 34.4957 0.011647H28.4964C28.0987 0.011647 27.7172 0.169662 27.4359 0.450932C27.1546 0.732201 26.9966 1.11368 26.9966 1.51146V22.5088H25.4968V12.0101C25.4968 11.6124 25.3388 11.2309 25.0575 10.9496C24.7763 10.6683 24.3948 10.5103 23.997 10.5103H17.9977C17.6 10.5103 17.2185 10.6683 16.9372 10.9496C16.6559 11.2309 16.4979 11.6124 16.4979 12.0101V22.5088H5.99925C4.4087 22.5106 2.8838 23.1432 1.75911 24.2679C0.634422 25.3926 0.00178636 26.9175 0 28.5081V73.5024C0.00178636 75.093 0.634422 76.6179 1.75911 77.7426C2.8838 78.8673 4.4087 79.4999 5.99925 79.5017H36.9141L34.9137 85.5009H29.9962C29.5985 85.5009 29.217 85.659 28.9357 85.9402C28.6544 86.2215 28.4964 86.603 28.4964 87.0008V90.0004H13.4983C13.1005 90.0004 12.7191 90.1584 12.4378 90.4397C12.1565 90.7209 11.9985 91.1024 11.9985 91.5002C11.9985 91.898 12.1565 92.2794 12.4378 92.5607C12.7191 92.842 13.1005 93 13.4983 93H79.49C79.8878 93 80.2693 92.842 80.5506 92.5607C80.8318 92.2794 80.9899 91.898 80.9899 91.5002C80.9899 91.1024 80.8318 90.7209 80.5506 90.4397C80.2693 90.1584 79.8878 90.0004 79.49 90.0004H64.4919V87.0008C64.4919 86.603 64.3339 86.2215 64.0526 85.9402C63.7714 85.659 63.3899 85.5009 62.9921 85.5009H58.0746L56.0742 79.5017H86.9891C88.5797 79.4999 90.1045 78.8673 91.2292 77.7426C92.3539 76.6179 92.9866 75.093 92.9883 73.5024V28.5081C92.9866 26.9175 92.3539 25.3926 91.2292 24.2679C90.1045 23.1432 88.5797 22.5106 86.9891 22.5088ZM76.4904 3.12001C78.7319 3.4471 80.808 4.48902 82.4098 6.0908C84.0115 7.69258 85.0535 9.76863 85.3806 12.0101H76.4904V3.12001ZM75.6112 15.0098H85.3806C85.1215 16.812 84.3979 18.5158 83.2809 19.9536C82.1639 21.3914 80.6919 22.5138 79.0097 23.2104C77.3275 23.907 75.493 24.1538 73.6865 23.9266C71.88 23.6994 70.1637 23.006 68.7064 21.9145L75.6112 15.0098ZM64.4919 13.51C64.4955 10.9865 65.4065 8.54849 67.0586 6.64101C68.7107 4.73353 70.9937 3.48382 73.4908 3.12001V12.8894L66.586 19.7942C65.2246 17.9821 64.4896 15.7764 64.4919 13.51ZM40.4949 9.01052H43.4946V37.507H40.4949V9.01052ZM35.9955 25.5085H37.4953V37.507H35.9955V25.5085ZM29.9962 3.01127H32.9959V37.507H29.9962V3.01127ZM25.4968 25.5085H26.9966V37.507H25.4968V25.5085ZM19.4976 13.51H22.4972V37.507H19.4976V13.51ZM61.4923 88.5006V90.0004H31.4961V88.5006H61.4923ZM38.0765 85.5009L40.0769 79.5017H52.9115L54.9119 85.5009H38.0765ZM89.9887 73.5024C89.9877 74.2977 89.6713 75.06 89.109 75.6224C88.5467 76.1847 87.7843 76.501 86.9891 76.5021H5.99925C5.20402 76.501 4.44166 76.1847 3.87934 75.6224C3.31703 75.06 3.00067 74.2977 2.99962 73.5024V70.5028H89.9887V73.5024ZM89.9887 67.5032H2.99962V28.5081C3.00067 27.7128 3.31703 26.9505 3.87934 26.3882C4.44166 25.8259 5.20402 25.5095 5.99925 25.5085H16.4979V37.507H14.9981V28.5081C14.9981 28.1103 14.8401 27.7288 14.5588 27.4475C14.2776 27.1663 13.8961 27.0083 13.4983 27.0083H7.49906C7.10129 27.0083 6.7198 27.1663 6.43853 27.4475C6.15726 27.7288 5.99925 28.1103 5.99925 28.5081V39.0068C5.99925 39.4045 6.15726 39.786 6.43853 40.0673C6.7198 40.3486 7.10129 40.5066 7.49906 40.5066H55.493C55.8908 40.5066 56.2723 40.3486 56.5536 40.0673C56.8348 39.786 56.9929 39.4045 56.9929 39.0068V28.5081C56.9929 28.1103 56.8348 27.7288 56.5536 27.4475C56.2723 27.1663 55.8908 27.0083 55.493 27.0083H49.4938C49.096 27.0083 48.7145 27.1663 48.4333 27.4475C48.152 27.7288 47.994 28.1103 47.994 28.5081V37.507H46.4942V25.5085H68.8189C70.7269 26.494 72.8431 27.0083 74.9906 27.0083C77.1381 27.0083 79.2543 26.494 81.1623 25.5085H86.9891C87.7843 25.5095 88.5467 25.8259 89.109 26.3882C89.6713 26.9505 89.9877 27.7128 89.9887 28.5081V67.5032ZM11.9985 30.0079V37.507H8.99887V30.0079H11.9985ZM50.9936 37.507V30.0079H53.9932V37.507H50.9936Z" fill="url(#paint0_linear_923:1230)"/>
<path d="M16.498 72.0039H7.49908C7.1013 72.0039 6.71982 72.1619 6.43855 72.4432C6.15728 72.7245 5.99927 73.1059 5.99927 73.5037C5.99927 73.9015 6.15728 74.283 6.43855 74.5642C6.71982 74.8455 7.1013 75.0035 7.49908 75.0035H16.498C16.8957 75.0035 17.2772 74.8455 17.5585 74.5642C17.8397 74.283 17.9978 73.9015 17.9978 73.5037C17.9978 73.1059 17.8397 72.7245 17.5585 72.4432C17.2772 72.1619 16.8957 72.0039 16.498 72.0039Z" fill="url(#paint1_linear_923:1230)"/>
<path d="M22.4972 72.0039H20.9974C20.5996 72.0039 20.2181 72.1619 19.9368 72.4432C19.6556 72.7245 19.4976 73.1059 19.4976 73.5037C19.4976 73.9015 19.6556 74.283 19.9368 74.5642C20.2181 74.8455 20.5996 75.0035 20.9974 75.0035H22.4972C22.895 75.0035 23.2764 74.8455 23.5577 74.5642C23.839 74.283 23.997 73.9015 23.997 73.5037C23.997 73.1059 23.839 72.7245 23.5577 72.4432C23.2764 72.1619 22.895 72.0039 22.4972 72.0039Z" fill="url(#paint2_linear_923:1230)"/>
<path d="M62.9922 37.5067C63.1892 37.507 63.3843 37.4683 63.5663 37.3929C63.7483 37.3175 63.9136 37.2069 64.0527 37.0674L69.6125 31.5074H82.4897C82.8875 31.5074 83.269 31.3494 83.5503 31.0682C83.8315 30.7869 83.9895 30.4054 83.9895 30.0076C83.9895 29.6098 83.8315 29.2284 83.5503 28.9471C83.269 28.6658 82.8875 28.5078 82.4897 28.5078H68.9914C68.7945 28.5078 68.5994 28.5466 68.4175 28.622C68.2355 28.6973 68.0701 28.8078 67.9309 28.9471L61.9316 34.9463C61.7219 35.1561 61.579 35.4233 61.5211 35.7143C61.4633 36.0052 61.493 36.3068 61.6065 36.5808C61.72 36.8549 61.9122 37.0891 62.1589 37.2539C62.4056 37.4187 62.6955 37.5067 62.9922 37.5067Z" fill="url(#paint3_linear_923:1230)"/>
<path d="M82.4897 54.0065C81.7015 54.0071 80.9273 54.2146 80.2446 54.6085C79.5619 55.0023 78.9946 55.5686 78.5995 56.2506L62.8984 47.0905C62.6857 46.0684 62.1242 45.1521 61.3101 44.4985C60.496 43.845 59.4799 43.4949 58.436 43.5082C57.3921 43.5215 56.3854 43.8974 55.5882 44.5714C54.791 45.2455 54.253 46.1758 54.0664 47.203L38.2658 59.0534C37.836 58.3914 37.2395 57.8543 36.5362 57.496C35.8329 57.1377 35.0478 56.9709 34.2596 57.0123C33.4714 57.0538 32.708 57.302 32.0462 57.732C31.3844 58.162 30.8474 58.7587 30.4893 59.4621L14.8725 52.9547C14.6261 51.9273 14.0262 51.0194 13.1777 50.3898C12.3293 49.7601 11.2864 49.4491 10.2317 49.511C9.17694 49.5728 8.1776 50.0038 7.4086 50.7283C6.63961 51.4528 6.14997 52.4247 6.02542 53.4739C5.90086 54.5231 6.14933 55.5826 6.72732 56.467C7.30531 57.3514 8.17598 58.0044 9.1869 58.3115C10.1978 58.6186 11.2845 58.5603 12.2568 58.1469C13.2291 57.7334 14.025 56.9911 14.5051 56.05L30.1219 62.5573C30.363 63.5607 30.9418 64.4507 31.7612 65.0781C32.5805 65.7054 33.5907 66.032 34.6223 66.003C35.6539 65.974 36.6441 65.5912 37.427 64.9188C38.2098 64.2463 38.7377 63.3252 38.922 62.3098L54.7225 50.4594C55.1411 51.1043 55.7181 51.6309 56.3983 51.9891C57.0785 52.3473 57.8393 52.525 58.6078 52.5053C59.3763 52.4855 60.1269 52.269 60.7878 51.8763C61.4488 51.4837 61.9979 50.9281 62.3828 50.2626L78.084 59.4227C78.2573 60.2554 78.6631 61.022 79.2544 61.6335C79.8456 62.245 80.5981 62.6764 81.4246 62.8776C82.251 63.0789 83.1176 63.0417 83.9238 62.7705C84.73 62.4993 85.4428 62.0051 85.9795 61.3452C86.5163 60.6853 86.855 59.8868 86.9564 59.0423C87.0578 58.1978 86.9177 57.3418 86.5524 56.5736C86.1871 55.8055 85.6116 55.1566 84.8925 54.7022C84.1734 54.2478 83.3403 54.0066 82.4897 54.0065ZM11.9985 54.014C11.9975 54.4124 11.8384 54.7942 11.5561 55.0754C11.2739 55.3566 10.8915 55.5143 10.4931 55.5138C10.0946 55.5133 9.71268 55.3547 9.43111 55.0728C9.14954 54.7908 8.99139 54.4087 8.99139 54.0102C8.99139 53.6118 9.14954 53.2296 9.43111 52.9477C9.71268 52.6658 10.0946 52.5072 10.4931 52.5067C10.8915 52.5062 11.2739 52.6639 11.5561 52.9451C11.8384 53.2263 11.9975 53.608 11.9985 54.0065V54.014ZM34.4957 63.0054C34.0981 63.0048 33.7169 62.8466 33.4358 62.5655C33.1546 62.2843 32.9964 61.9032 32.9959 61.5055V61.498C32.9974 61.2017 33.0866 60.9125 33.2523 60.6669C33.418 60.4212 33.6527 60.2301 33.9269 60.1178C34.2011 60.0054 34.5024 59.9768 34.7929 60.0355C35.0833 60.0942 35.3498 60.2376 35.5588 60.4477C35.7678 60.6577 35.9099 60.925 35.9672 61.2157C36.0245 61.5064 35.9943 61.8076 35.8806 62.0812C35.7669 62.3548 35.5746 62.5886 35.3282 62.7531C35.0817 62.9176 34.792 63.0054 34.4957 63.0054ZM58.4927 49.5071C58.196 49.5071 57.9061 49.4191 57.6594 49.2543C57.4128 49.0895 57.2206 48.8552 57.107 48.5812C56.9935 48.3071 56.9638 48.0056 57.0217 47.7146C57.0796 47.4237 57.2224 47.1565 57.4322 46.9467C57.6419 46.737 57.9091 46.5941 58.2001 46.5362C58.491 46.4784 58.7926 46.5081 59.0666 46.6216C59.3407 46.7351 59.5749 46.9273 59.7397 47.174C59.9045 47.4206 59.9925 47.7106 59.9925 48.0072C59.992 48.4048 59.8338 48.786 59.5526 49.0672C59.2715 49.3483 58.8903 49.5065 58.4927 49.5071ZM82.4897 60.0057C82.193 60.0057 81.9031 59.9178 81.6564 59.753C81.4098 59.5882 81.2176 59.3539 81.104 59.0799C80.9905 58.8058 80.9608 58.5043 81.0187 58.2133C81.0766 57.9224 81.2194 57.6551 81.4291 57.4454C81.6389 57.2356 81.9061 57.0928 82.1971 57.0349C82.488 56.9771 82.7896 57.0068 83.0636 57.1203C83.3377 57.2338 83.5719 57.426 83.7367 57.6727C83.9015 57.9193 83.9895 58.2093 83.9895 58.5059C83.9889 58.9035 83.8307 59.2847 83.5496 59.5658C83.2684 59.847 82.8873 60.0052 82.4897 60.0057Z" fill="url(#paint4_linear_923:1230)"/>
<path d="M70.4912 63.0039H59.9925C59.5947 63.0039 59.2132 63.1619 58.932 63.4432C58.6507 63.7245 58.4927 64.1059 58.4927 64.5037C58.4927 64.9015 58.6507 65.283 58.932 65.5642C59.2132 65.8455 59.5947 66.0035 59.9925 66.0035H70.4912C70.8889 66.0035 71.2704 65.8455 71.5517 65.5642C71.833 65.283 71.991 64.9015 71.991 64.5037C71.991 64.1059 71.833 63.7245 71.5517 63.4432C71.2704 63.1619 70.8889 63.0039 70.4912 63.0039Z" fill="url(#paint5_linear_923:1230)"/>
<path d="M70.4912 58.5039H65.9918C65.594 58.5039 65.2125 58.6619 64.9312 58.9432C64.65 59.2245 64.4919 59.6059 64.4919 60.0037C64.4919 60.4015 64.65 60.783 64.9312 61.0642C65.2125 61.3455 65.594 61.5035 65.9918 61.5035H70.4912C70.889 61.5035 71.2705 61.3455 71.5517 61.0642C71.833 60.783 71.991 60.4015 71.991 60.0037C71.991 59.6059 71.833 59.2245 71.5517 58.9432C71.2705 58.6619 70.889 58.5039 70.4912 58.5039Z" fill="url(#paint6_linear_923:1230)"/>
<path d="M7.49908 45.0074H23.997C24.3948 45.0074 24.7763 44.8494 25.0575 44.5682C25.3388 44.2869 25.4968 43.9054 25.4968 43.5076C25.4968 43.1098 25.3388 42.7284 25.0575 42.4471C24.7763 42.1658 24.3948 42.0078 23.997 42.0078H7.49908C7.1013 42.0078 6.71982 42.1658 6.43855 42.4471C6.15728 42.7284 5.99927 43.1098 5.99927 43.5076C5.99927 43.9054 6.15728 44.2869 6.43855 44.5682C6.71982 44.8494 7.1013 45.0074 7.49908 45.0074Z" fill="url(#paint7_linear_923:1230)"/>
<path d="M28.4964 45.0074H29.9962C30.394 45.0074 30.7755 44.8494 31.0567 44.5682C31.338 44.2869 31.496 43.9054 31.496 43.5076C31.496 43.1098 31.338 42.7284 31.0567 42.4471C30.7755 42.1658 30.394 42.0078 29.9962 42.0078H28.4964C28.0986 42.0078 27.7171 42.1658 27.4359 42.4471C27.1546 42.7284 26.9966 43.1098 26.9966 43.5076C26.9966 43.9054 27.1546 44.2869 27.4359 44.5682C27.7171 44.8494 28.0986 45.0074 28.4964 45.0074Z" fill="url(#paint8_linear_923:1230)"/>
<defs>
<linearGradient id="paint0_linear_923:1230" x1="-0.341604" y1="34.5113" x2="93.4764" y2="35.4666" gradientUnits="userSpaceOnUse">
<stop stop-color="#EC526E"/>
<stop offset="1" stop-color="#EC593D"/>
</linearGradient>
<linearGradient id="paint1_linear_923:1230" x1="5.95519" y1="73.117" x2="18.0419" y2="73.6094" gradientUnits="userSpaceOnUse">
<stop stop-color="#EC526E"/>
<stop offset="1" stop-color="#EC593D"/>
</linearGradient>
<linearGradient id="paint2_linear_923:1230" x1="19.481" y1="73.117" x2="24.02" y2="73.1864" gradientUnits="userSpaceOnUse">
<stop stop-color="#EC526E"/>
<stop offset="1" stop-color="#EC593D"/>
</linearGradient>
<linearGradient id="paint3_linear_923:1230" x1="61.4097" y1="31.8472" x2="84.0953" y2="32.4247" gradientUnits="userSpaceOnUse">
<stop stop-color="#EC526E"/>
<stop offset="1" stop-color="#EC593D"/>
</linearGradient>
<linearGradient id="paint4_linear_923:1230" x1="5.69648" y1="51.8562" x2="87.3123" y2="54.8485" gradientUnits="userSpaceOnUse">
<stop stop-color="#EC526E"/>
<stop offset="1" stop-color="#EC593D"/>
</linearGradient>
<linearGradient id="paint5_linear_923:1230" x1="58.4431" y1="64.117" x2="72.0347" y2="64.7399" gradientUnits="userSpaceOnUse">
<stop stop-color="#EC526E"/>
<stop offset="1" stop-color="#EC593D"/>
</linearGradient>
<linearGradient id="paint6_linear_923:1230" x1="64.4644" y1="59.617" x2="72.0262" y2="59.8095" gradientUnits="userSpaceOnUse">
<stop stop-color="#EC526E"/>
<stop offset="1" stop-color="#EC593D"/>
</linearGradient>
<linearGradient id="paint7_linear_923:1230" x1="5.92764" y1="43.1209" x2="25.5154" y2="44.4175" gradientUnits="userSpaceOnUse">
<stop stop-color="#EC526E"/>
<stop offset="1" stop-color="#EC593D"/>
</linearGradient>
<linearGradient id="paint8_linear_923:1230" x1="26.9801" y1="43.1209" x2="31.519" y2="43.1903" gradientUnits="userSpaceOnUse">
<stop stop-color="#EC526E"/>
<stop offset="1" stop-color="#EC593D"/>
</linearGradient>
</defs>
</svg>
