<svg width="93" height="93" viewBox="0 0 93 93" fill="none" xmlns="http://www.w3.org/2000/svg">
<path d="M52.6998 63.5507C52.6998 50.7101 42.2904 40.3008 29.4499 40.3008C16.6093 40.3008 6.19995 50.7101 6.19995 63.5507C6.19995 76.3913 16.6093 86.8006 29.4499 86.8006C42.2714 86.7547 52.6538 76.3722 52.6998 63.5507ZM40.8315 80.162L40.0921 78.8832C39.8172 78.3997 39.3043 78.1005 38.7481 78.0993C38.1919 78.0981 37.6777 78.395 37.4006 78.8773C37.1236 79.3596 37.1262 79.9534 37.4075 80.4332L38.1391 81.7027C35.8998 82.7818 33.4784 83.4326 30.9998 83.6216V82.1506C30.9998 81.2946 30.3059 80.6006 29.4499 80.6006C28.5938 80.6006 27.8999 81.2946 27.8999 82.1506V83.6216C25.4213 83.4326 22.9999 82.7818 20.7606 81.7027L21.4922 80.4332C21.9133 79.6925 21.6576 78.7508 20.9198 78.3248C20.1819 77.8988 19.2385 78.1482 18.8076 78.8832L18.0683 80.162C16.0189 78.7533 14.2457 76.9801 12.837 74.9307L14.1158 74.1929C14.5993 73.918 14.8984 73.4051 14.8997 72.8489C14.9009 72.2927 14.604 71.7785 14.1217 71.5014C13.6394 71.2244 13.0456 71.227 12.5658 71.5083L11.2979 72.2415C10.2189 70.0016 9.56811 67.5797 9.37899 65.1007H10.8499C11.706 65.1007 12.3999 64.4067 12.3999 63.5507C12.3999 62.6946 11.706 62.0007 10.8499 62.0007H9.37899C9.56811 59.5216 10.2189 57.0998 11.2979 54.8599L12.5658 55.593C13.0456 55.8743 13.6394 55.877 14.1217 55.5999C14.604 55.3229 14.9009 54.8087 14.8997 54.2525C14.8984 53.6962 14.5993 53.1833 14.1158 52.9084L12.837 52.1706C14.2457 50.1213 16.0189 48.3481 18.0683 46.9394L18.8076 48.2181C19.0825 48.7017 19.5954 49.0008 20.1516 49.002C20.7078 49.0033 21.2221 48.7064 21.4991 48.2241C21.7761 47.7418 21.7735 47.148 21.4922 46.6682L20.7606 45.3987C22.9999 44.3195 25.4213 43.6687 27.8999 43.4798V44.9508C27.8999 45.8068 28.5938 46.5008 29.4499 46.5008C30.3059 46.5008 30.9998 45.8068 30.9998 44.9508V43.4798C33.4784 43.6687 35.8998 44.3195 38.1391 45.3987L37.4075 46.6682C37.1262 47.148 37.1236 47.7418 37.4006 48.2241C37.6777 48.7064 38.1919 49.0033 38.7481 49.002C39.3043 49.0008 39.8172 48.7017 40.0921 48.2181L40.8315 46.9394C42.8808 48.3481 44.654 50.1213 46.0627 52.1706L44.7839 52.9084C44.3004 53.1833 44.0013 53.6962 44 54.2525C43.9988 54.8087 44.2957 55.3229 44.778 55.5999C45.2603 55.877 45.8541 55.8743 46.3339 55.593L47.6018 54.8599C48.6808 57.0998 49.3316 59.5216 49.5207 62.0007H48.0498C47.1937 62.0007 46.4998 62.6946 46.4998 63.5507C46.4998 64.4067 47.1937 65.1007 48.0498 65.1007H49.5207C49.3316 67.5797 48.6808 70.0016 47.6018 72.2415L46.3339 71.5083C45.8541 71.227 45.2603 71.2244 44.778 71.5014C44.2957 71.7785 43.9988 72.2927 44 72.8489C44.0013 73.4051 44.3004 73.918 44.7839 74.1929L46.0627 74.9307C44.654 76.9801 42.8808 78.7533 40.8315 80.162Z" fill="url(#paint0_linear_923:1228)"/>
<path d="M33.6348 65.5432C34.207 64.36 34.2464 62.9887 33.743 61.7746C33.2396 60.5606 32.2414 59.6194 30.9999 59.1883V51.1516C30.9999 50.2955 30.3059 49.6016 29.4499 49.6016C28.5938 49.6016 27.8999 50.2955 27.8999 51.1516V59.1867C26.289 59.7616 25.1259 61.1773 24.8745 62.8692C24.6231 64.561 25.3243 66.2537 26.6985 67.2722C28.0726 68.2906 29.8961 68.4691 31.4416 67.7365L36.104 72.3989C36.7122 72.9863 37.6789 72.9779 38.2768 72.38C38.8747 71.7821 38.8831 70.8154 38.2957 70.2072L33.6348 65.5432ZM27.8999 63.5515C27.8999 62.6955 28.5938 62.0015 29.4499 62.0015C30.3059 62.0015 30.9999 62.6955 30.9999 63.5515C30.9999 64.4075 30.3059 65.1015 29.4499 65.1015C28.5938 65.1015 27.8999 64.4075 27.8999 63.5515Z" fill="url(#paint1_linear_923:1228)"/>
<path d="M88.3496 0H32.5499C29.9818 0 27.8999 2.08187 27.8999 4.64998V34.1789C12.2764 35.0078 0.02577 47.9043 0 63.5497C0 88.0288 28.2331 101.726 47.4593 86.7996H88.3496C90.9177 86.7996 92.9996 84.7178 92.9996 82.1497V4.64998C92.9996 2.08187 90.9177 0 88.3496 0ZM3.09999 63.5497C3.09999 48.9971 14.8972 37.1998 29.4499 37.1998C44.0025 37.1998 55.7998 48.9971 55.7998 63.5497C55.7998 78.1024 44.0025 89.8996 29.4499 89.8996C14.904 89.8834 3.11622 78.0957 3.09999 63.5497ZM89.8996 82.1497C89.8996 83.0057 89.2057 83.6997 88.3496 83.6997H50.8677C67.9889 65.5105 56.0478 35.4949 30.9999 34.1789V4.64998C30.9999 3.79394 31.6938 3.09999 32.5499 3.09999H88.3496C89.2057 3.09999 89.8996 3.79394 89.8996 4.64998V82.1497Z" fill="url(#paint2_linear_923:1228)"/>
<path d="M82.1496 40.3008H77.4996C75.7876 40.3008 74.3997 41.6887 74.3997 43.4008V48.0507C74.3997 49.7628 75.7876 51.1507 77.4996 51.1507H82.1496C83.8617 51.1507 85.2496 49.7628 85.2496 48.0507V43.4008C85.2496 41.6887 83.8617 40.3008 82.1496 40.3008ZM77.4996 48.0507V43.4008H82.1496V48.0507H77.4996Z" fill="url(#paint3_linear_923:1228)"/>
<path d="M82.1496 54.25H77.4996C75.7876 54.25 74.3997 55.6379 74.3997 57.35V62C74.3997 63.712 75.7876 65.1 77.4996 65.1H82.1496C83.8617 65.1 85.2496 63.712 85.2496 62V57.35C85.2496 55.6379 83.8617 54.25 82.1496 54.25ZM77.4996 62V57.35H82.1496V62H77.4996Z" fill="url(#paint4_linear_923:1228)"/>
<path d="M82.1496 68.1992H77.4996C75.7876 68.1992 74.3997 69.5871 74.3997 71.2992V75.9492C74.3997 77.6613 75.7876 79.0492 77.4996 79.0492H82.1496C83.8617 79.0492 85.2496 77.6613 85.2496 75.9492V71.2992C85.2496 69.5871 83.8617 68.1992 82.1496 68.1992ZM77.4996 75.9492V71.2992H82.1496V75.9492H77.4996Z" fill="url(#paint5_linear_923:1228)"/>
<path d="M69.7497 40.3008H57.3498C56.4938 40.3008 55.7998 40.9947 55.7998 41.8508C55.7998 42.7068 56.4938 43.4008 57.3498 43.4008H69.7497C70.6058 43.4008 71.2997 42.7068 71.2997 41.8508C71.2997 40.9947 70.6058 40.3008 69.7497 40.3008Z" fill="url(#paint6_linear_923:1228)"/>
<path d="M69.7497 46.5H63.5497C62.6937 46.5 61.9998 47.194 61.9998 48.05C61.9998 48.906 62.6937 49.6 63.5497 49.6H69.7497C70.6058 49.6 71.2997 48.906 71.2997 48.05C71.2997 47.194 70.6058 46.5 69.7497 46.5Z" fill="url(#paint7_linear_923:1228)"/>
<path d="M69.7497 75.9492H60.4498C59.5937 75.9492 58.8998 76.6432 58.8998 77.4992C58.8998 78.3553 59.5937 79.0492 60.4498 79.0492H69.7497C70.6058 79.0492 71.2997 78.3553 71.2997 77.4992C71.2997 76.6432 70.6058 75.9492 69.7497 75.9492Z" fill="url(#paint8_linear_923:1228)"/>
<path d="M69.7497 69.75H63.5497C62.6937 69.75 61.9998 70.444 61.9998 71.3C61.9998 72.156 62.6937 72.85 63.5497 72.85H69.7497C70.6058 72.85 71.2997 72.156 71.2997 71.3C71.2997 70.444 70.6058 69.75 69.7497 69.75Z" fill="url(#paint9_linear_923:1228)"/>
<path d="M69.7497 54.25H65.0997C64.2436 54.25 63.5497 54.944 63.5497 55.8C63.5497 56.656 64.2436 57.35 65.0997 57.35H69.7497C70.6057 57.35 71.2997 56.656 71.2997 55.8C71.2997 54.944 70.6057 54.25 69.7497 54.25Z" fill="url(#paint10_linear_923:1228)"/>
<path d="M69.7497 60.4492H65.0997C64.2436 60.4492 63.5497 61.1432 63.5497 61.9992C63.5497 62.8553 64.2436 63.5492 65.0997 63.5492H69.7497C70.6057 63.5492 71.2997 62.8553 71.2997 61.9992C71.2997 61.1432 70.6057 60.4492 69.7497 60.4492Z" fill="url(#paint11_linear_923:1228)"/>
<path d="M83.6997 29.4499H82.1497V10.85C82.1497 9.13791 80.7618 7.75 79.0497 7.75H72.8498C71.1377 7.75 69.7498 9.13791 69.7498 10.85V29.4499H66.6498V17.05C66.6498 15.3379 65.2619 13.95 63.5498 13.95H57.3498C55.6377 13.95 54.2498 15.3379 54.2498 17.05V29.4499H51.1498V21.6999C51.1498 19.9879 49.7619 18.6 48.0499 18.6H41.8499C40.1378 18.6 38.7499 19.9879 38.7499 21.6999V29.4499H37.1999C36.3439 29.4499 35.6499 30.1439 35.6499 30.9999C35.6499 31.8559 36.3439 32.5499 37.1999 32.5499H83.6997C84.5557 32.5499 85.2497 31.8559 85.2497 30.9999C85.2497 30.1439 84.5557 29.4499 83.6997 29.4499ZM41.8499 29.4499V21.6999H48.0499V29.4499H41.8499ZM57.3498 29.4499V17.05H63.5498V29.4499H57.3498ZM72.8498 29.4499V10.85H79.0497V29.4499H72.8498Z" fill="url(#paint12_linear_923:1228)"/>
<defs>
<linearGradient id="paint0_linear_923:1228" x1="6.02913" y1="57.5564" x2="52.9438" y2="58.0341" gradientUnits="userSpaceOnUse">
<stop stop-color="#EC526E"/>
<stop offset="1" stop-color="#EC593D"/>
</linearGradient>
<linearGradient id="paint1_linear_923:1228" x1="24.773" y1="58.2229" x2="38.8047" y2="58.3084" gradientUnits="userSpaceOnUse">
<stop stop-color="#EC526E"/>
<stop offset="1" stop-color="#EC593D"/>
</linearGradient>
<linearGradient id="paint2_linear_923:1228" x1="-0.341646" y1="34.5113" x2="93.4877" y2="35.4668" gradientUnits="userSpaceOnUse">
<stop stop-color="#EC526E"/>
<stop offset="1" stop-color="#EC593D"/>
</linearGradient>
<linearGradient id="paint3_linear_923:1228" x1="74.3598" y1="44.3271" x2="85.3066" y2="44.4386" gradientUnits="userSpaceOnUse">
<stop stop-color="#EC526E"/>
<stop offset="1" stop-color="#EC593D"/>
</linearGradient>
<linearGradient id="paint4_linear_923:1228" x1="74.3598" y1="58.2763" x2="85.3066" y2="58.3878" gradientUnits="userSpaceOnUse">
<stop stop-color="#EC526E"/>
<stop offset="1" stop-color="#EC593D"/>
</linearGradient>
<linearGradient id="paint5_linear_923:1228" x1="74.3598" y1="72.2255" x2="85.3066" y2="72.337" gradientUnits="userSpaceOnUse">
<stop stop-color="#EC526E"/>
<stop offset="1" stop-color="#EC593D"/>
</linearGradient>
<linearGradient id="paint6_linear_923:1228" x1="55.7429" y1="41.4512" x2="71.3423" y2="42.2454" gradientUnits="userSpaceOnUse">
<stop stop-color="#EC526E"/>
<stop offset="1" stop-color="#EC593D"/>
</linearGradient>
<linearGradient id="paint7_linear_923:1228" x1="61.9656" y1="47.6504" x2="71.3408" y2="47.9368" gradientUnits="userSpaceOnUse">
<stop stop-color="#EC526E"/>
<stop offset="1" stop-color="#EC593D"/>
</linearGradient>
<linearGradient id="paint8_linear_923:1228" x1="58.8542" y1="77.0996" x2="71.3454" y2="77.6084" gradientUnits="userSpaceOnUse">
<stop stop-color="#EC526E"/>
<stop offset="1" stop-color="#EC593D"/>
</linearGradient>
<linearGradient id="paint9_linear_923:1228" x1="61.9656" y1="70.9004" x2="71.3408" y2="71.1868" gradientUnits="userSpaceOnUse">
<stop stop-color="#EC526E"/>
<stop offset="1" stop-color="#EC593D"/>
</linearGradient>
<linearGradient id="paint10_linear_923:1228" x1="63.5212" y1="55.4004" x2="71.3361" y2="55.5993" gradientUnits="userSpaceOnUse">
<stop stop-color="#EC526E"/>
<stop offset="1" stop-color="#EC593D"/>
</linearGradient>
<linearGradient id="paint11_linear_923:1228" x1="63.5212" y1="61.5996" x2="71.3361" y2="61.7985" gradientUnits="userSpaceOnUse">
<stop stop-color="#EC526E"/>
<stop offset="1" stop-color="#EC593D"/>
</linearGradient>
<linearGradient id="paint12_linear_923:1228" x1="35.4677" y1="16.953" x2="85.4945" y2="17.9719" gradientUnits="userSpaceOnUse">
<stop stop-color="#EC526E"/>
<stop offset="1" stop-color="#EC593D"/>
</linearGradient>
</defs>
</svg>
