<svg width="179" height="218" viewBox="0 0 179 218" fill="none" xmlns="http://www.w3.org/2000/svg">
<path d="M57.9053 184.268L61.6817 181.918" stroke="#535353" stroke-width="3" stroke-miterlimit="10"/>
<path d="M81.0383 199.096L77.262 196.746" stroke="#535353" stroke-width="3" stroke-miterlimit="10"/>
<g style="mix-blend-mode:multiply" opacity="0.19">
<path d="M82.7076 130.105H18.1161L16.4468 173.451H46.9026L49.9296 176.35L36.2857 195.442H69.8724L71.8756 197.363L62.8761 210.79H85.8904L93.1983 217.79H121.577L178.029 185.106L82.7076 130.105Z" fill="#2C2C2C"/>
</g>
<path d="M85.208 145.66L85.0374 168.831L130.012 196.546V171.292L85.208 145.66Z" fill="url(#paint0_linear)"/>
<path d="M53.2979 107.363L7.38049 133.322L93.1984 182.895L138.537 156.737L53.2979 107.363Z" fill="url(#paint1_linear)"/>
<path d="M138.537 156.738L93.1984 182.897V217.789L105.01 210.976V199.008L130.012 184.58V196.547L138.537 191.624V156.738Z" fill="url(#paint2_linear)"/>
<path d="M16.4468 148.3V173.45L24.9269 168.645L24.9047 143.51L16.4468 148.3Z" fill="url(#paint3_linear)"/>
<path d="M93.1984 182.896L7.38049 133.322V168.215L16.4468 173.45V161.594L26.344 167.325V179.181L93.1984 217.788V182.896Z" fill="url(#paint4_linear)"/>
<g style="mix-blend-mode:multiply">
<path d="M119.269 145.638L80.1183 122.779H52.0885V125.604L34.8167 135.673H52.0885V145.638H119.269Z" fill="url(#paint5_linear)"/>
</g>
<path d="M52.0886 108.447V125.708L69.353 135.673V118.412L52.0886 108.447ZM60.0568 121.69L53.0234 124.655V110.568L60.0568 121.69ZM53.6689 110.308L67.7653 118.427L60.7245 121.393L53.6689 110.308ZM60.7023 122.72L67.743 133.842L53.6466 125.686L60.7023 122.72ZM61.37 122.446L68.4034 119.48V133.568L61.37 122.446Z" fill="#2A2A2A"/>
<path d="M52.0886 128.362V145.638L69.353 135.673V118.412L52.0886 128.362ZM60.0568 132.396L53.0234 143.518V129.43L60.0568 132.396ZM53.6689 128.362L67.7653 120.243L60.7245 131.365L53.6689 128.362ZM60.7023 132.655L67.743 135.621L53.6466 143.777L60.7023 132.655ZM61.37 131.617L68.4034 120.496V134.583L61.37 131.617Z" fill="#979797"/>
<path d="M34.8167 118.412V135.673L52.0886 125.708V108.447L34.8167 118.412ZM42.7849 122.431L35.7515 133.553V119.465L42.7849 122.431ZM36.4118 118.412L50.5083 110.293L43.4749 121.415L36.4118 118.412ZM43.4526 122.705L50.4861 125.671L36.3895 133.827L43.4526 122.705ZM44.1129 121.667L51.1464 110.546V124.633L44.1129 121.667Z" fill="#2A2A2A"/>
<path d="M34.8167 118.412V135.673L52.0886 145.638V128.362L34.8167 118.412ZM42.7849 131.647L35.7515 134.613V120.525L42.7849 131.647ZM36.4118 120.273L50.5083 128.392L43.4749 131.358L36.4118 120.273ZM43.4526 132.685L50.4861 143.807L36.3895 135.651L43.4526 132.685ZM44.1129 132.411L51.1464 129.445V143.532L44.1129 132.411Z" fill="#979797"/>
<path d="M52.0886 91.793V109.084L69.353 119.049V101.758L52.0886 91.793ZM60.0568 105.02L53.0234 107.986V93.8987L60.0568 105.02ZM53.6689 93.6466L67.7653 101.803L60.7245 104.768L53.6689 93.6466ZM60.7023 106.066L67.743 117.188L53.6466 109.069L60.7023 106.066ZM61.37 105.784L68.4034 102.818V116.906L61.37 105.784Z" fill="#2A2A2A"/>
<path d="M52.0886 111.723V128.984L69.353 119.019V101.758L52.0886 111.723ZM60.0568 115.756L53.0234 126.878V112.791L60.0568 115.756ZM53.6689 111.738L67.7653 103.582L60.7245 114.704L53.6689 111.738ZM60.7023 116.031L67.743 118.997L53.6466 127.153L60.7023 116.031ZM61.37 114.985L68.4034 103.864V117.951L61.37 114.985Z" fill="#979797"/>
<path d="M34.8167 101.758V119.019L52.0886 109.084V91.793L34.8167 101.758ZM42.7849 105.784L35.7515 116.906V102.818L42.7849 105.784ZM36.4118 101.773L50.5083 93.6169L43.4749 104.739L36.4118 101.773ZM43.4526 106.066L50.4861 109.032L36.3895 117.151L43.4526 106.066ZM44.1129 105.02L51.1464 93.8987V107.986L44.1129 105.02Z" fill="#2A2A2A"/>
<path d="M34.8167 101.758V119.019L52.0886 128.984V111.723L34.8167 101.758ZM42.7849 115.015L35.7515 117.981V103.893L42.7849 115.015ZM36.4118 103.641L50.5083 111.797L43.4749 114.763L36.4118 103.641ZM43.4526 116.06L50.4861 127.182L36.3895 119.026L43.4526 116.06ZM44.1129 115.779L51.1464 112.813V126.9L44.1129 115.779Z" fill="#979797"/>
<path d="M52.0886 75.1406V92.3942L69.353 102.359V85.1057L52.0886 75.1406ZM60.0568 88.3681L53.0234 91.3339V77.2463L60.0568 88.3681ZM53.6689 76.9943L67.7653 85.1132L60.7245 88.079L53.6689 76.9943ZM60.7023 89.4136L67.743 100.535L53.6466 92.3794L60.7023 89.4136ZM61.37 89.1318L68.4034 86.166V100.254L61.37 89.1318Z" fill="#2A2A2A"/>
<path d="M52.0886 95.0706V112.324L69.353 102.359V85.1055L52.0886 95.0706ZM60.0568 99.0967L53.0234 110.218V96.1309L60.0568 99.0967ZM53.6689 95.078L67.7653 86.922L60.7245 98.0438L53.6689 95.078ZM60.7023 99.3784L67.743 102.344L53.6466 110.5L60.7023 99.3784ZM61.37 98.333L68.4034 87.2112V101.299L61.37 98.333Z" fill="#979797"/>
<path d="M34.8167 85.1057V102.359L52.0886 92.3942V75.1406L34.8167 85.1057ZM42.7849 89.1318L35.7515 100.254V86.166L42.7849 89.1318ZM36.4118 85.1132L50.5083 76.9943L43.4749 88.116L36.4118 85.1132ZM43.4526 89.4136L50.4861 92.3794L36.3895 100.535L43.4526 89.4136ZM44.1129 88.3681L51.1464 77.2463V91.3339L44.1129 88.3681Z" fill="#2A2A2A"/>
<path d="M34.8167 85.1055V102.359L52.0886 112.324V95.0706L34.8167 85.1055ZM42.7849 98.333L35.7515 101.299V87.2112L42.7849 98.333ZM36.4118 86.9591L50.5083 95.1151L43.4749 98.0809L36.4118 86.9591ZM43.4526 99.3784L50.4861 110.5L36.3895 102.344L43.4526 99.3784ZM44.1129 99.0967L51.1464 96.1309V110.218L44.1129 99.0967Z" fill="#979797"/>
<path d="M52.0886 58.4805V75.7192L69.353 85.6843V68.4456L52.0886 58.4805ZM60.0568 71.7154L53.0234 74.6812V60.5936L60.0568 71.7154ZM53.6689 60.3415L67.7653 68.4975L60.7245 71.4633L53.6689 60.3415ZM60.7171 72.7534L67.7653 83.8752L53.6689 75.7192L60.7171 72.7534ZM61.3849 72.4791L68.4182 69.5133V83.6009L61.3849 72.4791Z" fill="#2A2A2A"/>
<path d="M52.0886 78.4104V95.6714L69.353 85.7063V68.4453L52.0886 78.4104ZM60.0568 82.4439L53.0234 93.5657V79.4781L60.0568 82.4439ZM53.6689 78.4253L67.7653 70.2693L60.7245 81.3911L53.6689 78.4253ZM60.7023 82.7183L67.743 85.6841L53.6466 93.84L60.7023 82.7183ZM61.37 81.6802L68.4034 70.5584V84.646L61.37 81.6802Z" fill="#979797"/>
<path d="M34.8167 68.4456V85.7066L52.0886 75.7192V58.4805L34.8167 68.4456ZM42.7849 72.4791L35.7515 83.6009V69.5133L42.7849 72.4791ZM36.4118 68.4604L50.5083 60.3044L43.4749 71.4262L36.4118 68.4604ZM43.4526 72.7534L50.4861 75.7192L36.3895 83.8752L43.4526 72.7534ZM44.1129 71.7154L51.1464 60.5936V74.6812L44.1129 71.7154Z" fill="#2A2A2A"/>
<path d="M34.8167 68.4453V85.7063L52.0886 95.6714V78.4104L34.8167 68.4453ZM42.7849 81.6506L35.7515 84.6164V70.5288L42.7849 81.6506ZM36.4118 70.2767L50.5083 78.4327L43.4749 81.3985L36.4118 70.2767ZM43.4526 82.6886L50.4861 93.8104L36.3895 85.6544L43.4526 82.6886ZM44.1129 82.4143L51.1464 79.4485V93.536L44.1129 82.4143Z" fill="#979797"/>
<path d="M52.2295 82.8663C80.9367 82.8663 104.208 69.4386 104.208 52.8746C104.208 36.3106 80.9367 22.8828 52.2295 22.8828C23.5224 22.8828 0.25061 36.3106 0.25061 52.8746C0.25061 69.4386 23.5224 82.8663 52.2295 82.8663Z" fill="url(#paint6_linear)"/>
<path d="M52.2295 80.4796C80.9367 80.4796 104.208 67.0518 104.208 50.4878C104.208 33.9239 80.9367 20.4961 52.2295 20.4961C23.5224 20.4961 0.25061 33.9239 0.25061 50.4878C0.25061 67.0518 23.5224 80.4796 52.2295 80.4796Z" fill="url(#paint7_linear)"/>
<path d="M60.1458 61.7287C59.7481 60.6473 58.9518 59.7587 57.92 59.2448C56.1582 58.3495 54.2097 57.8828 52.2332 57.8828C50.2568 57.8828 48.3083 58.3495 46.5465 59.2448C45.5104 59.7531 44.7124 60.6437 44.3207 61.7287H44.1946V62.5221C44.1946 63.7084 44.981 64.8947 46.5465 65.8067C48.3098 66.6969 50.2577 67.1607 52.2332 67.1607C54.2088 67.1607 56.1567 66.6969 57.92 65.8067C59.4929 64.8947 60.2793 63.7084 60.2793 62.5221V61.7287H60.1458Z" fill="url(#paint8_linear)"/>
<path d="M57.9127 58.4438C61.0584 60.2604 61.0584 63.1965 57.9127 65.0057C56.1509 65.901 54.2024 66.3677 52.2259 66.3677C50.2494 66.3677 48.3008 65.901 46.5391 65.0057C43.4007 63.1965 43.4007 60.2604 46.5391 58.4438C48.3024 57.5536 50.2503 57.0898 52.2259 57.0898C54.2014 57.0898 56.1493 57.5536 57.9127 58.4438Z" fill="#979797"/>
<path d="M80.1183 45.8311C81.0903 46.3872 81.0903 47.314 80.1183 47.8627C79.5714 48.1366 78.9681 48.2793 78.3563 48.2793C77.7445 48.2793 77.1411 48.1366 76.5942 47.8627C75.6223 47.2992 75.6223 46.3798 76.5942 45.8311C77.1399 45.5531 77.7437 45.4082 78.3563 45.4082C78.9688 45.4082 79.5726 45.5531 80.1183 45.8311Z" fill="#2A2A2A"/>
<path d="M27.7981 45.8311C28.77 46.3872 28.77 47.314 27.7981 47.8627C27.2512 48.1366 26.6478 48.2793 26.036 48.2793C25.4243 48.2793 24.8209 48.1366 24.274 47.8627C23.3021 47.2992 23.3021 46.3798 24.274 45.8311C24.8197 45.5531 25.4235 45.4082 26.036 45.4082C26.6486 45.4082 27.2524 45.5531 27.7981 45.8311Z" fill="#2A2A2A"/>
<path d="M78.3451 68.5799C79.7219 68.5799 80.838 67.9359 80.838 67.1415C80.838 66.3471 79.7219 65.7031 78.3451 65.7031C76.9684 65.7031 75.8523 66.3471 75.8523 67.1415C75.8523 67.9359 76.9684 68.5799 78.3451 68.5799Z" fill="#2A2A2A"/>
<path d="M27.4569 67.5116C28.8336 67.5116 29.9497 66.8676 29.9497 66.0732C29.9497 65.2788 28.8336 64.6348 27.4569 64.6348C26.0801 64.6348 24.964 65.2788 24.964 66.0732C24.964 66.8676 26.0801 67.5116 27.4569 67.5116Z" fill="#2A2A2A"/>
<path d="M55.3234 36.0506C57.0298 37.0367 57.0298 38.6383 55.3234 39.6244C54.3648 40.1109 53.3048 40.3644 52.2296 40.3644C51.1545 40.3644 50.0945 40.1109 49.1358 39.6244C47.422 38.6383 47.422 37.0367 49.1358 36.0506C50.0945 35.5641 51.1545 35.3105 52.2296 35.3105C53.3048 35.3105 54.3648 35.5641 55.3234 36.0506Z" fill="url(#paint9_linear)"/>
<path d="M55.3233 39.6248C54.3647 40.1113 53.3047 40.3648 52.2295 40.3648C51.1544 40.3648 50.0944 40.1113 49.1357 39.6248C48.782 39.4681 48.4766 39.2198 48.2509 38.9057C48.0253 38.5916 47.8876 38.2229 47.8522 37.8379V61.5124C47.8853 61.8982 48.0221 62.2678 48.248 62.5823C48.4739 62.8968 48.7806 63.1446 49.1357 63.2993C50.0944 63.7858 51.1544 64.0394 52.2295 64.0394C53.3047 64.0394 54.3647 63.7858 55.3233 63.2993C55.6775 63.1433 55.9834 62.8952 56.2091 62.5809C56.4348 62.2667 56.5722 61.8977 56.6069 61.5124V37.8379C56.5663 38.2214 56.4266 38.5877 56.2016 38.901C55.9766 39.2143 55.6739 39.4637 55.3233 39.6248Z" fill="url(#paint10_linear)"/>
<path d="M58.2465 37.5349C57.9422 36.7135 57.3378 36.0379 56.5549 35.6442C55.2135 34.9677 53.732 34.6152 52.2295 34.6152C50.727 34.6152 49.2455 34.9677 47.9041 35.6442C47.1175 36.0352 46.5099 36.7115 46.2051 37.5349H46.1161V38.1429C46.1161 39.0475 46.7096 39.9446 47.9041 40.6341C49.2444 41.3141 50.7264 41.6685 52.2295 41.6685C53.7326 41.6685 55.2146 41.3141 56.5549 40.6341C57.742 39.9446 58.3429 39.0475 58.3429 38.1429V37.5349H58.2465Z" fill="url(#paint11_linear)"/>
<path d="M52.2295 41.0625C55.6059 41.0625 58.3429 39.4824 58.3429 37.5332C58.3429 35.584 55.6059 34.0039 52.2295 34.0039C48.8532 34.0039 46.1161 35.584 46.1161 37.5332C46.1161 39.4824 48.8532 41.0625 52.2295 41.0625Z" fill="url(#paint12_linear)"/>
<path d="M55.1897 34.5247C56.8219 35.4738 56.8219 37.0012 55.1897 37.9428C54.2702 38.4098 53.2534 38.6531 52.222 38.6531C51.1907 38.6531 50.1739 38.4098 49.2544 37.9428C47.6148 37.0012 47.6148 35.4738 49.2544 34.5247C50.1739 34.0578 51.1907 33.8145 52.222 33.8145C53.2534 33.8145 54.2702 34.0578 55.1897 34.5247Z" fill="url(#paint13_linear)"/>
<path d="M55.1898 37.9417C54.2703 38.4086 53.2535 38.6519 52.2221 38.6519C51.1907 38.6519 50.1739 38.4086 49.2544 37.9417C48.9176 37.7911 48.6269 37.5539 48.4118 37.2543C48.1967 36.9547 48.0651 36.6034 48.0303 36.2363V37.4449C48.0651 37.812 48.1967 38.1632 48.4118 38.4628C48.6269 38.7624 48.9176 38.9996 49.2544 39.1502C50.1739 39.6171 51.1907 39.8605 52.2221 39.8605C53.2535 39.8605 54.2703 39.6171 55.1898 39.1502C55.5266 38.9996 55.8173 38.7624 56.0324 38.4628C56.2475 38.1632 56.3791 37.812 56.4139 37.4449V36.2363C56.3791 36.6034 56.2475 36.9547 56.0324 37.2543C55.8173 37.5539 55.5266 37.7911 55.1898 37.9417Z" fill="url(#paint14_linear)"/>
<path d="M55.3234 11.2127C57.0298 12.1988 57.0298 13.7929 55.3234 14.7791C54.3648 15.2656 53.3048 15.5191 52.2296 15.5191C51.1545 15.5191 50.0945 15.2656 49.1358 14.7791C47.422 13.7929 47.422 12.1988 49.1358 11.2127C50.0945 10.7262 51.1545 10.4727 52.2296 10.4727C53.3048 10.4727 54.3648 10.7262 55.3234 11.2127Z" fill="url(#paint15_linear)"/>
<path d="M55.3233 14.7498C54.3647 15.2363 53.3047 15.4898 52.2295 15.4898C51.1544 15.4898 50.0944 15.2363 49.1357 14.7498C48.7806 14.595 48.4739 14.3473 48.248 14.0328C48.0221 13.7183 47.8853 13.3486 47.8522 12.9629V17.9751C47.8876 18.3602 48.0253 18.7288 48.2509 19.0429C48.4766 19.357 48.782 19.6053 49.1357 19.762C50.0944 20.2485 51.1544 20.502 52.2295 20.502C53.3047 20.502 54.3647 20.2485 55.3233 19.762C55.6739 19.6009 55.9766 19.3515 56.2016 19.0382C56.4266 18.7249 56.5663 18.3586 56.6069 17.9751V12.9629C56.5722 13.3482 56.4348 13.7171 56.2091 14.0314C55.9834 14.3456 55.6775 14.5937 55.3233 14.7498Z" fill="url(#paint16_linear)"/>
<path d="M49.7886 15.5211L46.821 14.3125L25.5649 65.621C25.461 65.9176 25.6169 66.2438 26.0398 66.4737C26.4261 66.6602 26.8497 66.757 27.2787 66.757C27.7078 66.757 28.1314 66.6602 28.5178 66.4737C28.7239 66.3744 28.8891 66.2067 28.9852 65.9991L49.7886 15.5211Z" fill="url(#paint17_linear)"/>
<path d="M49.2173 14.178L46.5613 12.4355L24.3779 46.4237C24.1998 46.75 24.3334 47.1207 24.8082 47.3802C25.1933 47.5666 25.6156 47.6634 26.0435 47.6634C26.4714 47.6634 26.8937 47.5666 27.2788 47.3802C27.4996 47.2819 27.6728 47.1008 27.761 46.876L49.2173 14.178Z" fill="url(#paint18_linear)"/>
<path d="M80.0293 46.5792V46.5199V46.468L57.5862 11.4121L54.9153 13.1249L76.6684 46.9944C76.7555 47.2277 76.9316 47.417 77.158 47.5208C77.5431 47.7072 77.9655 47.804 78.3933 47.804C78.8212 47.804 79.2435 47.7072 79.6286 47.5208C80.0515 47.2687 80.1925 46.9054 80.0293 46.5792Z" fill="url(#paint19_linear)"/>
<path d="M80.0293 66.6875L57.4304 14.2891L54.5072 15.5421L76.5793 66.9618C76.6101 67.0935 76.671 67.2163 76.7573 67.3205C76.8435 67.4247 76.9528 67.5075 77.0764 67.5624C77.4615 67.7488 77.8839 67.8456 78.3117 67.8456C78.7396 67.8456 79.1619 67.7488 79.547 67.5624C79.9848 67.3251 80.1406 66.9989 80.0293 66.6875Z" fill="url(#paint20_linear)"/>
<path d="M58.2465 12.6946C57.9441 11.872 57.3391 11.1958 56.5549 10.8038C55.2146 10.1239 53.7326 9.76953 52.2295 9.76953C50.7264 9.76953 49.2444 10.1239 47.9041 10.8038C47.1161 11.1931 46.5079 11.8699 46.2051 12.6946H46.1161V13.2951C46.1161 14.1997 46.7096 15.1043 47.9041 15.7938C49.2455 16.4703 50.727 16.8228 52.2295 16.8228C53.732 16.8228 55.2135 16.4703 56.5549 15.7938C57.742 15.1043 58.3429 14.1997 58.3429 13.2951V12.6946H58.2465Z" fill="url(#paint21_linear)"/>
<path d="M56.555 10.1671C58.9366 11.5462 58.9366 13.778 56.555 15.1571C55.2147 15.8371 53.7327 16.1914 52.2296 16.1914C50.7265 16.1914 49.2445 15.8371 47.9042 15.1571C45.5152 13.778 45.5152 11.5462 47.9042 10.1671C49.2445 9.48718 50.7265 9.13281 52.2296 9.13281C53.7327 9.13281 55.2147 9.48718 56.555 10.1671Z" fill="url(#paint22_linear)"/>
<path d="M55.1897 1.70638C56.8219 2.64803 56.8219 4.18283 55.1897 5.12448C54.2702 5.5914 53.2534 5.83477 52.222 5.83477C51.1907 5.83477 50.1739 5.5914 49.2544 5.12448C47.6148 4.18283 47.6148 2.64803 49.2544 1.70638C50.1739 1.23946 51.1907 0.996094 52.222 0.996094C53.2534 0.996094 54.2702 1.23946 55.1897 1.70638Z" fill="url(#paint23_linear)"/>
<path d="M55.1898 5.12486C54.2703 5.59178 53.2535 5.83515 52.2221 5.83515C51.1907 5.83515 50.1739 5.59178 49.2544 5.12486C48.9166 4.97368 48.6252 4.73534 48.41 4.43433C48.1949 4.13332 48.0638 3.7805 48.0303 3.41211V12.569C48.0643 12.9363 48.1957 13.2879 48.4108 13.5877C48.626 13.8874 48.9172 14.1244 49.2544 14.2744C50.1739 14.7413 51.1907 14.9846 52.2221 14.9846C53.2535 14.9846 54.2703 14.7413 55.1898 14.2744C55.527 14.1244 55.8182 13.8874 56.0334 13.5877C56.2485 13.2879 56.3799 12.9363 56.4139 12.569V3.41211C56.3804 3.7805 56.2493 4.13332 56.0342 4.43433C55.8191 4.73534 55.5276 4.97368 55.1898 5.12486Z" fill="url(#paint24_linear)"/>
<path d="M62.8761 199.912V210.789L71.8236 205.621V194.744L62.8761 199.912Z" fill="url(#paint25_linear)"/>
<path d="M53.9286 194.744V205.621L62.8761 210.789V199.912L53.9286 194.744Z" fill="url(#paint26_linear)"/>
<path d="M71.8237 194.744L62.8761 199.912L53.9286 194.744L62.8761 189.584L71.8237 194.744Z" fill="url(#paint27_linear)"/>
<path d="M75.7335 192.594L75.8226 200.646L71.8237 202.87L71.7421 194.818L75.7335 192.594Z" fill="url(#paint28_linear)"/>
<path d="M62.8761 189.583L71.742 194.818L75.7335 192.594L66.875 187.352L62.8761 189.583Z" fill="url(#paint29_linear)"/>
<path d="M36.2856 184.565V195.442L45.2332 190.281V179.404L36.2856 184.565Z" fill="url(#paint30_linear)"/>
<path d="M27.3381 179.404V190.281L36.2856 195.442V184.565L27.3381 179.404Z" fill="url(#paint31_linear)"/>
<path d="M45.2332 179.403L36.2857 184.563L27.3381 179.403L36.2857 174.242L45.2332 179.403Z" fill="url(#paint32_linear)"/>
<path d="M49.1431 177.246L49.2321 185.298L45.2332 187.53L45.1516 179.478L49.1431 177.246Z" fill="url(#paint33_linear)"/>
<path d="M36.2856 174.243L45.1516 179.478L49.1432 177.246L40.2846 172.012L36.2856 174.243Z" fill="url(#paint34_linear)"/>
<path style="mix-blend-mode:multiply" d="M99.2821 174.539H103.949L128.989 160.095L112.607 150.367H99.8237L99.2821 174.539Z" fill="url(#paint35_linear)"/>
<path d="M122.289 159.422L99.2821 172.694L76.2751 159.422L99.2821 146.143L122.289 159.422Z" fill="url(#paint36_linear)"/>
<path d="M99.2821 172.694V174.666L122.289 161.394V159.422L99.2821 172.694Z" fill="url(#paint37_linear)"/>
<path d="M76.2751 159.422V161.394L99.2821 174.666V172.694L76.2751 159.422Z" fill="url(#paint38_linear)"/>
<path d="M114.959 147.195L98.5401 156.671L82.1215 147.195L98.5401 137.727L114.959 147.195Z" fill="url(#paint39_linear)"/>
<path d="M98.5402 139.18V140.403L111.368 147.803L112.429 147.195L98.5402 139.18Z" fill="url(#paint40_linear)"/>
<path d="M84.6515 147.195L85.7124 147.803L98.5401 140.403V139.18L84.6515 147.195Z" fill="url(#paint41_linear)"/>
<path d="M111.368 147.802L98.5402 140.402L85.7124 147.802L98.5402 155.209L111.368 147.802Z" fill="url(#paint42_linear)"/>
<path d="M98.5402 156.671V168.89L114.959 159.422V147.195L98.5402 156.671Z" fill="url(#paint43_linear)"/>
<path d="M82.1215 147.195V159.422L98.5401 168.89V156.671L82.1215 147.195Z" fill="url(#paint44_linear)"/>
<path d="M110.426 153.453L107.525 155.129L104.616 153.453L107.525 151.777L110.426 153.453Z" fill="url(#paint45_linear)"/>
<path d="M107.525 155.129V162.306L110.426 160.63V153.453L107.525 155.129Z" fill="url(#paint46_linear)"/>
<path d="M107.881 155.544V158.539L110.07 157.279V154.283L107.881 155.544Z" fill="#2A2A2A"/>
<path d="M104.616 153.453V160.63L107.525 162.306V155.129L104.616 153.453Z" fill="url(#paint47_linear)"/>
<path d="M93.3393 106.06C93.3113 106.06 93.2838 106.053 93.2583 106.042C93.2328 106.03 93.2099 106.014 93.1909 105.993C93.1502 105.952 93.1273 105.896 93.1273 105.838C93.1273 105.779 93.1502 105.724 93.1909 105.682L98.8963 99.5946C98.917 99.5733 98.9418 99.5564 98.9692 99.5449C98.9966 99.5333 99.026 99.5273 99.0558 99.5273C99.0855 99.5273 99.115 99.5333 99.1424 99.5449C99.1698 99.5564 99.1946 99.5733 99.2153 99.5946C99.2561 99.6362 99.2789 99.6921 99.2789 99.7504C99.2789 99.8086 99.2561 99.8645 99.2153 99.9061L93.51 105.993C93.4874 106.015 93.4606 106.032 93.4313 106.044C93.4021 106.055 93.3707 106.061 93.3393 106.06Z" fill="#979797"/>
<path d="M92.8942 111.983C92.8355 111.982 92.7795 111.958 92.7384 111.916C92.6971 111.873 92.6741 111.816 92.6741 111.757C92.6741 111.697 92.6971 111.64 92.7384 111.597L99.3563 105.072C99.3987 105.033 99.4543 105.012 99.512 105.012C99.5698 105.012 99.6254 105.033 99.6679 105.072C99.6892 105.093 99.7061 105.118 99.7177 105.145C99.7292 105.173 99.7352 105.202 99.7352 105.232C99.7352 105.262 99.7292 105.291 99.7177 105.318C99.7061 105.346 99.6892 105.371 99.6679 105.391L93.0574 111.916C93.036 111.937 93.0105 111.954 92.9824 111.966C92.9544 111.977 92.9245 111.983 92.8942 111.983Z" fill="#979797"/>
<path d="M92.5529 117.924C92.4909 117.921 92.4323 117.895 92.3897 117.849C92.3489 117.808 92.326 117.752 92.326 117.694C92.326 117.636 92.3489 117.58 92.3897 117.538L99.8089 110.732C99.8505 110.691 99.9064 110.668 99.9647 110.668C100.023 110.668 100.079 110.691 100.12 110.732C100.142 110.752 100.159 110.777 100.17 110.804C100.182 110.832 100.188 110.861 100.188 110.891C100.188 110.921 100.182 110.95 100.17 110.977C100.159 111.005 100.142 111.03 100.12 111.05L92.7013 117.857C92.6612 117.896 92.6087 117.92 92.5529 117.924Z" fill="#979797"/>
<path d="M92.0187 123.67C91.9852 123.67 91.9521 123.661 91.9224 123.646C91.8927 123.63 91.8672 123.608 91.848 123.581C91.8269 123.56 91.8101 123.536 91.7986 123.51C91.7872 123.483 91.7812 123.454 91.7813 123.425C91.7812 123.396 91.7872 123.367 91.7986 123.34C91.8101 123.313 91.8269 123.289 91.848 123.269L100.239 116.596C100.286 116.565 100.342 116.553 100.398 116.561C100.453 116.57 100.503 116.599 100.538 116.643C100.572 116.687 100.589 116.743 100.585 116.799C100.58 116.854 100.555 116.907 100.514 116.945L92.1225 123.618C92.0924 123.643 92.0569 123.661 92.0187 123.67Z" fill="#979797"/>
<path d="M91.5588 129.846C91.5114 129.847 91.4648 129.834 91.4257 129.807C91.3865 129.78 91.357 129.742 91.3412 129.697C91.3255 129.653 91.3244 129.604 91.3382 129.559C91.352 129.513 91.3799 129.474 91.4178 129.445L100.736 122.431C100.784 122.396 100.843 122.381 100.901 122.389C100.96 122.397 101.013 122.429 101.048 122.476C101.083 122.523 101.099 122.582 101.09 122.641C101.082 122.699 101.051 122.752 101.003 122.787L91.6923 129.846C91.6487 129.859 91.6024 129.859 91.5588 129.846Z" fill="#979797"/>
<path d="M91.2916 135.777C91.2551 135.778 91.2188 135.77 91.1864 135.753C91.1539 135.736 91.1263 135.711 91.1061 135.681C91.0734 135.632 91.0605 135.573 91.0701 135.515C91.0798 135.457 91.1113 135.405 91.1581 135.369L101.204 128.355C101.227 128.337 101.253 128.324 101.281 128.317C101.309 128.31 101.339 128.309 101.367 128.314C101.396 128.318 101.423 128.329 101.448 128.345C101.472 128.361 101.492 128.383 101.508 128.407C101.526 128.431 101.539 128.457 101.546 128.486C101.554 128.515 101.555 128.545 101.55 128.574C101.545 128.603 101.534 128.631 101.518 128.656C101.502 128.681 101.481 128.702 101.456 128.718L91.4177 135.74C91.3797 135.763 91.3362 135.776 91.2916 135.777Z" fill="#979797"/>
<path d="M90.6758 141.582C90.6387 141.581 90.6023 141.571 90.5699 141.553C90.5375 141.535 90.5102 141.509 90.4904 141.478C90.4741 141.454 90.4629 141.427 90.4574 141.398C90.452 141.369 90.4524 141.34 90.4586 141.312C90.4649 141.283 90.4768 141.256 90.4937 141.233C90.5107 141.209 90.5322 141.189 90.5571 141.174L101.686 134.041C101.735 134.019 101.79 134.015 101.841 134.031C101.892 134.046 101.936 134.079 101.965 134.124C101.994 134.169 102.005 134.223 101.998 134.276C101.99 134.329 101.964 134.377 101.923 134.412L90.7945 141.545C90.7593 141.568 90.7181 141.581 90.6758 141.582Z" fill="#979797"/>
<path d="M100.098 147.032L90.5646 141.553L90.6536 141.137L102.213 139.914L102.45 140.203L100.41 146.899L100.098 147.032ZM91.3807 141.508L100.076 146.506L101.923 140.396L91.3807 141.508Z" fill="#2A2A2A"/>
<path d="M99.7939 140.521L91.0171 135.62L91.0987 135.205L101.753 134.004L101.99 134.293L100.113 140.395L99.7939 140.521ZM91.8332 135.568L99.7717 140.017L101.463 134.501L91.8332 135.568Z" fill="#2A2A2A"/>
<path d="M99.4973 134.294L91.4474 129.846L91.529 129.43L101.3 128.281L101.538 128.57L99.8163 134.176L99.4973 134.294ZM92.2487 129.786L99.4527 133.775L100.996 128.756L92.2487 129.786Z" fill="#2A2A2A"/>
<path d="M99.1856 127.872L91.9073 123.631L91.9964 123.223L100.848 122.43L101.078 122.719L99.512 127.783L99.1856 127.872ZM92.7309 123.601L99.1708 127.308L100.558 122.86L92.7309 123.601Z" fill="#2A2A2A"/>
<path d="M98.9259 121.497L92.3896 117.752L92.4787 117.337L100.425 116.596L100.662 116.885L99.2524 121.4L98.9259 121.497ZM93.2132 117.715L98.9037 120.978L100.135 117.041L93.2132 117.715Z" fill="#2A2A2A"/>
<path d="M98.2953 108.959L93.228 105.993L93.3171 105.585L99.4898 104.984L99.7198 105.266L98.6218 108.803L98.2953 108.959ZM94.0515 105.993L98.2805 108.44L99.2004 105.474L94.0515 105.993Z" fill="#2A2A2A"/>
<path d="M98.0208 103.191L93.636 100.662L93.7176 100.247L99.0594 99.6094L99.3043 99.8911L98.3472 103.057L98.0208 103.191ZM94.4744 100.61L98.0356 102.664L98.7775 100.091L94.4744 100.61Z" fill="#2A2A2A"/>
<path d="M98.5995 115.484L92.7828 111.947L92.8719 111.539L99.9275 110.672L100.165 110.954L98.9259 115.358L98.5995 115.484ZM93.5619 111.903L98.5772 114.95L99.6456 111.154L93.5619 111.903Z" fill="#2A2A2A"/>
<path d="M99.7124 146.771C99.6779 146.771 99.6438 146.763 99.6129 146.748C99.582 146.732 99.5551 146.71 99.5344 146.682L91.1135 135.649C91.0728 135.608 91.0499 135.552 91.0499 135.494C91.0499 135.436 91.0728 135.38 91.1135 135.338C91.162 135.302 91.2225 135.287 91.2822 135.295C91.3418 135.303 91.3959 135.335 91.4326 135.383L99.8534 146.415C99.8719 146.438 99.8855 146.465 99.8934 146.493C99.9012 146.522 99.9031 146.552 99.8989 146.581C99.8947 146.61 99.8846 146.638 99.8691 146.663C99.8536 146.688 99.8331 146.71 99.8089 146.727C99.7811 146.75 99.7479 146.765 99.7124 146.771Z" fill="#979797"/>
<path d="M99.564 140.358C99.5292 140.36 99.4944 140.353 99.4632 140.338C99.4319 140.322 99.4053 140.299 99.386 140.269L91.581 129.889C91.5625 129.866 91.5489 129.84 91.541 129.811C91.5332 129.783 91.5313 129.753 91.5355 129.724C91.5397 129.695 91.5498 129.666 91.5653 129.641C91.5808 129.616 91.6013 129.595 91.6255 129.578C91.6727 129.542 91.7321 129.527 91.7906 129.535C91.849 129.544 91.9017 129.575 91.9371 129.622L99.7347 140.003C99.7709 140.049 99.7873 140.108 99.7804 140.166C99.7734 140.224 99.7437 140.277 99.6976 140.314C99.6586 140.342 99.612 140.357 99.564 140.358Z" fill="#979797"/>
<path d="M99.3044 134.154C99.2678 134.155 99.2316 134.146 99.1992 134.129C99.1667 134.113 99.1391 134.088 99.1189 134.057L91.8406 123.573C91.8235 123.549 91.8112 123.522 91.8045 123.494C91.7979 123.465 91.7969 123.436 91.8017 123.407C91.8066 123.378 91.8171 123.35 91.8327 123.325C91.8482 123.3 91.8686 123.279 91.8926 123.262C91.9413 123.229 92.0007 123.216 92.0587 123.226C92.1166 123.235 92.1687 123.267 92.2042 123.314L99.4825 133.805C99.4996 133.829 99.5119 133.856 99.5186 133.885C99.5252 133.913 99.5262 133.943 99.5214 133.972C99.5165 134.001 99.506 134.028 99.4904 134.053C99.4748 134.078 99.4545 134.1 99.4305 134.117C99.3936 134.142 99.3494 134.155 99.3044 134.154Z" fill="#979797"/>
<path d="M99.3045 127.903C99.2681 127.903 99.2324 127.894 99.2001 127.877C99.1679 127.861 99.1401 127.837 99.119 127.807L92.2488 117.686C92.2153 117.637 92.2028 117.577 92.2139 117.518C92.2251 117.46 92.259 117.408 92.3082 117.375C92.3573 117.341 92.4178 117.329 92.4762 117.34C92.5347 117.351 92.5863 117.385 92.6198 117.434L99.4529 127.555C99.4696 127.579 99.4814 127.607 99.4875 127.635C99.4936 127.664 99.4939 127.694 99.4884 127.723C99.4829 127.752 99.4716 127.78 99.4553 127.804C99.439 127.829 99.418 127.85 99.3935 127.866C99.3666 127.884 99.3363 127.897 99.3045 127.903Z" fill="#979797"/>
<path d="M99.0002 121.525C98.9638 121.525 98.9278 121.517 98.8955 121.5C98.8631 121.483 98.8354 121.459 98.8147 121.429L92.7088 111.879C92.6763 111.829 92.6651 111.768 92.6776 111.709C92.6901 111.651 92.7254 111.6 92.7756 111.567C92.8257 111.535 92.8868 111.524 92.9452 111.536C93.0036 111.549 93.0547 111.584 93.0872 111.634L99.1857 121.184C99.217 121.234 99.2275 121.295 99.2151 121.353C99.2026 121.411 99.1682 121.462 99.119 121.495C99.0827 121.515 99.0417 121.526 99.0002 121.525Z" fill="#979797"/>
<path d="M98.7183 115.521C98.6783 115.521 98.6391 115.51 98.605 115.489C98.5709 115.468 98.5434 115.438 98.5255 115.402L93.1465 105.941C93.1322 105.915 93.1231 105.887 93.1198 105.858C93.1165 105.828 93.1191 105.799 93.1274 105.77C93.1357 105.742 93.1495 105.716 93.1681 105.693C93.1866 105.67 93.2096 105.651 93.2355 105.637C93.2607 105.623 93.2885 105.614 93.3173 105.611C93.346 105.608 93.3751 105.61 93.4028 105.618C93.4305 105.627 93.4563 105.641 93.4785 105.659C93.5008 105.677 93.519 105.7 93.5323 105.726L98.9261 115.187C98.9404 115.213 98.9495 115.241 98.9527 115.27C98.956 115.3 98.9535 115.329 98.9452 115.358C98.9369 115.386 98.9231 115.412 98.9045 115.435C98.886 115.458 98.863 115.477 98.837 115.491C98.8006 115.511 98.7598 115.521 98.7183 115.521Z" fill="#979797"/>
<path d="M98.4066 108.987C98.3675 108.987 98.3292 108.977 98.2953 108.957C98.2614 108.938 98.2333 108.91 98.2137 108.876L93.547 100.579C93.5324 100.553 93.523 100.525 93.5194 100.496C93.5158 100.466 93.518 100.436 93.5259 100.408C93.5338 100.379 93.5473 100.352 93.5656 100.329C93.5838 100.306 93.6065 100.286 93.6323 100.271C93.6581 100.257 93.6866 100.247 93.7161 100.244C93.7455 100.24 93.7754 100.242 93.804 100.25C93.8325 100.258 93.8593 100.272 93.8827 100.29C93.9061 100.308 93.9256 100.331 93.9403 100.357L98.5996 108.654C98.6142 108.679 98.6237 108.707 98.6275 108.736C98.6313 108.765 98.6294 108.794 98.6218 108.822C98.6142 108.851 98.6012 108.877 98.5833 108.9C98.5655 108.924 98.5433 108.943 98.518 108.958C98.4844 108.978 98.4458 108.988 98.4066 108.987Z" fill="#979797"/>
<path d="M100.209 147.062C100.152 147.054 100.099 147.025 100.063 146.979C100.027 146.933 100.01 146.875 100.017 146.817L101.582 134.212C101.59 134.153 101.621 134.1 101.668 134.064C101.716 134.028 101.775 134.012 101.834 134.02C101.893 134.027 101.947 134.058 101.983 134.106C102.019 134.153 102.035 134.213 102.027 134.272L100.41 146.899C100.397 146.943 100.37 146.982 100.335 147.011C100.299 147.04 100.255 147.058 100.209 147.062Z" fill="#979797"/>
<path d="M99.8978 140.552C99.8684 140.549 99.8401 140.539 99.8145 140.525C99.7888 140.51 99.7664 140.49 99.7484 140.467C99.7305 140.443 99.7174 140.417 99.7099 140.388C99.7024 140.359 99.7007 140.33 99.7049 140.3L101.129 128.437C101.132 128.408 101.141 128.38 101.155 128.354C101.169 128.329 101.188 128.306 101.21 128.288C101.233 128.27 101.26 128.257 101.288 128.25C101.316 128.242 101.345 128.24 101.374 128.244C101.404 128.246 101.433 128.254 101.459 128.268C101.486 128.281 101.509 128.3 101.528 128.323C101.547 128.346 101.561 128.372 101.569 128.401C101.577 128.43 101.579 128.46 101.575 128.489L100.143 140.352C100.14 140.382 100.131 140.41 100.117 140.436C100.104 140.462 100.085 140.485 100.062 140.503C100.039 140.522 100.013 140.536 99.9848 140.544C99.9566 140.553 99.927 140.556 99.8978 140.552Z" fill="#979797"/>
<path d="M99.6085 134.294C99.5507 134.287 99.4981 134.257 99.4621 134.212C99.426 134.166 99.4093 134.108 99.4156 134.05L100.677 122.565C100.68 122.535 100.688 122.507 100.702 122.481C100.716 122.455 100.735 122.432 100.758 122.414C100.78 122.395 100.807 122.381 100.835 122.373C100.863 122.364 100.893 122.361 100.922 122.364C100.98 122.372 101.033 122.401 101.071 122.447C101.108 122.492 101.126 122.551 101.122 122.609L99.8534 134.094C99.8516 134.124 99.8438 134.153 99.8302 134.179C99.8167 134.206 99.7979 134.229 99.7749 134.248C99.7518 134.267 99.7252 134.281 99.6966 134.289C99.6679 134.297 99.638 134.299 99.6085 134.294Z" fill="#979797"/>
<path d="M99.386 127.621C99.3564 127.619 99.3274 127.612 99.3009 127.598C99.2744 127.585 99.2511 127.566 99.2322 127.543C99.2134 127.52 99.1996 127.493 99.1916 127.465C99.1836 127.436 99.1815 127.406 99.1857 127.377L100.217 116.752C100.223 116.694 100.251 116.641 100.295 116.603C100.339 116.566 100.397 116.547 100.454 116.551C100.484 116.553 100.513 116.561 100.54 116.574C100.566 116.588 100.589 116.607 100.608 116.63C100.627 116.653 100.641 116.679 100.649 116.708C100.657 116.737 100.659 116.767 100.655 116.796L99.6234 127.421C99.6216 127.45 99.6139 127.478 99.6008 127.504C99.5878 127.53 99.5696 127.553 99.5475 127.572C99.5253 127.59 99.4995 127.604 99.4718 127.613C99.444 127.621 99.4149 127.624 99.386 127.621Z" fill="#979797"/>
<path d="M99.0669 121.312C99.0091 121.306 98.9558 121.278 98.9184 121.234C98.881 121.19 98.8624 121.133 98.8665 121.075L99.7494 110.872C99.7585 110.815 99.7885 110.762 99.8337 110.726C99.8788 110.689 99.936 110.67 99.9943 110.672C100.023 110.674 100.052 110.682 100.077 110.695C100.103 110.708 100.126 110.726 100.145 110.748C100.164 110.77 100.178 110.796 100.186 110.824C100.195 110.851 100.198 110.881 100.195 110.909L99.3117 121.112C99.3089 121.141 99.3004 121.169 99.2865 121.195C99.2727 121.221 99.2538 121.244 99.2311 121.263C99.2083 121.281 99.182 121.295 99.1539 121.304C99.1257 121.312 99.0961 121.315 99.0669 121.312Z" fill="#979797"/>
<path d="M98.7182 115.202C98.6889 115.199 98.6605 115.19 98.6345 115.177C98.6086 115.163 98.5857 115.144 98.567 115.121C98.5484 115.098 98.5345 115.072 98.526 115.044C98.5176 115.016 98.5149 114.986 98.5179 114.957L99.3118 105.214C99.3167 105.155 99.3449 105.101 99.3901 105.063C99.4353 105.024 99.4938 105.006 99.5529 105.011C99.6119 105.015 99.6666 105.044 99.7048 105.089C99.7431 105.134 99.7618 105.193 99.7569 105.252L98.926 115.016C98.919 115.067 98.8942 115.113 98.8562 115.147C98.8181 115.181 98.7692 115.201 98.7182 115.202Z" fill="#979797"/>
<path d="M98.3917 108.668C98.3628 108.667 98.3344 108.659 98.3085 108.646C98.2826 108.633 98.2596 108.615 98.2409 108.593C98.2222 108.57 98.2081 108.545 98.1996 108.517C98.1911 108.489 98.1883 108.46 98.1914 108.431L98.8888 99.8156C98.8907 99.7863 98.8983 99.7577 98.9113 99.7315C98.9242 99.7052 98.9422 99.6817 98.9643 99.6625C98.9864 99.6432 99.012 99.6284 99.0398 99.6191C99.0676 99.6097 99.0969 99.6059 99.1262 99.6079C99.1859 99.6136 99.241 99.6424 99.2798 99.6881C99.3186 99.7338 99.338 99.7928 99.3339 99.8526L98.6365 108.468C98.6337 108.498 98.6252 108.526 98.6113 108.552C98.5975 108.578 98.5787 108.601 98.5559 108.619C98.5331 108.638 98.5069 108.652 98.4787 108.66C98.4505 108.669 98.421 108.672 98.3917 108.668Z" fill="#979797"/>
<path d="M90.2678 147.06C90.208 147.055 90.1529 147.026 90.1141 146.98C90.0753 146.934 90.0559 146.875 90.06 146.816L94.0738 93.2828C94.0762 93.2536 94.0844 93.2251 94.0978 93.1991C94.1113 93.173 94.1297 93.1499 94.1521 93.1309C94.1745 93.112 94.2003 93.0977 94.2283 93.0887C94.2562 93.0798 94.2856 93.0765 94.3149 93.0789C94.3441 93.0813 94.3726 93.0895 94.3986 93.1029C94.4247 93.1164 94.4479 93.1348 94.4668 93.1572C94.4858 93.1795 94.5001 93.2054 94.5091 93.2333C94.518 93.2613 94.5213 93.2907 94.5189 93.3199L90.5052 146.853C90.5033 146.882 90.4956 146.911 90.4827 146.937C90.4697 146.963 90.4517 146.987 90.4296 147.006C90.4075 147.025 90.3819 147.04 90.3541 147.049C90.3263 147.059 90.297 147.062 90.2678 147.06Z" fill="#979797"/>
<path d="M100.491 153.12C100.435 153.118 100.381 153.095 100.341 153.055C100.301 153.015 100.278 152.961 100.276 152.905L97.546 95.2791C97.546 95.2201 97.5694 95.1635 97.6112 95.1218C97.6529 95.0801 97.7096 95.0566 97.7686 95.0566C97.8276 95.0566 97.8843 95.0801 97.926 95.1218C97.9677 95.1635 97.9912 95.2201 97.9912 95.2791L100.714 152.905C100.716 152.934 100.712 152.963 100.703 152.99C100.693 153.017 100.678 153.042 100.659 153.064C100.64 153.085 100.616 153.103 100.59 153.115C100.564 153.127 100.535 153.134 100.506 153.135L100.491 153.12Z" fill="#979797"/>
<path d="M102.68 146.054C102.625 146.054 102.571 146.034 102.53 145.997C102.489 145.96 102.463 145.909 102.458 145.854L98.3028 92.6397C98.2987 92.5799 98.3181 92.5209 98.3569 92.4752C98.3957 92.4295 98.4508 92.4007 98.5106 92.3951C98.5398 92.393 98.5691 92.3968 98.5969 92.4062C98.6247 92.4155 98.6503 92.4303 98.6724 92.4496C98.6945 92.4689 98.7125 92.4923 98.7255 92.5186C98.7384 92.5449 98.7461 92.5734 98.748 92.6027L102.903 145.817C102.906 145.846 102.903 145.875 102.894 145.902C102.886 145.93 102.872 145.956 102.853 145.978C102.834 146 102.811 146.018 102.786 146.031C102.76 146.044 102.731 146.052 102.702 146.054H102.68Z" fill="#979797"/>
<path d="M97.3457 93.5588C97.2305 93.6162 97.1035 93.6461 96.9747 93.6461C96.846 93.6461 96.719 93.6162 96.6038 93.5588C96.5609 93.5403 96.5237 93.5105 96.4963 93.4727C96.4689 93.4348 96.4522 93.3903 96.448 93.3438V97.1177C96.4535 97.163 96.4707 97.206 96.4981 97.2424C96.5254 97.2788 96.5619 97.3074 96.6038 97.3253C96.7179 97.3864 96.8453 97.4183 96.9747 97.4183C97.1042 97.4183 97.2316 97.3864 97.3457 97.3253C97.3876 97.3074 97.4241 97.2788 97.4514 97.2424C97.4788 97.206 97.496 97.163 97.5015 97.1177V93.3438C97.4973 93.3903 97.4806 93.4348 97.4532 93.4727C97.4258 93.5105 97.3886 93.5403 97.3457 93.5588Z" fill="url(#paint48_linear)"/>
<path d="M93.9847 92.8689L97.9318 95.249L98.7924 92.2461L93.9847 92.8689Z" fill="#979797"/>
<path d="M97.9318 95.249V95.7235L98.7924 92.7132V92.2461L97.9318 95.249Z" fill="#979797"/>
<path d="M93.9847 92.8691V93.3363L97.9318 95.7238V95.2492L93.9847 92.8691Z" fill="#979797"/>
<path d="M97.3457 84.4679C97.5534 84.5791 97.5534 84.7719 97.3457 84.8905C97.2305 84.948 97.1035 84.9779 96.9747 84.9779C96.846 84.9779 96.719 84.948 96.6038 84.8905C96.3961 84.7719 96.3961 84.5791 96.6038 84.4679C96.7179 84.4069 96.8453 84.375 96.9747 84.375C97.1042 84.375 97.2316 84.4069 97.3457 84.4679Z" fill="url(#paint49_linear)"/>
<path d="M97.3457 84.8908C97.2305 84.9482 97.1035 84.9782 96.9747 84.9782C96.846 84.9782 96.719 84.9482 96.6038 84.8908C96.5613 84.8717 96.5246 84.8417 96.4973 84.804C96.4699 84.7663 96.4529 84.7221 96.448 84.6758V93.4472C96.4522 93.4937 96.4689 93.5382 96.4963 93.5761C96.5237 93.6139 96.5609 93.6437 96.6038 93.6622C96.7179 93.7232 96.8453 93.7551 96.9747 93.7551C97.1042 93.7551 97.2316 93.7232 97.3457 93.6622C97.3886 93.6437 97.4258 93.6139 97.4532 93.5761C97.4806 93.5382 97.4973 93.4937 97.5015 93.4472V84.6758C97.4966 84.7221 97.4796 84.7663 97.4522 84.804C97.4249 84.8417 97.3882 84.8717 97.3457 84.8908Z" fill="url(#paint50_linear)"/>
<path d="M97.6944 84.6158C97.6589 84.5186 97.5871 84.4389 97.4941 84.3934C97.3353 84.3132 97.16 84.2715 96.9821 84.2715C96.8043 84.2715 96.629 84.3132 96.4702 84.3934C96.3772 84.4389 96.3054 84.5186 96.2699 84.6158V84.69C96.277 84.7538 96.3006 84.8147 96.3383 84.8667C96.376 84.9187 96.4266 84.96 96.4851 84.9866C96.6438 85.0667 96.8192 85.1085 96.997 85.1085C97.1748 85.1085 97.3502 85.0667 97.5089 84.9866C97.5674 84.96 97.618 84.9187 97.6557 84.8667C97.6934 84.8147 97.717 84.7538 97.7241 84.69V84.6158H97.6944Z" fill="url(#paint51_linear)"/>
<path d="M97.4941 84.3426C97.5569 84.3627 97.6118 84.4023 97.6507 84.4556C97.6897 84.5089 97.7106 84.5732 97.7106 84.6392C97.7106 84.7052 97.6897 84.7695 97.6507 84.8228C97.6118 84.8761 97.5569 84.9157 97.4941 84.9358C97.3353 85.0159 97.16 85.0577 96.9821 85.0577C96.8043 85.0577 96.629 85.0159 96.4702 84.9358C96.4074 84.9157 96.3525 84.8761 96.3136 84.8228C96.2746 84.7695 96.2537 84.7052 96.2537 84.6392C96.2537 84.5732 96.2746 84.5089 96.3136 84.4556C96.3525 84.4023 96.4074 84.3627 96.4702 84.3426C96.629 84.2625 96.8043 84.2207 96.9821 84.2207C97.16 84.2207 97.3353 84.2625 97.4941 84.3426Z" fill="#979797"/>
<path d="M97.3309 84.2823C97.3736 84.2966 97.4108 84.324 97.4372 84.3606C97.4635 84.3972 97.4777 84.4411 97.4777 84.4862C97.4777 84.5313 97.4635 84.5752 97.4372 84.6118C97.4108 84.6484 97.3736 84.6758 97.3309 84.6901C97.2235 84.7472 97.1038 84.7771 96.9822 84.7771C96.8606 84.7771 96.7408 84.7472 96.6334 84.6901C96.5907 84.6758 96.5535 84.6484 96.5271 84.6118C96.5007 84.5752 96.4866 84.5313 96.4866 84.4862C96.4866 84.4411 96.5007 84.3972 96.5271 84.3606C96.5535 84.324 96.5907 84.2966 96.6334 84.2823C96.7408 84.2252 96.8606 84.1953 96.9822 84.1953C97.1038 84.1953 97.2235 84.2252 97.3309 84.2823Z" fill="#979797"/>
<path d="M97.3309 84.69C97.2235 84.7472 97.1038 84.777 96.9822 84.777C96.8606 84.777 96.7408 84.7472 96.6335 84.69C96.5929 84.6711 96.558 84.6421 96.532 84.6057C96.506 84.5693 96.4899 84.5269 96.4851 84.4824V84.6307C96.4851 84.7049 96.537 84.7716 96.6335 84.8309C96.7408 84.888 96.8606 84.9179 96.9822 84.9179C97.1038 84.9179 97.2235 84.888 97.3309 84.8309C97.4273 84.7716 97.4792 84.7049 97.4792 84.6307V84.4824C97.4745 84.5269 97.4583 84.5693 97.4323 84.6057C97.4063 84.6421 97.3714 84.6711 97.3309 84.69Z" fill="url(#paint52_linear)"/>
<defs>
<linearGradient id="paint0_linear" x1="26093.2" y1="15800.2" x2="28819.6" y2="15800.2" gradientUnits="userSpaceOnUse">
<stop stop-color="white"/>
<stop offset="1" stop-color="#D3D3D3"/>
</linearGradient>
<linearGradient id="paint1_linear" x1="21.8525" y1="172.38" x2="105.399" y2="127.599" gradientUnits="userSpaceOnUse">
<stop stop-color="white"/>
<stop offset="1" stop-color="#D4D4D4"/>
</linearGradient>
<linearGradient id="paint2_linear" x1="98.2011" y1="209.29" x2="133.523" y2="201.193" gradientUnits="userSpaceOnUse">
<stop stop-color="white"/>
<stop offset="1" stop-color="#D4D4D4"/>
</linearGradient>
<linearGradient id="paint3_linear" x1="17.3825" y1="169.281" x2="24.2835" y2="168.678" gradientUnits="userSpaceOnUse">
<stop stop-color="white"/>
<stop offset="1" stop-color="#D4D4D4"/>
</linearGradient>
<linearGradient id="paint4_linear" x1="16.8497" y1="206.029" x2="80.9193" y2="185.936" gradientUnits="userSpaceOnUse">
<stop stop-color="white"/>
<stop offset="1" stop-color="#D4D4D4"/>
</linearGradient>
<linearGradient id="paint5_linear" x1="44.1353" y1="142.456" x2="74.2374" y2="108.127" gradientUnits="userSpaceOnUse">
<stop stop-color="white"/>
<stop offset="1" stop-color="#D4D4D4"/>
</linearGradient>
<linearGradient id="paint6_linear" x1="-0.131292" y1="45.142" x2="104.732" y2="46.9928" gradientUnits="userSpaceOnUse">
<stop stop-color="#EC526E"/>
<stop offset="1" stop-color="#EC593D"/>
</linearGradient>
<linearGradient id="paint7_linear" x1="11.7214" y1="72.1289" x2="77.999" y2="36.672" gradientUnits="userSpaceOnUse">
<stop stop-color="white"/>
<stop offset="1" stop-color="#D4D4D4"/>
</linearGradient>
<linearGradient id="paint8_linear" x1="44.1355" y1="61.3257" x2="60.3603" y2="61.6122" gradientUnits="userSpaceOnUse">
<stop stop-color="#EC526E"/>
<stop offset="1" stop-color="#EC593D"/>
</linearGradient>
<linearGradient id="paint9_linear" x1="4670.72" y1="681.753" x2="4774" y2="681.753" gradientUnits="userSpaceOnUse">
<stop stop-color="white"/>
<stop offset="1" stop-color="#D3D3D3"/>
</linearGradient>
<linearGradient id="paint10_linear" x1="47.82" y1="47.561" x2="56.6537" y2="47.591" gradientUnits="userSpaceOnUse">
<stop stop-color="#EC526E"/>
<stop offset="1" stop-color="#EC593D"/>
</linearGradient>
<linearGradient id="paint11_linear" x1="6475.23" y1="939.686" x2="6676.73" y2="939.686" gradientUnits="userSpaceOnUse">
<stop stop-color="#E5E2DA"/>
<stop offset="0.29" stop-color="#E0DDD5"/>
<stop offset="0.66" stop-color="#D3CFC5"/>
<stop offset="1" stop-color="#C1BDB0"/>
</linearGradient>
<linearGradient id="paint12_linear" x1="6475.23" y1="933.979" x2="6676.73" y2="933.979" gradientUnits="userSpaceOnUse">
<stop stop-color="white"/>
<stop offset="1" stop-color="#D3D3D3"/>
</linearGradient>
<linearGradient id="paint13_linear" x1="4481.04" y1="642.278" x2="4575.67" y2="642.278" gradientUnits="userSpaceOnUse">
<stop stop-color="white"/>
<stop offset="1" stop-color="#D3D3D3"/>
</linearGradient>
<linearGradient id="paint14_linear" x1="4478.13" y1="500.819" x2="4572.7" y2="500.819" gradientUnits="userSpaceOnUse">
<stop stop-color="#E5E2DA"/>
<stop offset="0.29" stop-color="#E0DDD5"/>
<stop offset="0.66" stop-color="#D3CFC5"/>
<stop offset="1" stop-color="#C1BDB0"/>
</linearGradient>
<linearGradient id="paint15_linear" x1="4670.72" y1="486.658" x2="4774" y2="486.658" gradientUnits="userSpaceOnUse">
<stop stop-color="white"/>
<stop offset="1" stop-color="#D3D3D3"/>
</linearGradient>
<linearGradient id="paint16_linear" x1="47.82" y1="15.7606" x2="56.6525" y2="15.865" gradientUnits="userSpaceOnUse">
<stop stop-color="#EC526E"/>
<stop offset="1" stop-color="#EC593D"/>
</linearGradient>
<linearGradient id="paint17_linear" x1="12013" y1="6913.91" x2="13150.8" y2="6913.91" gradientUnits="userSpaceOnUse">
<stop stop-color="white"/>
<stop offset="1" stop-color="#D3D3D3"/>
</linearGradient>
<linearGradient id="paint18_linear" x1="12752.7" y1="4119.65" x2="12879.5" y2="4179.4" gradientUnits="userSpaceOnUse">
<stop stop-color="#E5E2DA"/>
<stop offset="0.43" stop-color="#E3E0D8"/>
<stop offset="0.59" stop-color="#DEDAD1"/>
<stop offset="0.7" stop-color="#D3D0C6"/>
<stop offset="0.79" stop-color="#C5C1B5"/>
<stop offset="0.81" stop-color="#C1BDB0"/>
</linearGradient>
<linearGradient id="paint19_linear" x1="14074.7" y1="4240.15" x2="13914.5" y2="4310.96" gradientUnits="userSpaceOnUse">
<stop offset="0.13" stop-color="#C1BDB0"/>
<stop offset="0.14" stop-color="#C2BEB1"/>
<stop offset="0.26" stop-color="#D2CEC3"/>
<stop offset="0.41" stop-color="#DDD9D0"/>
<stop offset="0.6" stop-color="#E3E0D8"/>
<stop offset="1" stop-color="#E5E2DA"/>
</linearGradient>
<linearGradient id="paint20_linear" x1="13836.7" y1="7097.68" x2="14803.6" y2="7097.68" gradientUnits="userSpaceOnUse">
<stop stop-color="white"/>
<stop offset="1" stop-color="#D3D3D3"/>
</linearGradient>
<linearGradient id="paint21_linear" x1="6475.23" y1="678.205" x2="6676.73" y2="678.205" gradientUnits="userSpaceOnUse">
<stop stop-color="#E5E2DA"/>
<stop offset="0.29" stop-color="#E0DDD5"/>
<stop offset="0.66" stop-color="#D3CFC5"/>
<stop offset="1" stop-color="#C1BDB0"/>
</linearGradient>
<linearGradient id="paint22_linear" x1="6476.25" y1="672.361" x2="6677.79" y2="672.361" gradientUnits="userSpaceOnUse">
<stop stop-color="white"/>
<stop offset="1" stop-color="#D3D3D3"/>
</linearGradient>
<linearGradient id="paint23_linear" x1="4481.04" y1="395.251" x2="4575.67" y2="395.251" gradientUnits="userSpaceOnUse">
<stop stop-color="white"/>
<stop offset="1" stop-color="#D3D3D3"/>
</linearGradient>
<linearGradient id="paint24_linear" x1="4478.13" y1="1036.72" x2="4572.7" y2="1036.72" gradientUnits="userSpaceOnUse">
<stop stop-color="#E5E2DA"/>
<stop offset="0.29" stop-color="#E0DDD5"/>
<stop offset="0.66" stop-color="#D3CFC5"/>
<stop offset="1" stop-color="#C1BDB0"/>
</linearGradient>
<linearGradient id="paint25_linear" x1="63.8634" y1="208.555" x2="70.9893" y2="207.329" gradientUnits="userSpaceOnUse">
<stop stop-color="white"/>
<stop offset="1" stop-color="#D4D4D4"/>
</linearGradient>
<linearGradient id="paint26_linear" x1="54.9159" y1="208.555" x2="62.0418" y2="207.329" gradientUnits="userSpaceOnUse">
<stop stop-color="white"/>
<stop offset="1" stop-color="#D4D4D4"/>
</linearGradient>
<linearGradient id="paint27_linear" x1="55.9032" y1="198.475" x2="67.3135" y2="192.372" gradientUnits="userSpaceOnUse">
<stop stop-color="white"/>
<stop offset="1" stop-color="#D4D4D4"/>
</linearGradient>
<linearGradient id="paint28_linear" x1="72.1923" y1="201.44" x2="75.4888" y2="201.036" gradientUnits="userSpaceOnUse">
<stop stop-color="white"/>
<stop offset="1" stop-color="#D4D4D4"/>
</linearGradient>
<linearGradient id="paint29_linear" x1="64.2948" y1="193.779" x2="72.5153" y2="189.409" gradientUnits="userSpaceOnUse">
<stop stop-color="white"/>
<stop offset="1" stop-color="#D4D4D4"/>
</linearGradient>
<linearGradient id="paint30_linear" x1="37.2729" y1="193.209" x2="44.3987" y2="191.982" gradientUnits="userSpaceOnUse">
<stop stop-color="white"/>
<stop offset="1" stop-color="#D4D4D4"/>
</linearGradient>
<linearGradient id="paint31_linear" x1="28.3254" y1="193.209" x2="35.4511" y2="191.982" gradientUnits="userSpaceOnUse">
<stop stop-color="white"/>
<stop offset="1" stop-color="#D4D4D4"/>
</linearGradient>
<linearGradient id="paint32_linear" x1="29.3127" y1="183.126" x2="40.7194" y2="177.021" gradientUnits="userSpaceOnUse">
<stop stop-color="white"/>
<stop offset="1" stop-color="#D4D4D4"/>
</linearGradient>
<linearGradient id="paint33_linear" x1="45.6019" y1="186.098" x2="48.8985" y2="185.695" gradientUnits="userSpaceOnUse">
<stop stop-color="white"/>
<stop offset="1" stop-color="#D4D4D4"/>
</linearGradient>
<linearGradient id="paint34_linear" x1="37.7044" y1="178.439" x2="45.9248" y2="174.069" gradientUnits="userSpaceOnUse">
<stop stop-color="white"/>
<stop offset="1" stop-color="#D4D4D4"/>
</linearGradient>
<linearGradient id="paint35_linear" x1="17848.3" y1="7304.6" x2="19037.8" y2="7304.6" gradientUnits="userSpaceOnUse">
<stop stop-color="white"/>
<stop offset="1" stop-color="#D3D3D3"/>
</linearGradient>
<linearGradient id="paint36_linear" x1="81.3524" y1="168.998" x2="110.689" y2="153.304" gradientUnits="userSpaceOnUse">
<stop stop-color="white"/>
<stop offset="1" stop-color="#D4D4D4"/>
</linearGradient>
<linearGradient id="paint37_linear" x1="101.821" y1="172.544" x2="117.322" y2="165.322" gradientUnits="userSpaceOnUse">
<stop stop-color="white"/>
<stop offset="1" stop-color="#D4D4D4"/>
</linearGradient>
<linearGradient id="paint38_linear" x1="78.8138" y1="172.544" x2="94.3153" y2="165.322" gradientUnits="userSpaceOnUse">
<stop stop-color="white"/>
<stop offset="1" stop-color="#D4D4D4"/>
</linearGradient>
<linearGradient id="paint39_linear" x1="85.7448" y1="154.033" x2="106.679" y2="142.832" gradientUnits="userSpaceOnUse">
<stop stop-color="white"/>
<stop offset="1" stop-color="#D4D4D4"/>
</linearGradient>
<linearGradient id="paint40_linear" x1="100.073" y1="146.602" x2="109.204" y2="142.062" gradientUnits="userSpaceOnUse">
<stop stop-color="white"/>
<stop offset="1" stop-color="#D4D4D4"/>
</linearGradient>
<linearGradient id="paint41_linear" x1="86.184" y1="146.602" x2="95.3156" y2="142.062" gradientUnits="userSpaceOnUse">
<stop stop-color="white"/>
<stop offset="1" stop-color="#D4D4D4"/>
</linearGradient>
<linearGradient id="paint42_linear" x1="88.5433" y1="153.148" x2="104.902" y2="144.399" gradientUnits="userSpaceOnUse">
<stop stop-color="white"/>
<stop offset="1" stop-color="#D4D4D4"/>
</linearGradient>
<linearGradient id="paint43_linear" x1="100.352" y1="165.87" x2="113.119" y2="162.888" gradientUnits="userSpaceOnUse">
<stop stop-color="white"/>
<stop offset="1" stop-color="#D4D4D4"/>
</linearGradient>
<linearGradient id="paint44_linear" x1="83.9331" y1="165.87" x2="96.6998" y2="162.888" gradientUnits="userSpaceOnUse">
<stop stop-color="white"/>
<stop offset="1" stop-color="#D4D4D4"/>
</linearGradient>
<linearGradient id="paint45_linear" x1="3617.27" y1="1103.03" x2="3662.75" y2="1103.03" gradientUnits="userSpaceOnUse">
<stop stop-color="white"/>
<stop offset="1" stop-color="#D3D3D3"/>
</linearGradient>
<linearGradient id="paint46_linear" x1="1872.96" y1="2719.13" x2="1884.33" y2="2719.13" gradientUnits="userSpaceOnUse">
<stop stop-color="white"/>
<stop offset="1" stop-color="#D3D3D3"/>
</linearGradient>
<linearGradient id="paint47_linear" x1="104.937" y1="161.074" x2="107.298" y2="160.834" gradientUnits="userSpaceOnUse">
<stop stop-color="white"/>
<stop offset="1" stop-color="#D4D4D4"/>
</linearGradient>
<linearGradient id="paint48_linear" x1="96.4441" y1="94.8558" x2="97.5071" y2="94.8586" gradientUnits="userSpaceOnUse">
<stop stop-color="#EC526E"/>
<stop offset="1" stop-color="#EC593D"/>
</linearGradient>
<linearGradient id="paint49_linear" x1="721.888" y1="199.575" x2="723.363" y2="199.575" gradientUnits="userSpaceOnUse">
<stop stop-color="white"/>
<stop offset="1" stop-color="#D3D3D3"/>
</linearGradient>
<linearGradient id="paint50_linear" x1="96.4441" y1="88.045" x2="97.5071" y2="88.0463" gradientUnits="userSpaceOnUse">
<stop stop-color="#EC526E"/>
<stop offset="1" stop-color="#EC593D"/>
</linearGradient>
<linearGradient id="paint51_linear" x1="959.17" y1="244.248" x2="962.02" y2="244.248" gradientUnits="userSpaceOnUse">
<stop stop-color="#EB526E"/>
<stop offset="1" stop-color="#EB593D"/>
</linearGradient>
<linearGradient id="paint52_linear" x1="686.716" y1="167.708" x2="688.049" y2="167.708" gradientUnits="userSpaceOnUse">
<stop stop-color="#EB526E"/>
<stop offset="1" stop-color="#EB593D"/>
</linearGradient>
</defs>
</svg>
