<svg width="61" height="53" viewBox="0 0 61 53" fill="none" xmlns="http://www.w3.org/2000/svg">
<path fill-rule="evenodd" clip-rule="evenodd" d="M58.7935 17.9136L55.7502 15.2999C55.3728 14.9751 54.8018 15.0138 54.4754 15.3927C54.1491 15.7677 54.1905 16.3361 54.5686 16.6609L57.6115 19.2746C58.6965 20.2103 58.8163 21.8459 57.8787 22.9246L38.1116 45.6828C37.7853 46.0579 37.8267 46.6263 38.2044 46.951C38.3753 47.098 38.5861 47.1714 38.7952 47.1714C39.0489 47.1714 39.301 47.067 39.4796 46.8621L59.2463 24.1C60.8358 22.2712 60.6324 19.495 58.7935 17.9136Z" fill="white"/>
<path fill-rule="evenodd" clip-rule="evenodd" d="M53.4335 13.1193L39.4383 1.06353C38.5528 0.301829 37.4219 -0.0732096 36.2546 0.0118534C35.0873 0.0969164 34.0229 0.630495 33.2577 1.51206L31.9241 3.05092C31.5993 3.42597 31.6407 3.99048 32.0165 4.31527C32.392 4.63619 32.9592 4.59753 33.2836 4.22248L34.6171 2.68357C35.0687 2.16159 35.6967 1.84844 36.3853 1.79817C37.0739 1.74791 37.7409 1.96829 38.2632 2.42067L52.2584 14.4764C52.4282 14.6194 52.6373 14.6929 52.8453 14.6929C53.0974 14.6929 53.348 14.5885 53.5259 14.3836C53.8503 14.0085 53.8089 13.4441 53.4335 13.1193Z" fill="white"/>
<path fill-rule="evenodd" clip-rule="evenodd" d="M44.943 9.93702L20.6313 1.77485C18.3307 1.00541 15.8322 2.24658 15.0604 4.55101L14.7399 5.50603C14.5813 5.98161 14.8358 6.49197 15.3082 6.65049C15.7807 6.80902 16.2923 6.55384 16.4508 6.08213L16.7713 5.12325C17.2264 3.76611 18.7003 3.03148 20.0579 3.48773L44.3696 11.6499C45.7268 12.1023 46.4602 13.5793 46.0052 14.9364L34.6937 48.6871C34.5352 49.1588 34.7896 49.673 35.2621 49.8316C35.3572 49.8625 35.4539 49.878 35.549 49.878C35.9264 49.878 36.2778 49.6383 36.4043 49.2632L47.7161 15.5125C48.4874 13.2081 47.2436 10.7103 44.943 9.93702Z" fill="white"/>
<path fill-rule="evenodd" clip-rule="evenodd" d="M30.0156 7.73438H4.39621C1.9723 7.73438 0 9.71403 0 12.1422V47.7913C0 50.2195 1.9723 52.1991 4.39621 52.1991H30.0156C32.4395 52.1991 34.4118 50.2195 34.4118 47.7913V12.1422C34.4118 9.71403 32.4395 7.73438 30.0156 7.73438ZM32.6089 47.7913C32.6089 49.2258 31.4455 50.3896 30.0156 50.3896H4.39621C2.96599 50.3896 1.80295 49.2258 1.80295 47.7913V12.1422C1.80295 10.7077 2.96638 9.54392 4.39621 9.54392H30.0156C31.4459 9.54392 32.6089 10.7077 32.6089 12.1422V47.7913Z" fill="white"/>
<path fill-rule="evenodd" clip-rule="evenodd" d="M30.4092 32.8652H3.61595C3.11369 32.8652 2.70654 33.2132 2.70654 33.6385C2.70654 34.0638 3.11369 34.4118 3.61595 34.4118H30.4092C30.9115 34.4118 31.3186 34.0638 31.3186 33.6385C31.3186 33.2132 30.9115 32.8652 30.4092 32.8652Z" fill="white"/>
<path fill-rule="evenodd" clip-rule="evenodd" d="M26.1515 37.8916H14.8335C14.3285 37.8916 13.9194 38.3246 13.9194 38.8582C13.9194 39.3918 14.3285 39.8249 14.8335 39.8249H26.1515C26.6564 39.8249 27.0655 39.3918 27.0655 38.8582C27.0655 38.3246 26.6564 37.8916 26.1515 37.8916Z" fill="white"/>
<path fill-rule="evenodd" clip-rule="evenodd" d="M11.8563 37.8916H7.86293C7.36415 37.8916 6.95972 38.3246 6.95972 38.8582C6.95972 39.3918 7.36415 39.8249 7.86293 39.8249H11.8563C12.355 39.8249 12.7595 39.3918 12.7595 38.8582C12.7595 38.3246 12.355 37.8916 11.8563 37.8916Z" fill="white"/>
<path fill-rule="evenodd" clip-rule="evenodd" d="M26.1573 41.3721H7.86796C7.36647 41.3721 6.95972 41.8051 6.95972 42.3387C6.95972 42.8723 7.36647 43.3053 7.86796 43.3053H26.1573C26.6591 43.3053 27.0655 42.8723 27.0655 42.3387C27.0655 41.8051 26.6591 41.3721 26.1573 41.3721Z" fill="white"/>
<path fill-rule="evenodd" clip-rule="evenodd" d="M26.1573 44.8516H7.86796C7.36647 44.8516 6.95972 45.2846 6.95972 45.8182C6.95972 46.3518 7.36647 46.7848 7.86796 46.7848H26.1573C26.6591 46.7848 27.0655 46.3518 27.0655 45.8182C27.0655 45.2846 26.6591 44.8516 26.1573 44.8516Z" fill="white"/>
<path fill-rule="evenodd" clip-rule="evenodd" d="M27.0211 18.1455C26.9139 17.813 26.629 17.5694 26.286 17.5191L20.4426 16.6646L17.8292 11.3365C17.6757 11.0233 17.3594 10.8262 17.0126 10.8262C16.6662 10.8262 16.3495 11.0233 16.196 11.3365L13.5826 16.6646L7.73921 17.5191C7.39625 17.5694 7.11129 17.813 7.00419 18.1455C6.89708 18.4741 6.9864 18.8414 7.23463 19.0811L11.463 23.2299L10.4651 29.0876C10.4063 29.4318 10.5467 29.7798 10.8274 29.9847C10.9859 30.1007 11.1738 30.1587 11.3625 30.1587C11.5075 30.1587 11.6529 30.1239 11.7863 30.0543L17.0126 27.2897L22.2394 30.0543C22.546 30.2167 22.9175 30.1896 23.1982 29.9847C23.4786 29.7798 23.6189 29.4318 23.5605 29.0876L22.5622 23.2299L26.7906 19.0811C27.0388 18.8414 27.1282 18.4741 27.0211 18.1455ZM20.9483 22.2556C20.7337 22.4644 20.6355 22.7698 20.6862 23.0675L21.4537 27.5681L17.4364 25.4416C17.1711 25.3024 16.8541 25.3024 16.5889 25.4416L12.5716 27.5681L13.3391 23.0675C13.3897 22.7698 13.2915 22.4644 13.0769 22.2556L9.82712 19.0657L14.3184 18.4084C14.615 18.3658 14.8713 18.1802 15.004 17.9096L17.0126 13.8111L19.0209 17.9096C19.1535 18.1802 19.4102 18.3658 19.7068 18.4084L24.1981 19.0657L20.9483 22.2556Z" fill="white"/>
</svg>
