<svg width="61" height="45" viewBox="0 0 61 45" fill="none" xmlns="http://www.w3.org/2000/svg">
<path fill-rule="evenodd" clip-rule="evenodd" d="M53.2618 19.9825C51.2338 18.9579 47.4318 18.9463 47.271 18.9463C46.7889 18.9463 46.3979 19.3407 46.3979 19.8279C46.3979 20.315 46.7889 20.7094 47.271 20.7094C48.2519 20.7094 51.1004 20.8641 52.4807 21.56C52.6064 21.6219 52.7394 21.6528 52.8705 21.6528C53.1906 21.6528 53.4992 21.475 53.6519 21.1657C53.8676 20.7287 53.6929 20.1991 53.2618 19.9825Z" fill="white"/>
<path fill-rule="evenodd" clip-rule="evenodd" d="M57.6209 32.6487L53.9721 31.6009C53.8143 31.5545 53.7041 31.4076 53.7041 31.2452V30.0234C54.0011 29.8146 54.2845 29.5826 54.549 29.3274C55.8322 28.0746 56.5386 26.4005 56.5386 24.6025V22.9167L56.8913 22.2091C57.2787 21.4281 57.4832 20.5582 57.4832 19.6882V15.118C57.4832 14.627 57.0877 14.2287 56.5997 14.2287H48.0973C45.0057 14.2287 42.4901 16.7574 42.4901 19.8622V19.9125C42.4901 20.6355 42.6602 21.3624 42.9823 22.0081L43.4347 22.9167V24.3667C43.4347 26.6634 44.5618 28.7242 46.2688 29.9615L46.2692 31.2452C46.2692 31.4424 46.2692 31.5235 45.5396 31.7323L43.7591 32.2427L38.6085 30.3636C38.6267 30.12 38.5451 29.8726 38.3676 29.6831L36.7217 27.9471V25.0317C36.8957 24.8886 37.0674 24.7417 37.2336 24.5832C39.3099 22.6306 40.5004 19.8699 40.5004 17.0126V14.685C41.1276 13.3162 41.4454 11.8663 41.4454 10.3738V0.885443C41.4454 0.398264 41.0498 0 40.5619 0H27.3354C22.6809 0 18.8944 3.80078 18.8944 8.47538V10.3738C18.8944 11.8663 19.2119 13.3162 19.839 14.685V16.6878C19.839 20.0053 21.3075 22.994 23.6181 24.966V27.9471L21.9722 29.6831C21.7947 29.8726 21.7127 30.12 21.7313 30.3636L16.295 32.3471C15.901 32.4941 15.5352 32.6874 15.2027 32.9232L14.3493 32.4941C16.89 31.3844 17.695 29.8223 17.7341 29.745C17.8582 29.4937 17.8582 29.1998 17.7341 28.9485C17.0969 27.6725 17.0199 25.3256 16.9577 23.4426C16.9372 22.8162 16.9175 22.2208 16.8804 21.6949C16.5788 17.4379 13.3572 14.2287 9.38592 14.2287C5.41464 14.2287 2.19269 17.4379 1.89149 21.6949C1.85399 22.2208 1.83465 22.8162 1.81416 23.4426C1.75191 25.3256 1.67497 27.6725 1.03777 28.9485C0.913656 29.1998 0.913656 29.4937 1.03777 29.745C1.07644 29.8223 1.87989 31.3805 4.42598 32.4941L2.05505 33.6811C0.78722 34.319 0 35.5989 0 37.0217V43.5754C0 44.0665 0.395544 44.4647 0.883496 44.4647C1.37145 44.4647 1.76699 44.0665 1.76699 43.5754V37.0217C1.76699 36.2755 2.18032 35.6027 2.84535 35.2702L5.79781 33.7893L6.82476 34.7676C7.54315 35.4519 8.46415 35.796 9.38592 35.796C10.3073 35.796 11.2291 35.4519 11.9471 34.7676L12.9736 33.7893L13.9364 34.2726C13.4833 34.9995 13.2257 35.8541 13.2257 36.7472V43.5754C13.2257 44.0665 13.6217 44.4647 14.1096 44.4647C14.5976 44.4647 14.9931 44.0665 14.9931 43.5754V36.7472C14.9931 35.5293 15.7591 34.4312 16.8989 34.0174L22.6306 31.9218L25.0166 35.5177C25.3213 35.9778 25.81 36.2716 26.3575 36.3257C26.4186 36.3335 26.4793 36.3335 26.5397 36.3335C27.0226 36.3335 27.485 36.144 27.8307 35.796L29.286 34.3345V43.5754C29.286 44.0665 29.6816 44.4647 30.1699 44.4647C30.6575 44.4647 31.0534 44.0665 31.0534 43.5754V34.3345L32.5091 35.796C32.8544 36.144 33.3168 36.3335 33.7998 36.3335C33.8601 36.3335 33.9208 36.3335 33.9819 36.3257C34.529 36.2716 35.0181 35.9778 35.3232 35.5177L37.7092 31.9218L43.4405 34.0174C44.5803 34.4312 45.3463 35.5293 45.3463 36.7472V43.5793C45.3463 44.0665 45.7418 44.4647 46.2298 44.4647C46.7177 44.4647 47.1133 44.0665 47.1133 43.5793V36.7472C47.1133 35.5138 46.6253 34.3577 45.8068 33.5032L46.0249 33.4413C46.2453 33.3756 46.5457 33.2905 46.8473 33.1436L49.103 35.4055V43.5793C49.103 44.0665 49.4985 44.4647 49.9865 44.4647C50.4744 44.4647 50.87 44.0665 50.87 43.5793V35.4055L53.1102 33.1591C53.2293 33.2171 53.3546 33.2712 53.486 33.306L57.1356 34.3538C57.9685 34.5936 58.55 35.3669 58.55 36.2368V43.5793C58.55 44.0665 58.9459 44.4647 59.4339 44.4647C59.9218 44.4647 60.3174 44.0665 60.3174 43.5793V36.2368C60.3174 34.5781 59.2085 33.1049 57.6209 32.6487ZM5.66829 31.0789C4.01536 30.4835 3.18638 29.687 2.8326 29.2539C3.07387 28.6198 3.23046 27.8929 3.33602 27.1274C3.82358 28.3028 4.63941 29.3042 5.66829 30.0156V31.0789ZM10.7299 33.48C9.97634 34.1992 8.79551 34.1992 8.04232 33.48L7.22069 32.699C7.35911 32.436 7.43528 32.1422 7.43528 31.8329V30.8856C8.05198 31.0789 8.70697 31.1833 9.38592 31.1833C10.0645 31.1833 10.7191 31.0789 11.3366 30.8856V31.829C11.3366 32.1422 11.4127 32.436 11.5516 32.699L10.7299 33.48ZM9.38631 29.4086C6.74781 29.4086 4.60152 27.2549 4.60152 24.6025C4.60152 24.1154 4.20598 23.7171 3.71802 23.7171C3.66853 23.7171 3.6202 23.721 3.57303 23.7287C3.57574 23.6552 3.57806 23.5779 3.58077 23.5006C3.60048 22.8897 3.61943 22.3135 3.65423 21.8225C3.76713 20.2256 4.40162 18.7564 5.44055 17.6854C6.48914 16.6027 7.88998 16.0034 9.38592 16.0034C10.8823 16.0034 12.2831 16.6027 13.3317 17.6854C14.3706 18.7564 15.0051 20.2256 15.118 21.8225C15.1528 22.3135 15.1718 22.8897 15.1919 23.5006C15.1938 23.5547 15.1953 23.6049 15.1973 23.6591C14.2357 22.1705 12.7513 21.0763 10.8332 20.4577C9.06075 19.8854 7.53658 19.9202 7.4724 19.9241C7.24118 19.9279 7.02156 20.0246 6.86072 20.1947L5.26656 21.8535C4.92785 22.2053 4.9379 22.7698 5.28937 23.1101C5.64083 23.4465 6.19993 23.4387 6.53863 23.0868L7.86523 21.7027C9.00778 21.7607 12.6829 22.1899 14.1123 25.3488C13.7524 27.6803 11.7592 29.4086 9.38631 29.4086ZM13.1036 31.0828V30.0272C14.1317 29.3158 14.9487 28.3144 15.4362 27.1312C15.5422 27.8968 15.6988 28.6198 15.9393 29.2539C15.5874 29.6831 14.7546 30.4873 13.1036 31.0828ZM21.6064 16.6878V14.4878C21.6064 14.3563 21.5762 14.221 21.5182 14.1011C20.9499 12.9218 20.6614 11.6652 20.6614 10.3738V8.47538C20.6614 4.78288 23.6556 1.77471 27.3354 1.77471H39.6784V10.3738C39.6784 11.6652 39.39 12.9218 38.8212 14.1011C38.7636 14.221 38.7334 14.3563 38.7334 14.4878V17.0165C38.7334 19.4176 37.7718 21.6447 36.0249 23.2918C35.8069 23.4967 35.5807 23.6862 35.3468 23.8679C35.3413 23.8718 35.3363 23.8756 35.3313 23.8795C33.695 25.1245 31.691 25.7315 29.598 25.5962C25.1168 25.3023 21.6064 21.3933 21.6064 16.6878ZM26.581 34.5433C26.5748 34.5471 26.5609 34.5626 26.5319 34.5588C26.5029 34.5588 26.4917 34.5395 26.4871 34.5317L23.7391 30.3945L24.6234 29.4588L28.7919 32.32L26.581 34.5433ZM30.1699 31.1176L25.3851 27.8349V26.1762C26.6232 26.8489 28.0093 27.2704 29.4836 27.3671C29.7167 27.3826 29.948 27.3903 30.1788 27.3903C31.8685 27.3903 33.4943 26.9843 34.9547 26.2149V27.8349L30.1699 31.1176ZM33.8527 34.5317C33.8481 34.5395 33.8365 34.5588 33.8079 34.5588C33.7789 34.5626 33.765 34.5471 33.7588 34.5433L31.5479 32.3239L35.7164 29.4627L36.6007 30.3945L33.8527 34.5317ZM49.9865 33.7855L47.9813 31.771C48.0165 31.6125 48.0362 31.4385 48.0362 31.2452V30.8701C48.5926 31.0518 49.1788 31.1601 49.7858 31.1794C49.8539 31.1833 49.9211 31.1833 49.9892 31.1833C50.6596 31.1833 51.3142 31.0828 51.9371 30.8856V31.2452C51.9371 31.4231 51.9596 31.5932 52.0009 31.7633L49.9865 33.7855ZM53.3186 28.0515C52.3822 28.964 51.1449 29.4473 49.8388 29.4047C47.2819 29.3274 45.2017 27.0694 45.2017 24.3667V22.7079C45.2017 22.5687 45.17 22.4334 45.1085 22.3097L44.5626 21.2155C44.3627 20.8134 44.2571 20.361 44.2571 19.9125V19.8622C44.2571 17.7356 45.9796 16.0034 48.0973 16.0034H55.7163V19.6882C55.7163 20.2837 55.5759 20.883 55.3106 21.4127L54.8648 22.3097C54.8034 22.4334 54.7713 22.5687 54.7713 22.7079V24.6025C54.7713 25.9133 54.2555 27.139 53.3186 28.0515Z" fill="white"/>
<path fill-rule="evenodd" clip-rule="evenodd" d="M55.6776 37.1191C55.2503 37.1191 54.9043 37.5097 54.9043 37.993V43.5917C54.9043 44.075 55.2503 44.4655 55.6776 44.4655C56.1048 44.4655 56.4509 44.075 56.4509 43.5917V37.993C56.4509 37.5097 56.1048 37.1191 55.6776 37.1191Z" fill="white"/>
<path fill-rule="evenodd" clip-rule="evenodd" d="M4.44661 38.2783C3.91264 38.2783 3.47998 38.6688 3.47998 39.1522V43.5909C3.47998 44.0742 3.91264 44.4647 4.44661 44.4647C4.98057 44.4647 5.41323 44.0742 5.41323 43.5909V39.1522C5.41323 38.6688 4.98057 38.2783 4.44661 38.2783Z" fill="white"/>
<path fill-rule="evenodd" clip-rule="evenodd" d="M37.2449 10.718C33.8841 7.40826 26.8522 8.04239 23.9844 8.4677C23.0812 8.59916 22.4258 9.35313 22.4258 10.2579V12.2723C22.4258 12.7556 22.8236 13.1462 23.3143 13.1462C23.805 13.1462 24.2032 12.7556 24.2032 12.2723V10.2579C24.2032 10.227 24.2229 10.1999 24.2496 10.196C25.3949 10.0259 27.6676 9.76298 30.0227 9.91764C32.7938 10.0994 34.8009 10.7876 35.9883 11.9553C36.3355 12.2955 36.8981 12.2955 37.2449 11.9553C37.5921 11.615 37.5921 11.0582 37.2449 10.718Z" fill="white"/>
<path fill-rule="evenodd" clip-rule="evenodd" d="M19.7191 39.0518C19.2919 39.0518 18.9458 39.4384 18.9458 39.914V43.6026C18.9458 44.0782 19.2919 44.4649 19.7191 44.4649C20.1463 44.4649 20.4924 44.0782 20.4924 43.6026V39.914C20.4924 39.4384 20.1463 39.0518 19.7191 39.0518Z" fill="white"/>
<path fill-rule="evenodd" clip-rule="evenodd" d="M40.5983 39.0518C40.171 39.0518 39.825 39.4384 39.825 39.914V43.6026C39.825 44.0782 40.171 44.4649 40.5983 44.4649C41.0255 44.4649 41.3716 44.0782 41.3716 43.6026V39.914C41.3716 39.4384 41.0255 39.0518 40.5983 39.0518Z" fill="white"/>
</svg>
