<svg width="57" height="57" viewBox="0 0 57 57" fill="none" xmlns="http://www.w3.org/2000/svg">
<path fill-rule="evenodd" clip-rule="evenodd" d="M25.5866 38.5645L31.6763 33.4994C33.2971 32.1577 35.5088 31.771 37.4896 32.4863L43.8855 34.8062C44.1968 34.9222 44.5254 34.9802 44.8568 34.9802H56.8375V33.0895H51.1542V2.838C51.1522 1.27206 49.8809 0 48.3123 0H8.5264C6.95777 0 5.68646 1.27206 5.68453 2.838V33.0818L0.00154575 33.0779L0.000389387 34.9686L14.8485 34.9802H14.8508C15.1563 34.9802 15.4594 34.9299 15.749 34.8333L23.6908 32.1925C23.7875 32.1577 23.8884 32.1422 23.9905 32.1422H30.3501L24.374 37.1106C22.8363 38.3827 22.6233 40.6601 23.8973 42.1951C25.1717 43.7262 27.451 43.9389 28.9883 42.6707C28.9933 42.6629 28.998 42.6591 29.003 42.6552L32.1503 40.0376L40.5375 48.4085C40.9528 48.8223 40.9536 49.495 40.5387 49.9087C40.1242 50.3225 39.4518 50.3225 39.0366 49.9087C39.0362 49.9087 39.0358 49.9087 39.0354 49.9087L38.0881 48.9615L31.9311 42.8176L30.5913 44.1554L36.7488 50.2993C37.1636 50.713 37.1644 51.3858 36.7495 51.7995C36.335 52.2132 35.6627 52.2132 35.2474 51.7995C35.247 51.7995 35.247 51.7995 35.2466 51.7995L34.2993 50.8522L30.0365 46.5991L28.6968 47.9368L32.9596 52.19C33.3745 52.6037 33.3752 53.2765 32.9607 53.6902C32.5459 54.1039 31.8735 54.1039 31.4586 53.6902C31.4578 53.6902 31.4578 53.6902 31.4575 53.6902L29.5629 51.7995L28.5181 50.7555C28.3731 49.2901 27.1641 48.1573 25.6882 48.1031C25.6318 46.5604 24.3918 45.3231 22.8464 45.2651C22.7841 43.6373 21.41 42.3652 19.7775 42.431C19.4856 42.4387 19.1964 42.4928 18.9203 42.5895C18.4246 41.039 16.762 40.1806 15.2069 40.6755C14.7569 40.8186 14.3478 41.0661 14.0137 41.3986L12.1192 43.2893C11.5647 43.8422 11.2538 44.5962 11.2546 45.3772L0.00193514 45.3656L0 47.2563L5.68453 47.2641V53.8874C5.68646 55.4533 6.95777 56.7215 8.5264 56.7215H17.9993V54.8308H8.5264C8.00365 54.8308 7.57989 54.4094 7.57911 53.8874V47.2641L11.9405 47.2679C11.9966 47.3337 12.0561 47.3994 12.1192 47.4651C12.6458 47.991 13.3533 48.3003 14.0992 48.3274C14.156 49.8662 15.3956 51.1035 16.9411 51.1615C17.0037 52.7893 18.3775 54.0614 20.0099 53.9995C20.3018 53.9879 20.591 53.9338 20.8671 53.8371C21.3636 55.3915 23.0273 56.2459 24.5832 55.751C24.7243 55.7085 24.8616 55.6505 24.9942 55.5848L25.3812 55.9714C26.5346 57.1237 28.4056 57.1275 29.5602 55.9753C29.8184 55.7163 30.0268 55.4146 30.1745 55.0821C31.3573 56.2034 33.2268 56.1532 34.3508 54.9739C34.6585 54.653 34.889 54.2624 35.0239 53.8371C36.5651 54.3746 38.2501 53.5626 38.7872 52.0238C38.7965 51.9967 38.805 51.9735 38.8131 51.9464C40.3554 52.4838 42.0412 51.668 42.5783 50.1292C42.7948 49.5105 42.7975 48.8377 42.5864 48.2152H44.317C45.257 48.2152 46.1757 47.9369 46.9555 47.411L48.3606 46.4714C48.5168 46.367 48.7009 46.3129 48.8888 46.3129H49.2596V53.8874C49.2588 54.4094 48.835 54.8308 48.3123 54.8308H38.8394V56.7215H48.3123C49.8809 56.7215 51.1522 55.4533 51.1542 53.8874V46.3129H56.8375V44.4222H48.8888C48.3247 44.4222 47.7737 44.5885 47.3058 44.9017L45.9 45.8412C45.4321 46.1583 44.8812 46.3245 44.317 46.3245H41.1264L36.2476 41.4527C37.8886 41.503 39.4928 40.9656 40.7738 39.941L41.3255 39.5002L40.1424 38.0231L39.5902 38.4639C37.5858 40.0647 34.6929 39.9061 32.8784 38.0928L32.2667 37.4818L27.7901 41.2053C27.0597 41.8123 25.9748 41.7118 25.3662 40.9849C24.7584 40.2541 24.8569 39.1715 25.5866 38.5645ZM23.9905 30.2515C23.685 30.2515 23.3815 30.3017 23.0919 30.3984L15.1497 33.0392C15.0534 33.0701 14.9525 33.0895 14.8508 33.0895H14.8501L7.57911 33.0818V2.838C7.57989 2.31602 8.00365 1.89072 8.5264 1.89072H48.3123C48.835 1.89072 49.2588 2.31602 49.2596 2.838V33.0895H44.8568C44.7466 33.0895 44.6368 33.0702 44.5332 33.0315L38.1372 30.7116C37.1493 30.352 36.0992 30.1974 35.0502 30.2554V30.2515H23.9905ZM14.2102 46.4366C13.6236 46.4366 13.148 45.9649 13.148 45.3772C13.148 45.095 13.2598 44.8282 13.4589 44.6271L15.3535 42.7364C15.7687 42.3227 16.4411 42.3227 16.8556 42.7403C17.2697 43.154 17.2697 43.8229 16.8556 44.2366L14.961 46.1273C14.7623 46.3284 14.492 46.4366 14.2102 46.4366ZM17.052 49.2746C16.4651 49.2746 15.9895 48.7991 15.9899 48.2152C15.9899 47.933 16.1016 47.6623 16.3008 47.4651L18.1954 45.5744L19.1427 44.6271C19.5579 44.2134 20.2303 44.2134 20.6448 44.631C21.0589 45.0447 21.0589 45.7136 20.6448 46.1273L17.8029 48.9615C17.6042 49.1625 17.3339 49.2746 17.052 49.2746ZM20.6448 51.7995C20.2295 52.2132 19.5571 52.2132 19.1427 51.7995C18.7285 51.3858 18.7285 50.713 19.1427 50.2993L21.9845 47.4651C22.3998 47.0514 23.0722 47.0514 23.4867 47.4651C23.9008 47.8789 23.9008 48.5478 23.4867 48.9615L21.5921 50.8522L20.6448 51.7995ZM24.434 53.6902C24.0187 54.1039 23.3463 54.1039 22.9318 53.6902C22.5177 53.2765 22.5177 52.6037 22.9318 52.19L24.8264 50.2993C25.2417 49.8856 25.914 49.8856 26.3285 50.3031C26.7426 50.7169 26.7426 51.3858 26.3285 51.7995L24.434 53.6902ZM28.2231 54.6336C27.8082 55.0512 27.1359 55.0512 26.721 54.6375V54.6336L26.4434 54.3591L27.6683 53.1373C27.7607 53.0445 27.8473 52.944 27.9266 52.8396L28.2231 53.1373C28.6372 53.551 28.6372 54.2199 28.2231 54.6336Z" fill="white"/>
<path fill-rule="evenodd" clip-rule="evenodd" d="M10.4396 22.8125H22.0391V24.7457H10.4396V22.8125Z" fill="white"/>
<path fill-rule="evenodd" clip-rule="evenodd" d="M13.5327 26.6787H18.1725V28.612H13.5327V26.6787Z" fill="white"/>
<path fill-rule="evenodd" clip-rule="evenodd" d="M35.1852 22.8125H46.398V24.7457H35.1852V22.8125Z" fill="white"/>
<path fill-rule="evenodd" clip-rule="evenodd" d="M37.8917 26.6787H42.9182V28.612H37.8917V26.6787Z" fill="white"/>
<path fill-rule="evenodd" clip-rule="evenodd" d="M22.0391 4.63965H35.1852V6.5729H22.0391V4.63965Z" fill="white"/>
<path fill-rule="evenodd" clip-rule="evenodd" d="M10.4396 9.66602H46.398V11.2126H10.4396V9.66602Z" fill="white"/>
<path fill-rule="evenodd" clip-rule="evenodd" d="M10.4396 13.1465H46.398V15.0797H10.4396V13.1465Z" fill="white"/>
<path fill-rule="evenodd" clip-rule="evenodd" d="M10.4396 17.0127H30.5454V18.9459H10.4396V17.0127Z" fill="white"/>
</svg>
