<svg width="48" height="48" viewBox="0 0 48 48" fill="none" xmlns="http://www.w3.org/2000/svg">
<path d="M23.7601 47.999C36.8824 47.999 47.5201 37.3293 47.5201 24.1675C47.5201 11.0057 36.8824 0.335938 23.7601 0.335938C10.6377 0.335938 0 11.0057 0 24.1675C0 37.3293 10.6377 47.999 23.7601 47.999Z" fill="url(#paint0_linear)"/>
<path d="M19.407 35.0673C18.6324 35.0673 18.7627 34.7785 18.5022 34.0428L16.2331 26.5894L33.659 16.2207" fill="#CAD9E7"/>
<path d="M19.407 35.0663C19.6301 35.0626 19.8497 35.0096 20.0499 34.9109C20.2502 34.8123 20.4263 34.6705 20.5656 34.4956L23.7327 31.4015L19.8115 29.0156" fill="#AEC7DA"/>
<path d="M19.8115 29.0167L29.4088 36.1125C30.5056 36.7176 31.2939 36.4013 31.5681 35.0949L35.4619 16.6746C35.8595 15.0657 34.8518 14.3368 33.8098 14.8182L10.8929 23.6673C9.32993 24.293 9.33678 25.1662 10.605 25.5582L16.4525 27.4009L30.0806 18.7924C30.7181 18.4004 31.3076 18.6136 30.8278 19.0399" fill="url(#paint1_linear)"/>
<defs>
<linearGradient id="paint0_linear" x1="30.9032" y1="7.72055" x2="19.3272" y2="35.7494" gradientUnits="userSpaceOnUse">
<stop stop-color="#5AABDC"/>
<stop offset="1" stop-color="#4694C2"/>
</linearGradient>
<linearGradient id="paint1_linear" x1="26.0646" y1="25.7142" x2="29.4267" y2="33.707" gradientUnits="userSpaceOnUse">
<stop stop-color="#EFF6FA"/>
<stop offset="1" stop-color="white"/>
</linearGradient>
</defs>
</svg>
