<svg width="329" height="458" viewBox="0 0 329 458" fill="none" xmlns="http://www.w3.org/2000/svg">
<g style="mix-blend-mode:multiply" opacity="0.2">
<path d="M39.8634 323.238C-13.2877 353.952 -13.2877 403.735 39.8634 434.45C93.0146 465.164 179.278 465.164 232.429 434.45C285.58 403.735 285.637 353.952 232.429 323.238C179.221 292.523 93.0716 292.808 39.8634 323.238Z" fill="#9462BD"/>
</g>
<path d="M265.713 359.15L265.314 370.168C265.314 387.866 253.896 405.564 230.375 419.038C183.618 446.27 107.459 446.27 60.3595 419.038C36.667 405.393 24.8491 387.409 24.9062 369.483L25.3059 358.465C25.3059 376.391 37.0665 394.375 60.8161 408.019C107.916 435.251 184.017 435.251 230.774 408.019C254.067 394.546 265.656 376.848 265.713 359.15Z" fill="#D8DFE9"/>
<path d="M265.714 359.15L265.315 370.169C265.303 372.833 265.035 375.491 264.515 378.104L264.915 367.086C265.463 364.477 265.731 361.816 265.714 359.15Z" fill="#D8DFE9"/>
<path d="M264.915 367.076L264.516 378.094C261.604 392.71 250.7 406.64 231.86 418.058L232.26 407.039C251.099 395.621 262.004 381.577 264.915 367.076Z" fill="#D8DFE9"/>
<path d="M232.26 407.168L231.86 418.186L230.376 419.043C222.043 423.792 213.218 427.62 204.057 430.461L204.457 419.442C213.618 416.602 222.442 412.773 230.775 408.024L232.26 407.168Z" fill="#D8DFE9"/>
<path d="M204.456 419.607L204.056 430.626C179.63 438.231 153.952 440.985 128.469 438.733L128.868 427.714C154.352 429.97 180.03 427.216 204.456 419.607Z" fill="#D8DFE9"/>
<path d="M128.869 427.715L128.469 438.734C104.6 437.222 81.3522 430.498 60.3602 419.038C36.6677 405.393 24.8499 387.409 24.907 369.483L25.3066 358.465C25.3066 376.391 37.0673 394.375 60.8169 408.019C81.8063 419.436 105.026 426.157 128.869 427.715Z" fill="#D8DFE9"/>
<path d="M230.26 309.537C277.36 336.769 277.588 380.843 230.774 408.018C183.96 435.193 107.916 435.25 60.816 408.018C13.7165 380.786 13.431 336.769 60.2451 309.537C107.059 282.305 183.161 282.362 230.26 309.537Z" fill="#E8EEF4"/>
<path d="M232.316 339.057L232.03 360.294C232.03 373.311 223.467 386.27 206.397 396.204C172.143 416.129 116.251 416.129 81.7115 396.204C64.299 386.156 55.6212 372.968 55.6783 359.838L55.9637 338.543C55.9637 351.731 64.5844 364.919 81.9969 374.909C116.537 394.891 172.371 394.891 206.682 374.909C223.752 365.033 232.259 352.073 232.316 339.057Z" fill="#C1C8DC"/>
<path d="M232.315 339.063L232.03 360.3C232.007 362.219 231.797 364.131 231.402 366.009L231.744 344.715C232.1 342.832 232.291 340.922 232.315 339.006V339.063Z" fill="#C1C8DC"/>
<path d="M231.745 344.875L231.402 366.17C229.29 376.845 221.297 387.236 207.481 395.514L207.767 374.277C221.583 365.998 229.575 355.608 231.745 344.875Z" fill="#C1C8DC"/>
<path d="M207.768 374.281L207.482 395.519L206.397 396.204C200.26 399.691 193.773 402.523 187.044 404.653L187.386 383.416C194.105 381.28 200.574 378.428 206.683 374.909L207.768 374.281Z" fill="#C1C8DC"/>
<path d="M187.387 383.418L187.044 404.655C169.131 410.235 150.302 412.271 131.61 410.65L131.952 389.412C150.626 391.118 169.453 389.18 187.387 383.703V383.418Z" fill="#C1C8DC"/>
<path d="M131.951 389.408L131.608 410.646C114.131 409.476 97.1114 404.55 81.7115 396.202C64.2989 386.154 55.6212 372.966 55.6783 359.836L55.9637 338.541C55.9637 351.729 64.5843 364.917 81.9969 374.907C97.3998 383.306 114.445 388.254 131.951 389.408Z" fill="#C1C8DC"/>
<path d="M206.283 302.687C240.822 322.669 240.994 354.982 206.682 374.907C172.371 394.831 116.536 394.888 81.9968 374.907C47.4571 354.925 47.2289 322.669 81.5973 302.687C115.966 282.706 171.743 282.763 206.283 302.687Z" fill="#D8DFE9"/>
<path d="M208.853 282.187V334.824C208.853 344.701 202.345 354.577 189.386 362.113C163.238 377.299 120.877 377.299 94.5013 362.113C81.2563 354.463 74.6338 344.415 74.6909 334.424V281.787C74.6909 291.835 81.2563 301.826 94.5013 309.476C120.763 324.662 163.01 324.662 189.386 309.476C202.345 301.94 208.853 292.063 208.853 282.187Z" fill="url(#paint0_linear_31_84745)"/>
<path d="M208.853 282.185V334.823C208.864 336.298 208.73 337.77 208.453 339.219V286.638C208.728 285.17 208.861 283.679 208.853 282.185Z" fill="url(#paint1_linear_31_84745)"/>
<path d="M208.454 286.641V339.221C207.137 344.018 204.832 348.488 201.686 352.342C198.539 356.196 194.622 359.35 190.185 361.6V308.963C194.62 306.724 198.537 303.582 201.684 299.737C204.83 295.892 207.137 291.431 208.454 286.641Z" fill="url(#paint2_linear_31_84745)"/>
<path d="M190.185 308.965V361.602L189.386 362.116C184.711 364.767 179.775 366.929 174.656 368.567V315.93C179.784 314.316 184.723 312.153 189.386 309.479L190.185 308.965Z" fill="url(#paint3_linear_31_84745)"/>
<path d="M174.657 315.924V368.561C161.018 372.779 146.69 374.311 132.467 373.071V320.491C146.693 321.712 161.021 320.161 174.657 315.924Z" fill="url(#paint4_linear_31_84745)"/>
<path d="M132.466 320.494V373.075C119.167 372.211 106.213 368.471 94.5006 362.113C81.2556 354.463 74.6331 344.415 74.6902 334.424V281.787C74.6902 291.835 81.2556 301.826 94.5006 309.476C106.22 315.827 119.167 319.585 132.466 320.494Z" fill="url(#paint5_linear_31_84745)"/>
<path d="M189.042 254.736C215.361 269.922 215.475 294.699 189.385 309.714C163.294 324.728 120.876 324.9 94.5002 309.714C68.1245 294.528 68.0674 269.75 94.1577 254.736C120.248 239.721 162.78 239.321 189.042 254.736Z" fill="url(#paint6_linear_31_84745)"/>
<path d="M224.328 281.96V288.526C224.328 300.344 216.506 312.104 201.035 321.125C169.807 339.279 119.053 339.279 87.6536 321.125C71.8396 311.99 63.9041 300.001 63.9612 288.069L64.2466 281.504C64.2466 293.436 72.068 305.425 87.882 314.559C119.339 332.657 170.092 332.657 201.263 314.559C216.507 305.539 224.271 293.721 224.328 281.96Z" fill="#C1C8DC"/>
<path d="M224.324 281.957V288.522C224.332 290.308 224.141 292.089 223.754 293.832L224.039 287.209C224.373 285.477 224.564 283.72 224.61 281.957H224.324Z" fill="#C1C8DC"/>
<path d="M223.755 287.209L223.469 293.831C221.898 299.551 219.153 304.881 215.408 309.481C211.663 314.082 207 317.851 201.718 320.55L202.003 313.984C207.294 311.282 211.962 307.505 215.707 302.894C219.453 298.283 222.194 292.941 223.755 287.209Z" fill="#C1C8DC"/>
<path d="M202.003 313.982L201.717 320.548L200.747 321.119C195.163 324.28 189.271 326.863 183.163 328.826L183.448 322.26C189.543 320.308 195.417 317.725 200.975 314.553L202.003 313.982Z" fill="#C1C8DC"/>
<path d="M183.448 322.264L183.163 328.829C166.871 333.895 149.748 335.737 132.752 334.253L133.037 327.687C150.034 329.171 167.157 327.329 183.448 322.264Z" fill="#C1C8DC"/>
<path d="M133.037 327.686L132.752 334.251C116.852 333.206 101.367 328.726 87.3652 321.121C71.5511 311.986 63.6156 299.997 63.6727 288.065L63.9583 281.5C63.9583 293.432 71.7796 305.421 87.5936 314.555C101.688 322.185 117.271 326.665 133.266 327.686H133.037Z" fill="#C1C8DC"/>
<path d="M200.632 249.022C232.032 267.177 232.203 296.578 200.974 314.733C169.746 332.888 119.05 332.831 87.5928 314.733C56.136 296.635 56.0219 267.177 87.2503 249.022C118.479 230.867 169.232 230.753 200.632 249.022Z" fill="#D8DFE9"/>
<path d="M103.178 291.902C103.05 292.386 103.029 292.893 103.118 293.386C103.207 293.879 103.403 294.346 103.692 294.755L99.5264 297.151C99.2474 296.738 99.0577 296.27 98.9693 295.779C98.8809 295.288 98.8957 294.784 99.0128 294.299L103.178 291.902Z" fill="#A4A9C2"/>
<path d="M99.0127 294.295L103.178 291.898C103.146 292.087 103.146 292.28 103.178 292.469L99.0127 294.865C98.9808 294.676 98.9808 294.484 99.0127 294.295Z" fill="#A4A9C2"/>
<path d="M98.8988 294.693L103.064 292.297C103.009 292.579 103.009 292.87 103.064 293.153L98.8988 295.549C98.842 295.267 98.842 294.976 98.8988 294.693Z" fill="#A4A9C2"/>
<path d="M98.9558 295.718L103.121 293.322C103.319 294.201 103.753 295.01 104.376 295.662L104.947 296.118L100.782 298.514C100.583 298.396 100.409 298.241 100.268 298.058C99.6091 297.425 99.1524 296.611 98.9558 295.718Z" fill="#A4A9C2"/>
<path d="M99.1272 293.946L103.292 291.492L103.178 291.892L99.0131 294.288L99.1272 293.946Z" fill="#A4A9C2"/>
<path d="M98.9543 293.203L103.12 290.807C103.094 291.034 103.094 291.264 103.12 291.491L98.9543 293.945V293.203Z" fill="#A4A9C2"/>
<path d="M98.9543 293.203L103.12 290.807L98.9543 293.203Z" fill="#A4A9C2"/>
<path d="M98.9543 293.273L103.12 290.877V291.505L98.9543 293.958V293.273Z" fill="#A4A9C2"/>
<path d="M74.8032 278.706L78.9707 276.308L103.006 290.181L98.8382 292.579L74.8032 278.706Z" fill="#A4A9C2"/>
<path d="M98.8403 292.578L103.006 290.182L103.12 290.752L98.9543 293.206L98.8403 292.578Z" fill="#A4A9C2"/>
<path d="M105.119 296.233C105.342 296.369 105.599 296.441 105.861 296.441C106.122 296.441 106.379 296.369 106.603 296.233L102.437 298.63C102.214 298.766 101.957 298.838 101.695 298.838C101.434 298.838 101.177 298.766 100.954 298.63C100.685 298.494 100.451 298.299 100.269 298.059C99.9781 297.793 99.7281 297.485 99.5272 297.146L103.693 294.75C103.89 295.076 104.119 295.382 104.377 295.663C104.596 295.888 104.846 296.08 105.119 296.233Z" fill="#A4A9C2"/>
<path d="M98.9561 295.722L103.121 293.326C103.32 294.205 103.754 295.014 104.377 295.665L104.947 296.122L100.782 298.518C100.583 298.4 100.409 298.245 100.268 298.062C99.6094 297.429 99.1526 296.615 98.9561 295.722Z" fill="#A4A9C2"/>
<path d="M100.782 298.525L104.947 296.129H105.461L101.353 298.525C101.165 298.571 100.969 298.571 100.782 298.525Z" fill="#A4A9C2"/>
<path d="M101.352 298.857L105.461 296.461C105.773 296.579 106.118 296.579 106.431 296.461L102.265 298.857C102.123 298.928 101.967 298.964 101.809 298.964C101.65 298.964 101.494 298.928 101.352 298.857Z" fill="#A4A9C2"/>
<path d="M106.604 296.405L102.438 298.801C102.665 298.669 102.844 298.47 102.952 298.231L107.06 295.777C106.975 296.028 106.816 296.246 106.604 296.405Z" fill="#A4A9C2"/>
<path d="M102.952 298.231L107.06 295.777C106.975 296.028 106.816 296.246 106.604 296.405L102.439 298.801C102.665 298.669 102.845 298.47 102.952 298.231Z" fill="#A4A9C2"/>
<path d="M103.979 295.552L108.145 293.156L107.06 295.781L102.952 298.234L103.979 295.552Z" fill="#A4A9C2"/>
<path d="M101.752 287.443L105.86 285.047L103.292 291.494L99.1269 293.948L101.752 287.443Z" fill="#A4A9C2"/>
<path d="M88.5052 236.634L92.6729 234.18L78.971 276.312L74.8035 278.71L88.5052 236.634Z" fill="#A4A9C2"/>
<path d="M90.9597 224.827L86.7946 227.223L90.9597 224.769V224.827Z" fill="#A4A9C2"/>
<path d="M86.7948 227.153L90.96 224.699L86.7948 227.096V227.153Z" fill="#A4A9C2"/>
<path d="M86.7926 227.156L90.96 224.701L92.6729 234.178L88.5052 236.633L86.7926 227.156Z" fill="#A4A9C2"/>
<path d="M86.7948 227.037L90.903 224.584L90.96 224.641L86.7948 227.094V227.037Z" fill="#A4A9C2"/>
<path d="M86.7948 227.033L90.903 224.58L90.96 224.637L86.7948 227.091V227.033Z" fill="#A4A9C2"/>
<path d="M90.9036 224.473L86.7383 226.926V226.641L90.9036 224.473Z" fill="#A4A9C2"/>
<path d="M86.7378 226.185L90.9031 223.789C90.8469 224.033 90.8469 224.287 90.9031 224.531L86.7378 226.984C86.7115 226.719 86.7115 226.451 86.7378 226.185Z" fill="#A4A9C2"/>
<path d="M90.9619 224.814C91.2332 226.003 91.9474 227.044 92.959 227.724L88.7937 230.121C88.28 229.797 87.838 229.373 87.4945 228.872C87.1511 228.372 86.9137 227.806 86.7968 227.211L90.9619 224.814Z" fill="#A4A9C2"/>
<path d="M86.7963 227.153L90.9614 224.699L86.7963 227.096V227.153Z" fill="#A4A9C2"/>
<path d="M86.7924 227.277L90.9575 224.881C91.2238 225.981 91.8706 226.951 92.7834 227.62L88.6181 230.073C87.7151 229.371 87.0726 228.387 86.7924 227.277Z" fill="#A4A9C2"/>
<path d="M88.6225 230.057L92.7878 227.603L88.6225 230V230.057Z" fill="#A4A9C2"/>
<path d="M90.903 224.134V224.59L86.7948 227.044C86.7671 226.873 86.7671 226.7 86.7948 226.53L90.96 224.134L86.7948 226.53C86.7671 226.398 86.7671 226.262 86.7948 226.131L90.903 223.734V224.134Z" fill="#A4A9C2"/>
<path d="M86.7859 226.188L90.894 223.734V224.019L86.7287 226.416L86.7859 226.188Z" fill="#A4A9C2"/>
<path d="M86.7287 226.201L90.894 223.805V224.432L86.7859 226.886C86.7582 226.716 86.7582 226.542 86.7859 226.372L86.7287 226.201Z" fill="#A4A9C2"/>
<path d="M90.9033 223.676L86.7951 226.129L90.8462 223.733L90.9033 223.676Z" fill="#A4A9C2"/>
<path d="M86.7951 226.127L90.9033 223.674L86.7951 226.127Z" fill="#A4A9C2"/>
<path d="M90.9033 223.733L86.7951 226.129L90.9033 223.676V223.733Z" fill="#A4A9C2"/>
<path d="M86.7951 226.188L90.9033 223.734V224.019L86.738 226.416L86.7951 226.188Z" fill="#A4A9C2"/>
<path d="M90.9605 223.506L86.8523 225.902L91.0176 223.506H90.9605Z" fill="#A4A9C2"/>
<path d="M86.7948 226.182L90.96 223.785C90.9276 223.935 90.9276 224.091 90.96 224.242L86.7948 226.638C86.7948 226.638 86.7948 226.638 86.7948 226.182Z" fill="#A4A9C2"/>
<path d="M90.9602 223.565H90.6178L90.0472 223.907H89.648L88.1073 224.82L87.0232 225.447L91.1313 222.994L90.9602 223.565Z" fill="#A4A9C2"/>
<path d="M86.8515 225.844L91.0168 223.447L86.8515 225.901V225.844Z" fill="#A4A9C2"/>
<path d="M90.8945 224.476L86.7292 226.872C86.699 226.55 86.699 226.225 86.7292 225.902L90.8945 223.506C90.8356 223.826 90.8356 224.155 90.8945 224.476Z" fill="#A4A9C2"/>
<path d="M86.7941 226.182L90.9592 223.785C90.9268 223.935 90.9268 224.091 90.9592 224.242L86.7941 226.638C86.7941 226.638 86.7941 226.638 86.7941 226.182Z" fill="#A4A9C2"/>
<path d="M86.7278 226.182L90.8931 223.785C90.8369 224.029 90.8369 224.283 90.8931 224.527L86.7278 226.98C86.7015 226.715 86.7015 226.447 86.7278 226.182Z" fill="#A4A9C2"/>
<path d="M91.473 231.667L95.6406 229.269L105.86 285.047L101.749 287.444L91.473 231.667Z" fill="#A4A9C2"/>
<path d="M126.47 246.344L122.305 248.797C122.076 248.917 121.821 248.98 121.563 248.98C121.304 248.98 121.05 248.917 120.821 248.797L124.986 246.401C125.215 246.528 125.474 246.591 125.736 246.58C125.998 246.57 126.252 246.488 126.47 246.344Z" fill="#A4A9C2"/>
<path d="M120.821 248.627L124.987 246.23H125.5L121.335 248.627H120.821Z" fill="#A4A9C2"/>
<path d="M121.335 249.025L125.5 246.629C125.813 246.742 126.156 246.742 126.47 246.629L122.305 249.082C121.992 249.201 121.647 249.201 121.335 249.082V249.025Z" fill="#A4A9C2"/>
<path d="M117.796 246.906L121.962 244.453L124.986 246.222L120.821 248.618L117.796 246.906Z" fill="#A4A9C2"/>
<path d="M126.472 246.337L122.307 248.79C122.503 248.639 122.659 248.444 122.763 248.22C122.836 247.958 122.836 247.682 122.763 247.421C122.818 247.119 122.818 246.81 122.763 246.508C122.8 246.319 122.8 246.126 122.763 245.937L126.929 243.541V244.112C126.956 244.415 126.956 244.721 126.929 245.024C126.96 245.29 126.96 245.558 126.929 245.823C126.823 246.03 126.665 246.207 126.472 246.337Z" fill="#A4A9C2"/>
<path d="M122.594 245.941L126.76 243.545V244.115L122.594 246.512C122.631 246.323 122.631 246.13 122.594 245.941Z" fill="#A4A9C2"/>
<path d="M122.819 246.74L126.984 244.344C127.012 244.571 127.012 244.801 126.984 245.028L122.819 247.425C122.847 247.197 122.847 246.968 122.819 246.74Z" fill="#A4A9C2"/>
<path d="M122.876 247.594L127.041 245.197C127.073 245.405 127.073 245.617 127.041 245.825C126.935 246.032 126.778 246.209 126.585 246.338L122.42 248.792C122.615 248.641 122.772 248.445 122.876 248.221C122.908 248.013 122.908 247.802 122.876 247.594Z" fill="#A4A9C2"/>
<path d="M103.977 295.554L108.144 293.156L148.051 316.221L143.883 318.618L103.977 295.554Z" fill="#A4A9C2"/>
<path d="M121.104 252.454L125.215 250.057L108.145 293.16L103.977 295.558L121.104 252.454Z" fill="#A4A9C2"/>
<path d="M122.762 248.228L126.927 245.832L125.216 250.054L121.107 252.451L122.762 248.228Z" fill="#A4A9C2"/>
<path d="M149.021 325.235C148.621 325.749 147.993 325.806 147.251 325.235L71.9488 281.789C71.2409 281.294 70.671 280.626 70.2932 279.848C69.9183 279.129 69.7976 278.304 69.9506 277.508L86.7924 226.183C86.7062 226.598 86.7062 227.025 86.7924 227.439L87.9912 233.948L88.505 236.916L74.8033 279.049L98.8383 292.865L88.505 236.916L86.7924 227.439C86.9053 228.044 87.1407 228.62 87.4844 229.131C87.828 229.641 88.2724 230.076 88.7904 230.408L91.4736 231.95L101.75 287.727L117.792 247.193L120.818 248.905C121.675 249.419 122.417 249.248 122.759 248.506C122.824 248.243 122.824 247.969 122.759 247.706C122.814 247.404 122.814 247.095 122.759 246.793L149.135 323.237C149.254 323.56 149.305 323.904 149.285 324.248C149.266 324.592 149.176 324.928 149.021 325.235ZM143.883 318.613L121.047 252.445L103.919 295.548L143.883 318.613Z" fill="#E8EEF4"/>
<path d="M86.793 226.183C86.7653 226.315 86.7653 226.451 86.793 226.583C86.7653 226.753 86.7653 226.926 86.793 227.096C86.7359 226.795 86.7359 226.485 86.793 226.183Z" fill="#A4A9C2"/>
<path d="M90.9605 223.45H90.6181H90.1618L86.9094 225.39L91.0747 222.994L90.9605 223.45Z" fill="#A4A9C2"/>
<path d="M86.852 225.844L91.0173 223.447L86.852 225.901V225.844Z" fill="#A4A9C2"/>
<path d="M86.9094 225.732L91.0176 223.336L86.8523 225.732H86.9094Z" fill="#A4A9C2"/>
<path d="M86.9094 225.726L91.0176 223.33L86.8523 225.726H86.9094Z" fill="#A4A9C2"/>
<path d="M91.0178 223.449H90.7326H90.4472L89.4202 224.02L87.309 225.275L91.4172 222.879L91.0178 223.449Z" fill="#A4A9C2"/>
<path d="M87.0266 225.555L91.1348 223.101V223.444L87.0266 225.84V225.555Z" fill="#A4A9C2"/>
<path d="M91.0171 223.339L90.5036 223.624L89.8759 223.966L86.966 225.678L91.0742 223.224L91.0171 223.339Z" fill="#A4A9C2"/>
<path d="M87.0236 225.563L91.1318 223.109V223.452L87.0236 225.848V225.563Z" fill="#A4A9C2"/>
<path d="M91.1865 223.103L87.0783 225.557L91.1865 223.103Z" fill="#A4A9C2"/>
<path d="M87.1383 225.33L91.3035 222.933L87.1953 225.387L87.1383 225.33Z" fill="#A4A9C2"/>
<path d="M91.1892 223.063L87.1381 225.402L91.3032 223.006L91.1892 223.063Z" fill="#A4A9C2"/>
<path d="M87.1379 225.33L91.303 222.933L87.1948 225.387L87.1379 225.33Z" fill="#A4A9C2"/>
<path d="M87.2522 225.277L91.3604 222.881L87.1951 225.277H87.2522Z" fill="#A4A9C2"/>
<path d="M87.2522 225.275L91.3604 222.879L87.1951 225.275H87.2522Z" fill="#A4A9C2"/>
<path d="M91.4729 222.766L87.3078 225.162L91.4729 222.766Z" fill="#A4A9C2"/>
<path d="M87.365 225.225L91.4731 222.771V222.828L87.308 225.225H87.365Z" fill="#A4A9C2"/>
<path d="M91.5894 222.699L87.4812 225.153L91.5894 222.699Z" fill="#A4A9C2"/>
<path d="M87.3663 225.21L91.4745 222.757C91.7879 222.643 92.1312 222.643 92.4446 222.757L88.2793 225.153C87.9869 225.033 87.6587 225.033 87.3663 225.153V225.21Z" fill="#A4A9C2"/>
<path d="M87.2522 225.277L91.3604 222.881L87.1951 225.277H87.2522Z" fill="#A4A9C2"/>
<path d="M87.2522 225.275L91.3604 222.879L87.1951 225.275H87.2522Z" fill="#A4A9C2"/>
<path d="M90.2694 223.52C89.2423 224.147 88.2154 224.775 87.1313 225.346L91.2964 222.949L90.2694 223.52Z" fill="#A4A9C2"/>
<path d="M87.365 225.217L91.4731 222.764L87.308 225.16L87.365 225.217Z" fill="#A4A9C2"/>
<path d="M91.4746 222.821L90.8471 223.163L90.1624 223.563L87.4236 225.16L91.5317 222.707L91.4746 222.821Z" fill="#A4A9C2"/>
<path d="M87.3574 225.231L91.4656 222.777L87.3005 225.174L87.3574 225.231Z" fill="#A4A9C2"/>
<path d="M87.3078 225.222L91.4729 222.826L87.3647 225.222H87.3078Z" fill="#A4A9C2"/>
<path d="M87.308 225.226L91.4731 222.83L87.365 225.226H87.308Z" fill="#A4A9C2"/>
<path d="M87.3078 225.222L91.4729 222.826L87.3078 225.222Z" fill="#A4A9C2"/>
<path d="M87.308 225.226L91.4731 222.83L87.308 225.226Z" fill="#A4A9C2"/>
<path d="M91.5894 222.699L87.4812 225.153L91.0759 223.041H91.3611L91.5894 222.699Z" fill="#A4A9C2"/>
<path d="M87.3663 225.21L91.4745 222.757C91.7879 222.643 92.1312 222.643 92.4446 222.757L88.2793 225.153C87.9869 225.033 87.6587 225.033 87.3663 225.153V225.21Z" fill="#A4A9C2"/>
<path d="M88.7948 230.129L92.9601 227.732L95.6418 229.273L91.4765 231.669L88.7948 230.129Z" fill="#A4A9C2"/>
<path d="M87.3672 225.214L91.4754 222.817C91.6989 222.681 91.9556 222.609 92.2172 222.609C92.4789 222.609 92.7355 222.681 92.959 222.817L88.8508 225.214C88.6235 225.089 88.3683 225.023 88.109 225.023C87.8497 225.023 87.5945 225.089 87.3672 225.214Z" fill="#A4A9C2"/>
<path d="M87.3595 225.215L91.4677 222.819C91.6194 222.748 91.7852 222.711 91.9528 222.711C92.1204 222.711 92.286 222.748 92.4377 222.819L88.2724 225.215C87.9789 225.101 87.653 225.101 87.3595 225.215Z" fill="#A4A9C2"/>
<path d="M88.2795 225.095L92.4448 222.699H92.9583L88.8501 225.095H88.2795Z" fill="#A4A9C2"/>
<path d="M91.5896 222.712C91.8064 222.621 92.0392 222.574 92.2743 222.574C92.5094 222.574 92.7422 222.621 92.959 222.712L88.7937 225.108C88.5909 225.003 88.3659 224.948 88.1376 224.948C87.9092 224.948 87.6842 225.003 87.4815 225.108L91.5896 222.712Z" fill="#A4A9C2"/>
<path d="M87.3602 225.228L91.4684 222.774C91.7818 222.661 92.1251 222.661 92.4385 222.774L88.2732 225.171C87.9808 225.05 87.6526 225.05 87.3602 225.171V225.228Z" fill="#A4A9C2"/>
<path d="M88.2797 225.119L92.445 222.723H92.9585L88.8503 225.119H88.2797Z" fill="#A4A9C2"/>
<path d="M92.958 222.945L88.8498 225.342L93.0151 222.945H92.958Z" fill="#A4A9C2"/>
<path d="M88.2697 225.099L92.435 222.703H92.9485L88.8403 225.099H88.2697Z" fill="#A4A9C2"/>
<path d="M88.8524 225.334L92.9606 222.937L95.8135 224.592L91.6482 226.989L88.8524 225.334Z" fill="#A4A9C2"/>
<path d="M88.8472 225.329H88.3337C88.1722 225.257 87.9972 225.22 87.8202 225.22C87.6432 225.22 87.4682 225.257 87.3067 225.329C87.5409 225.194 87.8064 225.123 88.0768 225.123C88.3473 225.123 88.613 225.194 88.8472 225.329Z" fill="#A4A9C2"/>
<path d="M88.8508 225.334L92.9589 222.937L93.073 222.994L88.9079 225.391L88.8508 225.334Z" fill="#A4A9C2"/>
<path d="M152.726 323.241L148.561 325.638H148.847C149.027 325.284 149.121 324.893 149.121 324.496C149.121 324.1 149.027 323.709 148.847 323.355L153.012 320.959C153.192 321.312 153.286 321.703 153.286 322.1C153.286 322.497 153.192 322.888 153.012 323.241H152.726Z" fill="#A4A9C2"/>
<path d="M149.133 323.238L153.298 320.842C153.298 320.842 153.298 321.184 153.298 321.355L149.133 323.752C149.148 323.581 149.148 323.409 149.133 323.238Z" fill="#A4A9C2"/>
<path d="M149.252 323.238L153.417 320.842C153.472 321.124 153.472 321.415 153.417 321.698L149.309 324.094C149.33 323.809 149.33 323.523 149.309 323.238H149.252Z" fill="#A4A9C2"/>
<path d="M149.366 324.322L153.475 321.926C153.487 322.254 153.386 322.576 153.189 322.839C153.189 322.839 153.189 322.839 152.904 323.124L148.739 325.52H149.024C149.214 325.25 149.332 324.936 149.366 324.607V324.322Z" fill="#A4A9C2"/>
<path d="M91.6462 226.986L95.8139 224.588L121.619 239.431L117.451 241.886L91.6462 226.986Z" fill="#A4A9C2"/>
<path d="M117.454 241.885L121.619 239.432L124.871 241.371L120.763 243.768L117.454 241.885Z" fill="#A4A9C2"/>
<path d="M120.765 243.775L124.93 241.379C125.753 241.889 126.393 242.649 126.756 243.547L122.591 245.943C122.212 245.055 121.576 244.3 120.765 243.775Z" fill="#A4A9C2"/>
<path d="M120.764 243.781L124.929 241.385L120.764 243.781Z" fill="#A4A9C2"/>
<path d="M120.935 243.896L125.1 241.5C125.844 242.004 126.421 242.72 126.755 243.554L122.59 245.95C122.239 245.126 121.666 244.415 120.935 243.896Z" fill="#A4A9C2"/>
<path d="M120.756 243.775L124.921 241.379L125.549 241.835L121.44 244.289C121.241 244.082 121.01 243.909 120.756 243.775Z" fill="#A4A9C2"/>
<path d="M120.765 243.781L124.93 241.385L120.765 243.838V243.781Z" fill="#A4A9C2"/>
<path d="M120.993 243.953L125.158 241.5L125.615 241.899L121.507 244.353L120.993 243.953Z" fill="#A4A9C2"/>
<path d="M121.507 244.346L125.615 241.892L121.507 244.346Z" fill="#A4A9C2"/>
<path d="M121.507 244.348L125.615 241.894L121.507 244.348Z" fill="#A4A9C2"/>
<path d="M121.562 244.397L125.67 241.943L125.727 242L121.562 244.397Z" fill="#A4A9C2"/>
<path d="M121.562 244.393L125.67 241.939L125.727 241.996L121.562 244.393Z" fill="#A4A9C2"/>
<path d="M121.562 244.398L125.727 242.002L121.562 244.398Z" fill="#A4A9C2"/>
<path d="M121.562 244.396L125.727 242L121.562 244.396Z" fill="#A4A9C2"/>
<path d="M121.676 244.517L125.842 242.121L121.676 244.517Z" fill="#A4A9C2"/>
<path d="M121.676 244.521L125.842 242.125L121.676 244.521Z" fill="#A4A9C2"/>
<path d="M121.735 244.568L125.9 242.172L121.735 244.568Z" fill="#A4A9C2"/>
<path d="M121.735 244.564L125.9 242.168L121.735 244.564Z" fill="#A4A9C2"/>
<path d="M121.849 244.683L126.014 242.287L121.849 244.683Z" fill="#A4A9C2"/>
<path d="M121.849 244.679L126.014 242.283L121.849 244.679Z" fill="#A4A9C2"/>
<path d="M121.907 244.799L126.072 242.402L126.129 242.459L121.964 244.856L121.907 244.799Z" fill="#A4A9C2"/>
<path d="M121.907 244.795L126.072 242.398L126.129 242.455L121.964 244.852L121.907 244.795Z" fill="#A4A9C2"/>
<path d="M121.964 244.849L126.129 242.453L122.021 244.849H121.964Z" fill="#A4A9C2"/>
<path d="M121.964 244.845L126.129 242.449L122.021 244.845H121.964Z" fill="#A4A9C2"/>
<path d="M122.019 244.967L126.185 242.57L126.242 242.627L122.077 245.024L122.019 244.967Z" fill="#A4A9C2"/>
<path d="M122.019 244.963L126.185 242.566L126.242 242.623L122.077 245.02L122.019 244.963Z" fill="#A4A9C2"/>
<path d="M122.305 245.427L126.47 243.031H126.527L122.362 245.485L122.305 245.427Z" fill="#A4A9C2"/>
<path d="M122.305 245.424L126.47 243.027H126.527L122.362 245.481L122.305 245.424Z" fill="#A4A9C2"/>
<path d="M122.077 245.027L126.242 242.631C126.253 242.764 126.253 242.897 126.242 243.03L122.077 245.427C122.096 245.294 122.096 245.16 122.077 245.027Z" fill="#A4A9C2"/>
<path d="M122.077 245.029L126.242 242.633C126.253 242.766 126.253 242.899 126.242 243.032L122.077 245.428C122.096 245.296 122.096 245.162 122.077 245.029Z" fill="#A4A9C2"/>
<path d="M101.692 196.211L105.86 193.756L95.8119 224.584L91.6442 226.982L101.692 196.211Z" fill="#A4A9C2"/>
<path d="M99.8122 186.963L103.92 184.566C104.135 184.468 104.369 184.418 104.605 184.418C104.841 184.418 105.075 184.468 105.29 184.566C106.18 185.118 106.847 185.967 107.173 186.963L103.007 189.359C102.68 188.381 102.038 187.538 101.182 186.963C100.969 186.857 100.734 186.802 100.497 186.802C100.259 186.802 100.025 186.857 99.8122 186.963Z" fill="#A4A9C2"/>
<path d="M99.8121 186.956L103.92 184.559C104.072 184.488 104.238 184.451 104.405 184.451C104.573 184.451 104.738 184.488 104.89 184.559L100.725 186.956C100.433 186.835 100.104 186.835 99.8121 186.956Z" fill="#A4A9C2"/>
<path d="M100.724 186.902L104.89 184.506H105.289L101.181 186.959H100.781L100.724 186.902Z" fill="#A4A9C2"/>
<path d="M101.352 187.233L105.46 184.779C106.256 185.366 106.853 186.183 107.172 187.119L103.007 189.515C102.725 188.591 102.143 187.788 101.352 187.233Z" fill="#A4A9C2"/>
<path d="M87.021 225.561V225.846L99.4669 187.652C99.4669 186.853 100.437 186.625 101.294 187.025C102.15 187.601 102.793 188.443 103.121 189.422L122.588 245.828C122.355 245.249 122.005 244.724 121.561 244.286C121.342 244.061 121.092 243.869 120.819 243.715L117.45 241.774L101.693 196.102L91.6453 226.873L88.9051 225.275L88.3342 224.99C88.1519 224.884 87.9451 224.829 87.7347 224.829C87.5242 224.829 87.3176 224.884 87.1353 224.99C87.1353 224.99 87.021 225.503 87.021 225.561Z" fill="#A4A9C2"/>
<path d="M121.504 244.34C121.305 244.133 121.074 243.959 120.82 243.826C121.074 243.959 121.305 244.133 121.504 244.34Z" fill="#A4A9C2"/>
<path d="M122.759 246.511L126.927 244.113L153.302 320.557L149.135 322.955L122.759 246.511Z" fill="#A4A9C2"/>
<path d="M121.506 244.346L125.615 241.892L125.672 241.95L121.563 244.403L121.506 244.346Z" fill="#A4A9C2"/>
<path d="M121.506 244.348L125.615 241.894L125.672 241.952L121.563 244.405L121.506 244.348Z" fill="#A4A9C2"/>
<path d="M122.591 245.937L126.756 243.541V243.598L122.591 245.994V245.937Z" fill="#A4A9C2"/>
<path d="M122.591 245.941L126.756 243.545V243.602L122.591 245.998V245.941Z" fill="#A4A9C2"/>
<path d="M122.476 245.767L126.642 243.371L122.476 245.767Z" fill="#A4A9C2"/>
<path d="M122.476 245.769L126.642 243.373L122.476 245.769Z" fill="#A4A9C2"/>
<path d="M122.477 245.654L126.585 243.258L122.419 245.654H122.477Z" fill="#A4A9C2"/>
<path d="M122.477 245.65L126.585 243.254L122.419 245.65H122.477Z" fill="#A4A9C2"/>
<path d="M122.419 245.597L126.584 243.201L122.476 245.597H122.419Z" fill="#A4A9C2"/>
<path d="M122.419 245.597L126.585 243.201L122.477 245.597H122.419Z" fill="#A4A9C2"/>
<path d="M122.362 245.485L126.527 243.031L122.362 245.427V245.485Z" fill="#A4A9C2"/>
<path d="M122.362 245.481L126.527 243.027L122.362 245.424V245.481Z" fill="#A4A9C2"/>
<path d="M122.303 245.422C122.322 245.29 122.322 245.156 122.303 245.023C122.322 245.156 122.322 245.29 122.303 245.422Z" fill="#A4A9C2"/>
<path d="M120.761 243.773C121.573 244.298 122.209 245.053 122.588 245.942C122.625 246.131 122.625 246.325 122.588 246.513C122.643 246.815 122.643 247.125 122.588 247.427C122.661 247.688 122.661 247.965 122.588 248.226C122.246 248.968 121.504 249.139 120.647 248.626L117.621 246.913L91.3027 231.67L88.6194 230.128C88.0176 229.733 87.5178 229.201 87.1606 228.576C86.8035 227.951 86.5991 227.251 86.5643 226.532C86.5053 226.269 86.5053 225.996 86.5643 225.733V225.447C86.8116 225.238 87.1251 225.123 87.4491 225.123C87.7732 225.123 88.0867 225.238 88.334 225.447L91.1314 227.103L116.936 242.003L120.761 243.773Z" fill="#A4A9C2"/>
<path d="M103.121 189.536L107.289 187.139L126.756 243.544L122.589 245.942L103.121 189.536Z" fill="#A4A9C2"/>
<path d="M164.151 256.672C164.033 257.157 164.019 257.661 164.107 258.152C164.195 258.644 164.385 259.111 164.664 259.525L160.499 261.978C160.221 261.553 160.033 261.076 159.945 260.576C159.856 260.076 159.87 259.563 159.985 259.068L164.151 256.672Z" fill="#A4A9C2"/>
<path d="M159.928 259.066L164.093 256.67C164.061 256.859 164.061 257.052 164.093 257.24L159.928 259.637C159.896 259.448 159.896 259.255 159.928 259.066Z" fill="#A4A9C2"/>
<path d="M159.813 259.638L163.979 257.242C163.922 257.525 163.922 257.815 163.979 258.098L159.813 260.494C159.785 260.21 159.785 259.923 159.813 259.638Z" fill="#A4A9C2"/>
<path d="M159.871 260.434L164.036 258.037C164.235 258.916 164.669 259.725 165.292 260.376L165.862 260.833L161.697 263.286L161.183 262.773C160.524 262.14 160.068 261.326 159.871 260.434Z" fill="#A4A9C2"/>
<path d="M160.099 258.731L164.207 256.277L164.093 256.677L159.928 259.073L160.099 258.731Z" fill="#A4A9C2"/>
<path d="M159.87 257.988L164.035 255.592V256.276L159.927 258.73C159.89 258.484 159.871 258.236 159.87 257.988Z" fill="#A4A9C2"/>
<path d="M159.87 257.99L164.035 255.594L159.87 257.99Z" fill="#A4A9C2"/>
<path d="M159.87 258.06L164.035 255.664V256.291L159.927 258.745C159.902 258.518 159.902 258.288 159.927 258.06H159.87Z" fill="#A4A9C2"/>
<path d="M135.718 243.549L139.886 241.094L163.921 254.967L159.753 257.364L135.718 243.549Z" fill="#A4A9C2"/>
<path d="M159.756 257.361L163.921 254.965L164.035 255.535L159.87 257.989L159.756 257.361Z" fill="#A4A9C2"/>
<path d="M166.034 261.003C166.257 261.139 166.514 261.211 166.776 261.211C167.037 261.211 167.294 261.139 167.517 261.003L163.352 263.399C163.129 263.535 162.872 263.607 162.61 263.607C162.349 263.607 162.092 263.535 161.869 263.399C161.6 263.263 161.366 263.068 161.184 262.829C160.907 262.571 160.658 262.284 160.442 261.973L164.607 259.519L165.292 260.432C165.522 260.644 165.77 260.835 166.034 261.003Z" fill="#A4A9C2"/>
<path d="M159.872 260.435L164.037 258.039C164.235 258.918 164.669 259.727 165.292 260.378L165.863 260.835L161.697 263.288L161.184 262.775C160.525 262.142 160.068 261.328 159.872 260.435Z" fill="#A4A9C2"/>
<path d="M161.698 263.352L165.863 260.898H166.434L162.268 263.295C162.08 263.332 161.886 263.332 161.698 263.295V263.352Z" fill="#A4A9C2"/>
<path d="M162.439 263.634L166.604 261.238C166.897 261.359 167.225 261.359 167.517 261.238L163.352 263.634C163.21 263.705 163.054 263.742 162.896 263.742C162.737 263.742 162.581 263.705 162.439 263.634Z" fill="#A4A9C2"/>
<path d="M167.519 261.184L163.354 263.581C163.58 263.449 163.76 263.249 163.868 263.01L168.033 260.557C167.944 260.822 167.761 261.045 167.519 261.184Z" fill="#A4A9C2"/>
<path d="M163.868 263.004L168.033 260.551C167.944 260.816 167.761 261.039 167.519 261.178L163.354 263.575C163.58 263.443 163.76 263.243 163.868 263.004Z" fill="#A4A9C2"/>
<path d="M164.894 260.379L169.06 257.926L168.033 260.55L163.867 263.004L164.894 260.379Z" fill="#A4A9C2"/>
<path d="M162.667 252.226L166.775 249.83L164.207 256.277L160.099 258.731L162.667 252.226Z" fill="#A4A9C2"/>
<path d="M149.478 201.408L153.588 199.01L139.887 241.085L135.719 243.54L149.478 201.408Z" fill="#A4A9C2"/>
<path d="M151.875 189.598L147.71 191.995L151.875 189.541V189.598Z" fill="#A4A9C2"/>
<path d="M147.709 191.924L151.875 189.471L147.767 191.867L147.709 191.924Z" fill="#A4A9C2"/>
<path d="M147.708 191.929L151.876 189.474L153.588 199.008L149.478 201.406L147.708 191.929Z" fill="#A4A9C2"/>
<path d="M147.71 191.812L151.875 189.416L147.71 191.869V191.812Z" fill="#A4A9C2"/>
<path d="M147.71 191.814L151.875 189.418L147.71 191.871V191.814Z" fill="#A4A9C2"/>
<path d="M151.817 189.244L147.652 191.697C147.679 191.604 147.679 191.505 147.652 191.412L151.817 189.244Z" fill="#A4A9C2"/>
<path d="M147.653 191.127L151.818 188.73C151.79 188.977 151.79 189.226 151.818 189.472L147.653 191.926C147.626 191.66 147.626 191.392 147.653 191.127Z" fill="#A4A9C2"/>
<path d="M151.877 189.588C152.148 190.776 152.862 191.817 153.874 192.498L149.766 194.894C149.237 194.582 148.78 194.162 148.426 193.66C148.072 193.158 147.828 192.587 147.712 191.984L151.877 189.588Z" fill="#A4A9C2"/>
<path d="M147.711 191.924L151.876 189.471L147.768 191.867L147.711 191.924Z" fill="#A4A9C2"/>
<path d="M147.767 191.922L151.875 189.525C152.141 190.625 152.788 191.595 153.701 192.264L149.592 194.718C148.653 194.05 148 193.051 147.767 191.922Z" fill="#A4A9C2"/>
<path d="M149.595 194.84L153.703 192.387L149.595 194.783V194.84Z" fill="#A4A9C2"/>
<path d="M151.809 188.905C151.776 189.056 151.776 189.211 151.809 189.362L147.644 191.815C147.616 191.645 147.616 191.472 147.644 191.302L151.809 188.905L147.644 191.302C147.616 191.17 147.616 191.034 147.644 190.902L151.752 188.506L151.809 188.905Z" fill="#A4A9C2"/>
<path d="M147.71 190.906L151.875 188.51L147.71 190.906Z" fill="#A4A9C2"/>
<path d="M147.652 191.133L151.817 188.736C151.784 188.887 151.784 189.042 151.817 189.193L147.652 191.646C147.624 191.476 147.624 191.303 147.652 191.133Z" fill="#A4A9C2"/>
<path d="M151.875 188.445L147.71 190.899L151.761 188.502L151.875 188.445Z" fill="#A4A9C2"/>
<path d="M147.71 190.893L151.875 188.439L147.71 190.893Z" fill="#A4A9C2"/>
<path d="M151.818 188.506L147.71 190.902L151.875 188.506H151.818Z" fill="#A4A9C2"/>
<path d="M147.71 190.906L151.875 188.51L147.71 190.906Z" fill="#A4A9C2"/>
<path d="M151.875 188.279L147.767 190.676L151.875 188.279Z" fill="#A4A9C2"/>
<path d="M147.767 190.678L151.875 188.281C151.875 188.281 151.875 188.567 151.875 188.738L147.71 191.134C147.684 190.983 147.684 190.829 147.71 190.678H147.767Z" fill="#A4A9C2"/>
<path d="M151.876 188.336H151.533L150.906 188.678H150.506L148.966 189.591L147.882 190.219L152.047 187.766L151.876 188.336Z" fill="#A4A9C2"/>
<path d="M147.767 190.617L151.932 188.221L147.767 190.674V190.617Z" fill="#A4A9C2"/>
<path d="M151.809 189.249L147.644 191.646C147.585 191.325 147.585 190.996 147.644 190.676L151.752 188.279C151.712 188.603 151.731 188.932 151.809 189.249Z" fill="#A4A9C2"/>
<path d="M147.767 190.678L151.875 188.281C151.875 188.281 151.875 188.567 151.875 188.738L147.71 191.134C147.684 190.983 147.684 190.829 147.71 190.678H147.767Z" fill="#A4A9C2"/>
<path d="M147.653 191.135L151.819 188.738C151.79 188.985 151.79 189.233 151.819 189.48L147.653 191.933C147.627 191.668 147.627 191.4 147.653 191.135Z" fill="#A4A9C2"/>
<path d="M152.388 196.439L156.556 194.041L166.775 249.818L162.664 252.216L152.388 196.439Z" fill="#A4A9C2"/>
<path d="M187.385 211.111L183.219 213.565C182.991 213.685 182.736 213.747 182.478 213.747C182.219 213.747 181.965 213.685 181.736 213.565L185.901 211.168C186.13 211.296 186.389 211.358 186.651 211.348C186.913 211.338 187.167 211.256 187.385 211.111Z" fill="#A4A9C2"/>
<path d="M181.736 213.394L185.902 210.998H186.415L182.307 213.394H181.736Z" fill="#A4A9C2"/>
<path d="M182.307 213.634L186.415 211.238C186.728 211.357 187.073 211.357 187.385 211.238L183.22 213.692C182.928 213.812 182.599 213.812 182.307 213.692V213.634Z" fill="#A4A9C2"/>
<path d="M178.769 211.69L182.877 209.236L185.901 211.005L181.736 213.402L178.769 211.69Z" fill="#A4A9C2"/>
<path d="M187.387 211.124L183.222 213.577C183.43 213.439 183.589 213.24 183.678 213.007C183.751 212.746 183.751 212.469 183.678 212.208C183.733 211.906 183.733 211.597 183.678 211.295C183.715 211.107 183.715 210.913 183.678 210.725L187.843 208.328C187.861 208.518 187.861 208.709 187.843 208.899C187.899 209.2 187.899 209.51 187.843 209.812C187.875 210.077 187.875 210.345 187.843 210.61C187.737 210.817 187.58 210.994 187.387 211.124Z" fill="#A4A9C2"/>
<path d="M183.509 210.725L187.674 208.328C187.691 208.518 187.691 208.709 187.674 208.899L183.509 211.295C183.546 211.107 183.546 210.913 183.509 210.725Z" fill="#A4A9C2"/>
<path d="M183.734 211.523L187.899 209.127C187.927 209.354 187.927 209.584 187.899 209.811L183.791 212.208C183.818 211.98 183.818 211.751 183.791 211.523H183.734Z" fill="#A4A9C2"/>
<path d="M183.848 212.377L187.956 209.98C187.988 210.188 187.988 210.4 187.956 210.608C187.85 210.815 187.693 210.992 187.5 211.121L183.334 213.575C183.542 213.437 183.702 213.237 183.791 213.004V212.377H183.848Z" fill="#A4A9C2"/>
<path d="M164.892 260.381L169.059 257.926L208.966 280.99L204.798 283.388L164.892 260.381Z" fill="#A4A9C2"/>
<path d="M182.019 217.224L186.187 214.826L169.059 257.929L164.892 260.384L182.019 217.224Z" fill="#A4A9C2"/>
<path d="M183.678 213L187.843 210.603L186.188 214.826L182.023 217.222L183.678 213Z" fill="#A4A9C2"/>
<path d="M209.822 290.018C209.48 290.531 208.795 290.588 208.052 290.018L132.75 246.572C132.029 246.091 131.456 245.419 131.095 244.631C130.72 243.912 130.599 243.087 130.752 242.29L147.879 190.566C147.79 190.98 147.79 191.408 147.879 191.822L149.078 198.33L149.649 201.299L135.605 243.318L159.64 257.191L149.364 201.185L147.594 191.708C147.707 192.32 147.948 192.901 148.303 193.413C148.657 193.925 149.116 194.356 149.649 194.677L152.275 196.218L162.551 251.995L178.594 211.461L181.62 213.174C182.476 213.688 183.218 213.517 183.561 212.774C183.634 212.513 183.634 212.237 183.561 211.975C183.615 211.673 183.615 211.364 183.561 211.062L209.822 287.734C210.017 288.083 210.12 288.476 210.12 288.876C210.12 289.276 210.017 289.669 209.822 290.018ZM204.684 283.395L181.848 217.227L164.721 260.331L204.684 283.395Z" fill="#E8EEF4"/>
<path d="M147.708 190.908C147.68 191.04 147.68 191.176 147.708 191.308C147.68 191.478 147.68 191.651 147.708 191.821C147.65 191.519 147.65 191.21 147.708 190.908Z" fill="#A4A9C2"/>
<path d="M151.932 188.22H151.533L151.077 188.506L147.824 190.389L151.99 187.992L151.932 188.22Z" fill="#A4A9C2"/>
<path d="M147.765 190.633L151.93 188.236L147.765 190.69V190.633Z" fill="#A4A9C2"/>
<path d="M147.825 190.502L151.933 188.105L147.767 190.502H147.825Z" fill="#A4A9C2"/>
<path d="M147.825 190.506L151.933 188.109L147.767 190.506H147.825Z" fill="#A4A9C2"/>
<path d="M151.934 188.225H151.648L150.621 188.795L148.51 190.051L152.675 187.654L151.934 188.225Z" fill="#A4A9C2"/>
<path d="M147.941 190.336L152.049 187.883C152.049 187.883 152.049 187.883 152.049 188.225L147.884 190.621L147.941 190.336Z" fill="#A4A9C2"/>
<path d="M151.989 188.104L151.475 188.39L150.905 188.732L147.938 190.444L152.046 187.99L151.989 188.104Z" fill="#A4A9C2"/>
<path d="M147.939 190.328L152.047 187.875C152.047 187.875 152.047 187.875 152.047 188.217L147.882 190.614L147.939 190.328Z" fill="#A4A9C2"/>
<path d="M152.1 187.889L147.992 190.342L152.1 187.889Z" fill="#A4A9C2"/>
<path d="M148.052 190.103L152.218 187.707L148.11 190.16L148.052 190.103Z" fill="#A4A9C2"/>
<path d="M152.104 187.83L148.052 190.17L152.218 187.773L152.104 187.83Z" fill="#A4A9C2"/>
<path d="M148.052 190.103L152.218 187.707L148.11 190.16L148.052 190.103Z" fill="#A4A9C2"/>
<path d="M148.167 190.051L152.275 187.654L148.11 190.051H148.167Z" fill="#A4A9C2"/>
<path d="M148.167 190.055L152.275 187.658L148.11 190.055H148.167Z" fill="#A4A9C2"/>
<path d="M152.447 187.539L148.281 189.935L152.447 187.539Z" fill="#A4A9C2"/>
<path d="M148.281 190.008L152.447 187.611H152.39L148.224 190.008H148.281Z" fill="#A4A9C2"/>
<path d="M152.732 187.48L148.567 189.934L152.732 187.537V187.48Z" fill="#A4A9C2"/>
<path d="M148.281 189.997L152.447 187.601C152.588 187.531 152.745 187.494 152.903 187.494C153.061 187.494 153.218 187.531 153.359 187.601L149.194 189.997C148.902 189.877 148.574 189.877 148.281 189.997Z" fill="#A4A9C2"/>
<path d="M148.167 190.051L152.333 187.654L148.167 190.051Z" fill="#A4A9C2"/>
<path d="M148.167 190.055L152.333 187.658L148.167 190.055Z" fill="#A4A9C2"/>
<path d="M151.183 188.281L148.045 190.107L152.21 187.711L151.183 188.281Z" fill="#A4A9C2"/>
<path d="M148.281 189.992L152.447 187.539L148.281 189.935V189.992Z" fill="#A4A9C2"/>
<path d="M152.388 187.594L151.76 187.937L151.076 188.336L148.337 189.934L152.502 187.48L152.388 187.594Z" fill="#A4A9C2"/>
<path d="M148.271 190.002L152.436 187.549L148.271 189.945V190.002Z" fill="#A4A9C2"/>
<path d="M148.223 189.994L152.388 187.598L148.223 189.994Z" fill="#A4A9C2"/>
<path d="M148.223 189.99L152.388 187.594L148.223 189.99Z" fill="#A4A9C2"/>
<path d="M148.223 189.994L152.388 187.598L148.223 189.994Z" fill="#A4A9C2"/>
<path d="M148.223 189.99L152.388 187.594L148.223 189.99Z" fill="#A4A9C2"/>
<path d="M152.732 187.48L148.567 189.934L152.161 187.823H152.447L152.732 187.48Z" fill="#A4A9C2"/>
<path d="M148.281 189.997L152.447 187.601C152.588 187.531 152.745 187.494 152.903 187.494C153.061 187.494 153.218 187.531 153.359 187.601L149.194 189.997C148.902 189.877 148.574 189.877 148.281 189.997Z" fill="#A4A9C2"/>
<path d="M149.767 194.9L153.875 192.504L156.557 194.044L152.392 196.441L149.767 194.9Z" fill="#A4A9C2"/>
<path d="M148.281 189.993L152.389 187.597C152.623 187.462 152.889 187.391 153.16 187.391C153.43 187.391 153.695 187.462 153.93 187.597L149.765 189.993C149.537 189.868 149.282 189.803 149.023 189.803C148.763 189.803 148.508 189.868 148.281 189.993Z" fill="#A4A9C2"/>
<path d="M148.276 189.989L152.385 187.592C152.536 187.521 152.702 187.484 152.87 187.484C153.037 187.484 153.203 187.521 153.354 187.592L149.246 189.989C148.934 189.871 148.589 189.871 148.276 189.989Z" fill="#A4A9C2"/>
<path d="M149.252 189.881L153.36 187.484H153.93L149.765 189.881H149.252Z" fill="#A4A9C2"/>
<path d="M152.732 187.481C152.939 187.392 153.162 187.346 153.388 187.346C153.613 187.346 153.837 187.392 154.044 187.481L149.879 189.878C149.676 189.773 149.451 189.718 149.223 189.718C148.994 189.718 148.769 189.773 148.566 189.878L152.732 187.481Z" fill="#A4A9C2"/>
<path d="M148.286 189.992L152.452 187.595C152.594 187.525 152.75 187.488 152.908 187.488C153.066 187.488 153.223 187.525 153.365 187.595L149.199 189.992C148.907 189.871 148.579 189.871 148.286 189.992Z" fill="#A4A9C2"/>
<path d="M149.192 189.885L153.358 187.488H153.928L149.763 189.885H149.192Z" fill="#A4A9C2"/>
<path d="M153.93 187.721L149.765 190.117L153.93 187.721Z" fill="#A4A9C2"/>
<path d="M149.193 189.883L153.359 187.486H153.929L149.764 189.883H149.193Z" fill="#A4A9C2"/>
<path d="M149.767 190.107L153.933 187.711L156.729 189.365L152.62 191.762L149.767 190.107Z" fill="#A4A9C2"/>
<path d="M149.762 190.103H149.249C149.091 190.018 148.915 189.973 148.735 189.973C148.556 189.973 148.38 190.018 148.222 190.103C148.456 189.967 148.722 189.896 148.992 189.896C149.263 189.896 149.528 189.967 149.762 190.103Z" fill="#A4A9C2"/>
<path d="M149.766 190.107L153.931 187.711L153.988 187.768L149.823 190.164L149.766 190.107Z" fill="#A4A9C2"/>
<path d="M213.823 287.898L209.658 290.294V290.009C209.853 289.66 209.955 289.267 209.955 288.868C209.955 288.468 209.853 288.075 209.658 287.726L213.823 285.33C214.003 285.683 214.097 286.074 214.097 286.471C214.097 286.868 214.003 287.259 213.823 287.612C213.823 287.612 213.937 287.841 213.823 287.898Z" fill="#A4A9C2"/>
<path d="M209.826 287.723L213.991 285.326C214.018 285.496 214.018 285.67 213.991 285.84L209.883 288.236V287.723H209.826Z" fill="#A4A9C2"/>
<path d="M210.223 288.246L214.331 285.849C214.385 286.132 214.385 286.423 214.331 286.705L210.223 289.102C210.248 288.817 210.248 288.531 210.223 288.246Z" fill="#A4A9C2"/>
<path d="M210.281 288.976L214.389 286.58C214.402 286.908 214.301 287.23 214.104 287.493C214.104 287.493 214.104 287.493 213.819 287.778L209.653 290.175V289.889C209.843 289.619 209.961 289.305 209.996 288.976H210.281Z" fill="#A4A9C2"/>
<path d="M152.618 191.757L156.729 189.359L182.534 204.203L178.366 206.658L152.618 191.757Z" fill="#A4A9C2"/>
<path d="M178.369 206.668L182.534 204.215L185.844 206.155L181.679 208.551L178.369 206.668Z" fill="#A4A9C2"/>
<path d="M181.68 208.545L185.845 206.148C186.668 206.659 187.308 207.418 187.671 208.317L183.506 210.713C183.146 209.813 182.506 209.052 181.68 208.545Z" fill="#A4A9C2"/>
<path d="M181.679 208.545L185.844 206.148L181.679 208.545Z" fill="#A4A9C2"/>
<path d="M181.851 208.67L186.016 206.273C186.76 206.778 187.336 207.493 187.67 208.327L183.505 210.724C183.154 209.899 182.581 209.188 181.851 208.67Z" fill="#A4A9C2"/>
<path d="M181.67 208.545L185.835 206.148L186.463 206.605L182.355 209.058C182.155 208.852 181.924 208.678 181.67 208.545Z" fill="#A4A9C2"/>
<path d="M181.678 208.545L185.844 206.148L181.678 208.602V208.545Z" fill="#A4A9C2"/>
<path d="M181.907 208.717L186.072 206.263L186.529 206.663L182.421 209.116L181.907 208.717Z" fill="#A4A9C2"/>
<path d="M182.421 209.114L186.586 206.66L182.421 209.114Z" fill="#A4A9C2"/>
<path d="M182.477 209.174L186.643 206.777L182.477 209.174Z" fill="#A4A9C2"/>
<path d="M182.477 209.174L186.643 206.777L182.477 209.174Z" fill="#A4A9C2"/>
<path d="M182.477 209.062L186.642 206.666L182.477 209.062Z" fill="#A4A9C2"/>
<path d="M182.477 209.06L186.642 206.664L182.477 209.06Z" fill="#A4A9C2"/>
<path d="M182.591 209.062L186.756 206.666L182.591 209.062Z" fill="#A4A9C2"/>
<path d="M182.591 209.06L186.756 206.664L182.591 209.06Z" fill="#A4A9C2"/>
<path d="M182.65 209.343L186.815 206.947L182.65 209.343Z" fill="#A4A9C2"/>
<path d="M182.65 209.342L186.815 206.945L182.65 209.342Z" fill="#A4A9C2"/>
<path d="M182.764 209.455L186.929 207.058L182.821 209.455H182.764Z" fill="#A4A9C2"/>
<path d="M182.764 209.457L186.929 207.06L182.821 209.457H182.764Z" fill="#A4A9C2"/>
<path d="M182.822 209.568L186.987 207.172L187.044 207.229L182.879 209.625L182.822 209.568Z" fill="#A4A9C2"/>
<path d="M182.822 209.57L186.987 207.174L187.044 207.231L182.879 209.627L182.822 209.57Z" fill="#A4A9C2"/>
<path d="M182.878 209.627L187.044 207.23L182.936 209.627H182.878Z" fill="#A4A9C2"/>
<path d="M182.878 209.625L187.044 207.228L182.936 209.625H182.878Z" fill="#A4A9C2"/>
<path d="M182.993 209.738L187.101 207.342L187.158 207.399L182.993 209.795V209.738Z" fill="#A4A9C2"/>
<path d="M182.993 209.736L187.101 207.34L187.158 207.397L182.993 209.793V209.736Z" fill="#A4A9C2"/>
<path d="M183.278 210.197L187.386 207.801L187.443 207.858L183.278 210.254V210.197Z" fill="#A4A9C2"/>
<path d="M183.277 210.199L187.385 207.803L187.442 207.86L183.277 210.256V210.199Z" fill="#A4A9C2"/>
<path d="M182.992 209.799L187.157 207.402C187.168 207.535 187.168 207.669 187.157 207.802L183.049 210.198L182.992 209.799Z" fill="#A4A9C2"/>
<path d="M182.992 209.801L187.157 207.404C187.168 207.537 187.168 207.671 187.157 207.804L183.049 210.2L182.763 209.801H182.992Z" fill="#A4A9C2"/>
<path d="M162.607 160.994L166.775 158.539L156.727 189.368L152.617 191.766L162.607 160.994Z" fill="#A4A9C2"/>
<path d="M160.723 151.973L164.889 149.576C165.094 149.48 165.318 149.43 165.545 149.43C165.772 149.43 165.996 149.48 166.201 149.576C167.057 150.152 167.699 150.994 168.027 151.973L163.919 154.369C163.572 153.385 162.91 152.542 162.036 151.973C161.831 151.876 161.607 151.826 161.38 151.826C161.153 151.826 160.929 151.876 160.723 151.973Z" fill="#A4A9C2"/>
<path d="M160.728 151.978L164.893 149.581C165.035 149.511 165.191 149.474 165.35 149.474C165.508 149.474 165.664 149.511 165.806 149.581L161.641 151.978C161.348 151.857 161.02 151.857 160.728 151.978Z" fill="#A4A9C2"/>
<path d="M161.64 151.975L165.805 149.578H166.205L162.039 152.032H161.64V151.975Z" fill="#A4A9C2"/>
<path d="M162.383 151.983L166.548 149.529C167.328 150.119 167.906 150.937 168.203 151.869L164.094 154.265C163.772 153.346 163.174 152.549 162.383 151.983Z" fill="#A4A9C2"/>
<path d="M147.936 190.33L160.382 152.137C160.382 151.338 161.353 151.109 162.209 151.509C163.084 152.079 163.746 152.922 164.093 153.907L183.504 210.312C183.27 209.733 182.92 209.209 182.476 208.771C182.257 208.545 182.007 208.353 181.734 208.2L178.365 206.259L162.609 160.586L152.732 191.929L149.935 190.33C149.746 190.293 149.552 190.293 149.364 190.33C149.18 190.23 148.973 190.178 148.764 190.178C148.555 190.178 148.349 190.23 148.165 190.33C148.165 190.33 147.936 190.273 147.936 190.33Z" fill="#A4A9C2"/>
<path d="M182.419 209.064C182.22 208.857 181.988 208.684 181.734 208.551C181.988 208.684 182.22 208.857 182.419 209.064Z" fill="#A4A9C2"/>
<path d="M183.674 211.292L187.841 208.894L214.217 285.338L210.05 287.793L183.674 211.292Z" fill="#A4A9C2"/>
<path d="M182.42 209.12L186.585 206.666L186.642 206.78L182.477 209.176L182.42 209.12Z" fill="#A4A9C2"/>
<path d="M182.42 209.118L186.585 206.664L186.642 206.778L182.477 209.175L182.42 209.118Z" fill="#A4A9C2"/>
<path d="M183.506 210.725L187.671 208.328V208.385L183.506 210.781V210.725Z" fill="#A4A9C2"/>
<path d="M183.506 210.725L187.671 208.328V208.385L183.506 210.781V210.725Z" fill="#A4A9C2"/>
<path d="M183.449 210.539L187.557 208.142L183.392 210.539H183.449Z" fill="#A4A9C2"/>
<path d="M183.449 210.535L187.557 208.139L183.392 210.535H183.449Z" fill="#A4A9C2"/>
<path d="M183.391 210.426L187.5 208.029L183.391 210.426Z" fill="#A4A9C2"/>
<path d="M183.391 210.42L187.5 208.023L183.391 210.42Z" fill="#A4A9C2"/>
<path d="M183.334 210.371L187.5 207.974L183.391 210.371H183.334Z" fill="#A4A9C2"/>
<path d="M183.334 210.373L187.5 207.976L183.391 210.373H183.334Z" fill="#A4A9C2"/>
<path d="M183.278 210.256L187.443 207.859L183.278 210.256Z" fill="#A4A9C2"/>
<path d="M183.278 210.258L187.443 207.861L183.278 210.258Z" fill="#A4A9C2"/>
<path d="M183.275 210.203L182.99 209.805L183.275 210.203Z" fill="#A4A9C2"/>
<path d="M181.678 208.546C182.504 209.054 183.145 209.815 183.505 210.716C183.541 210.904 183.541 211.098 183.505 211.287C183.559 211.589 183.559 211.898 183.505 212.2C183.578 212.461 183.578 212.738 183.505 212.999C183.162 213.742 182.42 213.913 181.563 213.399L178.538 211.686L152.219 196.443L149.593 194.902C148.97 194.524 148.451 193.998 148.083 193.37C147.714 192.742 147.507 192.033 147.48 191.305C147.421 191.042 147.421 190.769 147.48 190.506V190.22C147.728 190.011 148.041 189.896 148.365 189.896C148.689 189.896 149.003 190.011 149.25 190.22L152.105 191.876L177.852 206.777L181.678 208.546Z" fill="#A4A9C2"/>
<path d="M164.092 154.308L168.203 151.91L187.671 208.315L183.503 210.713L164.092 154.308Z" fill="#A4A9C2"/>
<path d="M244.077 259.345L241.051 261.515C236.843 264.488 232.393 267.104 227.749 269.336C175.568 294.285 107.517 266.482 75.7745 207.222C46.8868 153.272 57.9624 91.8995 99.4671 62.4408L102.55 60.2714C61.0452 89.73 49.9125 151.102 78.8003 205.052C110.542 264.312 178.594 292.115 230.832 267.167C235.463 264.944 239.894 262.327 244.077 259.345Z" fill="#9FA4A9"/>
<path d="M87.957 220.38C48.927 165.378 55.3918 93.7503 102.397 60.3951C149.402 27.0398 219.147 44.5879 258.177 99.5898C297.207 154.592 290.742 226.219 243.737 259.575C196.732 292.93 126.987 275.382 87.957 220.38Z" fill="white"/>
<path d="M272.621 209.86C269.027 220.997 263.308 231.33 255.779 240.289C248.18 249.287 238.738 256.549 228.09 261.584C216.076 267.31 202.92 270.238 189.611 270.147C171.202 269.951 153.139 265.121 137.088 256.103C134.805 254.847 132.578 253.534 130.409 252.164C121.252 246.356 112.853 239.433 105.403 231.554C97.0602 222.745 89.9366 212.856 84.2225 202.153C76.3972 188.244 71.4543 172.902 69.6888 157.041C67.9232 141.18 69.3712 125.126 73.9463 109.838C77.4846 98.689 83.1885 88.3484 90.7309 79.4085C98.3423 70.4086 107.781 63.1302 118.42 58.0566C130.443 52.3581 143.593 49.4316 156.899 49.493C177.945 49.768 198.478 56.0251 216.101 67.5336L218.328 68.9608C225.085 73.4245 231.411 78.5086 237.225 84.1469C247.273 93.9151 255.747 105.181 262.344 117.545C270.145 131.463 275.074 146.804 276.839 162.661C278.604 178.518 277.17 194.568 272.621 209.86Z" fill="#C1C8DC"/>
<path d="M226.037 257.704C236.129 252.913 245.083 246.022 252.299 237.494C259.484 228.963 264.933 219.112 268.341 208.492C272.721 193.763 274.094 178.303 272.378 163.032C270.662 147.761 265.891 132.992 258.35 119.602C251.977 107.612 243.772 96.6906 234.03 87.232C228.403 81.7739 222.288 76.8434 215.761 72.5026L213.648 71.1325C196.62 60.1422 176.825 54.2036 156.558 54.0054C143.906 53.928 131.399 56.6988 119.963 62.1123C109.883 66.9228 100.933 73.8099 93.7016 82.3221C86.5274 90.86 81.0791 100.71 77.6592 111.324C73.2773 126.063 71.9036 141.532 73.6199 156.812C75.3363 172.092 80.1075 186.872 87.65 200.271C93.2122 210.651 100.123 220.249 108.203 228.816C115.387 236.441 123.5 243.135 132.352 248.741C134.521 250.111 136.691 251.367 138.803 252.566C154.226 261.234 171.58 265.886 189.271 266.096C202.005 266.136 214.581 263.266 226.037 257.704ZM213.363 71.5321L215.475 72.9023C222.012 77.2087 228.129 82.1212 233.744 87.5745C243.417 97.0022 251.581 107.862 257.95 119.773C265.465 133.121 270.217 147.844 271.923 163.066C273.63 178.288 272.256 193.698 267.884 208.378C264.504 218.934 259.093 228.728 251.956 237.208C244.783 245.681 235.889 252.532 225.866 257.304C214.489 262.711 202.038 265.482 189.442 265.411C171.832 265.193 154.559 260.56 139.203 251.938C137.09 250.739 134.921 249.483 132.809 248.113C123.96 242.547 115.847 235.892 108.659 228.302C100.631 219.719 93.7596 210.123 88.221 199.757C80.7678 186.416 76.0683 171.715 74.4012 156.525C72.7341 141.334 74.1331 125.964 78.5155 111.324C81.8959 100.768 87.3067 90.9741 94.4438 82.4934C101.615 74.0035 110.508 67.1341 120.534 62.3405C131.916 56.9532 144.366 54.2018 156.958 54.2909C177.01 54.5994 196.565 60.5768 213.363 71.5321Z" fill="#242A31"/>
<path d="M224.095 253.649C233.6 249.1 242.042 242.604 248.873 234.58C255.636 226.486 260.773 217.162 264.002 207.12C268.246 192.932 269.579 178.033 267.921 163.317C266.263 148.601 261.648 134.372 254.353 121.485C248.18 109.933 240.266 99.4002 230.889 90.2561C225.445 85.0177 219.541 80.2791 213.248 76.0976L211.193 74.7847C194.986 64.1756 176.097 58.3939 156.729 58.1142C144.746 58.053 132.902 60.6871 122.075 65.8214C112.566 70.3363 104.136 76.8387 97.3547 84.8896C90.5525 92.9667 85.394 102.295 82.1688 112.35C77.974 126.497 76.6663 141.343 78.3238 156.005C79.9813 170.667 84.5699 184.847 91.8169 197.7C97.1598 207.717 103.823 216.972 111.627 225.218C118.588 232.569 126.431 239.031 134.977 244.457C137.033 245.77 139.088 246.969 141.143 248.111C155.899 256.418 172.509 260.875 189.441 261.07C201.403 261.221 213.245 258.685 224.095 253.649ZM210.965 75.3554L213.02 76.6686C219.286 80.837 225.154 85.5768 230.547 90.827C239.904 99.9321 247.799 110.427 253.954 121.941C261.173 134.742 265.747 148.863 267.404 163.466C269.061 178.069 267.768 192.855 263.602 206.949C260.407 216.971 255.266 226.264 248.473 234.295C241.748 242.29 233.374 248.737 223.924 253.192C213.222 258.272 201.516 260.887 189.67 260.842C172.819 260.631 156.291 256.195 141.6 247.94C139.544 246.798 137.489 245.599 135.434 244.286C126.937 238.883 119.134 232.46 112.198 225.161C104.439 216.933 97.7972 207.72 92.445 197.757C85.2244 184.946 80.6498 170.816 78.9925 156.204C77.3351 141.591 78.6287 126.795 82.7967 112.693C85.9979 102.691 91.1388 93.4175 97.9256 85.4034C104.699 77.4206 113.085 70.9612 122.532 66.4493C133.228 61.3542 144.937 58.7392 156.786 58.7993C176.043 59.1111 194.822 64.8496 210.965 75.3554Z" fill="#242A31"/>
<path d="M222.155 249.537C231.088 245.284 239.01 239.173 245.391 231.611C251.799 223.98 256.666 215.177 259.72 205.692C263.721 192.124 264.954 177.89 263.345 163.836C261.737 149.782 257.32 136.195 250.358 123.881C244.366 112.702 236.661 102.531 227.521 93.7376C222.249 88.6664 216.516 84.0985 210.394 80.0931L208.453 78.8371C192.957 68.7031 174.901 63.1793 156.387 62.9088C145.074 62.8125 133.887 65.292 123.674 70.1594C114.762 74.4208 106.845 80.5089 100.438 88.0286C94.0389 95.6874 89.1738 104.507 86.1086 114.005C82.1499 127.586 80.9541 141.824 82.5916 155.875C84.2292 169.927 88.667 183.508 95.6427 195.815C100.818 205.469 107.249 214.396 114.768 222.362C121.45 229.435 128.987 235.649 137.204 240.86C139.203 242.116 141.201 243.257 143.199 244.342C157.26 252.311 173.11 256.592 189.271 256.788C200.639 256.882 211.881 254.403 222.155 249.537ZM208.567 79.1796L210.508 80.4356C216.62 84.4536 222.353 89.0207 227.636 94.0801C236.646 102.855 244.252 112.964 250.186 124.053C257.124 136.313 261.523 149.844 263.121 163.841C264.72 177.837 263.486 192.011 259.492 205.521C256.466 214.96 251.639 223.724 245.277 231.325C239.005 238.806 231.223 244.876 222.44 249.138C212.286 253.933 201.186 256.391 189.956 256.331C173.936 256.081 158.234 251.822 144.284 243.942C142.343 242.858 140.344 241.716 138.575 240.46C130.405 235.253 122.908 229.059 116.252 222.02C108.74 214.103 102.327 205.213 97.1841 195.587C90.259 183.322 85.8671 169.791 84.2686 155.797C82.6701 141.803 83.8977 127.63 87.8785 114.119C90.9306 104.691 95.7555 95.932 102.094 88.3141C108.467 80.836 116.346 74.7859 125.215 70.5589C135.36 65.7336 146.467 63.2742 157.7 63.3657C175.791 63.8375 193.398 69.3112 208.567 79.1796Z" fill="#242A31"/>
<path d="M220.155 245.427C228.522 241.477 235.941 235.772 241.907 228.7C247.954 221.516 252.532 213.214 255.38 204.265C259.195 191.28 260.362 177.66 258.813 164.214C257.263 150.769 253.028 137.772 246.36 125.994C240.604 115.277 233.25 105.497 224.551 96.9925C219.516 92.1313 214.052 87.7365 208.223 83.8618L206.34 82.6627C191.583 72.9796 174.376 67.693 156.728 67.4197C146.109 67.3423 135.609 69.6647 126.013 74.2135C117.655 78.2028 110.24 83.9242 104.262 90.9981C98.2267 98.1694 93.6499 106.45 90.7885 115.376C86.9737 128.361 85.8064 141.981 87.3559 155.426C88.9054 168.872 93.1402 181.869 99.8089 193.646C104.795 202.952 110.996 211.552 118.249 219.223C124.685 226.023 131.933 232.005 139.829 237.035C141.713 238.177 143.597 239.319 145.538 240.403C158.948 247.966 174.046 252.03 189.441 252.221C200.06 252.299 210.559 249.976 220.155 245.427ZM206.111 83.0624L207.995 84.2614C213.809 88.0851 219.239 92.4634 224.209 97.335C232.92 105.772 240.259 115.519 245.96 126.223C252.598 137.949 256.816 150.888 258.365 164.273C259.915 177.658 258.764 191.219 254.98 204.151C252.103 213.023 247.548 221.26 241.564 228.415C235.641 235.431 228.282 241.096 219.984 245.028C210.445 249.558 200.001 251.862 189.441 251.765C174.127 251.568 159.108 247.523 145.767 240.004C143.825 238.919 141.941 237.834 140.058 236.635C132.194 231.628 124.967 225.685 118.535 218.938C111.35 211.279 105.189 202.72 100.208 193.475C93.5649 181.751 89.348 168.809 87.8082 155.422C86.2684 142.034 87.4372 128.474 91.2453 115.547C94.0545 106.657 98.5947 98.411 104.604 91.2834C110.54 84.2795 117.896 78.6166 126.185 74.6701C135.72 70.1222 146.164 67.7991 156.728 67.8764C174.294 68.1664 191.417 73.4321 206.111 83.0624Z" fill="#242A31"/>
<path d="M218.216 241.319C226.005 237.653 232.917 232.358 238.483 225.79C244.112 219.056 248.396 211.304 251.1 202.954C254.715 190.556 255.806 177.558 254.305 164.731C252.805 151.904 248.744 139.509 242.365 128.28C233.737 111.911 221.134 97.9722 205.713 87.7455L203.943 86.6036C189.894 77.3925 173.526 72.3454 156.729 72.0457C146.86 71.9951 137.105 74.1606 128.184 78.3826C120.413 82.1033 113.508 87.4129 107.917 93.9683C102.287 100.702 98.0041 108.455 95.3 116.804C91.6827 129.212 90.592 142.219 92.0924 155.056C93.5927 167.892 97.6537 180.297 104.035 191.536C108.84 200.454 114.79 208.707 121.733 216.085C127.906 222.628 134.867 228.381 142.457 233.212C144.284 234.354 146.111 235.495 148.166 236.466C160.905 243.698 175.252 247.623 189.899 247.884C199.709 247.829 209.383 245.586 218.216 241.319ZM203.715 87.1746L205.484 88.3165C211.112 91.9015 216.388 96.0113 221.241 100.591C229.605 108.698 236.655 118.059 242.136 128.337C248.469 139.5 252.5 151.819 253.99 164.567C255.481 177.314 254.401 190.231 250.814 202.554C248.189 210.914 243.94 218.675 238.311 225.39C232.794 231.923 225.942 237.199 218.216 240.862C209.301 245.103 199.542 247.269 189.67 247.199C175.096 246.942 160.821 243.015 148.166 235.781C146.339 234.81 144.512 233.726 142.457 232.584C134.915 227.736 127.993 221.984 121.847 215.457C114.905 208.113 108.972 199.876 104.206 190.965C97.8794 179.799 93.8521 167.48 92.3617 154.734C90.8714 141.987 91.9482 129.071 95.5285 116.747C98.1695 108.382 102.438 100.621 108.088 93.9112C113.601 87.3977 120.43 82.125 128.127 78.4398C137.054 74.243 146.808 72.0972 156.672 72.1598C173.433 72.5053 189.75 77.6142 203.715 86.8892V87.1746Z" fill="#242A31"/>
<path d="M216.273 237.26C223.473 233.834 229.857 228.91 234.998 222.816C240.276 216.535 244.271 209.281 246.759 201.464C250.204 189.641 251.236 177.246 249.794 165.016C248.352 152.786 244.466 140.971 238.367 130.272C233.062 120.367 226.265 111.336 218.214 103.497C213.592 99.0098 208.565 94.9583 203.199 91.3939L201.486 90.3092C188.171 81.5691 172.653 76.7789 156.728 76.4932C147.468 76.3532 138.296 78.3047 129.895 82.2023C122.719 85.6404 116.341 90.5408 111.169 96.589C105.921 102.91 101.929 110.177 99.4089 117.998C95.9787 129.813 94.9541 142.197 96.3956 154.416C97.8372 166.634 101.715 178.44 107.801 189.133C112.432 197.739 118.192 205.688 124.928 212.768C130.842 218.997 137.494 224.481 144.739 229.096C146.508 230.181 148.278 231.265 149.991 232.179C162.073 239.01 175.676 242.7 189.555 242.912C198.769 243.025 207.894 241.095 216.273 237.26ZM201.258 90.7087L202.971 91.7934C208.305 95.3564 213.31 99.3878 217.928 103.84C225.912 111.668 232.667 120.656 237.967 130.501C244.025 141.141 247.889 152.888 249.33 165.047C250.771 177.206 249.761 189.531 246.359 201.293C243.836 209.048 239.864 216.255 234.656 222.53C229.536 228.57 223.192 233.454 216.044 236.86C207.718 240.739 198.625 242.69 189.44 242.569C175.639 242.376 162.11 238.704 150.105 231.893C148.392 230.98 146.623 229.952 144.91 228.81C137.673 224.231 131.037 218.765 125.157 212.539C118.433 205.511 112.674 197.621 108.03 189.075C101.958 178.429 98.0916 166.67 96.6596 154.498C95.2276 142.326 96.2596 129.991 99.6943 118.226C102.099 110.496 105.977 103.304 111.112 97.0458C116.229 91.0023 122.573 86.1174 129.724 82.7161C138.051 78.839 147.144 76.8877 156.328 77.007C172.306 77.1885 187.898 81.9432 201.258 90.7087Z" fill="#242A31"/>
<path d="M190.297 215.567C181.328 215.357 172.554 212.903 164.777 208.431L160.952 206.205C155.657 202.826 150.805 198.798 146.509 194.216C141.498 188.929 137.216 182.996 133.777 176.575C129.509 169.288 126.731 161.225 125.604 152.856C124.477 144.486 125.023 135.976 127.212 127.819C128.523 123.668 130.594 119.796 133.321 116.401C135.698 113.629 138.636 111.391 141.941 109.836C146.239 107.805 150.947 106.789 155.7 106.867C166.147 107.183 176.295 110.427 184.987 116.23L186.129 116.972C190.074 119.588 193.763 122.57 197.148 125.878C203.203 131.716 208.291 138.48 212.219 145.917C216.488 153.204 219.266 161.267 220.393 169.636C221.52 178.006 220.973 186.516 218.785 194.672C217.528 198.847 215.452 202.729 212.676 206.09C210.317 208.897 207.375 211.156 204.056 212.713C199.742 214.686 195.039 215.662 190.297 215.567Z" fill="#E8EEF4"/>
<path d="M189.327 164.706L187.157 170.072C185.045 175.324 178.879 176.181 172.599 171.785C169.327 169.546 166.72 166.465 165.052 162.868C163.384 159.271 162.717 155.291 163.122 151.346C163.222 150.862 163.355 150.385 163.522 149.919L165.691 144.553C165.505 145.017 165.353 145.494 165.235 145.98C164.842 149.929 165.52 153.911 167.198 157.507C168.875 161.103 171.491 164.182 174.769 166.418C180.992 170.871 186.986 170.015 189.327 164.706Z" fill="#D8DFE9"/>
<path d="M189.327 164.707L187.157 170.074C185.045 175.326 178.879 176.183 172.599 171.787C169.327 169.548 166.72 166.467 165.052 162.87C163.384 159.273 162.717 155.293 163.122 151.348C163.222 150.864 163.355 150.387 163.522 149.921L165.691 144.555C165.505 145.019 165.353 145.496 165.235 145.982C164.842 149.931 165.52 153.913 167.198 157.509C168.875 161.105 171.491 164.184 174.769 166.42C180.992 170.873 187.215 170.017 189.327 164.707Z" fill="#D8DFE9"/>
<path d="M180.25 142.839C183.538 145.08 186.159 148.167 187.837 151.775C189.515 155.382 190.188 159.376 189.784 163.334C188.243 169.842 181.563 171.213 174.769 166.417C171.491 164.181 168.876 161.102 167.198 157.506C165.521 153.91 164.843 149.928 165.235 145.979C166.777 139.47 173.514 138.043 180.25 142.839Z" fill="white"/>
<path fill-rule="evenodd" clip-rule="evenodd" d="M164.151 229.549C163.997 230.093 163.733 230.599 163.374 231.036C163.015 231.473 162.57 231.831 162.067 232.088C161.564 232.345 161.012 232.496 160.448 232.53C159.884 232.564 159.319 232.482 158.788 232.288C157.752 231.718 156.968 230.781 156.588 229.662C156.208 228.543 156.26 227.322 156.734 226.24C156.894 225.701 157.163 225.201 157.524 224.77C157.886 224.339 158.332 223.988 158.834 223.736C159.337 223.485 159.886 223.339 160.447 223.309C161.009 223.278 161.57 223.363 162.097 223.558C163.128 224.117 163.912 225.044 164.292 226.153C164.672 227.263 164.622 228.475 164.151 229.549Z" fill="#242A31"/>
<path fill-rule="evenodd" clip-rule="evenodd" d="M100.779 146.263C100.985 146.79 101.079 147.353 101.057 147.918C101.034 148.483 100.896 149.037 100.65 149.546C100.403 150.055 100.054 150.507 99.6252 150.875C99.1959 151.243 98.6954 151.518 98.1548 151.684C96.9886 151.861 95.7983 151.596 94.8168 150.942C93.8354 150.288 93.1335 149.29 92.8485 148.146C92.6431 147.619 92.5485 147.056 92.5709 146.491C92.5933 145.926 92.732 145.372 92.9784 144.863C93.2247 144.354 93.5735 143.902 94.0028 143.534C94.432 143.166 94.9326 142.891 95.4731 142.725C96.6393 142.548 97.8295 142.813 98.8109 143.467C99.7924 144.121 100.494 145.118 100.779 146.263Z" fill="#242A31"/>
<path fill-rule="evenodd" clip-rule="evenodd" d="M240.88 184.911C240.825 185.475 240.655 186.023 240.38 186.52C240.106 187.016 239.732 187.452 239.284 187.799C238.835 188.146 238.32 188.398 237.77 188.539C237.22 188.68 236.648 188.708 236.087 188.619C234.925 188.262 233.948 187.467 233.362 186.402C232.777 185.337 232.628 184.086 232.949 182.914C232.997 182.351 233.16 181.805 233.429 181.308C233.697 180.812 234.065 180.376 234.509 180.028C234.954 179.68 235.465 179.427 236.011 179.286C236.558 179.144 237.127 179.116 237.685 179.205C238.857 179.55 239.848 180.34 240.445 181.407C241.042 182.473 241.198 183.731 240.88 184.911Z" fill="#242A31"/>
<path fill-rule="evenodd" clip-rule="evenodd" d="M176.368 103.666C176.319 104.23 176.156 104.778 175.888 105.277C175.62 105.776 175.253 106.215 174.81 106.568C174.367 106.92 173.856 107.179 173.31 107.327C172.763 107.476 172.192 107.511 171.632 107.432C170.468 107.074 169.486 106.281 168.891 105.219C168.296 104.156 168.133 102.905 168.436 101.726C168.477 101.158 168.635 100.606 168.9 100.102C169.165 99.5992 169.532 99.1567 169.977 98.8027C170.422 98.4487 170.936 98.191 171.486 98.0459C172.036 97.9008 172.61 97.8716 173.172 97.9599C174.344 98.3053 175.335 99.0955 175.932 100.162C176.529 101.228 176.686 102.486 176.368 103.666Z" fill="#242A31"/>
<path d="M97.125 149.007C96.6918 148.973 96.285 148.785 95.9777 148.478C95.6704 148.17 95.4828 147.764 95.4484 147.33C95.414 146.897 95.5353 146.466 95.7902 146.114C96.0452 145.762 96.4171 145.513 96.8394 145.41L235.226 123.431C235.472 123.371 235.727 123.363 235.975 123.406C236.224 123.45 236.461 123.545 236.671 123.685C236.881 123.825 237.06 124.007 237.196 124.219C237.332 124.432 237.423 124.67 237.463 124.919C237.502 125.169 237.49 125.423 237.426 125.668C237.362 125.912 237.248 126.14 237.092 126.338C236.935 126.536 236.74 126.7 236.517 126.818C236.294 126.937 236.049 127.008 235.797 127.027L97.4104 149.178L97.125 149.007Z" fill="white"/>
<path d="M235.285 124.907H234.714L172.543 105.211C172.09 105.054 171.714 104.73 171.491 104.306C171.268 103.882 171.216 103.389 171.344 102.927C171.488 102.466 171.81 102.08 172.238 101.856C172.666 101.631 173.166 101.585 173.627 101.728L235.856 121.481C236.253 121.628 236.587 121.908 236.801 122.274C237.014 122.639 237.094 123.068 237.026 123.486C236.959 123.904 236.748 124.286 236.431 124.566C236.113 124.846 235.708 125.007 235.285 125.021V124.907Z" fill="white"/>
<path d="M160.724 229.731C160.336 229.731 159.957 229.611 159.639 229.388C159.259 229.104 159.005 228.682 158.931 228.213C158.856 227.744 158.967 227.265 159.24 226.876L235.455 122.458C235.74 122.078 236.162 121.824 236.63 121.749C237.099 121.675 237.579 121.786 237.967 122.058C238.351 122.353 238.607 122.784 238.681 123.263C238.756 123.741 238.643 124.23 238.367 124.627L162.209 228.989C162.037 229.221 161.814 229.409 161.556 229.538C161.298 229.667 161.013 229.733 160.724 229.731Z" fill="white"/>
<path d="M236.312 185.37C235.822 185.356 235.357 185.151 235.016 184.799C234.675 184.447 234.485 183.976 234.485 183.486L235.056 123.541C235.071 123.052 235.276 122.587 235.627 122.246C235.979 121.905 236.45 121.714 236.94 121.715C237.414 121.73 237.864 121.928 238.195 122.269C238.525 122.61 238.71 123.067 238.709 123.541L238.139 183.544C238.124 184.023 237.927 184.48 237.588 184.819C237.248 185.159 236.792 185.356 236.312 185.37Z" fill="white"/>
<path d="M248.586 123.426C248.597 120.488 247.736 117.612 246.112 115.164C244.488 112.715 242.174 110.804 239.462 109.672C236.751 108.539 233.765 108.237 230.882 108.804C227.999 109.37 225.348 110.779 223.267 112.853C221.185 114.926 219.766 117.571 219.188 120.452C218.611 123.333 218.902 126.32 220.023 129.036C221.145 131.752 223.048 134.073 225.49 135.707C227.932 137.34 230.804 138.212 233.742 138.212C235.689 138.22 237.618 137.843 239.418 137.103C241.219 136.363 242.856 135.275 244.235 133.902C245.614 132.528 246.708 130.895 247.455 129.098C248.201 127.3 248.586 125.372 248.586 123.426Z" fill="#E8EEF4"/>
<defs>
<linearGradient id="paint0_linear_31_84745" x1="209.056" y1="327.562" x2="74.6906" y2="327.562" gradientUnits="userSpaceOnUse">
<stop stop-color="#4EB1D6"/>
<stop offset="1" stop-color="#3783AD"/>
</linearGradient>
<linearGradient id="paint1_linear_31_84745" x1="208.854" y1="310.65" x2="208.453" y2="310.65" gradientUnits="userSpaceOnUse">
<stop stop-color="#4EB1D6"/>
<stop offset="1" stop-color="#3783AD"/>
</linearGradient>
<linearGradient id="paint2_linear_31_84745" x1="208.481" y1="324.052" x2="190.185" y2="324.052" gradientUnits="userSpaceOnUse">
<stop stop-color="#4EB1D6"/>
<stop offset="1" stop-color="#3783AD"/>
</linearGradient>
<linearGradient id="paint3_linear_31_84745" x1="190.208" y1="338.712" x2="174.656" y2="338.712" gradientUnits="userSpaceOnUse">
<stop stop-color="#4EB1D6"/>
<stop offset="1" stop-color="#3783AD"/>
</linearGradient>
<linearGradient id="paint4_linear_31_84745" x1="174.72" y1="344.654" x2="132.467" y2="344.654" gradientUnits="userSpaceOnUse">
<stop stop-color="#4EB1D6"/>
<stop offset="1" stop-color="#3783AD"/>
</linearGradient>
<linearGradient id="paint5_linear_31_84745" x1="132.553" y1="327.348" x2="74.6899" y2="327.348" gradientUnits="userSpaceOnUse">
<stop stop-color="#4EB1D6"/>
<stop offset="1" stop-color="#3783AD"/>
</linearGradient>
<linearGradient id="paint6_linear_31_84745" x1="209.069" y1="282.111" x2="74.654" y2="282.111" gradientUnits="userSpaceOnUse">
<stop stop-color="#4EB1D6"/>
<stop offset="1" stop-color="#3783AD"/>
</linearGradient>
</defs>
</svg>
