<svg width="400" height="488" viewBox="0 0 400 488" fill="none" xmlns="http://www.w3.org/2000/svg">
<path d="M129.601 411.979L138.09 406.695" stroke="#535353" stroke-width="3" stroke-miterlimit="10"/>
<path d="M181.602 445.309L173.113 440.025" stroke="#535353" stroke-width="3" stroke-miterlimit="10"/>
<g style="mix-blend-mode:multiply" opacity="0.19">
<path d="M185.354 290.224H40.1597L36.4072 387.66H104.869L111.673 394.177L81.003 437.095H156.502L161.005 441.411L140.775 471.595H192.509L208.936 487.329H272.728L399.627 413.861L185.354 290.224Z" fill="#2C2C2C"/>
</g>
<path d="M190.975 325.187L190.591 377.272L291.69 439.573V382.805L190.975 325.187Z" fill="url(#paint0_linear_31_85461)"/>
<path d="M119.245 239.101L16.0272 297.453L208.936 408.889L310.853 350.087L119.245 239.101Z" fill="url(#paint1_linear_31_85461)"/>
<path d="M310.853 350.09L208.937 408.891V487.326L235.487 472.009V445.109L291.69 412.674V439.575L310.853 428.508V350.09Z" fill="url(#paint2_linear_31_85461)"/>
<path d="M36.4072 331.12V387.655L55.4697 376.855L55.4197 320.353L36.4072 331.12Z" fill="url(#paint3_linear_31_85461)"/>
<path d="M208.937 408.893L16.0272 297.457V375.892L36.4072 387.659V361.008L58.6551 373.892V400.543L208.937 487.328V408.893Z" fill="url(#paint4_linear_31_85461)"/>
<g style="mix-blend-mode:multiply">
<path d="M267.541 325.138L179.534 273.754H116.526V280.104L77.7007 302.738H116.526V325.138H267.541Z" fill="url(#paint5_linear_31_85461)"/>
</g>
<path d="M116.526 241.539V280.34L155.335 302.74V263.939L116.526 241.539ZM134.438 271.306L118.628 277.973V246.306L134.438 271.306ZM120.079 245.722L151.766 263.973L135.939 270.639L120.079 245.722ZM135.889 273.623L151.716 298.623L120.028 280.29L135.889 273.623ZM137.39 273.006L153.2 266.339V298.007L137.39 273.006Z" fill="#2A2A2A"/>
<path d="M116.526 286.308V325.143L155.335 302.742V263.941L116.526 286.308ZM134.438 295.375L118.628 320.376V288.709L134.438 295.375ZM120.079 286.308L151.766 268.058L135.939 293.059L120.079 286.308ZM135.889 295.959L151.716 302.625L120.028 320.959L135.889 295.959ZM137.39 293.625L153.2 268.625V300.292L137.39 293.625Z" fill="#979797"/>
<path d="M77.7007 263.939V302.74L116.526 280.34V241.539L77.7007 263.939ZM95.6125 272.973L79.8021 297.973V266.306L95.6125 272.973ZM81.2864 263.939L112.974 245.689L97.1635 270.689L81.2864 263.939ZM97.1134 273.59L112.924 280.256L81.2364 298.59L97.1134 273.59ZM98.5978 271.256L114.408 246.256V277.923L98.5978 271.256Z" fill="#2A2A2A"/>
<path d="M77.7007 263.941V302.742L116.526 325.143V286.308L77.7007 263.941ZM95.6125 293.692L79.8021 300.359V268.691L95.6125 293.692ZM81.2864 268.125L112.974 286.375L97.1635 293.042L81.2864 268.125ZM97.1134 296.025L112.924 321.026L81.2364 302.692L97.1134 296.025ZM98.5978 295.409L114.408 288.742V320.409L98.5978 295.409Z" fill="#979797"/>
<path d="M116.526 204.099V242.967L155.335 265.368V226.5L116.526 204.099ZM134.438 233.834L118.628 240.5V208.833L134.438 233.834ZM120.079 208.266L151.766 226.6L135.939 233.267L120.079 208.266ZM135.889 236.184L151.716 261.184L120.028 242.934L135.889 236.184ZM137.39 235.55L153.2 228.883V260.551L137.39 235.55Z" fill="#2A2A2A"/>
<path d="M116.526 248.902V287.703L155.335 265.303V226.502L116.526 248.902ZM134.438 257.969L118.628 282.97V251.302L134.438 257.969ZM120.079 248.936L151.766 230.602L135.939 255.603L120.079 248.936ZM135.889 258.586L151.716 265.253L120.028 283.587L135.889 258.586ZM137.39 256.236L153.2 231.235V262.903L137.39 256.236Z" fill="#979797"/>
<path d="M77.7007 226.5V265.301L116.526 242.967V204.099L77.7007 226.5ZM95.6125 235.55L79.8021 260.551V228.883L95.6125 235.55ZM81.2864 226.533L112.974 208.2L97.1635 233.2L81.2864 226.533ZM97.1134 236.184L112.924 242.85L81.2364 261.101L97.1134 236.184ZM98.5978 233.834L114.408 208.833V240.5L98.5978 233.834Z" fill="#2A2A2A"/>
<path d="M77.7007 226.502V265.303L116.526 287.703V248.902L77.7007 226.502ZM95.6125 256.303L79.8021 262.969V231.302L95.6125 256.303ZM81.2864 230.735L112.974 249.069L97.1635 255.736L81.2864 230.735ZM97.1134 258.653L112.924 283.653L81.2364 265.319L97.1134 258.653ZM98.5978 258.019L114.408 251.352V283.02L98.5978 258.019Z" fill="#979797"/>
<path d="M116.526 166.67V205.454L155.335 227.855V189.07L116.526 166.67ZM134.438 196.404L118.628 203.071V171.403L134.438 196.404ZM120.079 170.837L151.766 189.087L135.939 195.754L120.079 170.837ZM135.889 198.754L151.716 223.754L120.028 205.421L135.889 198.754ZM137.39 198.121L153.2 191.454V223.121L137.39 198.121Z" fill="#2A2A2A"/>
<path d="M116.526 211.471V250.255L155.335 227.854V189.07L116.526 211.471ZM134.438 220.521L118.628 245.521V213.854L134.438 220.521ZM120.079 211.487L151.766 193.154L135.939 218.154L120.079 211.487ZM135.889 221.154L151.716 227.821L120.028 246.155L135.889 221.154ZM137.39 218.804L153.2 193.804V225.471L137.39 218.804Z" fill="#979797"/>
<path d="M77.7007 189.07V227.855L116.526 205.454V166.67L77.7007 189.07ZM95.6125 198.121L79.8021 223.121V191.454L95.6125 198.121ZM81.2864 189.087L112.974 170.837L97.1635 195.837L81.2864 189.087ZM97.1134 198.754L112.924 205.421L81.2364 223.754L97.1134 198.754ZM98.5978 196.404L114.408 171.403V203.071L98.5978 196.404Z" fill="#2A2A2A"/>
<path d="M77.7007 189.07V227.854L116.526 250.255V211.471L77.7007 189.07ZM95.6125 218.804L79.8021 225.471V193.804L95.6125 218.804ZM81.2864 193.237L112.974 211.571L97.1635 218.238L81.2864 193.237ZM97.1134 221.154L112.924 246.155L81.2364 227.821L97.1134 221.154ZM98.5978 220.521L114.408 213.854V245.521L98.5978 220.521Z" fill="#979797"/>
<path d="M116.526 129.221V167.971L155.335 190.372V151.621L116.526 129.221ZM134.438 158.971L118.628 165.638V133.971L134.438 158.971ZM120.079 133.404L151.766 151.738L135.939 158.405L120.079 133.404ZM135.922 161.305L151.766 186.305L120.079 167.971L135.922 161.305ZM137.423 160.688L153.233 154.021V185.689L137.423 160.688Z" fill="#2A2A2A"/>
<path d="M116.526 174.018V212.818L155.335 190.418V151.617L116.526 174.018ZM134.438 183.084L118.628 208.085V176.418L134.438 183.084ZM120.079 174.051L151.766 155.717L135.939 180.718L120.079 174.051ZM135.889 183.701L151.716 190.368L120.028 208.702L135.889 183.701ZM137.39 181.368L153.2 156.367V188.035L137.39 181.368Z" fill="#979797"/>
<path d="M77.7007 151.621V190.422L116.526 167.971V129.221L77.7007 151.621ZM95.6125 160.688L79.8021 185.689V154.021L95.6125 160.688ZM81.2864 151.654L112.974 133.321L97.1635 158.321L81.2864 151.654ZM97.1134 161.305L112.924 167.971L81.2364 186.305L97.1134 161.305ZM98.5978 158.971L114.408 133.971V165.638L98.5978 158.971Z" fill="#2A2A2A"/>
<path d="M77.7007 151.617V190.418L116.526 212.818V174.018L77.7007 151.617ZM95.6125 181.301L79.8021 187.968V156.301L95.6125 181.301ZM81.2864 155.734L112.974 174.068L97.1635 180.734L81.2864 155.734ZM97.1134 183.634L112.924 208.635L81.2364 190.301L97.1134 183.634ZM98.5978 183.018L114.408 176.351V208.018L98.5978 183.018Z" fill="#979797"/>
<path d="M116.843 184.034C181.374 184.034 233.686 153.849 233.686 116.615C233.686 79.3813 181.374 49.1971 116.843 49.1971C52.3124 49.1971 0 79.3813 0 116.615C0 153.849 52.3124 184.034 116.843 184.034Z" fill="url(#paint6_linear_31_85461)"/>
<path d="M116.843 178.668C181.374 178.668 233.686 148.484 233.686 111.25C233.686 74.0161 181.374 43.8319 116.843 43.8319C52.3124 43.8319 0 74.0161 0 111.25C0 148.484 52.3124 178.668 116.843 178.668Z" fill="url(#paint7_linear_31_85461)"/>
<path d="M134.638 136.52C133.744 134.089 131.954 132.092 129.635 130.937C125.674 128.924 121.294 127.875 116.851 127.875C112.408 127.875 108.028 128.924 104.068 130.937C101.739 132.079 99.9452 134.081 99.0648 136.52H98.7812V138.303C98.7812 140.97 100.549 143.637 104.068 145.687C108.032 147.688 112.411 148.73 116.851 148.73C121.292 148.73 125.671 147.688 129.635 145.687C133.17 143.637 134.938 140.97 134.938 138.303V136.52H134.638Z" fill="url(#paint8_linear_31_85461)"/>
<path d="M129.618 129.135C136.689 133.219 136.689 139.819 129.618 143.886C125.658 145.898 121.278 146.947 116.835 146.947C112.392 146.947 108.012 145.898 104.051 143.886C96.9967 139.819 96.9967 133.219 104.051 129.135C108.015 127.134 112.394 126.092 116.835 126.092C121.276 126.092 125.654 127.134 129.618 129.135Z" fill="#979797"/>
<path d="M179.534 100.784C181.719 102.035 181.719 104.118 179.534 105.351C178.304 105.967 176.948 106.288 175.573 106.288C174.198 106.288 172.841 105.967 171.612 105.351C169.427 104.085 169.427 102.018 171.612 100.784C172.839 100.16 174.196 99.8339 175.573 99.8339C176.95 99.8339 178.307 100.16 179.534 100.784Z" fill="#2A2A2A"/>
<path d="M61.9237 100.784C64.1085 102.035 64.1085 104.118 61.9237 105.351C60.6943 105.967 59.338 106.288 57.9628 106.288C56.5875 106.288 55.2313 105.967 54.0019 105.351C51.8171 104.085 51.8171 102.018 54.0019 100.784C55.2286 100.16 56.5859 99.8339 57.9628 99.8339C59.3397 99.8339 60.697 100.16 61.9237 100.784Z" fill="#2A2A2A"/>
<path d="M175.548 151.92C178.643 151.92 181.152 150.472 181.152 148.686C181.152 146.901 178.643 145.453 175.548 145.453C172.453 145.453 169.944 146.901 169.944 148.686C169.944 150.472 172.453 151.92 175.548 151.92Z" fill="#2A2A2A"/>
<path d="M61.1567 149.517C64.2515 149.517 66.7603 148.07 66.7603 146.284C66.7603 144.498 64.2515 143.051 61.1567 143.051C58.0619 143.051 55.553 144.498 55.553 146.284C55.553 148.07 58.0619 149.517 61.1567 149.517Z" fill="#2A2A2A"/>
<path d="M123.798 78.7982C127.634 81.0149 127.634 84.615 123.798 86.8317C121.643 87.9253 119.26 88.4952 116.843 88.4952C114.426 88.4952 112.044 87.9253 109.889 86.8317C106.036 84.615 106.036 81.0149 109.889 78.7982C112.044 77.7046 114.426 77.1346 116.843 77.1346C119.26 77.1346 121.643 77.7046 123.798 78.7982Z" fill="url(#paint9_linear_31_85461)"/>
<path d="M123.798 86.833C121.643 87.9266 119.26 88.4966 116.843 88.4966C114.426 88.4966 112.043 87.9266 109.888 86.833C109.093 86.4807 108.407 85.9227 107.9 85.2165C107.392 84.5104 107.083 83.6818 107.003 82.8163V136.034C107.078 136.901 107.385 137.732 107.893 138.439C108.401 139.146 109.09 139.703 109.888 140.051C112.043 141.144 114.426 141.714 116.843 141.714C119.26 141.714 121.643 141.144 123.798 140.051C124.594 139.7 125.281 139.142 125.789 138.436C126.296 137.73 126.605 136.9 126.683 136.034V82.8163C126.592 83.6783 126.278 84.5018 125.772 85.206C125.266 85.9102 124.586 86.4709 123.798 86.833Z" fill="url(#paint10_linear_31_85461)"/>
<path d="M130.368 82.1332C129.684 80.2869 128.326 78.7682 126.566 77.8831C123.551 76.3624 120.22 75.5702 116.843 75.5702C113.465 75.5702 110.135 76.3624 107.12 77.8831C105.352 78.7622 103.986 80.2823 103.301 82.1332H103.101V83.5C103.101 85.5333 104.435 87.55 107.12 89.1001C110.133 90.6285 113.464 91.4251 116.843 91.4251C120.222 91.4251 123.553 90.6285 126.566 89.1001C129.234 87.55 130.585 85.5333 130.585 83.5V82.1332H130.368Z" fill="url(#paint11_linear_31_85461)"/>
<path d="M116.843 90.0661C124.433 90.0661 130.585 86.5142 130.585 82.1326C130.585 77.7511 124.433 74.1991 116.843 74.1991C109.253 74.1991 103.101 77.7511 103.101 82.1326C103.101 86.5142 109.253 90.0661 116.843 90.0661Z" fill="url(#paint12_linear_31_85461)"/>
<path d="M123.497 75.368C127.166 77.5014 127.166 80.9348 123.497 83.0515C121.43 84.1011 119.145 84.6482 116.826 84.6482C114.508 84.6482 112.222 84.1011 110.155 83.0515C106.469 80.9348 106.469 77.5014 110.155 75.368C112.222 74.3184 114.508 73.7714 116.826 73.7714C119.145 73.7714 121.43 74.3184 123.497 75.368Z" fill="url(#paint13_linear_31_85461)"/>
<path d="M123.497 83.052C121.43 84.1016 119.145 84.6487 116.826 84.6487C114.508 84.6487 112.222 84.1016 110.155 83.052C109.398 82.7136 108.745 82.1804 108.261 81.5069C107.778 80.8334 107.482 80.0438 107.404 79.2186V81.9353C107.482 82.7605 107.778 83.5501 108.261 84.2236C108.745 84.8971 109.398 85.4303 110.155 85.7687C112.222 86.8183 114.508 87.3654 116.826 87.3654C119.145 87.3654 121.43 86.8183 123.497 85.7687C124.254 85.4303 124.908 84.8971 125.391 84.2236C125.875 83.5501 126.171 82.7605 126.249 81.9353V79.2186C126.171 80.0438 125.875 80.8334 125.391 81.5069C124.908 82.1804 124.254 82.7136 123.497 83.052Z" fill="url(#paint14_linear_31_85461)"/>
<path d="M123.798 22.9662C127.634 25.1829 127.634 28.7663 123.798 30.983C121.643 32.0766 119.26 32.6465 116.843 32.6465C114.426 32.6465 112.044 32.0766 109.889 30.983C106.036 28.7663 106.036 25.1829 109.889 22.9662C112.044 21.8726 114.426 21.3026 116.843 21.3026C119.26 21.3026 121.643 21.8726 123.798 22.9662Z" fill="url(#paint15_linear_31_85461)"/>
<path d="M123.798 30.9151C121.643 32.0086 119.26 32.5786 116.843 32.5786C114.426 32.5786 112.043 32.0086 109.888 30.9151C109.09 30.5671 108.401 30.0103 107.893 29.3033C107.385 28.5963 107.078 27.7654 107.003 26.8983V38.1652C107.083 39.0308 107.392 39.8594 107.9 40.5655C108.407 41.2716 109.093 41.8296 109.888 42.182C112.043 43.2756 114.426 43.8455 116.843 43.8455C119.26 43.8455 121.643 43.2756 123.798 42.182C124.586 41.8198 125.266 41.2591 125.772 40.555C126.278 39.8508 126.592 39.0273 126.683 38.1652V26.8983C126.605 27.7644 126.296 28.5937 125.789 29.3002C125.281 30.0066 124.594 30.5642 123.798 30.9151Z" fill="url(#paint16_linear_31_85461)"/>
<path d="M111.356 32.6521L104.685 29.9354L56.9039 145.271C56.6704 145.938 57.0207 146.671 57.9713 147.188C58.8398 147.607 59.7919 147.825 60.7564 147.825C61.7209 147.825 62.673 147.607 63.5416 147.188C64.005 146.965 64.3764 146.588 64.5923 146.121L111.356 32.6521Z" fill="url(#paint17_linear_31_85461)"/>
<path d="M110.072 29.6296L104.101 25.7129L54.2354 102.115C53.8352 102.848 54.1354 103.681 55.2028 104.265C56.0684 104.684 57.0178 104.901 57.9796 104.901C58.9414 104.901 59.8907 104.684 60.7564 104.265C61.2526 104.044 61.642 103.637 61.8404 103.131L110.072 29.6296Z" fill="url(#paint18_linear_31_85461)"/>
<path d="M179.334 102.466V102.332V102.216L128.884 23.4139L122.88 27.264L171.779 103.399C171.975 103.923 172.371 104.349 172.88 104.582C173.745 105.001 174.695 105.219 175.656 105.219C176.618 105.219 177.568 105.001 178.433 104.582C179.384 104.016 179.701 103.199 179.334 102.466Z" fill="url(#paint19_linear_31_85461)"/>
<path d="M179.334 147.667L128.534 29.8807L121.963 32.6975L171.579 148.283C171.648 148.579 171.785 148.855 171.979 149.09C172.173 149.324 172.418 149.51 172.696 149.633C173.562 150.052 174.511 150.27 175.473 150.27C176.435 150.27 177.384 150.052 178.25 149.633C179.234 149.1 179.584 148.367 179.334 147.667Z" fill="url(#paint20_linear_31_85461)"/>
<path d="M130.368 26.2957C129.689 24.4468 128.329 22.9267 126.566 22.0456C123.553 20.5172 120.222 19.7206 116.843 19.7206C113.464 19.7206 110.133 20.5172 107.12 22.0456C105.349 22.9205 103.981 24.442 103.301 26.2957H103.101V27.6457C103.101 29.6791 104.435 31.7125 107.12 33.2625C110.135 34.7833 113.465 35.5755 116.843 35.5755C120.22 35.5755 123.551 34.7833 126.566 33.2625C129.234 31.7125 130.585 29.6791 130.585 27.6457V26.2957H130.368Z" fill="url(#paint21_linear_31_85461)"/>
<path d="M126.566 20.6159C131.92 23.716 131.92 28.7328 126.566 31.8329C123.553 33.3613 120.222 34.1579 116.843 34.1579C113.464 34.1579 110.133 33.3613 107.12 31.8329C101.75 28.7328 101.75 23.716 107.12 20.6159C110.133 19.0875 113.464 18.2909 116.843 18.2909C120.222 18.2909 123.553 19.0875 126.566 20.6159Z" fill="url(#paint22_linear_31_85461)"/>
<path d="M123.497 1.59653C127.166 3.71324 127.166 7.16332 123.497 9.28004C121.43 10.3296 119.145 10.8767 116.826 10.8767C114.508 10.8767 112.222 10.3296 110.155 9.28004C106.469 7.16332 106.469 3.71324 110.155 1.59653C112.222 0.546938 114.508 -0.00012207 116.826 -0.00012207C119.145 -0.00012207 121.43 0.546938 123.497 1.59653Z" fill="url(#paint23_linear_31_85461)"/>
<path d="M123.497 9.2816C121.43 10.3312 119.145 10.8782 116.826 10.8782C114.508 10.8782 112.222 10.3312 110.155 9.2816C109.396 8.94176 108.741 8.406 108.257 7.72936C107.774 7.05273 107.479 6.25962 107.404 5.43152V26.0153C107.48 26.841 107.775 27.6313 108.259 28.3051C108.743 28.9789 109.397 29.5117 110.155 29.8487C112.222 30.8983 114.508 31.4453 116.826 31.4453C119.145 31.4453 121.43 30.8983 123.497 29.8487C124.255 29.5117 124.91 28.9789 125.394 28.3051C125.877 27.6313 126.173 26.841 126.249 26.0153V5.43152C126.174 6.25962 125.879 7.05273 125.396 7.72936C124.912 8.406 124.257 8.94176 123.497 9.2816Z" fill="url(#paint24_linear_31_85461)"/>
<path d="M140.775 447.14V471.591L160.888 459.974V435.523L140.775 447.14Z" fill="url(#paint25_linear_31_85461)"/>
<path d="M120.662 435.523V459.974L140.775 471.591V447.14L120.662 435.523Z" fill="url(#paint26_linear_31_85461)"/>
<path d="M160.889 435.524L140.775 447.141L120.662 435.524L140.775 423.924L160.889 435.524Z" fill="url(#paint27_linear_31_85461)"/>
<path d="M169.677 430.689L169.878 448.79L160.889 453.79L160.705 435.689L169.677 430.689Z" fill="url(#paint28_linear_31_85461)"/>
<path d="M140.775 423.925L160.705 435.692L169.677 430.692L149.765 418.908L140.775 423.925Z" fill="url(#paint29_linear_31_85461)"/>
<path d="M81.0029 412.641V437.092L101.116 425.491V401.041L81.0029 412.641Z" fill="url(#paint30_linear_31_85461)"/>
<path d="M60.8898 401.041V425.491L81.0027 437.092V412.641L60.8898 401.041Z" fill="url(#paint31_linear_31_85461)"/>
<path d="M101.116 401.038L81.0029 412.638L60.8898 401.038L81.0029 389.437L101.116 401.038Z" fill="url(#paint32_linear_31_85461)"/>
<path d="M109.905 396.189L110.105 414.29L101.116 419.306L100.933 401.206L109.905 396.189Z" fill="url(#paint33_linear_31_85461)"/>
<path d="M81.0029 389.442L100.933 401.209L109.905 396.193L89.9922 384.426L81.0029 389.442Z" fill="url(#paint34_linear_31_85461)"/>
<path style="mix-blend-mode:multiply" d="M222.612 390.104H233.102L289.389 357.637L252.565 335.769H223.83L222.612 390.104Z" fill="url(#paint35_linear_31_85461)"/>
<path d="M274.329 356.122L222.612 385.956L170.895 356.122L222.612 326.271L274.329 356.122Z" fill="url(#paint36_linear_31_85461)"/>
<path d="M222.612 385.959V390.392L274.329 360.558V356.125L222.612 385.959Z" fill="url(#paint37_linear_31_85461)"/>
<path d="M170.895 356.125V360.558L222.612 390.392V385.959L170.895 356.125Z" fill="url(#paint38_linear_31_85461)"/>
<path d="M257.852 328.641L220.944 349.942L184.037 328.641L220.944 307.357L257.852 328.641Z" fill="url(#paint39_linear_31_85461)"/>
<path d="M220.944 310.625V313.375L249.78 330.009L252.165 328.642L220.944 310.625Z" fill="url(#paint40_linear_31_85461)"/>
<path d="M189.724 328.642L192.109 330.009L220.944 313.375V310.625L189.724 328.642Z" fill="url(#paint41_linear_31_85461)"/>
<path d="M249.78 330.001L220.944 313.367L192.109 330.001L220.944 346.651L249.78 330.001Z" fill="url(#paint42_linear_31_85461)"/>
<path d="M220.944 349.943V377.41L257.852 356.126V328.642L220.944 349.943Z" fill="url(#paint43_linear_31_85461)"/>
<path d="M184.037 328.642V356.126L220.944 377.41V349.943L184.037 328.642Z" fill="url(#paint44_linear_31_85461)"/>
<path d="M247.662 342.704L241.141 346.471L234.603 342.704L241.141 338.937L247.662 342.704Z" fill="url(#paint45_linear_31_85461)"/>
<path d="M241.141 346.474V362.607L247.662 358.841V342.707L241.141 346.474Z" fill="url(#paint46_linear_31_85461)"/>
<path d="M241.941 347.408V354.141L246.861 351.308V344.574L241.941 347.408Z" fill="#2A2A2A"/>
<path d="M234.603 342.707V358.841L241.141 362.607V346.474L234.603 342.707Z" fill="url(#paint47_linear_31_85461)"/>
<path d="M209.253 236.173C209.19 236.172 209.129 236.158 209.071 236.132C209.014 236.106 208.962 236.069 208.92 236.023C208.828 235.93 208.777 235.804 208.777 235.673C208.777 235.542 208.828 235.417 208.92 235.323L221.745 221.639C221.791 221.592 221.847 221.554 221.909 221.528C221.97 221.502 222.036 221.488 222.103 221.488C222.17 221.488 222.236 221.502 222.298 221.528C222.359 221.554 222.415 221.592 222.462 221.639C222.554 221.733 222.605 221.859 222.605 221.989C222.605 222.12 222.554 222.246 222.462 222.339L209.637 236.023C209.586 236.072 209.526 236.111 209.46 236.137C209.394 236.162 209.324 236.175 209.253 236.173Z" fill="#979797"/>
<path d="M208.253 249.485C208.121 249.483 207.995 249.429 207.902 249.335C207.81 249.238 207.758 249.11 207.758 248.976C207.758 248.843 207.81 248.714 207.902 248.618L222.779 233.951C222.874 233.863 222.999 233.814 223.129 233.814C223.259 233.814 223.384 233.863 223.479 233.951C223.527 233.998 223.565 234.053 223.591 234.115C223.617 234.176 223.631 234.242 223.631 234.309C223.631 234.376 223.617 234.442 223.591 234.504C223.565 234.565 223.527 234.621 223.479 234.668L208.62 249.335C208.571 249.383 208.514 249.42 208.451 249.446C208.388 249.472 208.321 249.485 208.253 249.485Z" fill="#979797"/>
<path d="M207.486 262.839C207.346 262.834 207.215 262.774 207.119 262.672C207.027 262.579 206.976 262.453 206.976 262.322C206.976 262.192 207.027 262.066 207.119 261.972L223.796 246.672C223.89 246.58 224.016 246.529 224.147 246.529C224.278 246.529 224.403 246.58 224.497 246.672C224.545 246.719 224.583 246.774 224.609 246.836C224.635 246.898 224.648 246.964 224.648 247.03C224.648 247.097 224.635 247.163 224.609 247.225C224.583 247.286 224.545 247.342 224.497 247.389L207.819 262.689C207.729 262.777 207.611 262.83 207.486 262.839Z" fill="#979797"/>
<path d="M206.285 275.754C206.209 275.754 206.135 275.736 206.068 275.701C206.001 275.666 205.944 275.616 205.901 275.554C205.854 275.509 205.816 275.455 205.79 275.394C205.764 275.334 205.751 275.269 205.751 275.204C205.751 275.139 205.764 275.074 205.79 275.014C205.816 274.953 205.854 274.899 205.901 274.854L224.763 259.854C224.868 259.784 224.995 259.756 225.12 259.776C225.244 259.795 225.356 259.861 225.434 259.96C225.512 260.059 225.55 260.184 225.54 260.309C225.53 260.435 225.473 260.552 225.38 260.637L206.518 275.637C206.45 275.694 206.371 275.734 206.285 275.754Z" fill="#979797"/>
<path d="M205.251 289.642C205.145 289.646 205.04 289.615 204.952 289.555C204.864 289.495 204.797 289.409 204.762 289.308C204.727 289.208 204.724 289.099 204.755 288.997C204.786 288.895 204.849 288.806 204.934 288.742L225.881 272.975C225.987 272.895 226.121 272.861 226.252 272.88C226.383 272.899 226.502 272.969 226.582 273.075C226.661 273.181 226.695 273.314 226.677 273.446C226.658 273.577 226.588 273.695 226.482 273.775L205.551 289.642C205.453 289.671 205.349 289.671 205.251 289.642Z" fill="#979797"/>
<path d="M204.65 302.975C204.568 302.977 204.487 302.959 204.414 302.921C204.341 302.883 204.279 302.827 204.233 302.759C204.16 302.649 204.131 302.516 204.152 302.385C204.174 302.255 204.245 302.138 204.35 302.059L226.932 286.292C226.983 286.251 227.042 286.222 227.106 286.206C227.169 286.19 227.235 286.187 227.3 286.198C227.364 286.209 227.425 286.233 227.48 286.27C227.534 286.306 227.58 286.353 227.615 286.408C227.656 286.461 227.686 286.522 227.702 286.586C227.718 286.651 227.721 286.718 227.71 286.784C227.699 286.85 227.675 286.912 227.638 286.968C227.602 287.024 227.554 287.072 227.499 287.108L204.934 302.892C204.848 302.944 204.751 302.973 204.65 302.975Z" fill="#979797"/>
<path d="M203.266 316.024C203.183 316.023 203.101 316.001 203.028 315.96C202.955 315.919 202.894 315.861 202.849 315.79C202.812 315.736 202.787 315.675 202.775 315.611C202.763 315.547 202.764 315.48 202.778 315.417C202.792 315.353 202.819 315.292 202.857 315.239C202.895 315.186 202.943 315.141 202.999 315.107L228.015 299.073C228.125 299.024 228.249 299.016 228.364 299.05C228.479 299.084 228.578 299.159 228.642 299.26C228.707 299.361 228.733 299.482 228.716 299.601C228.699 299.719 228.64 299.828 228.549 299.907L203.533 315.94C203.454 315.993 203.361 316.022 203.266 316.024Z" fill="#979797"/>
<path d="M224.447 328.27L203.016 315.953L203.216 315.02L229.2 312.269L229.733 312.919L225.147 327.97L224.447 328.27ZM204.851 315.853L224.397 327.086L228.549 313.353L204.851 315.853Z" fill="#2A2A2A"/>
<path d="M223.763 313.64L204.033 302.624L204.217 301.69L228.165 298.99L228.699 299.64L224.48 313.357L223.763 313.64ZM205.868 302.507L223.713 312.507L227.515 300.107L205.868 302.507Z" fill="#2A2A2A"/>
<path d="M223.096 299.64L205 289.64L205.184 288.706L227.148 286.123L227.682 286.773L223.813 299.373L223.096 299.64ZM206.802 289.506L222.996 298.473L226.465 287.19L206.802 289.506Z" fill="#2A2A2A"/>
<path d="M222.395 285.204L206.035 275.671L206.235 274.754L226.131 272.971L226.648 273.621L223.129 285.004L222.395 285.204ZM207.886 275.604L222.362 283.938L225.481 273.937L207.886 275.604Z" fill="#2A2A2A"/>
<path d="M221.812 270.87L207.119 262.453L207.319 261.52L225.18 259.853L225.714 260.503L222.545 270.654L221.812 270.87ZM208.97 262.37L221.761 269.704L224.53 260.853L208.97 262.37Z" fill="#2A2A2A"/>
<path d="M220.394 242.691L209.003 236.024L209.203 235.108L223.079 233.758L223.596 234.391L221.128 242.341L220.394 242.691ZM210.854 236.024L220.361 241.525L222.429 234.858L210.854 236.024Z" fill="#2A2A2A"/>
<path d="M219.777 229.72L209.92 224.037L210.104 223.103L222.112 221.67L222.662 222.303L220.511 229.42L219.777 229.72ZM211.805 223.92L219.81 228.537L221.478 222.753L211.805 223.92Z" fill="#2A2A2A"/>
<path d="M221.078 257.354L208.002 249.404L208.203 248.487L224.063 246.537L224.597 247.17L221.811 257.071L221.078 257.354ZM209.754 249.304L221.028 256.154L223.429 247.62L209.754 249.304Z" fill="#2A2A2A"/>
<path d="M223.579 327.687C223.502 327.687 223.425 327.669 223.356 327.634C223.286 327.599 223.226 327.549 223.179 327.487L204.25 302.686C204.158 302.593 204.107 302.467 204.107 302.336C204.107 302.205 204.158 302.08 204.25 301.986C204.359 301.906 204.495 301.871 204.629 301.89C204.763 301.908 204.885 301.979 204.967 302.086L223.896 326.887C223.938 326.938 223.969 326.998 223.986 327.062C224.004 327.126 224.008 327.193 223.999 327.258C223.989 327.324 223.966 327.387 223.932 327.443C223.897 327.5 223.851 327.549 223.796 327.587C223.734 327.638 223.659 327.673 223.579 327.687Z" fill="#979797"/>
<path d="M223.246 313.273C223.168 313.278 223.089 313.262 223.019 313.226C222.949 313.191 222.889 313.139 222.846 313.073L205.301 289.739C205.259 289.688 205.229 289.628 205.211 289.564C205.193 289.5 205.189 289.433 205.199 289.368C205.208 289.302 205.231 289.239 205.266 289.182C205.3 289.126 205.346 289.077 205.401 289.039C205.507 288.96 205.641 288.926 205.772 288.944C205.903 288.963 206.022 289.033 206.101 289.139L223.63 312.473C223.711 312.577 223.748 312.709 223.732 312.84C223.717 312.972 223.65 313.091 223.546 313.173C223.458 313.236 223.354 313.271 223.246 313.273Z" fill="#979797"/>
<path d="M222.662 299.322C222.58 299.324 222.498 299.305 222.425 299.267C222.353 299.229 222.29 299.173 222.245 299.105L205.884 275.538C205.846 275.484 205.818 275.424 205.803 275.359C205.788 275.295 205.786 275.229 205.797 275.163C205.808 275.098 205.831 275.036 205.866 274.98C205.901 274.924 205.947 274.876 206.001 274.838C206.111 274.764 206.244 274.735 206.374 274.757C206.505 274.779 206.622 274.849 206.701 274.954L223.062 298.538C223.101 298.592 223.128 298.652 223.143 298.717C223.158 298.781 223.161 298.847 223.15 298.913C223.139 298.978 223.115 299.04 223.08 299.096C223.045 299.152 222.999 299.2 222.946 299.238C222.863 299.296 222.763 299.325 222.662 299.322Z" fill="#979797"/>
<path d="M222.663 285.272C222.581 285.271 222.5 285.251 222.428 285.214C222.356 285.176 222.293 285.122 222.246 285.055L206.802 262.305C206.727 262.194 206.699 262.058 206.724 261.927C206.749 261.796 206.825 261.68 206.936 261.605C207.046 261.53 207.182 261.501 207.313 261.526C207.445 261.551 207.561 261.627 207.636 261.738L222.996 284.489C223.034 284.543 223.06 284.605 223.074 284.669C223.088 284.734 223.088 284.801 223.076 284.866C223.064 284.932 223.038 284.994 223.002 285.049C222.965 285.104 222.918 285.152 222.863 285.189C222.802 285.229 222.734 285.258 222.663 285.272Z" fill="#979797"/>
<path d="M221.979 270.938C221.897 270.938 221.816 270.919 221.743 270.881C221.67 270.843 221.608 270.788 221.562 270.721L207.836 249.254C207.763 249.141 207.738 249.004 207.766 248.873C207.794 248.741 207.873 248.627 207.986 248.554C208.099 248.481 208.236 248.456 208.367 248.484C208.499 248.512 208.614 248.591 208.687 248.704L222.396 270.171C222.466 270.284 222.489 270.421 222.461 270.551C222.433 270.682 222.356 270.796 222.245 270.871C222.164 270.916 222.072 270.939 221.979 270.938Z" fill="#979797"/>
<path d="M221.345 257.439C221.255 257.44 221.166 257.415 221.09 257.368C221.013 257.321 220.951 257.253 220.911 257.173L208.82 235.905C208.788 235.848 208.767 235.784 208.76 235.718C208.752 235.652 208.758 235.586 208.777 235.522C208.795 235.458 208.826 235.399 208.868 235.348C208.91 235.296 208.961 235.254 209.02 235.222C209.077 235.19 209.139 235.17 209.204 235.163C209.268 235.156 209.334 235.162 209.396 235.18C209.458 235.199 209.516 235.23 209.566 235.272C209.616 235.313 209.657 235.364 209.687 235.422L221.812 256.689C221.844 256.747 221.864 256.811 221.872 256.877C221.879 256.943 221.873 257.009 221.855 257.073C221.836 257.136 221.805 257.196 221.763 257.247C221.721 257.299 221.67 257.341 221.611 257.373C221.53 257.417 221.438 257.44 221.345 257.439Z" fill="#979797"/>
<path d="M220.644 242.753C220.556 242.754 220.47 242.73 220.394 242.687C220.318 242.643 220.254 242.58 220.21 242.503L209.72 223.853C209.687 223.795 209.666 223.731 209.658 223.665C209.65 223.599 209.655 223.532 209.673 223.468C209.691 223.403 209.721 223.343 209.762 223.291C209.803 223.238 209.854 223.194 209.912 223.161C209.97 223.129 210.034 223.108 210.1 223.099C210.166 223.091 210.233 223.096 210.298 223.114C210.362 223.132 210.422 223.162 210.475 223.203C210.527 223.244 210.571 223.295 210.604 223.353L221.078 242.003C221.111 242.06 221.132 242.123 221.141 242.188C221.149 242.253 221.145 242.32 221.128 242.383C221.111 242.447 221.081 242.506 221.041 242.558C221.001 242.61 220.951 242.654 220.894 242.687C220.819 242.732 220.732 242.755 220.644 242.753Z" fill="#979797"/>
<path d="M224.697 328.343C224.567 328.326 224.448 328.26 224.367 328.157C224.286 328.054 224.249 327.923 224.263 327.793L227.782 299.459C227.8 299.327 227.869 299.206 227.976 299.125C228.082 299.044 228.216 299.008 228.349 299.026C228.482 299.043 228.602 299.113 228.683 299.219C228.765 299.326 228.8 299.46 228.783 299.592L225.147 327.976C225.117 328.076 225.058 328.164 224.978 328.229C224.898 328.294 224.8 328.334 224.697 328.343Z" fill="#979797"/>
<path d="M223.996 313.707C223.93 313.699 223.866 313.678 223.809 313.645C223.751 313.612 223.701 313.568 223.66 313.515C223.62 313.462 223.59 313.402 223.574 313.338C223.557 313.273 223.553 313.206 223.562 313.141L226.764 286.473C226.771 286.408 226.79 286.345 226.821 286.287C226.853 286.23 226.895 286.179 226.947 286.139C226.998 286.098 227.057 286.069 227.121 286.052C227.184 286.035 227.25 286.031 227.315 286.04C227.382 286.044 227.447 286.062 227.506 286.092C227.566 286.122 227.618 286.165 227.661 286.216C227.703 286.268 227.734 286.328 227.752 286.392C227.77 286.457 227.775 286.524 227.765 286.59L224.546 313.257C224.54 313.323 224.521 313.387 224.49 313.445C224.459 313.504 224.416 313.555 224.365 313.597C224.314 313.639 224.255 313.67 224.192 313.689C224.128 313.708 224.062 313.714 223.996 313.707Z" fill="#979797"/>
<path d="M223.346 299.64C223.216 299.624 223.098 299.557 223.017 299.454C222.936 299.351 222.898 299.22 222.912 299.09L225.748 273.273C225.754 273.207 225.773 273.143 225.804 273.085C225.835 273.027 225.878 272.975 225.929 272.933C225.98 272.891 226.039 272.86 226.102 272.841C226.166 272.822 226.232 272.816 226.298 272.823C226.429 272.84 226.549 272.906 226.633 273.008C226.716 273.111 226.758 273.241 226.748 273.373L223.896 299.19C223.892 299.257 223.875 299.322 223.844 299.381C223.814 299.441 223.771 299.493 223.72 299.536C223.668 299.578 223.608 299.609 223.544 299.627C223.479 299.645 223.412 299.65 223.346 299.64Z" fill="#979797"/>
<path d="M222.846 284.641C222.779 284.637 222.714 284.619 222.654 284.589C222.595 284.558 222.542 284.516 222.5 284.464C222.458 284.413 222.427 284.353 222.409 284.289C222.391 284.224 222.386 284.157 222.395 284.091L224.714 260.207C224.726 260.077 224.789 259.958 224.889 259.874C224.989 259.79 225.117 259.748 225.247 259.757C225.314 259.761 225.379 259.779 225.439 259.809C225.498 259.839 225.551 259.882 225.593 259.933C225.635 259.985 225.666 260.045 225.684 260.109C225.702 260.174 225.707 260.241 225.698 260.307L223.379 284.191C223.375 284.256 223.358 284.32 223.329 284.378C223.299 284.436 223.258 284.488 223.209 284.53C223.159 284.572 223.101 284.603 223.038 284.622C222.976 284.641 222.911 284.648 222.846 284.641Z" fill="#979797"/>
<path d="M222.128 270.455C221.998 270.442 221.879 270.379 221.795 270.28C221.71 270.18 221.669 270.051 221.678 269.921L223.663 246.988C223.683 246.858 223.75 246.741 223.852 246.658C223.953 246.575 224.082 246.532 224.213 246.537C224.278 246.542 224.342 246.559 224.4 246.588C224.458 246.618 224.51 246.658 224.552 246.708C224.594 246.758 224.626 246.816 224.645 246.878C224.664 246.94 224.67 247.006 224.663 247.071L222.679 270.005C222.672 270.07 222.653 270.134 222.622 270.193C222.591 270.251 222.549 270.303 222.497 270.344C222.446 270.386 222.387 270.418 222.324 270.436C222.26 270.455 222.194 270.462 222.128 270.455Z" fill="#979797"/>
<path d="M221.345 256.719C221.279 256.713 221.215 256.694 221.156 256.663C221.098 256.631 221.047 256.589 221.005 256.538C220.963 256.487 220.932 256.428 220.913 256.365C220.894 256.301 220.887 256.235 220.894 256.169L222.679 234.269C222.69 234.136 222.753 234.013 222.855 233.927C222.956 233.841 223.088 233.799 223.221 233.81C223.353 233.821 223.476 233.885 223.562 233.986C223.648 234.088 223.69 234.219 223.679 234.352L221.812 256.302C221.796 256.416 221.74 256.52 221.655 256.596C221.569 256.673 221.459 256.716 221.345 256.719Z" fill="#979797"/>
<path d="M220.611 242.034C220.546 242.03 220.482 242.013 220.424 241.983C220.365 241.954 220.314 241.913 220.272 241.864C220.229 241.814 220.198 241.756 220.179 241.694C220.16 241.631 220.153 241.566 220.16 241.501L221.728 222.134C221.732 222.068 221.749 222.004 221.779 221.945C221.808 221.886 221.848 221.833 221.898 221.79C221.947 221.746 222.005 221.713 222.067 221.692C222.13 221.671 222.196 221.663 222.262 221.667C222.396 221.68 222.52 221.744 222.607 221.847C222.694 221.95 222.738 222.083 222.729 222.217L221.161 241.584C221.155 241.65 221.135 241.714 221.104 241.772C221.073 241.83 221.031 241.882 220.98 241.924C220.929 241.966 220.869 241.997 220.806 242.016C220.743 242.035 220.676 242.041 220.611 242.034Z" fill="#979797"/>
<path d="M202.349 328.336C202.215 328.324 202.091 328.259 202.003 328.156C201.916 328.053 201.873 327.921 201.882 327.786L210.904 207.45C210.91 207.385 210.928 207.321 210.958 207.262C210.989 207.203 211.03 207.151 211.08 207.109C211.131 207.066 211.189 207.034 211.252 207.014C211.315 206.994 211.381 206.986 211.446 206.992C211.512 206.997 211.576 207.016 211.635 207.046C211.693 207.076 211.745 207.117 211.788 207.168C211.831 207.218 211.863 207.276 211.883 207.339C211.903 207.402 211.91 207.468 211.905 207.534L202.883 327.87C202.878 327.935 202.861 328 202.832 328.059C202.803 328.118 202.762 328.17 202.713 328.214C202.663 328.257 202.605 328.29 202.543 328.311C202.481 328.332 202.415 328.341 202.349 328.336Z" fill="#979797"/>
<path d="M225.33 341.959C225.204 341.955 225.083 341.903 224.993 341.813C224.903 341.723 224.851 341.603 224.847 341.476L218.709 211.939C218.709 211.807 218.762 211.68 218.856 211.586C218.95 211.492 219.077 211.439 219.21 211.439C219.342 211.439 219.47 211.492 219.564 211.586C219.657 211.68 219.71 211.807 219.71 211.939L225.831 341.476C225.835 341.54 225.827 341.606 225.806 341.667C225.784 341.728 225.751 341.785 225.707 341.833C225.664 341.881 225.611 341.92 225.552 341.948C225.493 341.975 225.429 341.99 225.364 341.992L225.33 341.959Z" fill="#979797"/>
<path d="M230.25 326.076C230.126 326.076 230.006 326.03 229.913 325.947C229.821 325.864 229.763 325.749 229.75 325.626L220.411 206.006C220.401 205.872 220.445 205.739 220.532 205.636C220.62 205.533 220.743 205.469 220.878 205.456C220.943 205.452 221.009 205.46 221.072 205.481C221.134 205.502 221.192 205.535 221.241 205.579C221.291 205.622 221.332 205.675 221.361 205.734C221.39 205.793 221.407 205.857 221.411 205.923L230.751 325.542C230.758 325.607 230.751 325.673 230.732 325.735C230.713 325.797 230.682 325.855 230.639 325.905C230.597 325.955 230.546 325.995 230.487 326.025C230.429 326.054 230.366 326.071 230.301 326.076H230.25Z" fill="#979797"/>
<path d="M218.259 208.071C218 208.2 217.715 208.267 217.425 208.267C217.136 208.267 216.851 208.2 216.592 208.071C216.495 208.03 216.412 207.963 216.35 207.878C216.288 207.793 216.251 207.692 216.241 207.588V216.071C216.254 216.173 216.292 216.27 216.354 216.352C216.415 216.433 216.497 216.498 216.592 216.538C216.848 216.675 217.134 216.747 217.425 216.747C217.716 216.747 218.003 216.675 218.259 216.538C218.353 216.498 218.435 216.433 218.497 216.352C218.558 216.27 218.597 216.173 218.609 216.071V207.588C218.6 207.692 218.563 207.793 218.501 207.878C218.439 207.963 218.356 208.03 218.259 208.071Z" fill="url(#paint48_linear_31_85461)"/>
<path d="M210.704 206.521L219.577 211.871L221.511 205.121L210.704 206.521Z" fill="#979797"/>
<path d="M219.577 211.871V212.938L221.511 206.171V205.121L219.577 211.871Z" fill="#979797"/>
<path d="M210.704 206.521V207.571L219.577 212.938V211.872L210.704 206.521Z" fill="#979797"/>
<path d="M218.259 187.637C218.726 187.887 218.726 188.32 218.259 188.586C218 188.716 217.715 188.783 217.425 188.783C217.136 188.783 216.851 188.716 216.592 188.586C216.125 188.32 216.125 187.887 216.592 187.637C216.848 187.499 217.134 187.428 217.425 187.428C217.716 187.428 218.003 187.499 218.259 187.637Z" fill="url(#paint49_linear_31_85461)"/>
<path d="M218.259 188.585C218 188.714 217.715 188.781 217.425 188.781C217.136 188.781 216.851 188.714 216.592 188.585C216.496 188.542 216.414 188.475 216.352 188.39C216.291 188.305 216.252 188.206 216.241 188.101V207.819C216.251 207.923 216.288 208.023 216.35 208.108C216.412 208.193 216.495 208.26 216.592 208.302C216.848 208.439 217.134 208.511 217.425 208.511C217.716 208.511 218.003 208.439 218.259 208.302C218.356 208.26 218.439 208.193 218.501 208.108C218.563 208.023 218.6 207.923 218.609 207.819V188.101C218.598 188.206 218.56 188.305 218.499 188.39C218.437 188.475 218.355 188.542 218.259 188.585Z" fill="url(#paint50_linear_31_85461)"/>
<path d="M219.043 187.967C218.963 187.749 218.802 187.57 218.593 187.467C218.236 187.287 217.842 187.193 217.442 187.193C217.042 187.193 216.648 187.287 216.291 187.467C216.082 187.57 215.921 187.749 215.841 187.967V188.134C215.857 188.277 215.91 188.414 215.995 188.531C216.08 188.648 216.193 188.741 216.325 188.801C216.682 188.981 217.076 189.075 217.476 189.075C217.875 189.075 218.269 188.981 218.626 188.801C218.758 188.741 218.871 188.648 218.956 188.531C219.041 188.414 219.094 188.277 219.11 188.134V187.967H219.043Z" fill="url(#paint51_linear_31_85461)"/>
<path d="M218.593 187.352C218.734 187.397 218.857 187.486 218.945 187.606C219.032 187.726 219.08 187.87 219.08 188.019C219.08 188.167 219.032 188.312 218.945 188.431C218.857 188.551 218.734 188.64 218.593 188.685C218.236 188.866 217.842 188.959 217.442 188.959C217.042 188.959 216.648 188.866 216.291 188.685C216.15 188.64 216.027 188.551 215.939 188.431C215.852 188.312 215.804 188.167 215.804 188.019C215.804 187.87 215.852 187.726 215.939 187.606C216.027 187.486 216.15 187.397 216.291 187.352C216.648 187.172 217.042 187.078 217.442 187.078C217.842 187.078 218.236 187.172 218.593 187.352Z" fill="#979797"/>
<path d="M218.226 187.221C218.322 187.253 218.406 187.315 218.465 187.397C218.524 187.479 218.556 187.578 218.556 187.679C218.556 187.781 218.524 187.879 218.465 187.962C218.406 188.044 218.322 188.105 218.226 188.138C217.985 188.266 217.716 188.333 217.442 188.333C217.169 188.333 216.9 188.266 216.658 188.138C216.562 188.105 216.478 188.044 216.419 187.962C216.36 187.879 216.328 187.781 216.328 187.679C216.328 187.578 216.36 187.479 216.419 187.397C216.478 187.315 216.562 187.253 216.658 187.221C216.9 187.092 217.169 187.025 217.442 187.025C217.716 187.025 217.985 187.092 218.226 187.221Z" fill="#979797"/>
<path d="M218.226 188.133C217.985 188.261 217.715 188.328 217.442 188.328C217.169 188.328 216.899 188.261 216.658 188.133C216.567 188.09 216.488 188.025 216.43 187.943C216.372 187.861 216.335 187.766 216.325 187.666V187.999C216.325 188.166 216.441 188.316 216.658 188.449C216.899 188.578 217.169 188.645 217.442 188.645C217.715 188.645 217.985 188.578 218.226 188.449C218.443 188.316 218.559 188.166 218.559 187.999V187.666C218.549 187.766 218.512 187.861 218.454 187.943C218.396 188.025 218.317 188.09 218.226 188.133Z" fill="url(#paint52_linear_31_85461)"/>
<defs>
<linearGradient id="paint0_linear_31_85461" x1="58654.2" y1="35514.9" x2="64782.8" y2="35514.9" gradientUnits="userSpaceOnUse">
<stop stop-color="white"/>
<stop offset="1" stop-color="#D3D3D3"/>
</linearGradient>
<linearGradient id="paint1_linear_31_85461" x1="48.5586" y1="385.251" x2="236.362" y2="284.588" gradientUnits="userSpaceOnUse">
<stop stop-color="white"/>
<stop offset="1" stop-color="#D4D4D4"/>
</linearGradient>
<linearGradient id="paint2_linear_31_85461" x1="220.182" y1="468.22" x2="299.582" y2="450.019" gradientUnits="userSpaceOnUse">
<stop stop-color="white"/>
<stop offset="1" stop-color="#D4D4D4"/>
</linearGradient>
<linearGradient id="paint3_linear_31_85461" x1="38.5106" y1="378.285" x2="54.0234" y2="376.929" gradientUnits="userSpaceOnUse">
<stop stop-color="white"/>
<stop offset="1" stop-color="#D4D4D4"/>
</linearGradient>
<linearGradient id="paint4_linear_31_85461" x1="37.3131" y1="460.895" x2="181.335" y2="415.727" gradientUnits="userSpaceOnUse">
<stop stop-color="white"/>
<stop offset="1" stop-color="#D4D4D4"/>
</linearGradient>
<linearGradient id="paint5_linear_31_85461" x1="98.6479" y1="317.985" x2="166.314" y2="240.817" gradientUnits="userSpaceOnUse">
<stop stop-color="white"/>
<stop offset="1" stop-color="#D4D4D4"/>
</linearGradient>
<linearGradient id="paint6_linear_31_85461" x1="-0.352624" y1="116.493" x2="233.686" y2="116.493" gradientUnits="userSpaceOnUse">
<stop stop-color="#4EB1D6"/>
<stop offset="1" stop-color="#3783AD"/>
</linearGradient>
<linearGradient id="paint7_linear_31_85461" x1="25.7852" y1="159.897" x2="174.77" y2="80.1937" gradientUnits="userSpaceOnUse">
<stop stop-color="white"/>
<stop offset="1" stop-color="#D4D4D4"/>
</linearGradient>
<linearGradient id="paint8_linear_31_85461" x1="98.7267" y1="138.284" x2="134.938" y2="138.284" gradientUnits="userSpaceOnUse">
<stop stop-color="#4EB1D6"/>
<stop offset="1" stop-color="#3783AD"/>
</linearGradient>
<linearGradient id="paint9_linear_31_85461" x1="10498.7" y1="1530.27" x2="10730.9" y2="1530.27" gradientUnits="userSpaceOnUse">
<stop stop-color="white"/>
<stop offset="1" stop-color="#D3D3D3"/>
</linearGradient>
<linearGradient id="paint10_linear_31_85461" x1="106.973" y1="112.212" x2="126.683" y2="112.212" gradientUnits="userSpaceOnUse">
<stop stop-color="#4EB1D6"/>
<stop offset="1" stop-color="#3783AD"/>
</linearGradient>
<linearGradient id="paint11_linear_31_85461" x1="14555.1" y1="2110.07" x2="15008" y2="2110.07" gradientUnits="userSpaceOnUse">
<stop stop-color="#E5E2DA"/>
<stop offset="0.29" stop-color="#E0DDD5"/>
<stop offset="0.66" stop-color="#D3CFC5"/>
<stop offset="1" stop-color="#C1BDB0"/>
</linearGradient>
<linearGradient id="paint12_linear_31_85461" x1="14555.1" y1="2097.24" x2="15008" y2="2097.24" gradientUnits="userSpaceOnUse">
<stop stop-color="white"/>
<stop offset="1" stop-color="#D3D3D3"/>
</linearGradient>
<linearGradient id="paint13_linear_31_85461" x1="10072.3" y1="1441.53" x2="10285.1" y2="1441.53" gradientUnits="userSpaceOnUse">
<stop stop-color="white"/>
<stop offset="1" stop-color="#D3D3D3"/>
</linearGradient>
<linearGradient id="paint14_linear_31_85461" x1="10065.8" y1="1123.55" x2="10278.4" y2="1123.55" gradientUnits="userSpaceOnUse">
<stop stop-color="#E5E2DA"/>
<stop offset="0.29" stop-color="#E0DDD5"/>
<stop offset="0.66" stop-color="#D3CFC5"/>
<stop offset="1" stop-color="#C1BDB0"/>
</linearGradient>
<linearGradient id="paint15_linear_31_85461" x1="10498.7" y1="1091.71" x2="10730.9" y2="1091.71" gradientUnits="userSpaceOnUse">
<stop stop-color="white"/>
<stop offset="1" stop-color="#D3D3D3"/>
</linearGradient>
<linearGradient id="paint16_linear_31_85461" x1="106.973" y1="35.3566" x2="126.683" y2="35.3566" gradientUnits="userSpaceOnUse">
<stop stop-color="#4EB1D6"/>
<stop offset="1" stop-color="#3783AD"/>
</linearGradient>
<linearGradient id="paint17_linear_31_85461" x1="27003.4" y1="15539.5" x2="29561" y2="15539.5" gradientUnits="userSpaceOnUse">
<stop stop-color="white"/>
<stop offset="1" stop-color="#D3D3D3"/>
</linearGradient>
<linearGradient id="paint18_linear_31_85461" x1="28666.1" y1="9258.29" x2="28951.3" y2="9392.59" gradientUnits="userSpaceOnUse">
<stop stop-color="#E5E2DA"/>
<stop offset="0.43" stop-color="#E3E0D8"/>
<stop offset="0.59" stop-color="#DEDAD1"/>
<stop offset="0.7" stop-color="#D3D0C6"/>
<stop offset="0.79" stop-color="#C5C1B5"/>
<stop offset="0.81" stop-color="#C1BDB0"/>
</linearGradient>
<linearGradient id="paint19_linear_31_85461" x1="31637.8" y1="9529.17" x2="31277.8" y2="9688.33" gradientUnits="userSpaceOnUse">
<stop offset="0.13" stop-color="#C1BDB0"/>
<stop offset="0.14" stop-color="#C2BEB1"/>
<stop offset="0.26" stop-color="#D2CEC3"/>
<stop offset="0.41" stop-color="#DDD9D0"/>
<stop offset="0.6" stop-color="#E3E0D8"/>
<stop offset="1" stop-color="#E5E2DA"/>
</linearGradient>
<linearGradient id="paint20_linear_31_85461" x1="31102.9" y1="15952.6" x2="33276.2" y2="15952.6" gradientUnits="userSpaceOnUse">
<stop stop-color="white"/>
<stop offset="1" stop-color="#D3D3D3"/>
</linearGradient>
<linearGradient id="paint21_linear_31_85461" x1="14555.1" y1="1522.29" x2="15008" y2="1522.29" gradientUnits="userSpaceOnUse">
<stop stop-color="#E5E2DA"/>
<stop offset="0.29" stop-color="#E0DDD5"/>
<stop offset="0.66" stop-color="#D3CFC5"/>
<stop offset="1" stop-color="#C1BDB0"/>
</linearGradient>
<linearGradient id="paint22_linear_31_85461" x1="14557.4" y1="1509.16" x2="15010.4" y2="1509.16" gradientUnits="userSpaceOnUse">
<stop stop-color="white"/>
<stop offset="1" stop-color="#D3D3D3"/>
</linearGradient>
<linearGradient id="paint23_linear_31_85461" x1="10072.3" y1="886.243" x2="10285.1" y2="886.243" gradientUnits="userSpaceOnUse">
<stop stop-color="white"/>
<stop offset="1" stop-color="#D3D3D3"/>
</linearGradient>
<linearGradient id="paint24_linear_31_85461" x1="10065.8" y1="2328.21" x2="10278.4" y2="2328.21" gradientUnits="userSpaceOnUse">
<stop stop-color="#E5E2DA"/>
<stop offset="0.29" stop-color="#E0DDD5"/>
<stop offset="0.66" stop-color="#D3CFC5"/>
<stop offset="1" stop-color="#C1BDB0"/>
</linearGradient>
<linearGradient id="paint25_linear_31_85461" x1="142.995" y1="466.57" x2="159.013" y2="463.812" gradientUnits="userSpaceOnUse">
<stop stop-color="white"/>
<stop offset="1" stop-color="#D4D4D4"/>
</linearGradient>
<linearGradient id="paint26_linear_31_85461" x1="122.882" y1="466.57" x2="138.9" y2="463.812" gradientUnits="userSpaceOnUse">
<stop stop-color="white"/>
<stop offset="1" stop-color="#D4D4D4"/>
</linearGradient>
<linearGradient id="paint27_linear_31_85461" x1="125.101" y1="443.909" x2="150.75" y2="430.191" gradientUnits="userSpaceOnUse">
<stop stop-color="white"/>
<stop offset="1" stop-color="#D4D4D4"/>
</linearGradient>
<linearGradient id="paint28_linear_31_85461" x1="161.717" y1="450.574" x2="169.127" y2="449.666" gradientUnits="userSpaceOnUse">
<stop stop-color="white"/>
<stop offset="1" stop-color="#D4D4D4"/>
</linearGradient>
<linearGradient id="paint29_linear_31_85461" x1="143.964" y1="433.355" x2="162.443" y2="423.533" gradientUnits="userSpaceOnUse">
<stop stop-color="white"/>
<stop offset="1" stop-color="#D4D4D4"/>
</linearGradient>
<linearGradient id="paint30_linear_31_85461" x1="83.2222" y1="432.073" x2="99.2401" y2="429.314" gradientUnits="userSpaceOnUse">
<stop stop-color="white"/>
<stop offset="1" stop-color="#D4D4D4"/>
</linearGradient>
<linearGradient id="paint31_linear_31_85461" x1="63.1091" y1="432.073" x2="79.1268" y2="429.314" gradientUnits="userSpaceOnUse">
<stop stop-color="white"/>
<stop offset="1" stop-color="#D4D4D4"/>
</linearGradient>
<linearGradient id="paint32_linear_31_85461" x1="65.3284" y1="409.408" x2="90.9695" y2="395.685" gradientUnits="userSpaceOnUse">
<stop stop-color="white"/>
<stop offset="1" stop-color="#D4D4D4"/>
</linearGradient>
<linearGradient id="paint33_linear_31_85461" x1="101.945" y1="416.088" x2="109.355" y2="415.181" gradientUnits="userSpaceOnUse">
<stop stop-color="white"/>
<stop offset="1" stop-color="#D4D4D4"/>
</linearGradient>
<linearGradient id="paint34_linear_31_85461" x1="84.1921" y1="398.873" x2="102.671" y2="389.05" gradientUnits="userSpaceOnUse">
<stop stop-color="white"/>
<stop offset="1" stop-color="#D4D4D4"/>
</linearGradient>
<linearGradient id="paint35_linear_31_85461" x1="40120.5" y1="16417.7" x2="42794.3" y2="16417.7" gradientUnits="userSpaceOnUse">
<stop stop-color="white"/>
<stop offset="1" stop-color="#D3D3D3"/>
</linearGradient>
<linearGradient id="paint36_linear_31_85461" x1="182.308" y1="377.647" x2="248.254" y2="342.37" gradientUnits="userSpaceOnUse">
<stop stop-color="white"/>
<stop offset="1" stop-color="#D4D4D4"/>
</linearGradient>
<linearGradient id="paint37_linear_31_85461" x1="228.319" y1="385.622" x2="263.164" y2="369.388" gradientUnits="userSpaceOnUse">
<stop stop-color="white"/>
<stop offset="1" stop-color="#D4D4D4"/>
</linearGradient>
<linearGradient id="paint38_linear_31_85461" x1="176.602" y1="385.622" x2="211.447" y2="369.388" gradientUnits="userSpaceOnUse">
<stop stop-color="white"/>
<stop offset="1" stop-color="#D4D4D4"/>
</linearGradient>
<linearGradient id="paint39_linear_31_85461" x1="192.182" y1="344.013" x2="239.239" y2="318.835" gradientUnits="userSpaceOnUse">
<stop stop-color="white"/>
<stop offset="1" stop-color="#D4D4D4"/>
</linearGradient>
<linearGradient id="paint40_linear_31_85461" x1="224.389" y1="327.31" x2="244.916" y2="317.105" gradientUnits="userSpaceOnUse">
<stop stop-color="white"/>
<stop offset="1" stop-color="#D4D4D4"/>
</linearGradient>
<linearGradient id="paint41_linear_31_85461" x1="193.169" y1="327.31" x2="213.696" y2="317.105" gradientUnits="userSpaceOnUse">
<stop stop-color="white"/>
<stop offset="1" stop-color="#D4D4D4"/>
</linearGradient>
<linearGradient id="paint42_linear_31_85461" x1="198.472" y1="342.017" x2="235.244" y2="322.35" gradientUnits="userSpaceOnUse">
<stop stop-color="white"/>
<stop offset="1" stop-color="#D4D4D4"/>
</linearGradient>
<linearGradient id="paint43_linear_31_85461" x1="225.017" y1="370.621" x2="253.715" y2="363.917" gradientUnits="userSpaceOnUse">
<stop stop-color="white"/>
<stop offset="1" stop-color="#D4D4D4"/>
</linearGradient>
<linearGradient id="paint44_linear_31_85461" x1="188.109" y1="370.621" x2="216.807" y2="363.917" gradientUnits="userSpaceOnUse">
<stop stop-color="white"/>
<stop offset="1" stop-color="#D4D4D4"/>
</linearGradient>
<linearGradient id="paint45_linear_31_85461" x1="8130.66" y1="2477.25" x2="8232.91" y2="2477.25" gradientUnits="userSpaceOnUse">
<stop stop-color="white"/>
<stop offset="1" stop-color="#D3D3D3"/>
</linearGradient>
<linearGradient id="paint46_linear_31_85461" x1="4209.65" y1="6110.07" x2="4235.21" y2="6110.07" gradientUnits="userSpaceOnUse">
<stop stop-color="white"/>
<stop offset="1" stop-color="#D3D3D3"/>
</linearGradient>
<linearGradient id="paint47_linear_31_85461" x1="235.325" y1="359.837" x2="240.631" y2="359.299" gradientUnits="userSpaceOnUse">
<stop stop-color="white"/>
<stop offset="1" stop-color="#D4D4D4"/>
</linearGradient>
<linearGradient id="paint48_linear_31_85461" x1="216.238" y1="212.159" x2="218.609" y2="212.159" gradientUnits="userSpaceOnUse">
<stop stop-color="#4EB1D6"/>
<stop offset="1" stop-color="#3783AD"/>
</linearGradient>
<linearGradient id="paint49_linear_31_85461" x1="1622.16" y1="446.385" x2="1625.48" y2="446.385" gradientUnits="userSpaceOnUse">
<stop stop-color="white"/>
<stop offset="1" stop-color="#D3D3D3"/>
</linearGradient>
<linearGradient id="paint50_linear_31_85461" x1="216.238" y1="198.288" x2="218.609" y2="198.288" gradientUnits="userSpaceOnUse">
<stop stop-color="#4EB1D6"/>
<stop offset="1" stop-color="#3783AD"/>
</linearGradient>
<linearGradient id="paint51_linear_31_85461" x1="2155.55" y1="546.804" x2="2161.95" y2="546.804" gradientUnits="userSpaceOnUse">
<stop stop-color="#EB526E"/>
<stop offset="1" stop-color="#EB593D"/>
</linearGradient>
<linearGradient id="paint52_linear_31_85461" x1="1543.1" y1="374.748" x2="1546.1" y2="374.748" gradientUnits="userSpaceOnUse">
<stop stop-color="#EB526E"/>
<stop offset="1" stop-color="#EB593D"/>
</linearGradient>
</defs>
</svg>
