<svg width="30" height="24" viewBox="0 0 30 24" fill="none" xmlns="http://www.w3.org/2000/svg">
<path d="M28.8571 0H1.14294C0.512738 0 0 0.512738 0 1.14293V5.27743C0 5.52026 0.196819 5.71702 0.439591 5.71702C0.682362 5.71702 0.879181 5.52026 0.879181 5.27743V4.29966H29.1208V18.8549C29.1208 19.0977 29.3176 19.2945 29.5604 19.2945C29.8032 19.2945 30 19.0977 30 18.8549V1.14293C30 0.512738 29.4873 0 28.8571 0ZM0.879181 3.42054V1.14293C0.879181 0.997518 0.997519 0.879181 1.14294 0.879181H28.8571C29.0025 0.879181 29.1208 0.997518 29.1208 1.14293V3.42048H0.879181V3.42054Z" fill="url(#paint0_linear_2_5708)"/>
<path d="M29.5604 20.4662C29.3176 20.4662 29.1208 20.6629 29.1208 20.9057V22.1173C29.1208 22.2627 29.0025 22.381 28.8571 22.381H1.14294C0.997519 22.381 0.879181 22.2627 0.879181 22.1173V7.32826C0.879181 7.08543 0.682362 6.88867 0.439591 6.88867C0.196819 6.88867 0 7.08543 0 7.32826V22.1173C0 22.7475 0.512738 23.2602 1.14294 23.2602H28.8571C29.4873 23.2602 30 22.7475 30 22.1173V20.9057C30 20.6629 29.8032 20.4662 29.5604 20.4662Z" fill="url(#paint1_linear_2_5708)"/>
<path d="M18.3667 1.71094H2.95937C2.71659 1.71094 2.51978 1.9077 2.51978 2.15053C2.51978 2.39336 2.71659 2.59012 2.95937 2.59012H18.3667C18.6095 2.59012 18.8063 2.39336 18.8063 2.15053C18.8063 1.9077 18.6094 1.71094 18.3667 1.71094Z" fill="url(#paint2_linear_2_5708)"/>
<path d="M27.0407 1.71094H26.8419C26.5992 1.71094 26.4023 1.9077 26.4023 2.15053C26.4023 2.39336 26.5992 2.59012 26.8419 2.59012H27.0407C27.2835 2.59012 27.4803 2.39336 27.4803 2.15053C27.4803 1.9077 27.2835 1.71094 27.0407 1.71094Z" fill="url(#paint3_linear_2_5708)"/>
<path d="M25.3766 1.71094H25.1779C24.9351 1.71094 24.7383 1.9077 24.7383 2.15053C24.7383 2.39336 24.9351 2.59012 25.1779 2.59012H25.3766C25.6194 2.59012 25.8162 2.39336 25.8162 2.15053C25.8162 1.9077 25.6194 1.71094 25.3766 1.71094Z" fill="url(#paint4_linear_2_5708)"/>
<path d="M23.7126 1.71094H23.5138C23.271 1.71094 23.0742 1.9077 23.0742 2.15053C23.0742 2.39336 23.271 2.59012 23.5138 2.59012H23.7126C23.9554 2.59012 24.1522 2.39336 24.1522 2.15053C24.1522 1.9077 23.9554 1.71094 23.7126 1.71094Z" fill="url(#paint5_linear_2_5708)"/>
<path d="M13.1549 10.6077H14.5528V16.8495C14.5528 17.0923 14.7496 17.2891 14.9924 17.2891C15.2351 17.2891 15.4319 17.0923 15.4319 16.8495V10.6077H16.8447C17.0875 10.6077 17.2843 10.4109 17.2843 10.1681C17.2843 9.92528 17.0875 9.72852 16.8447 9.72852H13.1549C12.9122 9.72852 12.7153 9.92528 12.7153 10.1681C12.7153 10.4109 12.9122 10.6077 13.1549 10.6077Z" fill="url(#paint6_linear_2_5708)"/>
<path d="M7.53976 17.5691C7.1681 17.5691 6.86572 17.8715 6.86572 18.2431V20.8016C6.86572 21.1733 7.1681 21.4757 7.53976 21.4757H10.0983C10.47 21.4757 10.7723 21.1733 10.7723 20.8016V19.9623H19.2278V20.8017C19.2278 21.1734 19.5302 21.4757 19.9018 21.4757H22.4603C22.832 21.4757 23.1344 21.1734 23.1344 20.8017V18.2432C23.1344 17.8715 22.832 17.5691 22.4603 17.5691H21.6209V14.6109L23.7317 16.4174C23.8578 16.5254 24.0124 16.5806 24.1688 16.5806C24.2809 16.5806 24.3938 16.5522 24.4978 16.4943C24.7468 16.3558 24.8796 16.0843 24.8362 15.8027L24.5846 14.1683L25.9137 13.1844C26.1426 13.0149 26.2394 12.7286 26.16 12.455C26.0807 12.1814 25.8458 11.9912 25.5617 11.9704L21.621 11.6828V9.11364H22.4605C22.8321 9.11364 23.1345 8.81126 23.1345 8.4396V5.88107C23.1345 5.50941 22.8321 5.20703 22.4605 5.20703H19.9018C19.5302 5.20703 19.2278 5.50941 19.2278 5.88107V6.72057H10.7724V5.88107C10.7724 5.50941 10.47 5.20703 10.0984 5.20703H7.53982C7.16816 5.20703 6.86578 5.50941 6.86578 5.88107V8.4396C6.86578 8.81126 7.16816 9.11364 7.53982 9.11364H8.37932V17.5691H7.53976ZM9.89321 20.5966H7.74496V18.4483H9.89321V20.5966ZM22.2553 20.5966H20.107V18.4483H22.2552V20.5966H22.2553ZM23.9619 13.5355C23.7602 13.6848 23.6586 13.9316 23.6968 14.1798L23.883 15.3898L20.485 12.4815L24.9459 12.8071L23.9619 13.5355ZM20.107 6.08621H22.2552V8.23446H20.107V6.08621ZM7.7449 6.08621H9.89315V8.23446H7.7449V6.08621ZM9.25844 9.1137H10.0984C10.47 9.1137 10.7724 8.81132 10.7724 8.43966V7.59981H19.2278V8.43966C19.2278 8.81132 19.5302 9.1137 19.9018 9.1137H20.7417V11.6187L19.9265 11.5592C19.6349 11.5384 19.3652 11.705 19.2541 11.975C19.143 12.2449 19.2174 12.5538 19.4391 12.7435L20.7418 13.8584V17.5691H19.9019C19.5302 17.5691 19.2278 17.8715 19.2278 18.2432V19.0831H10.7724V18.2432C10.7724 17.8715 10.47 17.5691 10.0984 17.5691H9.25844V9.1137Z" fill="url(#paint7_linear_2_5708)"/>
<defs>
<linearGradient id="paint0_linear_2_5708" x1="-0.045269" y1="9.62977" x2="30" y2="9.62977" gradientUnits="userSpaceOnUse">
<stop stop-color="#4EB1D6"/>
<stop offset="1" stop-color="#3783AD"/>
</linearGradient>
<linearGradient id="paint1_linear_2_5708" x1="-0.045269" y1="15.0596" x2="30" y2="15.0596" gradientUnits="userSpaceOnUse">
<stop stop-color="#4EB1D6"/>
<stop offset="1" stop-color="#3783AD"/>
</linearGradient>
<linearGradient id="paint2_linear_2_5708" x1="2.4952" y1="2.14973" x2="18.8063" y2="2.14973" gradientUnits="userSpaceOnUse">
<stop stop-color="#4EB1D6"/>
<stop offset="1" stop-color="#3783AD"/>
</linearGradient>
<linearGradient id="paint3_linear_2_5708" x1="26.4007" y1="2.14973" x2="27.4803" y2="2.14973" gradientUnits="userSpaceOnUse">
<stop stop-color="#4EB1D6"/>
<stop offset="1" stop-color="#3783AD"/>
</linearGradient>
<linearGradient id="paint4_linear_2_5708" x1="24.7367" y1="2.14973" x2="25.8162" y2="2.14973" gradientUnits="userSpaceOnUse">
<stop stop-color="#4EB1D6"/>
<stop offset="1" stop-color="#3783AD"/>
</linearGradient>
<linearGradient id="paint5_linear_2_5708" x1="23.0726" y1="2.14973" x2="24.1522" y2="2.14973" gradientUnits="userSpaceOnUse">
<stop stop-color="#4EB1D6"/>
<stop offset="1" stop-color="#3783AD"/>
</linearGradient>
<linearGradient id="paint6_linear_2_5708" x1="12.7084" y1="13.5019" x2="17.2843" y2="13.5019" gradientUnits="userSpaceOnUse">
<stop stop-color="#4EB1D6"/>
<stop offset="1" stop-color="#3783AD"/>
</linearGradient>
<linearGradient id="paint7_linear_2_5708" x1="6.83657" y1="13.3266" x2="26.1873" y2="13.3266" gradientUnits="userSpaceOnUse">
<stop stop-color="#4EB1D6"/>
<stop offset="1" stop-color="#3783AD"/>
</linearGradient>
</defs>
</svg>
