<svg width="30" height="30" viewBox="0 0 30 30" fill="none" xmlns="http://www.w3.org/2000/svg">
<path d="M28.5 0H1.5C1.10218 0 0.720644 0.158035 0.43934 0.43934C0.158035 0.720644 0 1.10218 0 1.5L0 23.5C0 23.8978 0.158035 24.2794 0.43934 24.5607C0.720644 24.842 1.10218 25 1.5 25H11.45C11.1555 26.614 9.4895 26.991 9.4 27.01C8.88856 27.0349 8.40622 27.2552 8.05262 27.6256C7.69902 27.9959 7.50119 28.488 7.5 29C7.5 29.2652 7.60536 29.5196 7.79289 29.7071C7.98043 29.8946 8.23478 30 8.5 30H21.5C21.7652 30 22.0196 29.8946 22.2071 29.7071C22.3946 29.5196 22.5 29.2652 22.5 29C22.4981 28.4882 22.3 27.9966 21.9466 27.6264C21.5931 27.2562 21.1112 27.0356 20.6 27.01C20.5215 26.994 18.843 26.6335 18.55 25H28.5C28.8978 25 29.2794 24.842 29.5607 24.5607C29.842 24.2794 30 23.8978 30 23.5V1.5C30 1.10218 29.842 0.720644 29.5607 0.43934C29.2794 0.158035 28.8978 0 28.5 0V0ZM1.5 1H28.5C28.6326 1 28.7598 1.05268 28.8536 1.14645C28.9473 1.24021 29 1.36739 29 1.5V21H1V1.5C1 1.36739 1.05268 1.24021 1.14645 1.14645C1.24021 1.05268 1.36739 1 1.5 1ZM21.5 29H8.5C8.5 28.7348 8.60536 28.4804 8.79289 28.2929C8.98043 28.1054 9.23478 28 9.5 28H20.5C20.765 28.0007 21.019 28.1062 21.2064 28.2936C21.3938 28.481 21.4993 28.735 21.5 29ZM18.541 27H11.458C12.0165 26.4711 12.3727 25.7637 12.465 25H17.535C17.6273 25.7637 17.9835 26.4711 18.542 27H18.541ZM28.5 24H1.5C1.36739 24 1.24021 23.9473 1.14645 23.8536C1.05268 23.7598 1 23.6326 1 23.5V22H29V23.5C29 23.6326 28.9473 23.7598 28.8536 23.8536C28.7598 23.9473 28.6326 24 28.5 24Z" fill="url(#paint0_linear_2_5767)"/>
<path d="M3 20H27C27.2652 20 27.5196 19.8946 27.7071 19.7071C27.8946 19.5196 28 19.2652 28 19V3C28 2.73478 27.8946 2.48043 27.7071 2.29289C27.5196 2.10536 27.2652 2 27 2H3C2.73478 2 2.48043 2.10536 2.29289 2.29289C2.10536 2.48043 2 2.73478 2 3V19C2 19.2652 2.10536 19.5196 2.29289 19.7071C2.48043 19.8946 2.73478 20 3 20ZM9.117 15.4855L8.5025 14.024C8.656 13.838 8.823 13.6595 8.9855 13.493C9.16073 13.316 9.34928 13.1527 9.5495 13.0045L10.9855 13.617C11.0583 13.6481 11.1375 13.6615 11.2165 13.656C11.2956 13.6505 11.3722 13.6264 11.44 13.5855C12.0292 13.2296 12.6687 12.9648 13.337 12.8C13.4141 12.781 13.4856 12.7438 13.5455 12.6916C13.6054 12.6395 13.652 12.5738 13.6815 12.5L14.278 11.033C14.764 10.9783 15.255 10.9846 15.7395 11.0515L16.3185 12.5C16.348 12.5738 16.3946 12.6395 16.4545 12.6916C16.5144 12.7438 16.5859 12.781 16.663 12.8C17.3314 12.9652 17.9709 13.2306 18.56 13.587C18.6278 13.6279 18.7044 13.652 18.7835 13.6575C18.8625 13.663 18.9417 13.6496 19.0145 13.6185L20.476 13.004C20.662 13.158 20.8405 13.3245 21.007 13.487C21.1842 13.6621 21.3475 13.8507 21.4955 14.051L20.883 15.487C20.8519 15.5598 20.8385 15.639 20.844 15.718C20.8495 15.7971 20.8736 15.8736 20.9145 15.9415C21.2703 16.5302 21.5351 17.1692 21.7 17.837C21.719 17.9141 21.7562 17.9856 21.8084 18.0455C21.8605 18.1054 21.9262 18.152 22 18.1815L23.467 18.778C23.474 18.8485 23.4775 18.925 23.4825 19H20.9745C20.8516 17.4997 20.1689 16.1006 19.0619 15.0806C17.955 14.0605 16.5048 13.4943 14.9995 13.4943C13.4942 13.4943 12.044 14.0605 10.9371 15.0806C9.83009 16.1006 9.14735 17.4997 9.0245 19H6.5245C6.532 18.919 6.538 18.838 6.5515 18.7595L8 18.1815C8.07378 18.152 8.13947 18.1054 8.19164 18.0455C8.24381 17.9856 8.28096 17.9141 8.3 17.837C8.46525 17.1686 8.73058 16.5291 9.087 15.94C9.12764 15.872 9.15154 15.7954 9.15676 15.7164C9.16198 15.6373 9.14835 15.5582 9.117 15.4855ZM19.9745 19H10.0245C10.1483 17.7666 10.7259 16.6231 11.6452 15.7915C12.5644 14.9599 13.7599 14.4994 14.9995 14.4994C16.2391 14.4994 17.4346 14.9599 18.3538 15.7915C19.2731 16.6231 19.8507 17.7666 19.9745 19ZM3 3H27V19H24.486C24.48 18.8915 24.4735 18.7845 24.464 18.6845C24.4449 18.4972 24.3749 18.3188 24.2617 18.1684C24.1484 18.0181 23.9962 17.9016 23.8215 17.8315L22.606 17.346C22.4388 16.7535 22.2021 16.1829 21.901 15.646L22.415 14.4415C22.4918 14.2694 22.5188 14.0791 22.4928 13.8924C22.4668 13.7057 22.3889 13.5301 22.268 13.3855C22.1145 13.199 21.9405 13.0085 21.714 12.777C21.49 12.558 21.2995 12.384 21.119 12.2355C20.9741 12.1133 20.7978 12.0344 20.6101 12.0078C20.4224 11.9813 20.2311 12.0082 20.058 12.0855L18.8525 12.6C18.3156 12.2989 17.7449 12.0622 17.1525 11.895L16.6665 10.678C16.5968 10.5044 16.4811 10.353 16.3319 10.2402C16.1827 10.1273 16.0055 10.0573 15.8195 10.0375C15.2751 9.9895 14.7274 9.9895 14.183 10.0375C13.9957 10.0566 13.8173 10.1266 13.6669 10.2398C13.5166 10.3531 13.4001 10.5053 13.33 10.68L12.8445 11.8955C12.2521 12.0627 11.6814 12.2994 11.1445 12.6005L9.943 12.085C9.77088 12.0082 9.58063 11.9812 9.39394 12.0072C9.20724 12.0332 9.03159 12.1111 8.887 12.232C8.7005 12.3855 8.51 12.5595 8.2785 12.786C8.0595 13.01 7.8855 13.2005 7.737 13.381C7.61488 13.5259 7.53605 13.7023 7.50952 13.8899C7.48299 14.0776 7.50984 14.2689 7.587 14.442L8.1 15.65C7.79889 16.1869 7.56225 16.7575 7.395 17.35L6.178 17.836C6.00438 17.9057 5.85303 18.0214 5.74018 18.1706C5.62734 18.3198 5.55727 18.497 5.5375 18.683C5.5275 18.786 5.521 18.8945 5.515 19.005H3V3Z" fill="url(#paint1_linear_2_5767)"/>
<path d="M10.5 9C10.8978 9 11.2794 8.84196 11.5607 8.56066C11.842 8.27936 12 7.89782 12 7.5C12 7.36739 11.9473 7.24021 11.8536 7.14645C11.7598 7.05268 11.6326 7 11.5 7C11.3674 7 11.2402 7.05268 11.1464 7.14645C11.0527 7.24021 11 7.36739 11 7.5C11 7.63261 10.9473 7.75979 10.8536 7.85355C10.7598 7.94732 10.6326 8 10.5 8C10.3674 8 10.2402 7.94732 10.1464 7.85355C10.0527 7.75979 10 7.63261 10 7.5V5.5C10 5.36739 10.0527 5.24021 10.1464 5.14645C10.2402 5.05268 10.3674 5 10.5 5C10.6326 5 10.7598 5.05268 10.8536 5.14645C10.9473 5.24021 11 5.36739 11 5.5C11 5.63261 11.0527 5.75979 11.1464 5.85355C11.2402 5.94732 11.3674 6 11.5 6C11.6326 6 11.7598 5.94732 11.8536 5.85355C11.9473 5.75979 12 5.63261 12 5.5C12 5.10218 11.842 4.72064 11.5607 4.43934C11.2794 4.15804 10.8978 4 10.5 4C10.1022 4 9.72065 4.15804 9.43934 4.43934C9.15804 4.72064 9 5.10218 9 5.5V7.5C9 7.89782 9.15804 8.27936 9.43934 8.56066C9.72065 8.84196 10.1022 9 10.5 9Z" fill="url(#paint2_linear_2_5767)"/>
<path d="M13.5 9C13.6326 9 13.7598 8.94732 13.8536 8.85355C13.9473 8.75979 14 8.63261 14 8.5V5.5L14.4 6.0335C14.4724 6.12289 14.5638 6.19498 14.6676 6.2445C14.7714 6.29402 14.885 6.31972 15 6.31972C15.115 6.31972 15.2286 6.29402 15.3324 6.2445C15.4362 6.19498 15.5276 6.12289 15.6 6.0335L16 5.5V8.5C16 8.63261 16.0527 8.75979 16.1464 8.85355C16.2402 8.94732 16.3674 9 16.5 9C16.6326 9 16.7598 8.94732 16.8536 8.85355C16.9473 8.75979 17 8.63261 17 8.5V4.75C17 4.59259 16.9505 4.43917 16.8584 4.31147C16.7664 4.18377 16.6365 4.08827 16.4872 4.03849C16.3378 3.98871 16.1766 3.98718 16.0264 4.03411C15.8761 4.08105 15.7444 4.17407 15.65 4.3L15 5.1675L14.35 4.3C14.2556 4.17407 14.1239 4.08105 13.9736 4.03411C13.8234 3.98718 13.6622 3.98871 13.5128 4.03849C13.3635 4.08827 13.2336 4.18377 13.1416 4.31147C13.0495 4.43917 13 4.59259 13 4.75V8.5C13 8.63261 13.0527 8.75979 13.1464 8.85355C13.2402 8.94732 13.3674 9 13.5 9Z" fill="url(#paint3_linear_2_5767)"/>
<path d="M19.5 7C19.5878 7.00009 19.674 7.02326 19.7499 7.0672C19.8259 7.11114 19.8889 7.17429 19.9327 7.25032C19.9766 7.32634 19.9996 7.41256 19.9996 7.5003C19.9995 7.58805 19.9764 7.67424 19.9324 7.75021C19.8885 7.82618 19.8254 7.88926 19.7494 7.9331C19.6734 7.97695 19.5872 8.00002 19.4994 8C19.4117 7.99998 19.3255 7.97687 19.2495 7.93298C19.1735 7.8891 19.1104 7.82599 19.0665 7.75C18.9981 7.63945 18.8894 7.55988 18.7633 7.52817C18.6372 7.49645 18.5038 7.51508 18.3912 7.58011C18.2787 7.64514 18.1958 7.75145 18.1603 7.87651C18.1248 8.00156 18.1394 8.13553 18.201 8.25C18.3327 8.47803 18.5221 8.66739 18.7501 8.79904C18.9781 8.93069 19.2368 9 19.5001 9C19.7634 9 20.0221 8.93069 20.2501 8.79903C20.4781 8.66738 20.6675 8.47802 20.7991 8.24998C20.9308 8.02195 21.0001 7.76328 21.0001 7.49998C21.0001 7.23667 20.9308 6.978 20.7991 6.74998C20.6674 6.52195 20.4781 6.33259 20.2501 6.20095C20.022 6.0693 19.7633 5.99999 19.5 6C19.4123 5.99991 19.3261 5.97674 19.2502 5.9328C19.1742 5.88886 19.1111 5.82571 19.0673 5.74968C19.0235 5.67366 19.0005 5.58744 19.0005 5.4997C19.0006 5.41195 19.0237 5.32576 19.0676 5.24979C19.1115 5.17382 19.1747 5.11074 19.2507 5.0669C19.3267 5.02305 19.4129 4.99998 19.5006 5C19.5884 5.00002 19.6746 5.02313 19.7506 5.06702C19.8266 5.1109 19.8897 5.17401 19.9335 5.25C20.0019 5.36055 20.1107 5.44012 20.2368 5.47183C20.3628 5.50355 20.4963 5.48492 20.6089 5.41989C20.7214 5.35486 20.8042 5.24855 20.8397 5.12349C20.8752 4.99844 20.8606 4.86447 20.799 4.75C20.6674 4.52197 20.478 4.33261 20.25 4.20096C20.022 4.06931 19.7633 4 19.5 4C19.2367 4 18.978 4.06931 18.75 4.20097C18.522 4.33262 18.3326 4.52198 18.201 4.75002C18.0693 4.97805 18 5.23672 18 5.50002C18 5.76333 18.0693 6.022 18.201 6.25002C18.3326 6.47805 18.522 6.66741 18.75 6.79905C18.9781 6.9307 19.2367 7.00001 19.5 7Z" fill="url(#paint4_linear_2_5767)"/>
<path d="M7 9C7.13261 9 7.25979 8.94732 7.35355 8.85355C7.44732 8.75979 7.5 8.63261 7.5 8.5C7.5 8.36739 7.44732 8.24021 7.35355 8.14645C7.25979 8.05268 7.13261 8 7 8H5C4.86739 8 4.74021 8.05268 4.64645 8.14645C4.55268 8.24021 4.5 8.36739 4.5 8.5C4.5 8.63261 4.55268 8.75979 4.64645 8.85355C4.74021 8.94732 4.86739 9 5 9H7Z" fill="url(#paint5_linear_2_5767)"/>
<path d="M23 9H25C25.1326 9 25.2598 8.94732 25.3536 8.85355C25.4473 8.75979 25.5 8.63261 25.5 8.5C25.5 8.36739 25.4473 8.24021 25.3536 8.14645C25.2598 8.05268 25.1326 8 25 8H23C22.8674 8 22.7402 8.05268 22.6464 8.14645C22.5527 8.24021 22.5 8.36739 22.5 8.5C22.5 8.63261 22.5527 8.75979 22.6464 8.85355C22.7402 8.94732 22.8674 9 23 9Z" fill="url(#paint6_linear_2_5767)"/>
<defs>
<linearGradient id="paint0_linear_2_5767" x1="-0.045269" y1="14.9728" x2="30" y2="14.9728" gradientUnits="userSpaceOnUse">
<stop stop-color="#4EB1D6"/>
<stop offset="1" stop-color="#3783AD"/>
</linearGradient>
<linearGradient id="paint1_linear_2_5767" x1="1.96077" y1="10.9837" x2="28" y2="10.9837" gradientUnits="userSpaceOnUse">
<stop stop-color="#4EB1D6"/>
<stop offset="1" stop-color="#3783AD"/>
</linearGradient>
<linearGradient id="paint2_linear_2_5767" x1="8.99547" y1="6.49547" x2="12" y2="6.49547" gradientUnits="userSpaceOnUse">
<stop stop-color="#4EB1D6"/>
<stop offset="1" stop-color="#3783AD"/>
</linearGradient>
<linearGradient id="paint3_linear_2_5767" x1="12.994" y1="6.49547" x2="17" y2="6.49547" gradientUnits="userSpaceOnUse">
<stop stop-color="#4EB1D6"/>
<stop offset="1" stop-color="#3783AD"/>
</linearGradient>
<linearGradient id="paint4_linear_2_5767" x1="17.9955" y1="6.49547" x2="21.0001" y2="6.49547" gradientUnits="userSpaceOnUse">
<stop stop-color="#4EB1D6"/>
<stop offset="1" stop-color="#3783AD"/>
</linearGradient>
<linearGradient id="paint5_linear_2_5767" x1="4.49547" y1="8.49909" x2="7.5" y2="8.49909" gradientUnits="userSpaceOnUse">
<stop stop-color="#4EB1D6"/>
<stop offset="1" stop-color="#3783AD"/>
</linearGradient>
<linearGradient id="paint6_linear_2_5767" x1="22.4955" y1="8.49909" x2="25.5" y2="8.49909" gradientUnits="userSpaceOnUse">
<stop stop-color="#4EB1D6"/>
<stop offset="1" stop-color="#3783AD"/>
</linearGradient>
</defs>
</svg>
