<svg width="30" height="30" viewBox="0 0 30 30" fill="none" xmlns="http://www.w3.org/2000/svg">
<path d="M27.5069 6.99426H19.7049C19.4287 6.99426 19.2048 7.21821 19.2048 7.49437C19.2048 7.77059 19.4287 7.99448 19.7049 7.99448H27.5069C27.7826 7.99448 28.007 8.21889 28.007 8.49458V10.9952H19.9801C19.7039 10.9952 19.48 11.2192 19.48 11.4953C19.48 11.7715 19.704 11.9954 19.9801 11.9954H28.007V28.4996C28.007 28.7753 27.7826 28.9997 27.5069 28.9997H1.50038C1.22468 28.9997 1.00027 28.7753 1.00027 28.4996V11.9954H9.02718C9.3034 11.9954 9.52728 11.7715 9.52728 11.4953C9.52728 11.2192 9.30334 10.9952 9.02718 10.9952H1.00021V8.49458C1.00021 8.21889 1.22463 7.99448 1.50032 7.99448H9.3024C9.57863 7.99448 9.80251 7.77053 9.80251 7.49437C9.80251 7.21815 9.57857 6.99426 9.3024 6.99426H1.50038C0.673002 6.99426 0 7.66727 0 8.49464V28.4997C0 29.3271 0.673002 30.0001 1.50038 30.0001H27.5069C28.3343 30.0001 29.0073 29.3271 29.0073 28.4997V8.49464C29.0073 7.66727 28.3343 6.99426 27.5069 6.99426Z" fill="url(#paint0_linear_2_5779)"/>
<path d="M2.14554 9.13881C2.0554 9.23382 2.00049 9.35883 2.00049 9.49386C2.00049 9.6289 2.0554 9.75397 2.14554 9.84892C2.24055 9.93876 2.36556 9.99397 2.5006 9.99397C2.63053 9.99397 2.7607 9.93876 2.85565 9.84892C2.94549 9.75391 3.0007 9.62374 3.0007 9.49386C3.0007 9.3637 2.94549 9.23376 2.85565 9.13881C2.66546 8.95373 2.3304 8.95373 2.14554 9.13881Z" fill="url(#paint1_linear_2_5779)"/>
<path d="M4.14603 9.13881C4.05589 9.23382 4.00098 9.36375 4.00098 9.49386C4.00098 9.6238 4.05595 9.75397 4.14603 9.84892C4.24104 9.93876 4.37097 9.99397 4.50108 9.99397C4.63102 9.99397 4.76119 9.93876 4.85613 9.84892C4.94598 9.75391 5.00119 9.62374 5.00119 9.49386C5.00119 9.3637 4.94598 9.23376 4.85613 9.13881C4.66595 8.95373 4.33094 8.95373 4.14603 9.13881Z" fill="url(#paint2_linear_2_5779)"/>
<path d="M6.14652 9.13881C6.05638 9.23381 6.00146 9.36375 6.00146 9.49386C6.00146 9.62889 6.05638 9.75396 6.14652 9.84381C6.24153 9.93881 6.36654 9.99402 6.50157 9.99402C6.63661 9.99402 6.76168 9.93881 6.85662 9.84897C6.94647 9.75396 7.00168 9.62895 7.00168 9.49392C7.00168 9.36375 6.94647 9.23381 6.85662 9.13887C6.67154 8.95372 6.33137 8.95372 6.14652 9.13881Z" fill="url(#paint3_linear_2_5779)"/>
<path d="M7.0977 17.2026C6.9966 17.3418 6.97386 17.523 7.03762 17.6827L8.0379 20.1834C8.09404 20.3236 8.21079 20.431 8.35538 20.4754C8.4035 20.4903 8.45308 20.4976 8.50237 20.4976C8.60077 20.4976 8.69847 20.4686 8.78199 20.4122L11.5745 18.5296C11.7496 19.024 11.9099 19.4257 12.0179 19.6879C12.0182 19.6886 12.0189 19.6891 12.0192 19.6898C12.0446 19.7508 12.0815 19.8057 12.1277 19.8516C12.1492 19.8731 12.1772 19.8848 12.202 19.9018C12.2303 19.9213 12.2554 19.9451 12.2875 19.9586C12.3476 19.9837 12.4125 19.9969 12.4786 19.9972C12.4793 19.9972 12.4798 19.9975 12.4805 19.9975H12.6944L12.056 21.2742C11.9786 21.4293 11.9869 21.6134 12.078 21.7609C12.1691 21.9082 12.33 21.998 12.5034 21.998H16.5044C16.6778 21.998 16.8387 21.9082 16.9298 21.7609C17.0209 21.6134 17.0292 21.4293 16.9518 21.2742L16.3134 19.9975H16.3794C16.4051 19.9975 16.4274 19.9866 16.4521 19.9828C16.4772 19.9867 16.5021 19.9978 16.5271 19.9978C16.7237 19.9978 16.9102 19.881 16.9899 19.6878C17.0979 19.4256 17.2583 19.0239 17.4334 18.5296L20.2258 20.4121C20.3093 20.4685 20.407 20.4976 20.5054 20.4976C20.5548 20.4976 20.6043 20.4902 20.6524 20.4754C20.797 20.4309 20.9137 20.3234 20.9699 20.1833L21.9701 17.6827C22.0339 17.523 22.0112 17.3417 21.9101 17.2025L18.8454 12.9894C19.1025 10.9746 19.0864 8.66445 18.3852 6.29309C17.732 4.08548 16.5513 2.02129 14.8758 0.158243C14.6857 -0.0527477 14.3219 -0.0527477 14.1319 0.158243C12.4559 2.02199 11.2752 4.08624 10.6225 6.29309C9.92122 8.66445 9.90522 10.9747 10.1623 12.9894L7.0977 17.2026ZM13.3126 20.9977L13.8127 19.9975H15.1949L15.695 20.9977H13.3126ZM18.622 14.3827L20.9386 17.5677L20.2712 19.2363L17.7715 17.5512C18.0547 16.701 18.3779 15.622 18.622 14.3827ZM11.5817 6.57687C12.1427 4.68012 13.1246 2.89186 14.5038 1.25422C15.8826 2.89133 16.8645 4.67966 17.4259 6.57687C18.1073 8.88077 18.1073 11.1031 17.8399 13.0412C17.8383 13.0503 17.8374 13.059 17.8363 13.0682C17.5348 15.2293 16.9015 17.0338 16.4955 18.1816C16.3833 18.4992 16.2788 18.7719 16.1895 18.9972H12.8181C12.7288 18.7719 12.6243 18.4991 12.5121 18.1814C12.1062 17.0337 11.4728 15.2293 11.1714 13.0682C11.1702 13.059 11.1694 13.0504 11.1678 13.0412C10.9003 11.1031 10.9003 8.88077 11.5817 6.57687ZM11.2362 17.5511L8.73651 19.2363L8.06908 17.5677L10.3857 14.3827C10.6299 15.6219 10.953 16.701 11.2362 17.5511Z" fill="url(#paint4_linear_2_5779)"/>
<path d="M14.0034 24.4982V25.9985C14.0034 26.2748 14.2274 26.4986 14.5035 26.4986C14.7797 26.4986 15.0036 26.2747 15.0036 25.9985V24.4982C15.0036 24.2219 14.7797 23.998 14.5035 23.998C14.2274 23.998 14.0034 24.222 14.0034 24.4982Z" fill="url(#paint5_linear_2_5779)"/>
<path d="M12.0029 23.4982V24.9985C12.0029 25.2748 12.2269 25.4986 12.503 25.4986C12.7792 25.4986 13.0031 25.2747 13.0031 24.9985V23.4982C13.0031 23.2219 12.7792 22.998 12.503 22.998C12.2269 22.998 12.0029 23.2219 12.0029 23.4982Z" fill="url(#paint6_linear_2_5779)"/>
<path d="M16.504 22.998C16.2278 22.998 16.0039 23.222 16.0039 23.4982V24.9985C16.0039 25.2748 16.2278 25.4986 16.504 25.4986C16.7802 25.4986 17.0041 25.2747 17.0041 24.9985V23.4982C17.0041 23.222 16.7802 22.998 16.504 22.998Z" fill="url(#paint7_linear_2_5779)"/>
<path d="M14.5036 11.4953C15.8823 11.4953 17.0042 10.3734 17.0042 8.99467C17.0042 7.6159 15.8823 6.49402 14.5036 6.49402C13.1248 6.49402 12.0029 7.6159 12.0029 8.99467C12.003 10.3734 13.1248 11.4953 14.5036 11.4953ZM14.5036 7.49429C15.331 7.49429 16.004 8.16729 16.004 8.99467C16.004 9.82204 15.331 10.495 14.5036 10.495C13.6762 10.495 13.0032 9.82204 13.0032 8.99467C13.0032 8.16729 13.6763 7.49429 14.5036 7.49429Z" fill="url(#paint8_linear_2_5779)"/>
<defs>
<linearGradient id="paint0_linear_2_5779" x1="-0.043771" y1="18.4763" x2="29.0073" y2="18.4763" gradientUnits="userSpaceOnUse">
<stop stop-color="#4EB1D6"/>
<stop offset="1" stop-color="#3783AD"/>
</linearGradient>
<linearGradient id="paint1_linear_2_5779" x1="1.99898" y1="9.49609" x2="3.0007" y2="9.49609" gradientUnits="userSpaceOnUse">
<stop stop-color="#4EB1D6"/>
<stop offset="1" stop-color="#3783AD"/>
</linearGradient>
<linearGradient id="paint2_linear_2_5779" x1="3.99947" y1="9.49609" x2="5.00119" y2="9.49609" gradientUnits="userSpaceOnUse">
<stop stop-color="#4EB1D6"/>
<stop offset="1" stop-color="#3783AD"/>
</linearGradient>
<linearGradient id="paint3_linear_2_5779" x1="5.99996" y1="9.49611" x2="7.00168" y2="9.49611" gradientUnits="userSpaceOnUse">
<stop stop-color="#4EB1D6"/>
<stop offset="1" stop-color="#3783AD"/>
</linearGradient>
<linearGradient id="paint4_linear_2_5779" x1="6.97931" y1="10.9791" x2="22.0058" y2="10.9791" gradientUnits="userSpaceOnUse">
<stop stop-color="#4EB1D6"/>
<stop offset="1" stop-color="#3783AD"/>
</linearGradient>
<linearGradient id="paint5_linear_2_5779" x1="14.0019" y1="25.2461" x2="15.0036" y2="25.2461" gradientUnits="userSpaceOnUse">
<stop stop-color="#4EB1D6"/>
<stop offset="1" stop-color="#3783AD"/>
</linearGradient>
<linearGradient id="paint6_linear_2_5779" x1="12.0014" y1="24.2461" x2="13.0031" y2="24.2461" gradientUnits="userSpaceOnUse">
<stop stop-color="#4EB1D6"/>
<stop offset="1" stop-color="#3783AD"/>
</linearGradient>
<linearGradient id="paint7_linear_2_5779" x1="16.0024" y1="24.2461" x2="17.0041" y2="24.2461" gradientUnits="userSpaceOnUse">
<stop stop-color="#4EB1D6"/>
<stop offset="1" stop-color="#3783AD"/>
</linearGradient>
<linearGradient id="paint8_linear_2_5779" x1="11.9954" y1="8.99014" x2="17.0042" y2="8.99014" gradientUnits="userSpaceOnUse">
<stop stop-color="#4EB1D6"/>
<stop offset="1" stop-color="#3783AD"/>
</linearGradient>
</defs>
</svg>
