<svg width="42" height="42" viewBox="0 0 42 42" fill="none" xmlns="http://www.w3.org/2000/svg">
<path d="M40.867 16.5209C40.6074 17.5642 40.1844 18.5722 40.1423 19.6628C40.1103 20.5292 39.9047 21.1798 39.4496 21.6703C39.2727 21.8625 38.7755 21.6703 38.5952 21.3854C38.3036 20.9354 38.7839 20.037 38.2143 19.9241C37.5048 19.7841 37.1071 19.9241 36.8526 20.8528C36.5846 21.8203 37.2284 22.6395 37.5267 23.5497C37.5958 23.757 37.793 24.0436 37.375 24.1009C36.7464 24.1869 35.8937 23.7891 35.6459 23.1705C35.4942 22.7895 34.8673 22.948 34.6583 22.6951C34.3567 22.3294 34.3701 21.9113 34.0365 22.0209C33.7685 22.1035 33.5848 22.358 33.3404 22.5047C32.8719 22.7845 32.1439 23.7318 31.5827 23.6509C29.4727 23.3475 28.4143 23.4182 27.0441 23.9172C26.6262 24.0689 26.3144 23.7975 26.0009 23.8582C25.6015 23.9357 25.3926 23.6222 25.1061 23.4654C25.0319 23.6694 24.8769 24.0082 25.0504 24.2408C25.1937 24.4296 25.5307 24.4094 25.829 24.4094C26.1813 24.4094 26.6077 24.5998 27.0441 24.915C27.2616 25.0836 27.7351 25.0094 27.9475 24.9757C28.6941 24.856 29.1002 24.4549 29.9007 24.7836C30.7434 25.1207 31.3551 25.5994 31.3332 26.6057C31.3164 27.3187 31.4596 28.0688 31.3602 28.7396C31.0821 30.614 30.6861 32.0181 29.4373 33.6278C29.1862 33.9497 29.1339 34.6138 28.8676 34.9375C28.4295 35.4718 27.607 35.9185 27.1014 36.4005C26.6599 36.8219 26.2874 37.5147 25.7953 37.8636C24.919 38.4873 24.7572 38.934 23.987 38.5665C23.5505 38.3575 22.7888 37.218 22.4972 36.8034C22.085 36.2337 21.7942 35.5854 21.6428 34.8987C21.5782 34.5251 21.5354 34.148 21.5147 33.7694C21.4355 32.9552 21.1557 32.6855 20.5271 32.2439C19.8985 31.8023 19.7131 31.4112 19.2901 30.7741C18.7053 29.8942 17.8997 29.9128 17.0992 29.3902C16.9236 29.2925 16.7705 29.1588 16.65 28.9979C16.5295 28.837 16.4443 28.6525 16.3998 28.4564C16.3509 28.2508 16.4723 27.4451 16.4756 27.2597C16.4874 26.7725 16.3459 26.3882 16.3593 25.9247C16.4015 24.5206 18.4474 23.2278 19.5715 22.7221C20.3906 22.3563 20.9198 22.5974 21.6293 22.562C21.9663 22.5451 22.5208 22.3766 22.8309 22.6547C23.0432 22.8468 23.3365 22.9159 23.5842 23.071C23.9374 23.157 24.2993 23.2023 24.6628 23.2059C24.6746 23.2059 24.6814 23.2143 24.6915 23.216C24.4684 23.0877 24.2565 22.9411 24.0578 22.7777C23.4477 22.2721 22.9539 21.6703 22.204 21.3753C21.454 21.0804 20.667 21.163 19.8648 21.2068C19.079 21.2331 18.2939 21.1376 17.5374 20.9236C16.7352 20.7196 16.4318 20.064 16.3374 19.0695C16.3037 18.7155 16.5363 18.1997 16.5633 17.8036C16.6071 17.1749 16.1453 16.74 16.5835 16.0557C17.0217 15.3713 17.5188 14.5032 18.2435 14.1004C18.8806 13.7447 19.6373 13.647 20.2945 13.3368C20.9194 13.0238 21.5054 12.6386 22.0405 12.189C22.9034 11.4996 23.7056 10.7276 24.6561 10.1545C26.8133 8.85151 29.4238 9.51563 31.618 8.43518C32.7101 7.89748 33.905 6.08886 35.2398 6.04503C32.2025 3.00472 28.2901 0.991312 24.0511 0.287109C24.4584 0.650464 24.7919 1.08882 25.0336 1.57826C25.4701 2.5087 25.1044 2.97392 24.6257 3.7358C24.1471 4.49767 24.6005 5.30844 23.8977 5.89164C23.3752 6.32484 22.4702 6.45126 21.8467 6.67544C21.0411 6.96536 20.2372 7.2637 19.4283 7.54688C18.6193 7.83006 17.6958 8.10818 16.811 7.95985C15.8588 7.79129 15.6465 7.35304 15.2386 6.59453C15.1577 6.44451 15.0853 5.57307 14.396 5.54442C13.4842 5.50733 12.8 5.46857 12.232 5.84613C11.4669 6.35181 11.231 7.4508 11.0523 8.34584C10.8231 9.49035 11.3793 10.9029 10.6833 11.9243C10.2687 12.5328 9.52377 12.7671 8.82943 12.8463C7.46434 13.0149 6.14812 12.5092 4.79651 12.494C3.7078 12.494 2.89717 12.9997 2.68651 13.856C2.53989 14.4493 2.85504 15.0747 2.86852 15.6865C2.89685 16.5355 2.82043 17.3846 2.64101 18.2149C2.5736 18.5301 2.2871 18.9077 2.0343 18.7088C1.36438 18.1801 0.800074 17.5299 0.37091 16.7923C0.221618 17.5857 0.118641 18.3871 0.0625 19.1925C0.395887 19.3678 0.705654 19.5847 0.984359 19.8381C1.77139 20.5123 1.70398 21.7832 2.16407 22.6749C2.88538 24.0503 4.2926 24.2678 5.42849 25.1375C6.04026 25.6061 6.54416 26.2146 6.6082 27.0085C6.64528 27.4299 6.52562 27.7316 6.4599 28.1362C6.26272 29.3464 6.43967 30.2448 7.01436 31.3388C8.02554 33.2401 9.60635 35.1043 11.6574 35.8628C12.0197 35.996 12.5489 36.1292 12.7393 36.4326C12.9298 36.736 11.8866 37.1186 11.6371 37.2754C10.9791 37.6862 10.2339 37.9367 9.46142 38.0069C12.579 40.0192 16.1816 41.1533 19.8895 41.2898C23.5974 41.4263 27.2736 40.5602 30.5307 38.7826C33.7878 37.0051 36.5053 34.3819 38.3971 31.1894C40.2888 27.9968 41.2847 24.3532 41.2799 20.6421C41.2799 19.258 41.1416 17.8774 40.867 16.5209ZM3.39771 21.704C3.34801 21.5303 3.33936 21.3474 3.37243 21.1697C3.3881 20.8922 3.33966 20.6147 3.23086 20.3589C3.17731 20.2589 3.14929 20.1471 3.14929 20.0336C3.14929 19.9201 3.17731 19.8084 3.23086 19.7083C3.43984 19.3526 3.64376 19.7926 3.83757 20.0353C3.95639 20.1907 4.05493 20.3606 4.13081 20.541C4.15002 20.5874 4.16525 20.6353 4.17632 20.6842C4.18931 20.8507 4.1716 21.0181 4.12407 21.1781C4.04421 21.4885 4.05356 21.8151 4.15104 22.1204C4.17969 22.2097 4.27575 22.3614 4.19148 22.3631C3.82577 22.3766 3.52073 22.0142 3.39771 21.704ZM5.02234 24.052C4.97515 24.0824 5.00043 23.8936 4.80325 23.7587C4.54877 23.5902 4.10553 23.3727 4.04655 23.039C4.0061 22.8131 4.16283 22.7019 4.36844 22.6159C4.49989 22.562 4.50495 22.6918 4.58247 22.8468C4.66 23.0019 4.84538 23.0508 4.98526 23.184C5.19761 23.3896 5.27176 23.8953 5.02234 24.052ZM10.6613 14.5538C10.5326 14.8399 10.4458 15.143 10.4035 15.4539C10.3732 15.6899 10.4271 15.8905 10.2501 16.0826C10.0058 16.3489 9.63837 16.2916 9.36535 16.1029C8.7637 15.6781 8.35586 14.9583 7.75252 14.5083C7.50647 14.3263 7.15424 14.2538 7.24693 13.9066C7.34636 13.5222 7.89746 13.4127 8.22104 13.416C8.6491 13.416 9.09908 13.6739 9.44793 13.4026C9.73106 13.1818 10.144 13.0655 10.3765 13.234C10.749 13.5189 10.8181 14.1611 10.6613 14.5538ZM32.2146 34.275C32.009 34.602 32.0057 35.3353 31.6063 35.6808C31.2068 36.0263 30.5951 36.0331 30.2075 36.1949C29.6665 36.4174 29.6311 35.6353 29.7929 34.8717C29.9142 34.302 30.7653 34.0829 31.1529 33.6311C31.5197 33.2044 31.813 32.7196 32.0208 32.1967C32.1102 31.9624 32.1894 31.4888 32.3781 31.691C33.0623 32.4462 32.7219 33.4727 32.2146 34.2801V34.275Z" fill="url(#paint0_linear_1_8159)"/>
<path d="M24.6579 10.166C23.7074 10.7391 22.9052 11.5145 22.0423 12.2005C21.5072 12.6501 20.9212 13.0354 20.2964 13.3484C19.6391 13.6585 18.8824 13.7563 18.2453 14.1119C17.5207 14.5148 17.0269 15.3744 16.5853 16.0672C16.1438 16.76 16.6089 17.1864 16.5651 17.8151C16.5381 18.2112 16.3056 18.727 16.3393 19.081C16.4336 20.0839 16.737 20.7396 17.5392 20.9351C18.2957 21.1491 19.0808 21.2446 19.8666 21.2183C20.6688 21.1711 21.4373 21.0818 22.2058 21.3869C22.9743 21.692 23.4546 22.2886 24.0596 22.7893C24.2583 22.9527 24.4703 23.0993 24.6933 23.2275C24.6832 23.2275 24.6764 23.2174 24.6646 23.2174C24.3011 23.2138 23.9393 23.1686 23.5861 23.0826C23.3434 22.9275 23.0451 22.8584 22.8327 22.6662C22.5226 22.3881 21.9715 22.5567 21.6311 22.5735C20.9199 22.6089 20.3924 22.3679 19.5734 22.7336C18.4493 23.2393 16.4033 24.5237 16.3612 25.9362C16.3477 26.3998 16.4893 26.779 16.4775 27.2712C16.4775 27.4549 16.3528 28.2623 16.4016 28.468C16.4461 28.664 16.5313 28.8485 16.6519 29.0094C16.7724 29.1703 16.9254 29.304 17.101 29.4018C17.8982 29.9243 18.7037 29.9074 19.2919 30.7856C19.7149 31.4228 19.9054 31.8138 20.5289 32.2555C21.1525 32.6971 21.4373 32.9668 21.5165 33.7809C21.5373 34.1595 21.58 34.5366 21.6446 34.9102C21.796 35.597 22.0868 36.2453 22.499 36.8149C22.7906 37.2228 23.5524 38.369 23.9888 38.578C24.759 38.9455 24.9208 38.4988 25.7972 37.8752C26.2893 37.5262 26.6617 36.8335 27.1033 36.4121C27.6089 35.93 28.4313 35.4833 28.8695 34.949C29.1357 34.6254 29.188 33.9613 29.4391 33.6393C30.6913 32.0245 31.084 30.6204 31.362 28.7511C31.4615 28.0769 31.3182 27.3302 31.3351 26.6172C31.357 25.6059 30.7368 25.1356 29.9026 24.7951C29.102 24.4664 28.6959 24.8676 27.9493 24.9873C27.7369 25.021 27.2634 25.0884 27.046 24.9266C26.6095 24.6046 26.1831 24.4209 25.8309 24.4209C25.5326 24.4209 25.1955 24.4394 25.0523 24.2523C24.8837 24.0197 25.0337 23.6809 25.1079 23.477C25.3944 23.6337 25.6034 23.9473 26.0028 23.8697C26.3162 23.809 26.628 24.0804 27.046 23.9287C28.4161 23.423 29.4745 23.359 31.5845 23.6624C32.1457 23.7433 32.8737 22.796 33.3423 22.5162C33.5866 22.3679 33.7703 22.115 34.0383 22.0324C34.3753 21.9296 34.3585 22.3476 34.6602 22.7067C34.8691 22.9595 35.5028 22.8011 35.6477 23.182C35.8955 23.8006 36.7482 24.1933 37.3769 24.1124C37.7948 24.0551 37.5976 23.7753 37.5285 23.5613C37.2252 22.6494 36.5814 21.8302 36.8544 20.8643C37.1089 19.9339 37.5066 19.7957 38.2161 19.9356C38.7858 20.0485 38.3055 20.9469 38.597 21.397C38.7807 21.6818 39.2711 21.874 39.4515 21.6818C39.9065 21.188 40.1121 20.5407 40.1441 19.6743C40.1863 18.5838 40.6093 17.5758 40.8688 16.5324C40.0626 12.5676 38.1066 8.92813 35.245 6.06836C33.9102 6.11218 32.717 7.92249 31.6232 8.4585C29.4256 9.52716 26.8151 8.86304 24.6579 10.166Z" fill="#EB593D"/>
<path d="M32.0221 32.1937C31.8142 32.7204 31.5197 33.2086 31.1508 33.6382C30.7632 34.0899 29.9121 34.3124 29.7908 34.8788C29.6223 35.6424 29.6644 36.4245 30.2054 36.202C30.5981 36.0334 31.2166 36.025 31.6042 35.6879C31.9918 35.3508 32.007 34.6091 32.2126 34.2821C32.7182 33.4747 33.0552 32.4482 32.3811 31.6931C32.1907 31.4807 32.1148 31.9543 32.0221 32.1937Z" fill="#EB593D"/>
<path d="M12.752 36.4256C12.5615 36.1222 12.0324 35.989 11.67 35.8559C9.61901 35.0974 8.03146 33.2331 7.02702 31.3318C6.45233 30.2446 6.27537 29.3462 6.47255 28.1292C6.53828 27.7247 6.65794 27.4229 6.62086 27.0016C6.55176 26.2077 6.04786 25.5992 5.44115 25.1306C4.30526 24.2608 2.89803 24.0434 2.17673 22.6679C1.7099 21.7763 1.77731 20.5003 0.997016 19.8311C0.718312 19.5777 0.408545 19.3608 0.0751577 19.1855C0.043137 19.6659 0.0195428 20.148 0.0195428 20.6351C0.0158872 24.0889 0.879679 27.4882 2.53163 30.5211C4.18358 33.554 6.57077 36.1233 9.47407 37.9932C10.2466 37.923 10.9918 37.6725 11.6498 37.2617C11.8992 37.1116 12.9306 36.7122 12.752 36.4256Z" fill="#EB593D"/>
<path d="M2.04123 18.7116C2.29402 18.9105 2.58052 18.5329 2.64793 18.2177C2.82736 17.3875 2.90377 16.5383 2.87545 15.6893C2.86534 15.0741 2.54682 14.4488 2.69681 13.8554C2.90747 13.0025 3.7181 12.4868 4.8068 12.4935C6.15504 12.4935 7.47463 12.9992 8.83972 12.8458C9.53407 12.7632 10.279 12.5323 10.6936 11.9238C11.3896 10.9023 10.8334 9.4898 11.0626 8.3453C11.2413 7.45026 11.4772 6.35295 12.2423 5.84559C12.8103 5.46802 13.4945 5.50847 14.4063 5.54387C15.0888 5.57253 15.1613 6.44397 15.2489 6.59398C15.6568 7.35249 15.8691 7.79748 16.8213 7.9593C17.7027 8.10763 18.6195 7.83288 19.4386 7.54633C20.2576 7.25979 21.0514 6.96481 21.857 6.67489C22.4805 6.45071 23.3855 6.32429 23.908 5.8911C24.6108 5.30789 24.1658 4.48702 24.636 3.73525C25.1062 2.98348 25.4787 2.50815 25.0439 1.57772C24.8022 1.08827 24.4686 0.64992 24.0613 0.286565C18.7385 -0.61006 13.2763 0.616118 8.8472 3.70192C4.41807 6.78773 1.37498 11.4872 0.371094 16.7917C0.801908 17.5312 1.36856 18.1826 2.04123 18.7116Z" fill="#EB593D"/>
<path d="M4.14627 22.126C4.0488 21.8208 4.03945 21.4942 4.11931 21.1838C4.16684 21.0238 4.18455 20.8564 4.17155 20.6899C4.16048 20.641 4.14526 20.593 4.12605 20.5467C4.05016 20.3663 3.95162 20.1964 3.83281 20.041C3.639 19.7983 3.43508 19.3668 3.2261 19.714C3.17255 19.8141 3.14453 19.9258 3.14453 20.0393C3.14453 20.1528 3.17255 20.2645 3.2261 20.3646C3.3349 20.6204 3.38334 20.8978 3.36767 21.1754C3.33459 21.353 3.34325 21.536 3.39295 21.7097C3.51597 22.0199 3.82101 22.3839 4.18335 22.3738C4.27099 22.3671 4.17492 22.2154 4.14627 22.126Z" fill="#EB593D"/>
<path d="M4.58138 22.8478C4.50386 22.6928 4.4988 22.563 4.36735 22.6169C4.16174 22.7012 4.00501 22.8141 4.04546 23.04C4.10444 23.3771 4.55104 23.5844 4.80215 23.7597C4.99933 23.8946 4.97068 24.0834 5.02124 24.053C5.27067 23.8963 5.18977 23.3906 4.98417 23.1866C4.84429 23.0518 4.66565 23.0164 4.58138 22.8478Z" fill="#EB593D"/>
<path d="M9.43833 13.4009C9.08948 13.6723 8.6395 13.4178 8.21144 13.4144C7.88786 13.4144 7.33677 13.5206 7.23733 13.9049C7.14633 14.2521 7.49855 14.3246 7.74292 14.5067C8.35132 14.9567 8.7541 15.6866 9.36081 16.1012C9.63383 16.29 10.0012 16.3473 10.2456 16.081C10.4141 15.8888 10.3686 15.6883 10.399 15.4523C10.4412 15.1414 10.5281 14.8383 10.6568 14.5522C10.8135 14.1527 10.7444 13.5172 10.3652 13.2357C10.1377 13.0621 9.72483 13.1801 9.43833 13.4009Z" fill="#EB593D"/>
<path opacity="0.2" d="M30.5897 25.8672C24.9204 35.6891 14.1092 39.9249 6.23544 35.3806C0.55935 29.9109 -2.63092 19.8632 2.79911 10.3094C8.40442 0.448755 20.392 -2.22457 29.2684 1.8697C34.8063 7.2787 35.5597 17.2708 30.5897 25.8672Z" fill="white"/>
<path opacity="0.2" d="M23.2659 20.0037C19.6172 26.3246 12.5525 29.0771 7.48645 26.1526C2.42044 23.2282 1.27275 15.7324 4.92311 9.41151C8.57347 3.09061 15.6349 0.338065 20.7009 3.26254C25.7669 6.18701 26.9146 13.6828 23.2659 20.0037Z" fill="white"/>
<path opacity="0.2" d="M17.8909 14.2637C15.8534 17.7933 11.9081 19.3322 9.08017 17.6989C6.25224 16.0656 5.61014 11.8786 7.64767 8.349C9.6852 4.81941 13.6305 3.28217 16.4584 4.91549C19.2863 6.54881 19.9284 10.7341 17.8909 14.2637Z" fill="white"/>
<defs>
<linearGradient id="paint0_linear_1_8159" x1="-0.0889173" y1="15.5079" x2="41.4962" y2="15.9335" gradientUnits="userSpaceOnUse">
<stop stop-color="#EC526E"/>
<stop offset="1" stop-color="#EC593D"/>
</linearGradient>
</defs>
</svg>
