<svg width="75" height="75" viewBox="0 0 75 75" fill="none" xmlns="http://www.w3.org/2000/svg">
<path d="M73.5686 29.7393C73.1014 31.6175 72.3399 33.4321 72.264 35.3953C72.2064 36.9549 71.8363 38.1262 71.0171 39.0092C70.6986 39.3551 69.8036 39.0092 69.479 38.4964C68.9541 37.6862 69.8188 36.0689 68.7933 35.8656C67.5161 35.6138 66.8001 35.8656 66.342 37.5375C65.8596 39.2792 67.0185 40.7539 67.5555 42.3925C67.6799 42.7657 68.0349 43.2815 67.2825 43.3847C66.1508 43.5394 64.6157 42.8233 64.1697 41.7097C63.8967 41.024 62.7681 41.3092 62.3919 40.8541C61.8489 40.1956 61.8731 39.4431 61.2724 39.6403C60.7901 39.789 60.4594 40.2472 60.0195 40.5112C59.1761 41.0149 57.8654 42.7202 56.8552 42.5745C53.0568 42.0283 51.1515 42.1558 48.685 43.0539C47.9326 43.327 47.3714 42.8385 46.8071 42.9477C46.0881 43.0873 45.7119 42.5229 45.1961 42.2407C45.0626 42.6079 44.7835 43.2178 45.096 43.6365C45.3539 43.9764 45.9606 43.94 46.4976 43.94C47.1317 43.94 47.8993 44.2829 48.685 44.8503C49.0764 45.1537 49.9289 45.0202 50.3112 44.9595C51.6552 44.7441 52.3863 44.0219 53.8274 44.6136C55.3443 45.2205 56.4456 46.0822 56.4062 47.8937C56.3758 49.1772 56.6337 50.5275 56.4547 51.7352C55.9541 55.1094 55.2412 57.637 52.9931 60.5347C52.541 61.1143 52.447 62.3098 51.9676 62.8924C51.1789 63.8543 49.6983 64.6584 48.7882 65.5262C47.9933 66.2848 47.3228 67.5319 46.437 68.16C44.8594 69.2827 44.5681 70.0868 43.1817 69.4253C42.3959 69.0491 41.0246 66.9979 40.4997 66.2514C39.7577 65.2259 39.2341 64.0589 38.9616 62.8226C38.8454 62.15 38.7684 61.4712 38.731 60.7896C38.5884 59.324 38.0848 58.8386 36.9532 58.0436C35.8216 57.2486 35.4878 56.5446 34.7263 55.3976C33.6736 53.8137 32.2234 53.8471 30.7824 52.9064C30.4662 52.7304 30.1907 52.4897 29.9738 52.2001C29.7568 51.9104 29.6033 51.5783 29.5233 51.2254C29.4353 50.8552 29.6538 49.4048 29.6598 49.071C29.6811 48.1941 29.4262 47.5023 29.4505 46.6678C29.5263 44.1402 33.2094 41.8129 35.233 40.9026C36.7074 40.2442 37.6601 40.6781 38.9373 40.6143C39.5441 40.584 40.5422 40.2806 41.1004 40.7812C41.4827 41.1271 42.0106 41.2516 42.4566 41.5307C43.0924 41.6855 43.7439 41.767 44.3982 41.7735C44.4195 41.7735 44.4316 41.7886 44.4498 41.7917C44.0483 41.5608 43.6668 41.2969 43.3091 41.0027C42.2108 40.0924 41.3219 39.0092 39.9719 38.4782C38.6218 37.9472 37.205 38.0958 35.7609 38.1747C34.3464 38.2221 32.933 38.0502 31.5712 37.665C30.127 37.2978 29.581 36.1175 29.4111 34.3272C29.3504 33.69 29.7691 32.7615 29.8176 32.0484C29.8965 30.9166 29.0652 30.1338 29.854 28.9018C30.6428 27.6699 31.5378 26.1072 32.8423 25.382C33.9891 24.7417 35.3513 24.5658 36.5345 24.0074C37.6594 23.444 38.7143 22.7505 39.6776 21.9411C41.2309 20.7 42.675 19.3103 44.3861 18.2786C48.2694 15.9331 52.9688 17.1286 56.9189 15.1836C58.8848 14.2156 61.0358 10.9598 63.4386 10.8809C57.971 5.4078 50.928 1.78331 43.2969 0.515625C44.0301 1.16973 44.6306 1.95884 45.0657 2.83992C45.8514 4.51488 45.1931 5.35235 44.3315 6.72387C43.4699 8.09539 44.286 9.5549 43.0209 10.6048C42.0804 11.3846 40.4512 11.6122 39.3287 12.0157C37.8785 12.5377 36.4314 13.0747 34.9751 13.5845C33.5189 14.0943 31.8563 14.5949 30.2636 14.3279C28.5494 14.0245 28.1672 13.2356 27.433 11.8701C27.2874 11.6 27.1569 10.0313 25.9161 9.97971C24.2748 9.91296 23.043 9.84317 22.0206 10.5229C20.6433 11.4332 20.2185 13.4115 19.8969 15.0228C19.4843 17.0831 20.4855 19.6259 19.2325 21.4647C18.4862 22.5601 17.1453 22.9818 15.8953 23.1244C13.4379 23.4279 11.0685 22.5176 8.63533 22.4903C6.67547 22.4903 5.2162 23.4006 4.83697 24.942C4.57302 26.0101 5.14035 27.1358 5.16462 28.2373C5.21561 29.7655 5.07805 31.2942 4.75505 32.7888C4.6337 33.3562 4.11795 34.0359 3.66287 33.6779C2.4569 32.7262 1.44105 31.5558 0.668474 30.2278C0.399723 31.6561 0.214345 33.0989 0.113281 34.5487C0.713437 34.8642 1.27107 35.2547 1.77279 35.7109C3.18959 36.9246 3.06824 39.2125 3.89648 40.8176C5.19496 43.2937 7.72822 43.6851 9.77302 45.2508C10.8743 46.0943 11.7814 47.1897 11.8967 48.6189C11.9635 49.3775 11.7481 49.9206 11.6297 50.6489C11.2748 52.8275 11.5933 54.4448 12.6279 56.4141C14.4482 59.8368 17.2939 63.1928 20.9861 64.5583C21.6384 64.798 22.591 65.0377 22.9338 65.5839C23.2766 66.1301 21.3987 66.8188 20.9497 67.101C19.7652 67.8406 18.4236 68.2917 17.033 68.4179C22.6453 72.0404 29.1304 74.082 35.8054 74.3277C42.4804 74.5735 49.098 73.0143 54.9614 69.8144C60.8248 66.6144 65.7169 61.8923 69.1223 56.1452C72.5278 50.3981 74.3206 43.8388 74.3119 37.1582C74.3119 34.6667 74.0629 32.1813 73.5686 29.7393ZM6.11725 39.0699C6.02778 38.7571 6.0122 38.4278 6.07174 38.108C6.09996 37.6084 6.01276 37.1089 5.8169 36.6485C5.7205 36.4683 5.67006 36.2672 5.67006 36.0628C5.67006 35.8585 5.7205 35.6574 5.8169 35.4772C6.19309 34.837 6.56019 35.6289 6.90908 36.0659C7.12297 36.3457 7.30036 36.6516 7.43697 36.9762C7.47155 37.0597 7.49895 37.146 7.51888 37.2341C7.54228 37.5337 7.5104 37.8351 7.42483 38.1232C7.28107 38.6819 7.29789 39.2698 7.47337 39.8193C7.52495 39.9802 7.69788 40.2533 7.54619 40.2563C6.88784 40.2806 6.33872 39.6282 6.11725 39.0699ZM9.04187 43.2967C8.95692 43.3513 9.00243 43.0115 8.64747 42.7687C8.18936 42.4653 7.39146 42.0739 7.28528 41.4731C7.21246 41.0665 7.49461 40.8662 7.86474 40.7114C8.10138 40.6143 8.11048 40.848 8.25004 41.1271C8.38959 41.4063 8.72332 41.4943 8.97512 41.734C9.35739 42.1042 9.49088 43.0145 9.04187 43.2967ZM19.1931 26.1982C18.9614 26.7132 18.805 27.259 18.7289 27.8186C18.6743 28.2434 18.7714 28.6045 18.4528 28.9504C18.0129 29.4298 17.3516 29.3266 16.8601 28.9868C15.777 28.2221 15.0428 26.9265 13.9567 26.1163C13.5137 25.7886 12.8797 25.6581 13.0465 25.033C13.2255 24.3412 14.2176 24.144 14.8001 24.15C15.5707 24.15 16.3807 24.6143 17.0087 24.1258C17.5184 23.7283 18.2617 23.5189 18.6804 23.8223C19.3509 24.3351 19.4752 25.4912 19.1931 26.1982ZM57.9929 61.6999C57.6227 62.2886 57.6167 63.6085 56.8976 64.2306C56.1786 64.8526 55.0773 64.8647 54.3796 65.156C53.4057 65.5566 53.342 64.1486 53.6332 62.7741C53.8517 61.7485 55.3838 61.354 56.0815 60.5408C56.7417 59.7726 57.2697 58.8999 57.644 57.9586C57.8048 57.5368 57.9473 56.6842 58.2871 57.0483C59.5189 58.4077 58.906 60.2556 57.9929 61.709V61.6999Z" fill="url(#paint0_linear_1_8171)"/>
<path d="M44.3912 18.2944C42.6801 19.3261 41.236 20.7219 39.6827 21.9569C38.7194 22.7663 37.6645 23.4598 36.5396 24.0233C35.3564 24.5816 33.9942 24.7576 32.8474 25.3978C31.5429 26.123 30.654 27.6705 29.8591 28.9176C29.0642 30.1647 29.9016 30.9324 29.8227 32.0642C29.7741 32.7773 29.3555 33.7058 29.4162 34.343C29.586 36.1485 30.1321 37.3288 31.5762 37.6808C32.9381 38.066 34.3515 38.238 35.766 38.1906C37.2101 38.1056 38.5935 37.9448 39.9769 38.494C41.3604 39.0432 42.225 40.1174 43.3142 41.0186C43.6719 41.3127 44.0534 41.5766 44.4549 41.8075C44.4367 41.8075 44.4245 41.7893 44.4033 41.7893C43.7489 41.7828 43.0975 41.7014 42.4617 41.5465C42.0248 41.2674 41.4878 41.143 41.1055 40.7971C40.5473 40.2964 39.5552 40.5998 38.9424 40.6302C37.6621 40.6939 36.7125 40.26 35.2381 40.9184C33.2145 41.8287 29.5314 44.1409 29.4556 46.6837C29.4313 47.5181 29.6862 48.2008 29.6649 49.0869C29.6649 49.4176 29.4404 50.871 29.5284 51.2412C29.6084 51.5942 29.7619 51.9263 29.9789 52.2159C30.1958 52.5055 30.4713 52.7462 30.7874 52.9223C32.2225 53.8629 33.6726 53.8326 34.7314 55.4134C35.4929 56.5604 35.8358 57.2644 36.9583 58.0594C38.0808 58.8544 38.5935 59.3399 38.7361 60.8055C38.7735 61.487 38.8505 62.1658 38.9667 62.8385C39.2392 64.0747 39.7627 65.2417 40.5048 66.2673C41.0297 67.0016 42.401 69.0649 43.1867 69.4412C44.5732 70.1027 44.8645 69.2986 46.4421 68.1758C47.3279 67.5477 47.9984 66.3006 48.7933 65.542C49.7034 64.6742 51.1839 63.8701 51.9727 62.9082C52.4521 62.3257 52.5461 61.1301 52.9982 60.5506C55.2523 57.6437 55.9592 55.1161 56.4598 51.751C56.6388 50.5373 56.3809 49.1931 56.4112 47.9095C56.4507 46.0889 55.3342 45.2424 53.8325 44.6294C52.3914 44.0377 51.6603 44.7599 50.3163 44.9753C49.934 45.036 49.0815 45.1574 48.6901 44.8661C47.9044 44.2865 47.1368 43.9558 46.5027 43.9558C45.9657 43.9558 45.359 43.9892 45.1011 43.6524C44.7977 43.2336 45.0677 42.6237 45.2012 42.2566C45.717 42.5388 46.0932 43.1031 46.8122 42.9636C47.3765 42.8543 47.9377 43.3429 48.6901 43.0698C51.1566 42.1595 53.0619 42.0442 56.8603 42.5903C57.8705 42.736 59.1811 41.0307 60.0245 40.527C60.4645 40.26 60.7951 39.8048 61.2775 39.6561C61.8843 39.4711 61.854 40.2236 62.397 40.8699C62.7732 41.325 63.9139 41.0398 64.1748 41.7256C64.6208 42.8392 66.1559 43.5462 67.2876 43.4005C68.0399 43.2973 67.685 42.7936 67.5606 42.4083C67.0145 40.7667 65.8556 39.292 66.3471 37.5534C66.8052 35.8784 67.5212 35.6296 68.7984 35.8814C69.8238 36.0847 68.9592 37.702 69.4841 38.5122C69.8147 39.025 70.6976 39.3709 71.0222 39.025C71.8413 38.1359 72.2115 36.9708 72.2691 35.4111C72.345 33.4479 73.1065 31.6334 73.5737 29.7551C72.1224 22.6178 68.6012 16.0661 63.4497 10.918C61.0469 10.9969 58.899 14.2557 56.93 15.2207C52.9739 17.1444 48.2745 15.9489 44.3912 18.2944Z" fill="#EB526E"/>
<path d="M57.6434 57.9563C57.2691 58.9045 56.739 59.7834 56.0749 60.5567C55.3771 61.3699 53.845 61.7705 53.6266 62.79C53.3232 64.1646 53.399 65.5725 54.3729 65.172C55.0798 64.8685 56.1932 64.8534 56.891 64.2465C57.5888 63.6396 57.6161 62.3045 57.9862 61.7159C58.8964 60.2624 59.5031 58.4145 58.2896 57.0551C57.9468 56.6728 57.8102 57.5254 57.6434 57.9563Z" fill="#EB526E"/>
<path d="M22.9519 65.5713C22.6091 65.0251 21.6565 64.7854 21.0042 64.5457C17.312 63.1802 14.4541 59.8243 12.646 56.4015C11.6114 54.4444 11.2929 52.8271 11.6478 50.6363C11.7662 49.9081 11.9816 49.3649 11.9148 48.6063C11.7904 47.1772 10.8833 46.0818 9.79113 45.2382C7.74632 43.6725 5.21307 43.2811 3.91458 40.8051C3.07421 39.1999 3.19556 36.9029 1.7909 35.6983C1.28918 35.2422 0.731543 34.8516 0.131387 34.5361C0.0737445 35.4009 0.0312708 36.2687 0.0312708 37.1457C0.0246901 43.363 1.57967 49.4824 4.55348 54.9422C7.52728 60.4019 11.8246 65.0271 17.0511 68.3932C18.4417 68.2669 19.7833 67.8159 20.9678 67.0763C21.4168 66.8063 23.2735 66.0871 22.9519 65.5713Z" fill="#EB526E"/>
<path d="M3.6745 33.6842C4.12958 34.0422 4.64533 33.3625 4.76668 32.7951C5.08968 31.3005 5.22724 29.7718 5.17625 28.2436C5.15805 27.1361 4.58465 26.0103 4.85466 24.9423C5.23389 23.4069 6.69317 22.4784 8.65303 22.4905C11.0801 22.4905 13.4556 23.4008 15.913 23.1247C17.1629 22.976 18.5039 22.5603 19.2502 21.4649C20.5032 19.6261 19.502 17.0833 19.9146 15.023C20.2362 13.4118 20.661 11.4364 22.0383 10.5231C23.0607 9.84341 24.2925 9.91623 25.9338 9.97995C27.1625 10.0315 27.2929 11.6003 27.4507 11.8703C28.1849 13.2358 28.5671 14.0369 30.2813 14.3282C31.868 14.5952 33.5184 14.1006 34.9928 13.5847C36.4673 13.0689 37.8962 12.5379 39.3464 12.016C40.4689 11.6124 42.0981 11.3848 43.0385 10.605C44.3037 9.55515 43.5027 8.07743 44.3492 6.72411C45.1956 5.3708 45.8661 4.51512 45.0834 2.84017C44.6483 1.95909 44.0478 1.16997 43.3146 0.515868C33.7326 -1.09822 23.8997 1.10912 15.9265 6.66412C7.95324 12.2191 2.47515 20.679 0.667969 30.2281C1.44351 31.5592 2.46359 32.7318 3.6745 33.6842Z" fill="#EB526E"/>
<path d="M7.46738 39.8281C7.2919 39.2786 7.27507 38.6906 7.41884 38.1319C7.5044 37.8438 7.53628 37.5425 7.51289 37.2429C7.49296 37.1547 7.46555 37.0684 7.43097 36.9849C7.29436 36.6603 7.11697 36.3544 6.90308 36.0746C6.55419 35.6377 6.1871 34.8609 5.8109 35.486C5.7145 35.6661 5.66406 35.8673 5.66406 36.0716C5.66406 36.2759 5.7145 36.4771 5.8109 36.6572C6.00676 37.1177 6.09396 37.6171 6.06574 38.1167C6.00621 38.4366 6.02179 38.7659 6.11125 39.0786C6.33272 39.6369 6.88185 40.2924 7.53412 40.2742C7.69188 40.262 7.51895 39.9889 7.46738 39.8281Z" fill="#EB526E"/>
<path d="M8.24971 41.1256C8.11015 40.8464 8.10105 40.6128 7.86441 40.7099C7.49428 40.8616 7.21213 41.0649 7.28495 41.4715C7.39113 42.0784 8.1951 42.4516 8.64714 42.7672C9.0021 43.0099 8.95052 43.3497 9.04154 43.2951C9.49054 43.0129 9.34492 42.1026 8.97479 41.7355C8.72298 41.4927 8.4014 41.429 8.24971 41.1256Z" fill="#EB526E"/>
<path d="M16.9886 24.1243C16.3606 24.6128 15.5506 24.1546 14.78 24.1485C14.1975 24.1485 13.2054 24.3397 13.0264 25.0315C12.8626 25.6566 13.4967 25.7871 13.9366 26.1148C15.0318 26.925 15.7569 28.2388 16.8491 28.9853C17.3405 29.3251 18.0019 29.4283 18.4418 28.9489C18.7452 28.6029 18.6633 28.2419 18.7179 27.817C18.794 27.2574 18.9504 26.7117 19.1821 26.1967C19.4642 25.4776 19.3398 24.3336 18.6572 23.8269C18.2477 23.5144 17.5044 23.7268 16.9886 24.1243Z" fill="#EB526E"/>
<path opacity="0.2" d="M55.0669 46.5703C44.8611 64.2513 25.399 71.8766 11.2249 63.696C1.00693 53.8496 -4.73613 35.762 5.0389 18.5634C15.1294 0.812523 36.7091 -3.99993 52.6884 3.37047C62.6576 13.1076 64.0137 31.0952 55.0669 46.5703Z" fill="white"/>
<path opacity="0.2" d="M41.8854 36.0115C35.3171 47.3903 22.5993 52.3454 13.4796 47.0808C4.35985 41.8162 2.29381 28.3225 8.8651 16.9438C15.4364 5.56503 28.1482 0.609963 37.2679 5.87453C46.3876 11.1391 48.4536 24.6328 41.8854 36.0115Z" fill="white"/>
<path opacity="0.2" d="M32.208 25.6793C28.5401 32.0332 21.4379 34.8036 16.3471 31.8633C11.2563 28.923 10.1004 21.3858 13.7684 15.0319C17.4363 8.67797 24.5385 5.91065 29.6293 8.85092C34.72 11.7912 35.8759 19.3254 32.208 25.6793Z" fill="white"/>
<defs>
<linearGradient id="paint0_linear_1_8171" x1="-0.159297" y1="27.9158" x2="74.7012" y2="28.6819" gradientUnits="userSpaceOnUse">
<stop stop-color="#EC526E"/>
<stop offset="1" stop-color="#EC593D"/>
</linearGradient>
</defs>
</svg>
